<?xml version="1.0" encoding="utf-8"?>
<!-- Generator: Adobe Illustrator 24.0.2, SVG Export Plug-In . SVG Version: 6.00 Build 0)  -->
<svg version="1.1" id="Layer_1" xmlns="http://www.w3.org/2000/svg" xmlns:xlink="http://www.w3.org/1999/xlink" x="0px" y="0px"
	 viewBox="0 0 1024 1024" style="enable-background:new 0 0 1024 1024;" xml:space="preserve">
<style type="text/css">
	.st0{fill:#161616;}
	.st1{fill:#F6D44C;}
	.st2{fill:#EF824D;}
	.st3{fill:#99D3E6;}
	.st4{fill:#4CBEB2;}
	.st5{fill:#C2C2C2;}
	.st6{fill:#FFFFFF;}
	.st7{fill:#7F8080;}
	.st8{fill:#8B5D39;}
	.st9{fill:#C0D456;}
	.st10{fill:#48B0DE;}
	.st11{fill:#E76B5A;}
	.st12{fill:#F8C6A5;}
	.st13{fill:#F0B067;}
	.st14{fill:#C5C5C5;}
	.st15{fill:#9570B2;}
	.st16{fill:#C6C370;}
</style>
<g>
	<path class="st0" d="M94.3,291.3c0.1,0.3,0.5,0.4,0.7,0.2c0.1-0.1,0.2-0.2,0.3-0.4c3.5-22.8,12.2-43.3,23.8-63.1
		c0.6-1,0.7-2.2,0.3-3.2c-7.4-20.2-16.5-44.1-27-71.4c-2.3-6-3.6-9.8-3.8-11.2c-1.7-10.4,3.9-18.7,13.6-22.2
		c29.5-10.9,65.4-24,107.5-39.2c2.4-0.9,4.8-1.7,7.2-2.3c0.4-0.1,0.9,0.1,1,0.5l19.6,51.6c0.2,0.5,0.7,0.7,1.2,0.6
		c0.1,0,0.1,0,0.1-0.1c15.9-9.6,31.6-17.6,46.9-24.1c0.4-0.2,0.6-0.7,0.5-1.1c0,0,0,0,0-0.1c-3.1-6-3.5-11.7-1.1-17.1
		c4.4-10,14.3-14.3,25.1-11.3c0.4,0.1,0.9,0,1.2-0.4c15.9-17.9,42-11.6,50.1,10.4c0.2,0.6,0.8,1,1.4,1c25.1-0.2,49.5,3.8,73.2,12
		c14.9,5.2,29.1,11.6,42.6,19.4c18.6,10.7,36.8,21,55.7,27.1c24.4,7.9,49.7,9.8,75.8,5.7c0.4-0.1,0.7-0.5,0.6-0.9c0,0,0,0,0,0
		c-0.6-3.7-0.2-7.5,1.1-11.3c0.2-0.6,0-1.3-0.6-1.6c-14.1-7.5-19.5-25.1-10.6-38.8c5.9-9.1,16.1-12.9,26.7-11.6
		c0.6,0.1,1.2-0.3,1.4-0.9c4-10.6,10.7-17,20.2-19.3c13.3-3.3,25.6,2.4,31.6,14.7c0.2,0.5,0.8,0.7,1.3,0.5c0,0,0,0,0,0
		c9.2-4.6,17.6-4.7,25-0.3c10.7,6.3,15.3,19.4,9.9,31c-0.2,0.5-0.1,1.1,0.4,1.5c4.5,3.5,7.7,8,9.6,13.7c0.1,0.4,0.5,0.7,1,0.8
		c15.2,1.6,28.4,2.8,42.1,7.1c0.4,0.1,0.9-0.1,1.1-0.6c0-0.1,0.1-0.3,0-0.5c-5.5-22,6.3-44.1,26.1-54.1c19.6-9.9,42.5-6.8,58.2,9
		c0.3,0.3,0.8,0.4,1.2,0.2c18.9-10.5,42.5-1.2,49.1,19.2c3.1,9.6,1.4,21.1-4.9,28.3c-1.1,1.3-1.9,2.3-2.4,2.9
		c-0.3,0.4-0.5,1-0.5,1.5c-0.2,3,0.1,5.9-0.8,8.7c-4,12.8-17.9,17.8-29.7,12.3c-0.6-0.3-1.4-0.1-1.9,0.4
		c-7.8,8.6-17.3,11.9-28.5,9.7c-0.4-0.1-0.7-0.1-0.8,0.1c-0.4,0.3-0.4,0.5-0.1,0.8c51.3,49.6,61.6,122.7,41.9,189.2
		c-2.2,7.4-5.2,16.3-8.9,26.6c-1.2,3.4-2.7,9.7-4.5,18.9c-1.7,8.8-2.8,15.2-3.3,19.2c-2.2,17.3-1.6,34.2,2.1,50.8
		c0.1,0.4,0.4,0.6,0.8,0.5c0.2,0,0.3-0.1,0.4-0.2l29-35.8c0.6-0.8,1.8-0.9,2.6-0.3c0,0,0,0,0,0l82.5,66.8c0.8,0.6,0.9,1.7,0.3,2.5
		c0,0,0,0,0,0l-60.1,74.3c-0.4,0.6-0.5,1.3-0.1,1.9c12.4,18.6,23.7,37,31,57.4c1.9,5.2,3.6,12.8,5.2,23c2.5,15.2,0.8,32.6-1.9,48.3
		c-0.1,0.8,0.2,1.6,0.9,2l27.1,16.3c0.7,0.4,0.9,1.4,0.5,2.1l-22.7,36.8c-0.3,0.5-0.4,1-0.3,1.5c9.7,41.8-2.6,85.9-28,119.9
		c-23.5,31.4-59.4,54.9-98.7,61.1c-5.8,0.9-15.3,1.4-28.6,1.4c-300.1-0.2-495.9-0.1-587.4,0c-9.1,0-15.7-0.3-19.7-0.8
		c-27.4-3.8-54.2-15.6-75.5-33.4c-29.3-24.5-48.6-55.1-57.7-92c-6-23.9-6.8-48.5-2.5-73.7c0.1-0.4-0.2-0.8-0.6-0.9c0,0-0.1,0-0.1,0
		h-8c-1.1,0-2-0.9-2-2l0,0v-11.7c0-0.5,0.2-1,0.6-1.3L60.4,733c0.5-0.5,0.7-1.2,0.6-1.9c-3.7-26.8-1-52.9,9.9-77.8
		c0.1-0.3,0-0.6-0.3-0.7c-0.1-0.1-0.3-0.1-0.4,0c-6.8,2.4-12.4,1.9-16.8-1.5c-2-1.6-4.7-6.4-8.1-14.6
		c-12.9-30.7-26.1-61.4-39.7-92.3c-4-9,0.5-19.9,9.3-24c13.2-6,38.7-17.2,76.6-33.4c0.6-0.3,1.4,0,1.6,0.7l3.1,7.1
		c0.2,0.5,0,1.1-0.5,1.4l-3,1.3c-0.5,0.2-0.8,0.8-0.6,1.4c0,0,0,0,0,0l7.4,16.9c0.4,0.9,1.4,1.3,2.2,0.9l4.5-1.7
		c0.6-0.2,1.3,0.1,1.6,0.7l18.2,41.6c0.1,0.3,0.5,0.5,0.9,0.3c0.1-0.1,0.3-0.2,0.3-0.3c19-36.4,18.3-75.3,0.8-112.1
		c-10.5-22.2-15.9-33.5-16.1-33.9c-4.1-9.2-6.9-16.3-8.4-21.4c-1.7-5.7-3.5-12.1-5.4-19c-0.2-0.8-0.8-1.6-1.5-2
		c-1.7-0.9-3.1-2.5-4.3-4.7C84,349.4,68.2,321.7,44.7,281c-2.9-5.1-3.8-10-2.5-14.7c3.2-12.5,19.4-18,29.5-10.5
		c2.3,1.7,5.3,5.9,9.1,12.5C86.4,278.1,90.9,285.7,94.3,291.3L94.3,291.3z"/>
	<path class="st1" d="M309.9,119.3c-2.3,1.5-4.7,2-7.4,1.6c-6-0.9-9.5-4.5-10.3-10.2c-0.4-3-3.5-3.9-4.6-6.7
		c-3.2-7.9-2.1-14.6,3.2-20.2c5.1-5.3,11.8-6.7,20.2-4.2c0.4,0.1,0.8,0,1.2-0.3c1.2-1.2,2-2.7,3.3-4c6.3-5.8,13.6-7.9,22-6.3
		c11.7,2.3,19.1,9.1,22,20.4c1.4,5.3,1,10.1-1.1,14.6c-3.8,7.9-10.8,10-19,9.6c-0.9,0-1.7,0.4-2.2,1.1c-6,8.7-17.6,12.9-25.8,4.6
		C310.9,119.1,310.3,119,309.9,119.3z"/>
	<path class="st2" d="M695.7,182.9c0.2,0.3,0,0.7-0.3,0.8c-0.1,0.1-0.3,0.1-0.5,0c-6.6-2.3-11.5-6.7-14.8-13.3
		c-0.3-0.5-0.9-0.7-1.4-0.5c0,0,0,0-0.1,0c-10.7,6.3-20.1,4.7-28.2-4.7c-0.6-0.6-1.5-0.8-2.2-0.3c-5.4,3.7-10.9,5.1-16.5,4.4
		c-6.2-0.8-11.1-3.6-14.7-8.4c-4.5-6-5.2-13.3-2.1-22c0.3-0.7-0.1-1.6-0.8-1.9c-13-6.3-19-20.5-12.6-33.9
		c3.7-7.7,12.8-12.2,21.3-12.2c2.8,0,4.8,0,6,0.1c0.5,0,0.9-0.2,1.2-0.6c0.5-0.8,1.2-2.4,2-4.8c0.1-0.2,0.2-0.5,0.3-0.7
		c5.2-10.5,17.7-17.5,29.4-15c8.3,1.8,14.1,7,17.5,15.7c0.3,0.7,1.1,1.1,1.9,0.8c0.1,0,0.1,0,0.2-0.1c4.8-2.6,9.4-4.5,14.9-4.1
		c7.9,0.5,13.8,4,17.6,10.4c2.6,4.4,3.9,12.2,1.6,18c-0.4,1.1-0.9,2.3-1.4,3.8c-0.2,0.7,0,1.5,0.7,2c7,4.7,10.4,11.5,10.1,20.6
		c-0.5,14.4-14,22.6-27,20.6c-0.8-0.1-1.5,0.3-1.8,1C691.9,167,691.8,175.1,695.7,182.9L695.7,182.9z"/>
	<path class="st3" d="M815,158.2c-22,8.6-43.1-7.8-43.1-30.8c0-30.6,25.6-51.8,55.5-48.2c10,1.2,20.3,6.6,26.9,14
		c0.5,0.6,1.4,0.8,2.1,0.4c10.6-5.4,20.8-5.8,30.5-1.2c18.8,8.8,23.8,32.7,9.6,48c-0.7,0.8-1.1,1.8-1.1,2.9
		c0.3,8.2-2.1,14.8-9.5,18.5c-4.8,2.4-9.9,2.8-15.3,1.2c-2.7-0.8-4.2-1.2-4.5-1.4c-0.4-0.2-0.8-0.1-1.1,0.1
		c-1.1,0.9-2.1,2.7-3.1,3.5c-14.4,12.5-34.1,8.2-44.9-6.5C816.5,158.1,815.7,157.9,815,158.2L815,158.2z"/>
	<path class="st4" d="M101.4,142.4c0.7,0.7,1.4,1,2.3,1c1.4,2.1,3.2,3.5,5.4,4.4c0.2,0.1,0.3,0.3,0.2,0.5c0,0.1-0.1,0.2-0.2,0.2
		c-15.8,6-25.6-12.6-12.5-22.8c2.4-1.8,5.1-3.3,8.2-4.4c24.8-9,49.1-17.9,72.8-26.7c7.7-2.9,15.3-4.7,23.8-8.3
		c5.5-2.3,9.8-4,12.9-5.1c0.8-0.3,1.7,0.1,2,1l45.6,120.3c0,0.1,0,0.2-0.1,0.3c0,0-0.1,0-0.1,0h-5.6c-0.2,0-0.4-0.1-0.5-0.3
		c-5.7-13.2-10.6-25.4-14.7-36.6c-7.9-21.4-12.1-32.8-12.7-34.2c-2.6-6.2-7.4-18.9-14.6-38c-0.7-1.8-1.4-3.2-2.1-4.3
		c-0.4-0.6-1.1-0.8-1.7-0.6c-2.9,0.9-5.7,1.8-8.4,2.9c-9.2,3.6-19.6,7.4-31.1,11.3c-20.5,7.1-34.6,12.4-62,22.2
		c-5.7,2-9.4,5.2-11,9.6C95.8,139.1,97.1,141.7,101.4,142.4L101.4,142.4z"/>
	<path class="st5" d="M860.6,707.1c-0.2,0.3-0.6,0.5-1,0.3c0,0-0.1-0.1-0.1-0.1l-14.7-14.1c-1.1-1-2.5-1.6-4-1.6h-58.3
		c-0.6,0-1.1-0.3-1.4-0.8l-5.5-9.5c-0.2-0.4-0.1-0.9,0.3-1.2c0.1,0,0.1-0.1,0.2-0.1c6-1.6,13.2-4.5,15-11
		c3.6-13.2-2.5-23.7-5.8-33.7c-2-6.2-1.6-12.8-0.3-20.5c1.2-7.2,1.2-14.6,0-22.1c-0.1-0.4,0.2-0.7,0.6-0.8c0,0,0.1,0,0.1,0
		c5.2,0.2,13.2,0.1,24.2-0.1c10.8-0.2,16.5,0.2,23-6.2c5.5-5.6,6.2-11.1,6.2-19.6c0-106.1,0-218.3-0.1-336.8c0-5.5-0.3-9.2-1-11.3
		c-2.7-8.5-10.2-15.1-19.5-15c-13.1,0.1-23.1,0.2-29.8,0.2c-226.4-0.1-397.1,0-512.2,0.1c-4.3,0-7.9-0.1-10.9-0.2
		c-0.5,0-1-0.4-1.2-0.8l-25.4-67c-0.2-0.7,0-1.4,0.6-1.8c15.2-9.5,30.9-17.7,47-24.7c1.1-0.5,2.3,0,2.8,1.1c0,0.1,0.1,0.2,0.1,0.2
		c0.6,2,0.9,4.7,1.8,6.3c3.9,6.8,9.8,8.7,17.6,5.6c0.4-0.2,0.9-0.2,1.3,0c1.8,0.6,3.7,2.4,5.5,3c6.6,2.3,12.7,1.3,18.4-3.1
		c0.5-0.4,2-2.1,4.6-5.3c0.3-0.3,0.6-0.5,1.1-0.6c2.2-0.3,5.5-0.2,8.3-1c11.2-3.1,14.8-12.4,13.9-23.5c0-0.3,0.2-0.6,0.6-0.7
		c0,0,0,0,0,0c23.8-0.4,47,3.2,69.4,10.7c15.8,5.3,30,11.6,42.9,18.9c18.2,10.4,28.8,16.7,44.7,23.4c28.8,12.2,58.9,16,90.2,11.2
		c0.7-0.1,1.3,0.3,1.6,0.9c1.9,4.4,4.3,8.9,8.2,11.6c9.2,6.4,18.7,6.7,28.4,1c0.4-0.2,0.8-0.2,1.2,0c0.3,0.2,1.6,1.1,3.9,2.9
		c7.3,5.5,15.3,6.4,23.8,2.7c0.7-0.3,1.6-0.1,2.1,0.6c4.6,6.8,10.9,10.8,19.2,11.9c0.5,0.1,0.9-0.3,1-0.8c0-0.2,0-0.4-0.1-0.6
		c-4.2-7.7-4.9-16-1.9-24.8c0.1-0.3,0.4-0.5,0.7-0.5c2.4,0.1,4,0.2,4.9,0.2c14.4,1,24.7-13.1,24.2-26.4c0-0.6,0.4-1.1,1-1.1
		c0,0,0.1,0,0.1,0c14.3,0.6,28.5,2.8,42.7,6.8c0.6,0.2,1.1,0.6,1.3,1.3c4.4,16,20.9,24.4,36.8,21.1c3-0.6,4.8-0.9,5.3-1
		c0.4-0.1,0.9,0.1,1.2,0.4c2.5,2.4,4.8,4.5,8.1,7.1c35.7,27.1,56.1,69.9,60.2,113.7c2.7,28.5-0.7,57.5-9.7,85.1
		c-0.2,0.6-2.6,8.2-7.2,22.9c-12.3,38.9-13,79.5,0.7,117.7c5.7,16,13.4,31.2,23.1,45.6c16.8,25.1,28.4,42.2,34.9,51.6
		c0.1,0.2,2.3,3.7,6.5,10.7c9.7,16.2,17.4,34.1,20,52.8c2.3,16.5,1.2,32.5-1.6,49c0,0.3-0.3,0.5-0.6,0.4c-0.1,0-0.1,0-0.2-0.1
		l-69.1-41.6c-0.6-0.4-1.3-0.2-1.7,0.4L860.6,707.1L860.6,707.1z"/>
	<path class="st4" d="M103.9,141.8c-0.6,0.5-1.3,0.6-2.2,0.2c-6.2-7.9,4.2-13.6,11.1-15.9c5.8-1.9,11.9-4.1,18.3-6.4
		c26-9.7,52-18.9,78.1-27.8c0.6-0.2,1.2,0.1,1.4,0.7l0.9,2.4c0.2,0.5-0.1,1-0.5,1.2c0,0,0,0,0,0c-15.8,6-24.8,9.3-27,10
		c-18.3,5.9-34.5,12.2-52.4,18.3c-10.5,3.6-17.3,6-20.2,7.3C107.1,133.7,104.6,137,103.9,141.8z"/>
	<path class="st6" d="M211.9,98.7c0.6-0.2,1.3,0.1,1.6,0.7l38.8,102.4c0.2,0.4-0.1,0.9-0.5,1.1c-0.1,0-0.2,0.1-0.3,0.1h-7
		c-0.8,0-1.4-0.5-1.7-1.2l-33.3-87.9c-0.3-0.8-1.2-1.2-2-0.9c-24.8,8.9-53.6,19.4-86.3,31.4c-3.9,1.4-9.3,3.6-12.4,0.2
		c-4.5-4.8,0.3-9.4,5.1-11.1c29-10.2,53.4-19,73.3-26.3C194.7,104.5,202.7,102,211.9,98.7z"/>
	<path class="st0" d="M163.3,121.8l43-15.6c0.6-0.2,1.2,0.1,1.4,0.6l0,0c0.2,0.6-0.1,1.2-0.6,1.4l-43,15.6c-0.6,0.2-1.2-0.1-1.4-0.6
		l0,0C162.4,122.6,162.7,122,163.3,121.8z"/>
	<path class="st4" d="M93.8,149c5.5,3.6,11.3,4.2,17.5,1.8c21.7-8.2,43.5-16.1,65.2-23.9c10.7-3.8,19.5-7.4,29.5-10.7
		c0.9-0.3,1.9,0.2,2.2,1.1l32,84.5c0.2,0.5-0.1,1-0.5,1.2c-0.1,0-0.2,0.1-0.3,0.1c-15.3,0-30.9,0-46.7,0c-6.8,0-11.8,0.6-14.9,1.9
		c-8.5,3.5-12.8,10.6-12.7,21.4c0.1,15,0,32,0,51.1c0,0.4-0.2,0.8-0.6,1c-2.8,1.2-6.3,2-10.6,2.4c-10.2,0.9-12.8-4.8-15.7-13
		c-9.5-26.5-20.5-54.1-29.2-78.2c-2.3-6.4-7.5-19.8-15.5-40.4c-0.1-0.1,0-0.3,0.1-0.3C93.7,149,93.8,149,93.8,149L93.8,149z"/>
	<path class="st0" d="M314.3,140.6c0,4.5-3.7,8.2-8.2,8.2l0,0c-4.5,0-8.2-3.7-8.2-8.2l0,0c0-4.5,3.7-8.2,8.2-8.2l0,0
		C310.7,132.4,314.3,136,314.3,140.6L314.3,140.6z"/>
	<circle class="st1" cx="306.2" cy="140.5" r="6.1"/>
	<path class="st7" d="M103.9,141.8l-0.1,1.6c-0.9,0-1.6-0.4-2.3-1c0.4-0.2,0.5-0.4,0.3-0.4C102.5,142.4,103.2,142.3,103.9,141.8
		L103.9,141.8z"/>
	<path class="st0" d="M296.6,158.7c2.1-2.3,5.8-2.2,8.2,0c0,0,0,0,0,0c2.4,2.3,2.6,5.9,0.5,8.2c-2.1,2.3-5.8,2.2-8.2,0c0,0,0,0,0,0
		C294.7,164.6,294.5,160.9,296.6,158.7z"/>
	<circle class="st1" cx="301" cy="163" r="3.4"/>
	<path class="st0" d="M908.4,181.6c0,6.1-4.9,11-11,11c-6.1,0-11-4.9-11-11s4.9-11,11-11C903.4,170.5,908.4,175.5,908.4,181.6z"/>
	<ellipse transform="matrix(0.4399 -0.898 0.898 0.4399 339.5122 907.5074)" class="st3" cx="897.3" cy="181.6" rx="8.7" ry="9"/>
	<path class="st0" d="M901.9,207.1c1.1-3.9,5.3-6.1,9.3-4.9c4,1.2,6.3,5.3,5.2,9.1c-1.1,3.9-5.3,6.1-9.3,4.9
		C903.1,215.1,900.7,211,901.9,207.1z"/>
	<circle class="st3" cx="909.2" cy="209.2" r="5.2"/>
	<path class="st7" d="M168.4,554.5c-0.2,0.1-0.5,0-0.6-0.2c0-0.1,0-0.1,0-0.2c0-85.7,0-171.2,0-256.8c0-18.8,0-29.2,0-31.1
		c0.2-13.9-0.5-27.9-0.3-42c0.2-8.1,4.4-14.5,12-17.4c2.5-0.9,5.9-1.4,10.2-1.5c12-0.1,24.9,0,38.7,0.2c15.5,0.2,28.4,0.3,38.8,0
		c7.7-0.2,26.8-0.3,57.3-0.3c139.5,0,290.1,0,451.6,0c21.5,0,34,0,37.4,0c6.1,0.1,10.4,0.7,13.2,2.1c6.9,3.4,10.4,9.5,10.4,18.3
		c-0.4,71.5-0.4,128.1-0.2,169.8c0.1,18.2,0.1,30.9-0.2,38.2c-0.6,18.1,0.3,38,0.2,56.3c-0.2,27.3-0.2,52.5,0,75.6
		c0,2.4-0.1,4.7-0.3,7c-1.1,12.6-12.8,17.4-23.7,16.9c-9-0.4-17.4-0.3-25.3,0.3c-1.7,0.1-3.3-0.9-4-2.4l-3.2-7.3c-0.4-0.9,0-2,1-2.4
		c0.2-0.1,0.5-0.2,0.8-0.2c19.8,0.4,31.8,0.5,35.9,0.4c6-0.1,6.9-3.2,7-8.4c0.3-17.8,0.4-37.7,0.2-59.9c-0.1-9-0.1-18.6,0.1-28.9
		c0.2-13.7,0.2-23.4,0.2-28.9c-0.2-46.9-0.2-102.6-0.1-167c0.1-25.3-0.2-45.9-0.6-61.8c-0.1-4.9-4.6-5.8-9.3-5.8
		c-6.1,0.1-13.9,0.1-23.4,0.1c-114.8-0.2-288.6-0.2-521.1,0c-11.4,0-21.2-0.7-33.3-0.2c-3.4,0.1-20.6,0.2-51.7,0.1
		c-5.8,0-6.5,6.2-6.5,11.5c-0.2,83.3-0.2,184.2-0.1,302.5c0,6,0.5,13.3,0.1,19.9c0,0.5-0.4,0.8-0.8,0.8
		C175.1,552,171.7,552.9,168.4,554.5L168.4,554.5z"/>
	<path class="st6" d="M287.7,523.6c-0.4-1.6-0.7-2.7-0.9-3.2c-0.3-0.9-1.3-1.5-2.4-1.3c-1.2,0.1-2,0.8-2.4,2
		c-2.1,7.1-3.3,14.1-3.5,20.9c0,0.3-0.3,0.6-0.6,0.6c-0.2,0-0.3-0.1-0.4-0.2c-1.9-2.4-4-4.1-6.2-5c-1.7-0.7-3.5-0.3-4.2,1.1
		c-0.5,1-0.5,2.3,0.1,3.9c0.4,1.1,3.2,6.8,8.1,17.2c0.7,1.5,0.8,3.2,0.3,4.8l-3.2,9.9c-0.2,0.7-0.9,1.2-1.6,1.2h-36.3
		c-0.2,0-0.3-0.1-0.3-0.3c0-0.1,0-0.1,0.1-0.2c0.8-1.2,1.3-1.9,1.5-2.2c8.4-13.2-3.1-27.6-17.9-21.8c-0.4,0.1-0.7,0-0.9-0.4
		c0-0.1-0.1-0.2,0-0.3c0.5-3.4,0.2-5.7-0.9-7.1c-1.2-1.5-3.4-1.6-5.1-0.3c0,0,0,0,0,0c-8.6,7-17.2,8.2-28.6,8.5
		c-0.3,0-0.6-0.3-0.6-0.6c0,0,0,0,0,0c0-132.6,0-241.2,0-325.8c0-6.2,4.2-5.3,9.5-5.3c293.3,0,502.6,0,628,0c2.4,0,3.6,1.4,3.6,4.1
		c-0.2,107.2-0.2,223.3-0.2,348.1c0,2.3-0.9,3.4-2.6,3.4c-17.8,0.2-31.5,0.3-41,0.2c-1,0-1.9-0.4-2.5-1.2
		c-5.7-7-12.9-11.5-21.6-13.7c-17.4-4.4-33.8-2.8-49.2,4.9c-4.7,2.3-8.5,5.4-11.6,9.5c-0.2,0.3-0.5,0.4-0.9,0.4h-68.2
		c-0.5,0-0.9-0.4-0.9-0.9v-17.9c0-1.3-1.1-2.4-2.4-2.4l0,0H559c-0.9,0-1.6,0.7-1.6,1.6v19.2c0,0.3-0.2,0.6-0.6,0.6l0,0h-92.1
		c-0.6,0-1.1-0.4-1.1-1l-4.2-32.5c-0.1-0.4,0.2-0.8,0.7-0.9c0.1,0,0.3,0,0.4,0.1c8.2,4.1,15.6,1.1,23-4.1
		c6.7-4.6,16.1-11.6,28.1-20.9c0.5-0.4,1-0.6,1.6-0.6h27.5c1.8,0,3.4-1.2,4-2.9l2.3-7.1c0.2-0.5,0.5-0.8,1-0.9
		c4.3-0.9,6.1-2.9,5.2-6c-0.1-0.5,0.1-1.1,0.6-1.3c2.1-0.9,2.9-2.5,2.5-4.8c-0.1-0.6,0.1-1.2,0.6-1.5c2.1-1.7,2.6-3.5,1.6-5.4
		c-0.2-0.4-0.2-1,0.2-1.3c2.5-2.2,2.5-4.5,0-6.8c-0.3-0.3-0.5-0.8-0.3-1.2c2.6-7.9,5.5-16.5,9-25.9c1.6-4.4,1.2-6.9-2-9.8
		c-0.4-0.3-0.8-0.6-1.3-0.6c-0.9-0.1-3.2-0.2-6.7-0.2c-23.2,0.1-35.9,0.1-38.1,0.1c-3.5,0-7.1,1.6-8.2,4.7
		c-7.5,20.8-12.5,35-15.1,42.6c-0.3,0.8-0.8,1.5-1.5,1.9l-16.5,9.5c-0.3,0.2-0.7,0.1-0.8-0.2c0-0.1-0.1-0.1-0.1-0.2
		c-3.5-14.3-8.1-31.2-14-50.7c-3.4-11.5-7.6-21.1-18.5-27.2c-6.5-3.6-13.3-6.9-20.5-9.8c-0.6-0.2-1.1-0.8-1.2-1.5l-0.8-6.6
		c-0.1-0.5,0.3-1,0.8-1.1c11.5-1.7,20.7-4,27.7-6.8c2.4-1,4.1-3.5,5.2-7.4c1.3-4.8,2.3-10.7,2.9-17.7c0-0.3,0.3-0.5,0.5-0.5h25
		c0.3,0,0.5-0.2,0.5-0.5v-74.7c0-0.4-0.4-0.8-0.8-0.8h-38.6c-1,0-2-0.4-2.7-1.1c-10.4-10.5-23-14.8-37.7-13
		c-7.1,0.9-10.3,3.6-15.6,7c-0.3,0.2-0.7,0.3-1.1,0.4c-7.2,0.5-12.6,2-16.4,4.5c-12.6,8.3-18.2,22.5-21.4,36.6c-0.1,0.6-0.6,1-1.2,1
		l-20.6-0.1c-0.5,0-1,0.4-1,0.9c0,0,0,0.1,0,0.1v0c0,0.6,0.5,1,1.1,1l19.7-0.1c0.5,0,0.8,0.4,0.8,0.8c0,0.1,0,0.1,0,0.2
		c-3.8,15.7-6.8,31.3-2.3,46.6c5.3,18,22.3,23.9,39.5,24.8c0.6,0,1.1,0.5,1.1,1.1c0,3.4-1.6,5.6-4.8,6.6c-6.6,2.1-14,4.8-22.1,8.2
		c-16.5,6.8-22,19.5-27.4,35.3c-6,17.8-12.9,39.5-16.6,60.3c-2.3,12.7-2.1,26.9,12.1,32c6.7,2.4,15,1,23.8,0.1
		c0.6-0.1,1.1,0.3,1.2,0.9c0,0.1,0,0.2,0,0.3l-5.4,27.1c-0.1,0.7-0.7,1.1-1.4,1.1h-52.1c-0.4,0-0.7-0.3-0.7-0.7c0,0,0,0,0-0.1
		c0.4-5,0.9-7.9,1.4-8.7c2.8-4.7,4.6-8.4,5.4-11.1c2.9-9.9,5.3-17,5.4-22.6c0-2.1-1.9-4-3.8-2.2c-0.2,0.2-0.5,0.2-0.7,0
		c-0.1-0.1-0.1-0.1-0.1-0.2c-0.6-1.7,2.5-8.4-2.7-8.6c-0.2,0-0.4,0-0.6,0.1l-1.8,1c-0.2,0.1-0.4,0-0.5-0.1c0-0.1-0.1-0.1-0.1-0.2
		c0-2.6-0.6-4.1-1.8-4.5c-1.4-0.4-3,0.2-3.9,1.5c-0.5,0.7-1.2,2.2-2.1,4.4c-0.1,0.2-0.3,0.3-0.4,0.2
		C287.8,523.8,287.7,523.7,287.7,523.6L287.7,523.6z"/>
	<path class="st5" d="M100.7,371.1c-0.1-0.3,0.1-0.7,0.5-0.8c0.1,0,0.3,0,0.4,0.1l21.7,11.4c0.8,0.4,1.8,0.1,2.2-0.7
		c0.1-0.2,0.2-0.5,0.2-0.7l0.9-31.4c0-0.6-0.1-1.2-0.4-1.8l-29.1-50.4c-0.4-0.7-0.5-1.5-0.4-2.3c4.1-22.3,12-43.7,23.6-63.9
		c0.2-0.3,0.6-0.4,0.8-0.2c0.1,0.1,0.2,0.2,0.3,0.3c4.4,11.6,10,26.2,16.6,43.8c3.3,8.8,11.2,11,19.6,8.6c2.9-0.8,5.1-1.4,6.6-1.8
		c0.3-0.1,0.7,0.2,0.7,0.5c0,0,0,0.1,0,0.1v273.5c0,0.9-0.4,1.7-1.2,2.3c-3.7,2.7-5.9,5.2-6.5,7.5c-0.1,0.4-0.5,0.7-1,0.7l-5.1-0.2
		c-1.1,0-2,0.9-2.1,2c0,0.2,0,0.3,0.1,0.5l1.3,5.5c0.1,0.4,0,0.9-0.3,1.2c-1.5,2-3.3,3.8-4.6,5.9c-6.8,10.9-4.6,26.8,0.3,38
		c6.6,15.1,18.4,23.8,33.1,30c0.4,0.2,0.6,0.5,0.6,0.9v9.7c0,0.5-0.3,1-0.8,1.2l-7.8,3.4c-0.1,0-0.2,0.1-0.3,0.1
		c-9.3,2.2-18.9,5.6-25.4,12.4c-4.3,4.5-8.5,9.3-12.6,14.3c-0.3,0.3-0.7,0.5-1.1,0.5h-27.3c-0.9,0-1.7,0.3-2.3,0.9l-38.2,37.4
		c-0.1,0.1-0.3,0.1-0.5,0c0-0.1-0.1-0.1-0.1-0.2c-3.2-24.3-1.3-46.7,7.9-70.2c4.5-11.4,9-21.1,13.5-28.9c5.1-8.8,15.1-24.4,30-46.6
		c16.8-25.1,29.6-53.4,29.2-84.2c-0.3-26.1-10.9-52.1-23-75C111.9,407.2,104.5,387.9,100.7,371.1L100.7,371.1z"/>
	<path class="st6" d="M50.7,284.7c-0.6,0.3-1.3,0.1-1.7-0.5l-3-5.3c-4.4-7.8-1.7-17.6,6.1-22c0,0,0,0,0,0l0.8-0.5
		c7.7-4.4,17.6-1.6,22,6.1l3,5.3c0.3,0.6,0.1,1.3-0.5,1.7L50.7,284.7L50.7,284.7z"/>
	<path class="st4" d="M72.4,275.1l7-4c0.2-0.1,0.4,0,0.5,0.1l42.8,74.7c0.1,0.2,0,0.4-0.1,0.5l-7,4c-0.2,0.1-0.4,0-0.5-0.1
		l-42.8-74.7C72.2,275.4,72.2,275.2,72.4,275.1z"/>
	<path class="st4" d="M108.2,353.8c-1.4,0.8-2.6,1.9-3.6,3.2c-0.2,0.2-0.5,0.3-0.7,0.1c-0.1,0-0.1-0.1-0.1-0.2l-42.7-74.1
		c-0.3-0.5-0.2-1.1,0.3-1.4c0.1-0.1,1.4-0.8,3.9-2.3c2.6-1.5,3.9-2.2,4-2.3c0.5-0.2,1.1,0,1.4,0.5l42.5,74.2
		c0.1,0.2,0.1,0.5-0.2,0.7c-0.1,0-0.1,0.1-0.2,0.1C111.1,352.4,109.6,352.9,108.2,353.8L108.2,353.8z"/>
	<path class="st8" d="M430,286.9c0.5,0.5,1.3,0.8,2.4,1.1c2.3,0.7,4.1,1.5,5.2,2.6c2.4,2.2,4.7,4.3,6.8,6.2c0.5,0.4,1,0.9,1.3,1.5
		c2.4,3.4,4,5.9,4.6,7.5c2.6,6.2,4.4,11.6,5.4,16.2c1.3,6,0.6,12.5,0.8,17.8c0.2,7.4,0.3,16.2,0.2,26.3c-0.1,7.7-1.5,15.2-4.3,22.7
		c-0.4,1.2-1.4,2.2-2.5,2.7c-6,2.7-11.7,4.7-17.3,6.1c-0.7,0.2-1.3,0.2-1.8,0.2c-0.3,0-0.5-0.3-0.4-0.5c0-0.1,0.1-0.2,0.2-0.3
		c9-6.7,13.8-14.5,15.8-25.7c1.3-7.1,2-10.9,2.1-11.4c1.1-6.8,0.8-13.7,1.3-20.6c0-0.5,0.3-0.8,0.7-1l0.5-0.2
		c0.3-0.1,0.4-0.4,0.3-0.7c-0.1-0.1-0.1-0.2-0.3-0.3c-1.7-0.7-2.9-1.1-3.7-1.2c-15.2-1.3-30.3-5.8-40.9-16.4
		c-3.1-3.1-6.3-6.8-9.8-11c-0.3-0.3-0.6-0.5-0.9-0.6c-0.6-0.1-1.2,0.3-1.3,0.9c0,0.2,0,0.4,0.1,0.6l1.1,2.7c0.2,0.5,0.2,1,0.2,1.5
		c-0.3,1.7-0.9,4.5-1.8,8.2c-2.4,9.7-8.3,20.5-17,25.7c-0.7,0.4-1.5,0.3-2.1-0.1c-4.4-3.3-8.2-3.2-11.6,0.2
		c-0.5,0.5-1.4,2.1-2.6,4.8c-0.2,0.4-0.3,0.7-0.3,1.1c-0.9,7.9,2.1,13.8,9.1,17.7c0.4,0.2,1,0.3,1.4,0.1l1.9-0.8
		c0.5-0.2,1.2,0,1.4,0.5c4.1,8.9,7,15.9,14,21.6c0.3,0.3,0.5,0.6,0.6,1c0.3,2.4,0.1,4.4-0.6,6c-0.2,0.5-0.6,0.7-1.1,0.7
		c-6.3-0.1-12.2-1.4-17.7-3.9c-0.4-0.2-0.8-0.3-1.2-0.4c-5.7-1.3-10.3-4.3-13.7-9.1c-0.1-0.2-0.2-0.3-0.3-0.5l-4.1-9.7
		c0-0.1-0.1-0.2-0.1-0.3c-2.4-10.5-2.8-20.4-1.4-29.9c1-6.4,2.4-12.9,4.2-19.4c1.6-6.1,3.3-10.6,5-13.4c2.6-4.3,4.6-7.8,6.2-10.6
		c4.4-7.8,11-12.5,19.8-14.1c1.7-0.3,3.4-0.6,5.2-1c0.6-0.1,1.1-0.4,1.6-0.7c12.1-8.5,24.6-9.2,37.7-1.9
		C428.4,285.5,429,286,430,286.9z"/>
	<path class="st4" d="M101.8,358.8c-2.5,0.5-4.6,2-6.1,4.3c-0.2,0.3-0.5,0.3-0.8,0.1c-0.1,0-0.1-0.1-0.2-0.2l-43.3-75
		c-0.3-0.6-0.1-1.3,0.4-1.7l5.4-3.1c0.7-0.4,1.6-0.2,2,0.5c5,8.6,8.7,16,13.8,24.3c9.5,15.5,18.6,33.4,29.2,49.7
		c0.2,0.3,0.1,0.7-0.2,0.8C101.9,358.8,101.9,358.8,101.8,358.8L101.8,358.8z"/>
	<path class="st0" d="M550.7,357.1l38.9-68.4c0.2-0.4,0.7-0.5,1.1-0.3c0.1,0.1,0.2,0.2,0.3,0.3l38.7,68.5c0.2,0.4,0.1,0.9-0.3,1.1
		c-0.1,0.1-0.2,0.1-0.4,0.1l-77.6-0.1c-0.4,0-0.8-0.3-0.8-0.8C550.6,357.3,550.6,357.2,550.7,357.1L550.7,357.1z"/>
	<path class="st0" d="M877.7,431c-0.5,0.1-1-0.2-1.1-0.7c0-0.1,0-0.2,0-0.4l7.3-36.8c0.2-1.2,0.8-2.3,1.6-3.1
		c17.1-17.4,41.5-42.5,73.3-75.4c1.7-1.8,3-3.2,3.9-4.3c1.7-2.1,0.5-4.1,3.5-5.8c1.3-0.7,1.9-1.1,1.9-1.1c0.4-0.3,0.7-0.7,0.9-1.2
		c1.2-2.9,3.6-4.2,7.3-3.8c0.4,0,0.8-0.1,1.1-0.4c0.4-0.3,1.6-1.7,3.8-4.2c3.5-4.1,7.2-5.3,12.7-4.2c2,0.4,4.4,2,7.2,4.7
		c1.2,1.2,4.5,4.3,9.9,9.4c6,5.6,6.7,11.5,2.3,17.9c-1.1,1.6-3.7,3.9-5.4,5.4c-0.3,0.3-0.5,0.7-0.5,1.1c0,1-0.1,2.3-0.5,4
		c-0.2,1.2-1.1,2-2.2,2.2c-4.9,0.6-2.6,6.6-8.6,7.4c-0.5,0.1-0.9,0.3-1.3,0.6l-77.5,80.4c-0.5,0.5-1.1,0.9-1.8,1L877.7,431
		L877.7,431z"/>
	<path class="st0" d="M717.7,314.3l25.2,1.6c0.6,0,1.1,0.6,1.1,1.2c0,0.3-0.2,0.6-0.4,0.8l-19.5,16.1c-0.4,0.3-0.5,0.8-0.4,1.2
		l6.2,24.5c0.2,0.6-0.2,1.3-0.9,1.4c-0.3,0.1-0.6,0-0.9-0.1l-21.3-13.6c-0.4-0.2-0.9-0.2-1.3,0l-21.4,13.5c-0.5,0.3-1.3,0.2-1.6-0.4
		c-0.2-0.3-0.2-0.6-0.1-0.9l6.3-24.5c0.1-0.4,0-0.9-0.4-1.2L669,317.9c-0.5-0.4-0.6-1.1-0.2-1.6c0.2-0.3,0.5-0.4,0.8-0.4l25.2-1.6
		c0.4,0,0.8-0.3,1-0.7l9.4-23.5c0.2-0.6,0.9-0.9,1.5-0.6c0.3,0.1,0.5,0.4,0.6,0.7l9.3,23.5C716.8,314,717.2,314.3,717.7,314.3
		L717.7,314.3z"/>
	<path class="st2" d="M979.6,301.1c-0.7-0.7-0.7-1.8,0-2.5c0,0,0,0,0,0l3.9-4c4-4.1,10.6-4.2,14.7-0.3c0,0,0,0,0,0l12.4,12
		c4.1,4,4.2,10.6,0.2,14.7c0,0,0,0,0,0l-3.9,4c-0.7,0.7-1.8,0.7-2.5,0.1c0,0,0,0,0,0L979.6,301.1z"/>
	<path class="st0" d="M282.6,292.4c21.8,1.1,38.5,19.6,37.5,41.5c0,0,0,0,0,0c-1.1,21.9-19.6,38.7-41.3,37.7c0,0,0,0,0,0
		c-21.8-1.1-38.5-19.6-37.5-41.5c0,0,0,0,0,0C242.3,308.2,260.8,291.3,282.6,292.4C282.6,292.4,282.6,292.4,282.6,292.4L282.6,292.4
		z"/>
	<path class="st2" d="M554.2,355.3l35.8-62.8c0.1-0.2,0.4-0.3,0.6-0.1c0.1,0,0.1,0.1,0.1,0.2l35.3,63c0.1,0.2,0,0.5-0.2,0.6
		c-0.1,0-0.1,0.1-0.2,0.1l-71.1-0.2c-0.2,0-0.4-0.2-0.4-0.4C554.2,355.4,554.2,355.3,554.2,355.3z"/>
	<path class="st9" d="M715.7,316.2l23.8,1.5c0.2,0,0.4,0.2,0.4,0.4c0,0.1-0.1,0.2-0.1,0.3l-18.5,15.1c-0.1,0.1-0.2,0.2-0.1,0.4
		l6,23.1c0.1,0.2-0.1,0.4-0.3,0.5c-0.1,0-0.2,0-0.3,0l-20.1-12.9c-0.1-0.1-0.3-0.1-0.4,0l-20.1,12.8c-0.2,0.1-0.4,0.1-0.5-0.1
		c-0.1-0.1-0.1-0.2,0-0.3l6-23.1c0-0.1,0-0.3-0.1-0.4l-18.4-15.2c-0.2-0.1-0.2-0.4,0-0.5c0.1-0.1,0.2-0.1,0.3-0.1l23.8-1.4
		c0.1,0,0.3-0.1,0.3-0.2l8.8-22.2c0.1-0.2,0.3-0.3,0.5-0.2c0.1,0,0.2,0.1,0.2,0.2l8.7,22.2C715.5,316.1,715.6,316.2,715.7,316.2
		L715.7,316.2z"/>
	
		<ellipse transform="matrix(0.1167 -0.9932 0.9932 0.1167 -81.552 571.9531)" class="st10" cx="280.8" cy="331.8" rx="37.4" ry="36.9"/>
	<path class="st11" d="M446.7,296.1c-0.2-0.3-0.1-0.7,0.2-0.9c0.1-0.1,0.2-0.1,0.4-0.1h34.9c0.3,0,0.6,0.2,0.6,0.5v70.4
		c0,0.4-0.3,0.7-0.7,0.7c0,0,0,0,0,0h-21.8c-0.6,0-1.1-0.5-1.1-1.1c0,0,0-0.1,0-0.1c0.5-8.1,0.3-16.2-0.8-24.3
		c-0.1-1.1-0.2-2.1-0.1-3.2c0.8-13.3,0.4-25.3-7.6-36.4C448.4,298.6,447.1,296.8,446.7,296.1L446.7,296.1z"/>
	<path class="st3" d="M976.3,301.2l28,27c1,0.9,1,2.5,0.1,3.5l-0.4,0.4c-0.9,1-2.5,1-3.5,0.1l-28-27c-1-0.9-1-2.5-0.1-3.5l0.4-0.4
		C973.8,300.3,975.4,300.2,976.3,301.2z"/>
	<path class="st3" d="M970.5,306.7l28.4,27.7c0.8,0.8,0.8,2.1,0,2.9l-0.9,0.9c-0.8,0.8-2.1,0.8-2.9,0l-28.4-27.7
		c-0.8-0.8-0.8-2.1,0-2.9l0.9-0.9C968.4,305.9,969.7,305.9,970.5,306.7z"/>
	<path class="st0" d="M440.1,330.4c-3.6,0.6-7.2-1.3-10.8-3.3c-7.1-3.9-13.3-8.8-18.3-14.6c-0.6-0.7-0.7-1.6-0.4-2.4l0.1-0.2
		c0.2-0.4,0.7-0.6,1.1-0.4c0.2,0.1,0.3,0.2,0.4,0.3c4.5,6.9,10.6,12,18.2,15.1c3.2,1.3,6.5,2.6,10,3.7c0.5,0.2,0.7,0.7,0.6,1.2
		C440.7,330.2,440.4,330.4,440.1,330.4L440.1,330.4z"/>
	<path class="st1" d="M968.5,315.9c1.5,1.5,2.6,2.5,3.1,3.1c0.4,0.4,0.4,1,0,1.3L896,398.8c-0.2,0.2-0.6,0.2-0.8,0
		c-0.1-0.1-0.1-0.1-0.1-0.2c-0.7-1.9-1.6-3.3-2.6-4.3c-1-1-2.4-1.8-4.4-2.4c-0.3-0.1-0.4-0.4-0.4-0.7c0-0.1,0.1-0.2,0.1-0.2l76-78.1
		c0.4-0.4,1-0.4,1.3,0C965.9,313.4,967,314.4,968.5,315.9L968.5,315.9z"/>
	<path class="st12" d="M399.1,315.9c1.8,2.1,4.3,4.7,6.3,6.3c12.1,9.8,26,15.1,41.6,15.8c0.2,0,0.3,0.2,0.3,0.4
		c0.4,13.2-1,25.3-4.1,36.2c-2.2,7.9-6.5,14.4-12.7,19.7c-8.8,7.4-19,6-29.1,2.1c-0.3-0.1-0.7,0-0.8,0.4c-0.1,0.1-0.1,0.3,0,0.4
		l0.2,0.6c0.2,0.4,0.5,0.7,0.8,0.9c5,2.3,10.6,3.5,16.7,3.6c0.6,0,1.1,0.4,1.2,1c0.7,4.6,1.8,11,1.2,16.6
		c-0.8,8.3-1.8,15.9-3.2,22.9c-0.1,0.4-0.4,0.6-0.8,0.5c-0.1,0-0.3-0.1-0.4-0.2l-28.2-31.1c-0.4-0.5-0.6-1.2-0.3-1.8
		c2.2-5.3,3.3-11,3.1-17c0-0.9-0.4-1.7-1-2.2c-7.1-6.4-11.9-14.1-14.4-23.2c-0.2-0.7-0.9-1.1-1.6-0.9c-0.2,0.1-0.5,0.2-0.6,0.4
		c-2.3,2.6-5.8,0-7.4-2.1c-3.1-4-4.1-8.2-3.1-12.8c0.9-3.8,4.7-6.6,8.4-4c1.5,1,2.6,1.8,3.3,2.4c0.3,0.3,0.8,0.3,1.1,0.1
		c13.1-8.5,18.2-19.7,22.2-34.7c0.1-0.3,0.4-0.5,0.7-0.4C399,315.7,399.1,315.8,399.1,315.9L399.1,315.9z"/>
	<path class="st1" d="M979,325.9c1.6,1.5,3,2.9,4.3,4.3c0.3,0.3,0.3,0.9,0,1.3c-19.9,20.2-36.5,37.4-49.8,51.4
		c-8.4,8.8-18.5,18-25.9,27.2c-0.1,0.2-0.4,0.2-0.6,0.1c-0.1,0-0.1-0.1-0.1-0.2c-0.8-2.4-2-4.3-3.5-5.8c-1.5-1.5-3.5-2.6-5.9-3.3
		c-0.2-0.1-0.3-0.3-0.3-0.5c0-0.1,0.1-0.1,0.1-0.2c8.9-7.7,17.7-18.1,26.3-26.8c13.6-13.8,30.1-31,49.6-51.5c0.3-0.4,0.9-0.4,1.3,0
		C976,323,977.4,324.4,979,325.9L979,325.9z"/>
	<path class="st0" d="M554.9,328.8c0,0.5-0.2,0.8-0.5,1c-2.4,1.7-4.8,3.5-7.2,5.2c-0.4,0.3-0.9,0.2-1.1-0.2c0,0-0.1-0.1-0.1-0.1
		l-0.2-0.4c-0.1-0.3-0.1-0.6,0.2-0.8l3.1-2.8c0.2-0.2,0.2-0.4,0-0.6c-0.1-0.1-0.2-0.1-0.3-0.1c-17.1,0-34.2-0.1-51.4-0.4
		c-0.7,0-1.1-0.3-1.1-0.8c0-0.5,0.4-0.8,1.1-0.8c17.2-0.2,34.3-0.3,51.4-0.2c0.2,0,0.4-0.2,0.4-0.4c0-0.1,0-0.2-0.1-0.3l-3.1-2.9
		c-0.2-0.2-0.3-0.6-0.2-0.8l0.2-0.4c0.2-0.4,0.6-0.6,1.1-0.4c0,0,0.1,0,0.1,0.1c2.4,1.7,4.8,3.4,7.2,5.2
		C554.7,328,554.9,328.3,554.9,328.8L554.9,328.8z"/>
	<path class="st0" d="M660.8,327.8c0.2,0,0.4-0.1,0.4-0.3c0-0.1-0.1-0.3-0.2-0.3l-2.6-1.7c-0.3-0.2-0.4-0.5-0.4-0.8v-1
		c0-0.4,0.3-0.8,0.8-0.8c0.2,0,0.3,0,0.4,0.1l7.2,4.8c0.5,0.4,0.7,1.1,0.3,1.6c-0.1,0.1-0.2,0.2-0.3,0.3l-7.2,5.5
		c-0.4,0.3-0.9,0.3-1.3,0.1l-0.1,0c-0.4-0.3-0.4-0.9-0.1-1.3c0,0,0,0,0,0l3.3-3.3c0.1-0.1,0.1-0.3,0-0.4c-0.1-0.1-0.1-0.1-0.2-0.1
		h-33.7c-0.4,0-0.7-0.3-0.7-0.7l0,0v-0.4c0-0.5,0.4-1,1-1L660.8,327.8L660.8,327.8z"/>
	<path class="st1" d="M913.8,414.9c-1-0.9-2.4-1.8-4.4-2.4c-0.3-0.1-0.4-0.4-0.3-0.7c0-0.1,0.1-0.2,0.1-0.2l75.8-78.2
		c0.4-0.4,1-0.4,1.3-0.1c0.6,0.6,1.7,1.6,3.2,3c1.5,1.5,2.6,2.5,3.2,3.1c0.4,0.4,0.4,1,0,1.3l-75.4,78.5c-0.2,0.2-0.6,0.2-0.8,0
		c-0.1-0.1-0.1-0.1-0.1-0.2C915.6,417.3,914.7,415.8,913.8,414.9L913.8,414.9z"/>
	<path class="st0" d="M428.6,342.6L428.6,342.6c-0.2-0.7,0-1.4,0.6-1.7c3.9-2.7,7.9-2.7,12,0c0.6,0.4,0.8,1.2,0.5,1.8l0,0
		c-0.3,0.5-1,0.7-1.5,0.4c-0.1,0-0.1-0.1-0.1-0.1c-3.4-2.6-6.7-2.6-10,0c-0.4,0.3-1,0.2-1.3-0.2
		C428.6,342.8,428.6,342.7,428.6,342.6L428.6,342.6z"/>
	<path class="st0" d="M408.5,342c-0.1,0.4-0.6,0.7-1,0.6c-0.1,0-0.2-0.1-0.2-0.1c-3.2-2.1-6.2-1.9-9.1,0.7c-0.4,0.4-1.1,0.3-1.4-0.1
		c0,0-0.1-0.1-0.1-0.1l0,0c-0.3-0.6-0.2-1.3,0.3-1.7c3.6-2.7,7.2-3,11-0.8C408.4,340.8,408.7,341.4,408.5,342L408.5,342L408.5,342z"
		/>
	
		<ellipse transform="matrix(3.838776e-02 -0.9993 0.9993 3.838776e-02 35.8381 742.2163)" class="st0" cx="403.6" cy="352.5" rx="4.1" ry="2.2"/>
	<path class="st12" d="M113.3,373.3c-0.2,0.1-0.4,0.1-0.6,0l-14.9-6.6c-0.6-0.3-0.9-1-0.6-1.6c0,0,0-0.1,0.1-0.1
		c1.8-3,4.1-4.3,6.9-3.9c0.5,0.1,0.9-0.2,1-0.7c0.8-3.3,3.2-5.3,7.1-5.9c1.1-0.2,2,0.4,3,0.3c0.4,0,0.8-0.3,0.8-0.7
		c0.6-2.7,2.9-4.2,6.8-4.5c0.7-0.1,1.3,0.4,1.3,1.1c0,0.1,0,0.1,0,0.2l-0.9,16c0,0.4-0.3,0.8-0.6,1L113.3,373.3L113.3,373.3z"/>
	
		<ellipse transform="matrix(8.726535e-03 -1 1 8.726535e-03 77.2569 784.6321)" class="st0" cx="434.4" cy="353.3" rx="3.8" ry="2.4"/>
	<path class="st0" d="M418.9,366.5h2.1c0.9,0,1.6-0.7,1.6-1.6c0-0.2,0-0.3-0.1-0.5c-1.3-4.3-2.8-8.4-2-12.2c0.1-0.5,0.6-0.9,1.2-0.8
		c0.4,0.1,0.7,0.4,0.8,0.8l2.5,13c0.1,0.5,0,1.1-0.3,1.5c-1.5,2.1-3.6,2.6-6.2,1.6c-0.5-0.2-0.8-0.8-0.6-1.3
		C418.1,366.8,418.5,366.5,418.9,366.5L418.9,366.5z"/>
	<path class="st4" d="M123.3,371.7l-0.4,5.7c0,0.4-0.4,0.7-0.8,0.7c-0.1,0-0.2,0-0.3-0.1l-5.1-2.6c-0.4-0.2-0.5-0.7-0.3-1
		c0.1-0.1,0.2-0.2,0.3-0.3l5.5-3.1c0.4-0.2,0.8-0.1,1.1,0.3C123.3,371.4,123.3,371.6,123.3,371.7L123.3,371.7z"/>
	<path class="st0" d="M429.2,375.2C429.2,375.2,429.2,375.2,429.2,375.2C429.2,375.2,429.2,375.2,429.2,375.2L429.2,375.2
		c-0.3,5.9-5.5,10.3-11.6,10l-0.5,0c-6.1-0.3-10.7-5.3-10.4-11.2l0-0.1c0,0,0,0,0,0c0,0,0,0,0,0L429.2,375.2L429.2,375.2z"/>
	<path class="st6" d="M409.9,376.2c5.7,0.9,11.2,1.1,16.4,0.7c0.3,0,0.5,0.2,0.5,0.4c0,0.1,0,0.2,0,0.2c-3.9,8.4-13,6.8-17.4-0.7
		c-0.1-0.2-0.1-0.6,0.2-0.7C409.7,376.2,409.8,376.2,409.9,376.2z"/>
	<path class="st6" d="M901.8,405.6c2.2,2.1,3.1,4.8,2.8,8.1c0,0.6,0.4,1.1,1,1.1c0,0,0.1,0,0.1,0c4.2-0.2,7,1.6,8.2,5.4
		c0.2,0.6-0.1,1.2-0.7,1.4c0,0-0.1,0-0.1,0l-19,3.7c-0.4,0.1-0.9-0.1-1.1-0.4c-1.5-1.7-3.1-3.5-4.9-5.3c-1.8-1.8-3.6-3.4-5.4-4.9
		c-0.3-0.3-0.5-0.7-0.4-1.1l3.4-19c0.1-0.6,0.7-1,1.3-0.9c0,0,0.1,0,0.1,0c3.8,1.1,5.7,3.8,5.5,8.1c0,0.6,0.4,1.1,1,1.1
		c0,0,0.1,0,0.1,0C897,402.6,899.7,403.5,901.8,405.6L901.8,405.6z"/>
	<path class="st0" d="M650.4,406.8c0-1.5-0.1-2.4-0.1-2.5c-0.5-1.4,0.4-3,2-3.5c0,0,0,0,0,0c17.9-5.7,42.9-5.4,59.1,4.9
		c0.4,0.3,1,0.3,1.4,0c15.9-9.9,40.9-10.5,58.2-4.8c2.6,0.9,3.7,2.2,3.1,4c-0.2,0.5,0.1,1,0.6,1.2c0.1,0,0.2,0,0.2,0l0.8,0
		c0.3,0,0.6,0.2,0.7,0.4l1.3,2.3c0.3,0.4,0.7,0.7,1.2,0.7l5.4,0.3c1,0.1,1.8,0.9,1.8,1.9v88.3c0,0.6-0.5,1.1-1.1,1.1h-60
		c-0.7,0-1.4,0.2-2,0.7c-7.4,5.5-14.6,5.5-21.6-0.1c-0.5-0.4-1.1-0.6-1.7-0.6H639c-0.6,0-1-0.5-1-1v-89.9c0-0.3,0.2-0.5,0.5-0.5
		l6.1-0.4c0.3,0,0.6-0.1,0.8-0.3c1.8-1.1,3.3-1.7,4.3-1.7C650.1,407.4,650.4,407.1,650.4,406.8C650.4,406.8,650.4,406.8,650.4,406.8
		L650.4,406.8z"/>
	<path class="st6" d="M709.8,491.7c-17.8-7.8-36.4-9.5-56-5c-0.3,0.1-0.6-0.1-0.7-0.4c0,0,0-0.1,0-0.1V404c0-0.6,0.4-1.1,1-1.3
		c15.4-4.3,30.8-4.3,46.2,0.1c3.5,1,6.7,2.5,9.7,4.4c0.5,0.3,0.8,0.9,0.8,1.5v82.3c0,0.4-0.3,0.7-0.7,0.7
		C710,491.8,709.9,491.8,709.8,491.7z"/>
	<path class="st6" d="M714,491.9c-0.3,0.2-0.7,0-0.9-0.3c0-0.1-0.1-0.2-0.1-0.3l-0.1-82.4c0-0.6,0.3-1.2,0.8-1.5
		c3-2,6.2-3.4,9.7-4.4c15.4-4.4,30.8-4.5,46.2-0.2c0.6,0.2,1,0.7,1,1.3l0.1,82.2c0,0.3-0.2,0.6-0.6,0.6c0,0-0.1,0-0.1,0
		C750.5,482.4,731.8,484.1,714,491.9L714,491.9z"/>
	<path class="st6" d="M718.6,492.2c0.6-0.5,2.4-1.2,5.6-2.1c15.8-4.4,31.6-4.6,47.6-0.6c0.6,0.1,1.2-0.2,1.3-0.8c0-0.1,0-0.2,0-0.3
		V410c0-0.5,0.4-0.9,0.9-0.9c0.1,0,0.3,0,0.4,0.1l1.2,0.6c0.8,0.4,1.4,1.3,1.4,2.3v79.5c0,0.4-0.3,0.7-0.7,0.7h-57.7
		C718.6,492.4,718.6,492.3,718.6,492.2C718.6,492.2,718.6,492.2,718.6,492.2L718.6,492.2z"/>
	<path class="st6" d="M705,492.2c0.1,0,0.1,0.1,0.1,0.2c0,0.1-0.1,0.1-0.1,0.1h-57.4c-0.4,0-0.7-0.3-0.7-0.7v-80
		c0-0.7,0.6-1.2,1.2-1.2h1.9c0.6,0,1,0.4,1,1v76.7c0,0.5,0.4,1,1,1c0.1,0,0.1,0,0.2,0c15.8-3.7,31.6-3.4,47.3,0.9
		C701.2,490.5,703.1,491.2,705,492.2L705,492.2z"/>
	<path class="st2" d="M712,497.5c0.8,0,1.4-1.1,2.2-1.8c0.3-0.3,0.7-0.5,1.2-0.6c2.1-0.4,4.4-0.5,7-0.5c14.6,0.2,33.2,0.2,55.8,0.3
		c0.7,0,1.2-0.5,1.2-1.2c0,0,0,0,0,0v-80.7c0-0.6,0.5-1.1,1.1-1.1h2c0.6,0,1.1,0.5,1.1,1.1l0,0v85.1c0,0.5-0.4,0.9-0.9,0.9h-59
		c-0.9,0-1.7,0.4-2.4,1c-2.6,2.6-5.8,3.9-9.4,3.9c-3.6,0-6.8-1.3-9.4-3.9c-0.6-0.6-1.5-1-2.3-1l-59,0c-0.5,0-0.9-0.4-0.9-0.9l0-85.1
		c0-0.6,0.5-1.1,1.1-1.1l0,0h2c0.6,0,1.1,0.5,1.1,1.1l0,80.7c0,0.7,0.5,1.2,1.2,1.2c0,0,0,0,0,0c22.7,0,41.3-0.1,55.8-0.2
		c2.6,0,4.9,0.1,7,0.5c0.4,0.1,0.9,0.3,1.2,0.6C710.6,496.4,711.3,497.5,712,497.5L712,497.5z"/>
	<path class="st0" d="M741.9,414.7c-5.6,0.5-11.8,1.7-18.6,3.6c-0.4,0.1-0.9-0.1-1-0.6c-0.2-0.8,0.1-1.3,0.9-1.6
		c5.6-2,11.8-3.2,18.6-3.8c6.8-0.5,13.1-0.3,18.9,0.7c0.8,0.2,1.2,0.6,1.1,1.4c-0.1,0.5-0.5,0.8-0.9,0.7
		C753.8,414.5,747.5,414.3,741.9,414.7L741.9,414.7z"/>
	<path class="st6" d="M375.6,415.3l9.3-3.2c0.1,0,0.3,0,0.4,0.1l31.6,34.8c0.5,0.6,1.4,0.6,2,0.1c0.1-0.1,0.3-0.3,0.3-0.5
		c0.4-1.1,0.8-2.2,1-3.3c2.1-10.5,3.3-20.3,3.6-29.5c0-0.4,0.4-0.8,0.8-0.7c0.1,0,0.2,0,0.3,0.1l5.1,2.7c0.6,0.3,1,0.9,1,1.6
		c-0.1,14.6-3.9,26.9-8.7,41.6c-0.2,0.5-0.8,0.8-1.3,0.7c-0.1,0-0.2-0.1-0.3-0.1c-6.1-4.4-11.7-8.5-16.6-12.5
		c-11.2-9.1-20.8-19.7-28.6-31.6C375.4,415.4,375.5,415.3,375.6,415.3C375.6,415.3,375.6,415.3,375.6,415.3L375.6,415.3z"/>
	<path class="st0" d="M682,414.6c-5.7-0.4-12.1-0.2-19.3,0.8c-0.5,0.1-0.9-0.3-0.9-0.7c-0.1-0.8,0.3-1.3,1.1-1.4
		c6-1.1,12.4-1.4,19.3-0.9c6.9,0.5,13.2,1.7,19,3.7c0.8,0.3,1.1,0.8,0.9,1.6c-0.1,0.4-0.6,0.7-1,0.6c0,0,0,0,0,0
		C694.1,416.2,687.7,415.1,682,414.6z"/>
	<path class="st10" d="M506.9,516.1c0.2,0,0.4,0.2,0.4,0.4c0,0.1-0.1,0.3-0.2,0.4c-3.9,2.7-8.9,6.5-14.9,11.2
		c-6,4.7-12.3,8.4-18.9,11.1c-4.4,1.8-8.6,1.7-12.7-0.3c-0.4-0.2-0.7-0.5-0.9-0.9c-0.4-0.9-0.7-2.6-0.9-5c-0.5-6.7-1-13.4-1.5-20.3
		c-0.3-3.7,0.2-6.8,1.5-9.2c0.2-0.3,0.2-0.7,0.2-1l-0.3-2.2c-0.1-1-0.1-1.9,0.1-2.9c0.1-0.6,0.9-4.1,2.4-10.3
		c1.7-7.1,1.5-13.8-0.6-20.1c-1.7-5-3.9-10.8-6.6-17.3c-0.2-0.5-0.8-0.8-1.4-0.6c0,0-0.1,0-0.1,0.1l-0.4,0.2
		c-0.3,0.2-0.5,0.6-0.3,0.9c3.7,9.6,8.6,19,7.9,29.4c-0.2,2.3-1.3,8.6-3.3,18.9c-0.1,0.4-0.5,0.7-0.9,0.6c-0.1,0-0.1,0-0.2-0.1
		c-5.2-2.4-12.1-3.5-20.5-3.2c-7.9,0.3-11.4,3.5-19.3,8.4c-3.1,1.9-6.4,3.2-10,3.8c-0.8,0.1-1.5-0.4-1.6-1.1c0,0,0,0,0-0.1l-0.2-1.8
		c-0.1-0.7-0.7-1.2-1.4-1.1l-42.3,5.4c-0.5,0.1-1-0.3-1-0.8c0,0,0-0.1,0-0.1c0.1-3.5,0.7-6.5,1.7-9c4.7-11.7,8.2-22.7,10.6-32.8
		c0.1-0.4-0.1-0.8-0.5-1l-0.4-0.1c-0.2-0.1-0.4,0-0.5,0.3c0,0,0,0,0,0l-13.5,42.1c-0.3,0.9-1.1,1.5-2,1.6l-13.5,1.2
		c-0.6,0.1-1.1,0.6-1,1.2c0,0.2,0.1,0.3,0.1,0.5l0.2,0.4c0.4,0.7,1.2,1,1.9,0.9c19.3-3,38.7-5.3,58.2-6.8c0.4,0,0.8,0.3,0.9,0.7
		c0,0,0,0,0,0l1.5,27.2c0,0.6-0.4,1.2-1,1.3c-2.8,0.6-5.3,1.1-7.8,1.5c-8.7,1.4-19.8,3.1-33.3,5.1c-7,1.1-13.5,1.7-19.5,1.8
		c-0.7,0-3.6-0.2-8.6-0.6c-0.5,0-1-0.1-1.5-0.3c-17-5.9-14.1-23.8-10.5-37.7c2.6-9.9,7-28.2,11.6-41.6c0.9-2.5,3.7-10.2,8.5-23.2
		c2.5-6.7,6.4-11.8,11.7-15.5c6.2-4.2,12.8-7.5,19.7-9.8c0.8-0.3,1.7,0,2.1,0.8c4.5,7.3,10.2,14.5,17.2,21.7
		c9.1,9.3,18.2,15.5,29.5,23.7c0.8,0.6,1.9,0.4,2.5-0.4c0-0.1,0.1-0.1,0.1-0.2c0.7-1.2,1.2-2.5,1.6-3.8c5-15.8,8.2-25.9,8.3-40
		c0-0.3,0.3-0.6,0.6-0.6c0.1,0,0.2,0,0.2,0c10.4,4.4,19.1,10.3,23.3,21.4c3.2,8.3,5.5,15.6,7.1,21.7c4.2,16.3,7.6,29.3,10.3,38.9
		c0.1,0.4-0.1,0.9-0.4,1.1l-7.7,4.4c-0.4,0.3-0.6,0.8-0.3,1.3c0,0,0,0,0,0l0.3,0.5c0.2,0.3,0.6,0.4,0.9,0.2c0,0,0,0,0,0l26.4-15.2
		c0.1-0.1,0.3,0,0.3,0.1c0,0.1,0,0.1,0,0.2c-1.2,3.7-4.6,10.6-5.6,17.3c-0.6,4,1.7,6.6,5.7,6.5C499,516.1,503.2,516.1,506.9,516.1
		L506.9,516.1z"/>
	<path class="st13" d="M882.6,417.8l7.1,6.8c0.4,0.4,0.4,1,0,1.5c-0.1,0.1-0.3,0.2-0.5,0.3l-9,2.1c-0.4,0.1-0.7-0.1-0.8-0.5
		c0-0.1,0-0.2,0-0.3l1.9-9.4c0.1-0.4,0.5-0.7,0.9-0.6C882.3,417.6,882.5,417.7,882.6,417.8L882.6,417.8z"/>
	<path class="st0" d="M742,426.4c-5.6,0.5-11.8,1.7-18.7,3.7c-0.4,0.1-0.9-0.1-1-0.6c0,0,0,0,0,0c-0.2-0.8,0.1-1.3,0.9-1.6
		c5.6-2,11.9-3.2,18.6-3.8c6.8-0.6,13.1-0.3,19,0.7c0.8,0.1,1.2,0.6,1.1,1.4c-0.1,0.5-0.5,0.8-0.9,0.7c0,0,0,0,0,0
		C753.9,426.2,747.6,426,742,426.4L742,426.4z"/>
	<path class="st0" d="M682.2,426.4c-5.7-0.4-12.2-0.1-19.3,0.8c-0.5,0.1-0.9-0.3-0.9-0.7c0,0,0,0,0,0c-0.1-0.8,0.3-1.3,1.1-1.4
		c6-1.1,12.4-1.4,19.3-1c6.9,0.5,13.2,1.7,19,3.6c0.8,0.3,1.1,0.8,0.9,1.6c-0.1,0.4-0.6,0.7-1,0.6c0,0,0,0,0,0
		C694.3,427.9,687.9,426.8,682.2,426.4L682.2,426.4z"/>
	<path class="st0" d="M682.3,438.4c-5.7-0.4-12.1-0.2-19.3,0.7c-0.5,0.1-0.9-0.3-0.9-0.7c-0.1-0.8,0.3-1.3,1.1-1.4
		c6-1.1,12.4-1.4,19.3-0.9c6.9,0.5,13.2,1.8,19,3.7c0.8,0.3,1.1,0.8,0.9,1.6c-0.1,0.4-0.6,0.7-1,0.6c0,0,0,0,0,0
		C694.4,440.1,688,438.9,682.3,438.4z"/>
	<path class="st0" d="M742,438.5c-5.6,0.4-11.8,1.7-18.6,3.6c-0.4,0.1-0.9-0.1-1-0.6c-0.2-0.8,0.1-1.3,0.9-1.6
		c5.6-2,11.8-3.2,18.6-3.8c6.8-0.5,13.1-0.3,19,0.7c0.8,0.2,1.2,0.6,1.1,1.4c-0.1,0.5-0.5,0.8-0.9,0.7
		C754,438.2,747.6,438.1,742,438.5z"/>
	<path class="st6" d="M563.7,443.1c-7.1-0.1-19.8-0.2-38-0.1c-5,0-9.8-0.5-11.7,5.1c-6.1,18.1-13.5,38.8-22.2,62.3
		c-0.1,0.2-0.3,0.3-0.5,0.2c0,0,0,0,0,0l-0.4-0.2c-0.1,0-0.1-0.1-0.1-0.2c2.7-8.5,5.2-16,7.6-22.3c4.9-13.4,9.7-27,14.3-40.7
		c0.8-2.3,2.2-3.8,4.3-4.6c0.1,0,0.2-0.1,0.3-0.1l46.3-0.3c0,0,0.1,0,0.1,0.1l0.2,0.5C563.9,442.9,563.9,443,563.7,443.1
		C563.7,443,563.7,443.1,563.7,443.1L563.7,443.1z"/>
	<path class="st6" d="M541.7,482.9c0.1,0.5-0.3,1-0.8,1.1c0,0,0,0-0.1,0c-3.9,0.4-4.7,2.5-3.3,5.7c0.3,0.7,0.1,1.3-0.7,1.8
		c-1.9,1.3-1.7,4.2,0,5.3c0.2,0.1,0.4,0.4,0.4,0.6c0.1,0.4-0.1,0.7-0.4,0.9c-0.7,0.5-0.9,1.5-0.4,2.2c0,0.1,0.1,0.1,0.2,0.2
		c2.1,2.1,4.3,3.2,6.7,3.3c0.9,0,1.6,0.8,1.6,1.7c0,0.2-0.1,0.4-0.1,0.6l-2.2,5c-0.6,1.3-1.9,2.1-3.3,2.1h-45.1
		c-0.2,0-0.3-0.1-0.4-0.3c0-0.5,0-0.8,0-0.9c9-24,16.4-45,22.3-62.9c0.8-2.4,2.6-3.6,5.4-3.6c7.7-0.1,22.2-0.1,43.6-0.1
		c0.5,0,0.9,0.4,0.9,0.9c0,0.1,0,0.2,0,0.3l-9.8,29c-0.2,0.5-0.6,1-1.2,1.1c-1.9,0.4-12.5-0.5-13.5,3.6
		C541.4,480.8,541.4,481.6,541.7,482.9L541.7,482.9z"/>
	<path class="st0" d="M682.1,450.2c-5.7-0.4-12.2-0.2-19.4,0.8c-0.5,0.1-0.9-0.3-0.9-0.7c0,0,0,0,0,0c-0.1-0.8,0.3-1.3,1.1-1.4
		c6-1.1,12.5-1.4,19.4-0.9c6.9,0.5,13.3,1.7,19.1,3.7c0.8,0.3,1.1,0.8,0.9,1.6c-0.1,0.4-0.6,0.7-1,0.6c0,0,0,0,0,0
		C694.2,451.8,687.8,450.6,682.1,450.2L682.1,450.2z"/>
	<path class="st0" d="M741.7,450.2c-5.6,0.5-11.8,1.8-18.6,3.9c-0.4,0.1-0.9-0.1-1-0.6c0,0,0,0,0,0c-0.2-0.8,0-1.3,0.8-1.6
		c5.6-2,11.8-3.4,18.6-4c6.8-0.6,13.1-0.5,19,0.5c0.8,0.1,1.2,0.6,1.1,1.4c0,0.5-0.5,0.8-0.9,0.7c0,0,0,0,0,0
		C753.6,449.8,747.3,449.7,741.7,450.2L741.7,450.2z"/>
	<path class="st10" d="M957.3,535.2l-0.1,0.2c-0.1,0-0.1,0.1-0.2,0.1l-40.3,48.8c-0.3,0.4-0.8,0.4-1.2,0.1c-0.1-0.1-0.1-0.1-0.2-0.2
		c-4.8-6.9-8.3-11.8-10.4-14.6c-3.6-4.8-6.9-9.7-10-14.8c-9.4-15.6-15.1-25.4-17.1-29.4c-6.1-12.4-10.6-25.7-13.4-39.9
		c-0.1-0.7,0-1.4,0.5-2l28.7-35.4c0.5-0.6,1.3-0.7,1.8-0.2c15.5,11.6,29.7,22.8,42.7,33.6c12.5,10.4,24,19.1,37.2,30.3
		c0.5,0.4,0.5,1.1,0.1,1.6L957.3,535.2C957.3,535.2,957.3,535.2,957.3,535.2L957.3,535.2z"/>
	<path class="st0" d="M682.1,459.8c6.9,0.5,13.3,1.7,19.1,3.7c0.8,0.3,1.1,0.8,0.9,1.6c-0.1,0.4-0.6,0.7-1,0.6c0,0,0,0,0,0
		c-7-2-13.4-3.1-19.1-3.5c-5.7-0.4-12.2-0.2-19.4,0.8c-0.5,0.1-0.9-0.3-0.9-0.7c0,0,0,0,0,0c-0.1-0.8,0.3-1.3,1.1-1.4
		C668.7,459.6,675.2,459.3,682.1,459.8L682.1,459.8z"/>
	<path class="st0" d="M741.9,462.1c-5.5,0.5-11.7,1.7-18.5,3.6c-0.4,0.1-0.9-0.1-1-0.6c0,0,0,0,0,0c-0.2-0.8,0.1-1.3,0.9-1.5
		c5.6-2,11.8-3.2,18.5-3.8c6.7-0.5,13-0.3,18.9,0.7c0.8,0.1,1.2,0.6,1.1,1.4c-0.1,0.4-0.5,0.8-0.9,0.7
		C753.8,461.8,747.5,461.6,741.9,462.1L741.9,462.1z"/>
	<path class="st12" d="M545.5,479.7l11-0.6c1.1-0.1,2,0.8,2,1.8l0,0.2c0.1,1.1-0.8,2-1.8,2l-11,0.6c-1.1,0.1-2-0.8-2-1.8l0-0.2
		C543.6,480.7,544.4,479.8,545.5,479.7z"/>
	<path class="st12" d="M555,485.2c0.9,0,1.6,0.6,1.7,1.5c0,0.2,0,0.4-0.1,0.6l-0.2,0.5c-0.5,1.3-1.7,2.2-3.1,2.2h-11.9
		c-1.1,0-2.1-0.9-2.2-2l0-0.4c-0.1-0.8,0.5-1.5,1.3-1.6c0,0,0,0,0.1,0L555,485.2L555,485.2z"/>
	<path class="st9" d="M25.4,549.6c-2.1,1.4-4.8,1.6-8.1,0.5c-5.6-1.7-9-5.2-10.3-10.3c-1.7-6.8,2.3-14.6,8.6-17.5
		c15.7-7.1,40.7-18,75-32.8c0.7-0.3,1.5,0,1.7,0.7l1.3,2.9c0.3,0.7,0,1.5-0.7,1.8c0,0,0,0,0,0c-20.2,8.7-43.2,18.6-69,29.6
		c-10,4.3-10,18-0.6,22.9c0.2,0.1,0.9,0.4,2,0.8c0.3,0.1,0.5,0.5,0.4,0.9C25.6,549.4,25.5,549.5,25.4,549.6L25.4,549.6z"/>
	<path class="st12" d="M540.2,492.1l11.8,0.1c1.2,0,2.1,1,2.1,2.2l0,0.2c0,1.2-1,2.1-2.2,2.1l-11.8-0.1c-1.2,0-2.1-1-2.1-2.2l0-0.2
		C538,493,539,492.1,540.2,492.1z"/>
	<path class="st12" d="M455.2,502.6l-20.5-0.6c-0.3,0-0.5,0.2-0.5,0.5c0,0.1,0,0.1,0,0.2l0.2,0.4c0.3,0.6,0.8,1,1.5,1.1
		c5,0.7,9.7,3.2,14.2,7.5c0.5,0.5,0.7,1.3,0.4,2l-0.1,0.1c-0.2,0.4-0.7,0.6-1.1,0.4c-0.1,0-0.2-0.1-0.3-0.2c-3-3.1-7.1-5.3-12.2-6.4
		c-1.1-0.2-2.2,0-3.1,0.7l-0.1,0.1c-0.3,0.3-0.3,0.7-0.1,1c0.1,0.1,0.2,0.2,0.4,0.2c7.4,2,12.1,4.4,14,7.4l0.5,0.7
		c-0.2,0.7-0.9,1.2-1.6,1c-0.2,0-0.3-0.1-0.4-0.2c-4-2.6-7.9-5.1-12.5-5.3c-0.6,0-1.1,0.4-1.1,1c0,0.1,0,0.1,0,0.2v0.1
		c0.1,0.8,0.8,1.4,1.6,1.4c0.6,0,2.8,0.8,6.3,2.3c1,0.4,1.9,1.3,2.6,2.7c0.2,0.5,0.1,1-0.4,1.3c-0.2,0.1-0.4,0.1-0.6,0.1
		c-0.6-0.1-2-0.6-4.3-1.6c-8.6-3.6-12,1.7-19.8,3.7c-4,1.1-7.5,0.6-13,0.6c-0.5,0-0.9-0.4-0.9-0.9v-12.2c0-0.5,0.4-1,0.9-1.1
		c7.6-1.7,13.9-5.8,22-10.5c1.1-0.6,2.7-1.1,4.8-1.5c8.1-1.4,15.8-0.6,23.2,2.5c0.3,0.1,0.6,0.4,0.8,0.8c0.1,0.2,0,0.5-0.2,0.6
		C455.4,502.6,455.3,502.6,455.2,502.6L455.2,502.6z"/>
	<path class="st12" d="M550.1,498.6c0.8,0,1.5,0.7,1.5,1.5c0,0.2,0,0.3-0.1,0.5l0,0.1c-0.4,1.2-1.4,2-2.7,2.1
		c-2.3,0.1-4.8-0.2-7.8-0.9c-1.1-0.3-1.8-0.8-2.1-1.4c-0.3-0.6,0.1-1.3,0.7-1.6c0.1-0.1,0.3-0.1,0.4-0.1
		C540.8,498.7,544.1,498.6,550.1,498.6z"/>
	<path class="st6" d="M98,517.6c0.1,0.2,0,0.5-0.2,0.6c0,0,0,0,0,0L33.3,546c-5.4,2.3-11.6-0.1-13.9-5.3c0,0,0,0,0,0l-0.1-0.3
		c-2.3-5.3,0.3-11.4,5.7-13.7c0,0,0,0,0,0l64.5-27.8c0.2-0.1,0.5,0,0.6,0.2c0,0,0,0,0,0L98,517.6L98,517.6z"/>
	<path class="st10" d="M446.8,504.6l8.5-0.5c0.3,0,0.6,0.2,0.6,0.6c0,0.1,0,0.1,0,0.2c-1,4.5-1.3,8.7-0.8,12.6
		c0.5,4.4,1,10.1,1.5,17c0.4,5.2,0.9,10.9,1.7,17c4.1,32.6,7.6,66.5,10.4,101.8c0.1,0.7-0.3,1.3-1,1.5c-5.8,2-12,3.4-18.7,4.3
		c-16.1,2.1-28.6,3.1-37.7,3.1c-8.1-0.1-18.9-0.6-32.3-1.7c-12.5-1-24.9-3.1-37.2-6.2c-0.8-0.2-1.4-1-1.3-1.8
		c1.1-16.2,2.7-32.6,4.8-49.2c2.1-16.4,7-35.8,9.6-50.3c0.4-2,0.5-4,0.5-6c0-0.7,0.5-1.3,1.2-1.3c15.1-1.6,30.6-4,46.4-7.4
		c0.7-0.2,1.2-0.8,1.2-1.5v-8.5c0-0.6,0.5-1.1,1.1-1.1c2.9-0.1,6.4,0,10.5,0.3c2.5,0.1,6.9-1.9,10.7-4.2c3.7-2.2,7.5-2.4,11.5-0.5
		c2.7,1.3,7.1,2.3,7.2-1.7c0-0.4,0.3-0.8,0.8-0.8c1.5-0.2,2.6-0.4,3.3-0.4c0.8,0,1.4-0.7,1.4-1.5c0-0.2,0-0.3-0.1-0.5
		c-0.1-0.2-0.1-0.6-0.2-1.1c0-0.4,0.2-0.8,0.6-1c4.3-1.4,2.4-5.3,0.1-7.4c-0.8-0.7-2.3-1.8-4.5-3.2c-0.2-0.1-0.2-0.3-0.1-0.5
		C446.6,504.7,446.7,504.6,446.8,504.6L446.8,504.6z"/>
	<path class="st0" d="M89.8,513.7l0,0.5c0,0.6-0.3,1.2-0.9,1.4l-11.9,5.2c-0.7,0.3-1.5,0-1.8-0.7c0,0,0,0,0-0.1l-1.9-4.9
		c-0.4-1,0.1-2.1,1.1-2.5l12.1-4.8c0.5-0.2,1.1,0.1,1.3,0.6c0,0.1,0,0.1,0.1,0.2l0.1,0.3c0.1,0.6-0.2,1.2-0.8,1.4l-10.2,3.9
		c-0.7,0.3-1.1,1.1-0.8,1.8c0,0,0,0,0,0l0.3,0.9c0.2,0.5,0.8,0.8,1.3,0.6c0,0,0,0,0.1,0l10.5-4.6c0.5-0.2,1,0,1.2,0.5
		C89.8,513.5,89.8,513.6,89.8,513.7L89.8,513.7z"/>
	<path class="st9" d="M11.5,550.1c5.2,2.8,10.5,3,16,0.7c13.3-5.8,21.1-8.7,32.5-13.7c12.1-5.3,27.2-11.7,45.4-19.1
		c0.5-0.2,1.1,0,1.3,0.5l17.9,40.9c0.4,1,0.4,2.2-0.1,3.1c-3.1,6-7.1,13.1-11.3,19.5c-9.1,13.7-17,25.9-23.9,36.7
		c-2.9,4.5-8.3,14.3-16.2,29.4c-0.3,0.6-0.9,1.1-1.5,1.5c-6.9,3.4-14.3,3.3-18.9-3.6c-0.8-1.2-1.9-3.5-3.4-6.7
		c-3.3-7.4-8.9-20.5-16.8-39.5c-7.6-18.2-14.7-33.6-21.4-49.2c-0.1-0.2,0-0.4,0.2-0.5C11.2,550,11.4,550,11.5,550.1L11.5,550.1z"/>
	<path class="st12" d="M302.9,532.7c0.4-0.3,1-0.2,1.3,0.3c0.1,0.2,0.2,0.5,0.1,0.7c-1.3,5.7-2.7,11.6-4.3,17.7
		c-0.8,3.1-2.3,7.2-3.5,9c-2.1,3.3-3.2,5.3-3.4,6.2c-2.9,18.9-7.1,37.3-12.5,55.2c-1.3,4.1-2.9,8-5,11.8
		c-3.7,6.6-7.9,13.6-12.7,21.1c-0.2,0.3-0.6,0.4-0.9,0.2c-0.1,0-0.1-0.1-0.1-0.1l-15.4-16.9c-0.2-0.2-0.2-0.4,0-0.6
		c7.4-10.3,12.7-18.1,16.5-28.9c3.3-9.2,6.3-19,9.6-28.1c2.3-6.2,4-11.1,5-14.9c0.9-3.3,0.9-4.8-0.7-8.1c-4.2-8.7-6.7-13.8-7.4-15.5
		c-0.2-0.6-0.4-1.2-0.3-1.6c0-0.7,0.6-1.2,1.2-1.1c0.3,0,0.6,0.2,0.8,0.4l6.1,6.7c0.5,0.6,1.4,0.6,2,0.1c0.2-0.2,0.3-0.3,0.4-0.6
		c0.5-1.4,1-4.6,1.3-9.5c0.3-3.7,1.2-11.9,3.1-14.1c0.2-0.3,0.7-0.3,0.9-0.1c0.2,0.1,0.2,0.3,0.2,0.5v15.9c0,0.1,0.1,0.3,0.3,0.3
		l0.3,0.1c0.6,0.1,1.2-0.3,1.3-0.9c1.3-6.8,2.9-12.5,5-17.1c0.2-0.4,0.6-0.6,1-0.4c0.3,0.1,0.5,0.5,0.5,0.8l-2,17.3
		c-0.1,0.5,0.3,0.9,0.8,1l0.4,0c0.3,0,0.6-0.2,0.7-0.5c1.2-4.4,2.4-8.6,3.7-12.5c0.3-1.1,0.9-1.9,1.6-2.4c0.4-0.2,0.8-0.1,1,0.2
		c0.1,0.1,0.1,0.3,0.1,0.5c-0.3,5.2-1.4,10.5-3.2,15.9c-0.2,0.6,0,1.3,0.5,1.7l0,0c0.4,0.3,1,0.2,1.3-0.2c0-0.1,0.1-0.1,0.1-0.2
		c1.5-3.7,2.6-6.5,3.4-8.3C302.5,533.1,302.7,532.8,302.9,532.7L302.9,532.7z"/>
	<path class="st8" d="M161.1,633.9c-3.1-3.9-7.8-7.1-10.4-11.5c-8.6-14.3-10.6-34.7,2.5-46.8c0.7-0.6,0.9-1.6,0.5-2.5
		c-0.6-1.2-0.8-2.1-0.7-2.7c0.1-0.4,0.4-0.8,0.8-1c1-0.5,2.1-0.5,3.3,0c0.3,0.1,0.5,0.5,0.3,0.8c0,0,0,0,0,0.1
		c-0.8,1.5-0.7,2.5,0.3,2.8c0.2,0.1,0.5,0,0.7-0.1c1-0.5,1.3-1.6,0.8-3.1c-0.1-0.4-0.1-0.8,0.1-1.1c1.9-4.4,3.6-7.2,4.9-8.4
		c5.8-4.9,12.5-6.8,20-7.2c8.8-0.4,16.8-0.3,22.9-5c1.7-1.3,3.4-2.5,5.1-3.5c0.9-0.5,2.1-0.2,2.7,0.7c0.1,0.1,0.1,0.2,0.1,0.3
		c0.8,2.5-0.6,5.2-1.3,7.7c-0.1,0.4,0.1,0.9,0.6,1c0.2,0.1,0.4,0,0.6-0.1c6.5-3.4,16.4-3.7,20.1,3.7c3.1,6.1,0.2,13.4-4.9,17.5
		c-9.5,7.8-19.6,9.5-31.6,12.2c-1.9,0.4-2.6,1.7-2.1,3.7c2.2,9.1,3.6,15.3,4.2,18.5c0.1,0.5-0.3,1.1-0.8,1.2c-0.3,0.1-0.6,0-0.9-0.3
		l-4.2-4c-0.1-0.1-0.3-0.2-0.5-0.3c-8.9-3-13.6,3.8-11.8,11.8c1.1,4.8,3.9,8.2,8.3,10.2c0.8,0.3,1.2,1.2,1,2
		c-1.4,5.2-3.8,9.7-7.4,13.5c-1.1,1.2-2.7,1.7-4.3,1.3c-5.1-1.3-16.6-5.6-18.5-10.8C161.5,634.4,161.3,634.1,161.1,633.9
		L161.1,633.9z"/>
	<path class="st14" d="M560.6,556.1l60.2-0.1c0.6,0,1.1,0.5,1.1,1.1l0,17.2c0,0.6-0.5,1.1-1.1,1.1l-60.2,0.1c-0.6,0-1.1-0.5-1.1-1.1
		l0-17.2C559.5,556.6,560,556.1,560.6,556.1z"/>
	<path class="st8" d="M705.6,578.8c-0.1-0.5-0.6-0.8-1.2-0.7c-0.1,0-0.2,0.1-0.3,0.1c-6.4,4.3-9,9.9-11.4,17.2
		c-0.2,0.5-0.4,0.9-0.8,1.2c-0.4,0.3-0.9,0.3-1.3,0c-0.2-0.2-0.2-0.4-0.3-0.6c-0.5-10.6,3.2-19.3,11-26c2.1-1.8,6-3.6,11.8-5.6
		c1.7-0.6,6.3-1.6,13.8-3.2c10.9-2.3,20.4-0.8,29.9,2.6c5.1,1.8,9.8,4.6,13.9,8.2c10.7,9.5,14.6,22.1,11.8,37.9
		c-0.6,3.2-1.7,10.1-1.5,14.7c0.4,7.8,3,14.2,5.7,21.8c2.6,7.3,3.2,14.8,1.7,22.5c-1,4.8-7.7,7.4-12.2,8.5c-13.1,3-28,2.2-41.8-0.3
		c-5.5-1-9.7-3-15.1-5.1c-0.7-0.3-1-1-0.7-1.7c0.1-0.3,0.3-0.5,0.5-0.6c10.1-6.5,14.7-19.1,15.9-30.6c0-0.5,0.5-0.8,0.9-0.8
		c0.1,0,0.1,0,0.2,0c9,2.6,17.8-10.9,12.6-18.4c-2.5-3.6-6.7-5.3-11-3.5c-0.4,0.2-0.8,0.3-1.2,0.3c-0.5,0-0.9-0.4-1-0.9
		c-0.8-4.9-2.5-9.8-5.2-14.5c-2-3.4-2.7-6.7-4.2-11.2c-0.2-0.5-0.7-0.7-1.1-0.6c-0.3,0.1-0.6,0.4-0.6,0.8c-0.2,2.8,0.8,6.4,2.1,8.8
		c3.1,5.7,5.2,10.1,6.3,13.3c0.2,0.5-0.1,1-0.6,1.2c-0.2,0.1-0.5,0.1-0.7,0c-7.7-3.8-13.8-8.9-18.3-15.2
		C709.3,592.8,707.5,586.4,705.6,578.8L705.6,578.8z"/>
	<path class="st7" d="M347.2,579l-1.6,9.5c-0.1,0.5-0.5,0.8-1,0.8h-52.2c-0.6,0-1-0.5-1-1c0-0.1,0-0.1,0-0.2l1.6-9.5
		c0.1-0.5,0.5-0.8,1-0.8h52.2c0.6,0,1,0.5,1,1C347.2,578.9,347.2,579,347.2,579z"/>
	<path class="st7" d="M465,577.6h226.4c0.2,0,0.3,0.1,0.3,0.3c0,0,0,0.1,0,0.1l-3.6,11.4c-0.1,0.2-0.3,0.4-0.5,0.4
		c-5.7,0.1-13.2-0.6-20.2-0.5c-31.5,0.2-67.6,0.1-95.4,0.2c-36.1,0.2-67.8,0.1-95.2-0.3c-3.4-0.1-6.8,0-10.1,0.2
		c-0.7,0.1-1.4-0.5-1.5-1.2l-1.2-9.2c-0.1-0.7,0.4-1.2,1-1.3C464.9,577.6,464.9,577.6,465,577.6L465,577.6z"/>
	<path class="st7" d="M270.8,579.1l-3,9.4c-0.1,0.4-0.6,0.7-1,0.7h-30c-0.5,0-0.9-0.3-1-0.7l-3.5-9.4c-0.2-0.6,0.1-1.2,0.6-1.4
		c0.1,0,0.2-0.1,0.4-0.1h36.6c0.6,0,1.1,0.5,1.1,1.1C270.8,578.9,270.8,579,270.8,579.1L270.8,579.1z"/>
	<path class="st12" d="M229.3,579c0.2-0.2,0.5-0.1,0.7,0.1c0,0,0,0.1,0.1,0.1l2.5,6.5c0.2,0.6,0.4,1.3,0.5,2c0.5,3.8,1.1,7.6,2,11.4
		c0.8,3.8,3.6,6,7.3,9.2c0.8,0.7,0.9,1.9,0.2,2.7c-0.1,0.1-0.2,0.2-0.4,0.3l-2.6,1.7c-0.5,0.4-0.8,1-0.7,1.6l0.6,4.9
		c0.1,0.9-0.5,1.7-1.4,1.8c0,0,0,0-0.1,0l-13.3,1.2c-0.5,0-0.8,0.5-0.8,0.9c0,0.1,0,0.1,0,0.2c2,5.8,6.1,8.9,12.4,9.5
		c0.4,0,0.8,0.4,0.7,0.9c0,0.1,0,0.1,0,0.2c-2.3,7.8-7.5,12.7-15.6,14.8c-1.8,0.4-4.6,1-8.4,1.7c-1.4,0.3-2.5,1.5-2.5,3v6.2
		c0,0.6-0.4,1.1-0.9,1.3c-8.5,2.5-17.3,2.8-26.4,0.7c-0.7-0.2-1.3-0.8-1.3-1.6v-10.1c0-0.6,0.3-1.1,0.8-1.3
		c6.8-3.6,9.5-11.6,11.2-18.9c0.1-0.5,0.5-0.8,0.9-0.9c1.3-0.3,2.3-0.7,2.9-1.1c0.3-0.3,0.4-0.8,0.1-1.1c-0.2-0.2-0.5-0.3-0.8-0.3
		l-3.2,0.6c-0.2,0-0.4,0-0.6,0c-4.4-1.1-7.3-3.9-8.6-8.2c-1.7-5.7,0.9-13.2,8.3-10.7c1.6,0.5,3.5,3.2,4.9,4.6c0.8,0.8,1.9,1,2.9,0.6
		c1.8-0.7,2.5-1.8,2.3-3.3c-1.2-6.4-2.5-12.8-3.9-19.1c-0.1-0.5,0.2-1,0.8-1.1c0,0,0,0,0,0C211.7,587.8,220.5,585.3,229.3,579
		L229.3,579z"/>
	<path class="st12" d="M704,581.9c4,16.7,13.7,28.4,29.2,35.1c0.2,0.1,0.4,0.2,0.6,0.4c0.6,0.5,0.7,1.2,0.3,2
		c-0.2,0.4-0.1,0.9,0.3,1.1c0.3,0.1,0.6,0.1,0.9,0l3.5-2.4c0.2-0.2,0.5-0.3,0.7-0.3c3.8-0.9,7.4,1.5,8,5.5
		c1.1,7.7-4.3,16.3-12.8,12.6c-0.5-0.2-1,0-1.2,0.5c0,0.1-0.1,0.2-0.1,0.2c-1.8,11.6-5.2,22.5-13.9,30.5c-0.3,0.3-0.8,0.3-1.1-0.1
		c-0.1-0.2-0.2-0.3-0.2-0.6v-6.1c0-0.8-0.6-1.4-1.4-1.4c-1.1,0-3.6-0.3-7.4-1c-7.8-1.3-13.5-5.4-16.9-12.3c-0.3-0.5-0.1-1.1,0.4-1.3
		c0.1-0.1,0.3-0.1,0.4-0.1c5.8-0.4,9.7-3.3,11.7-8.9c0.3-0.7-0.1-1.6-0.9-1.8c-0.2-0.1-0.3-0.1-0.5-0.1h-12.5
		c-0.7,0-1.2-0.6-1.2-1.2c0-0.1,0-0.1,0-0.2c0.5-3.5-0.6-6-3.2-7.6c-0.7-0.4-1-1.4-0.5-2.1c0.1-0.1,0.2-0.3,0.3-0.4
		c7.3-6.3,6.3-12.1,7.4-20.7c1-7.6,4-14.1,9.1-19.4c0.2-0.2,0.6-0.2,0.8,0C703.9,581.7,703.9,581.8,704,581.9L704,581.9z"/>
	<path class="st0" d="M228.4,591.2c0,0.4-0.3,0.8-0.7,0.8c-0.1,0-0.2,0-0.2,0c-3.4-0.9-5.9,0.2-7.6,3.3c-0.3,0.4-0.8,0.6-1.3,0.4
		c0,0-0.1,0-0.1-0.1l0,0c-0.5-0.4-0.6-1-0.2-1.5c2.3-3.4,5.3-4.7,9.2-4C228,590.1,228.4,590.6,228.4,591.2L228.4,591.2L228.4,591.2z
		"/>
	<path class="st5" d="M227.6,624.7c1.2-0.3,4.2-0.6,9-0.9c6.6-0.4,4.4-4.2,4.4-8.3c0-0.5,0.2-0.9,0.5-1.2c2.4-2.1,5.6-4.8,1.7-8
		c-2.9-2.3-5.4-4-6.2-7.3c-0.6-2.5-1-4.6-1.2-6.4c0-0.4,0.3-0.8,0.7-0.8c0,0,0,0,0.1,0h28.5c0.5,0,0.9,0.4,0.9,0.9
		c0,0.1,0,0.2-0.1,0.3c-2.6,7.2-5.2,14.6-7.8,22.5c-0.7,2.1-3,6-4.6,8.2c-3.5,4.6-6.5,8.7-8.8,12.3c-0.3,0.4-0.9,0.6-1.4,0.3
		c0,0,0,0,0,0c-0.1-0.1-0.1-0.1-0.1-0.1c-0.5-0.2-1-0.1-1.4,0.3l-4.5,4.4c-0.1,0.1-0.3,0.1-0.4,0c-0.1-0.1-0.1-0.2-0.1-0.2l2.6-8.3
		c0.1-0.3-0.1-0.5-0.3-0.6c0,0-0.1,0-0.1,0c-5.2-0.6-9.1-1.3-11.9-6.1c-0.1-0.2-0.1-0.6,0.2-0.7
		C227.5,624.7,227.6,624.7,227.6,624.7L227.6,624.7z"/>
	<path class="st5" d="M247.8,689.9l20.1-20.8c1-1.1,1.2-2.7,0.5-4l-3.8-6.6c-0.2-0.4-0.2-0.9,0-1.3c5.2-8.9,10.5-18.5,15.8-28.6
		c1.5-2.8,3-7.4,4.8-13.9c1.6-6,3.3-13.3,5.1-21.9c0.1-0.6,0.6-1,1.2-1h52c0.7,0,1.4,0.6,1.3,1.4c0,0.1,0,0.1,0,0.2
		c-3.5,19.8-5.6,40.2-6.3,61.2c0,0.7,0.4,1.2,1.1,1.4l7.8,2c0.4,0.1,0.8,0.5,0.8,1l2.9,31.3c0,0.6-0.4,1.1-0.9,1.1c0,0-0.1,0-0.1,0
		H248.4c-0.5,0-0.9-0.4-0.9-0.9C247.5,690.2,247.6,690,247.8,689.9L247.8,689.9z"/>
	<path class="st5" d="M359.1,844.8c0.5,1.3,0.8,2.4,0.9,3.1c1.1,8.9,2.3,18.8,3.4,29.9c0.1,0.7,0.5,1.3,1.1,1.7l2.2,1.3
		c0.4,0.2,0.6,0.6,0.5,1.1c-0.7,6.3-2.9,14-5.7,25.1c-0.8,3.2-1.6,9.8-0.2,13.4c5.8,14.2,34.2,13.2,33.9-4.3
		c-0.1-10.7-3.9-21.9-6.5-32.3c-0.2-1-0.1-2,0.3-2.9c0.7-1.2,1-2,1-2.4c1.9-22.2,3.5-44.8,5-67.8c0.4-5.8,1.6-18.2,1.9-25.8
		c1-22.3,2.7-43.9,4.9-64.7c1.6-15,2.3-34.1,4.2-51c0-0.2,0.1-0.3,0.2-0.3c0,0,0.1,0,0.1,0c0,0,0.1,0,0.1,0.1c0,0,0,0,0,0
		c0.6,16.2,1.5,32.8,2.7,49.9c0.8,11.4,1,19.9,0.5,25.4c-1,11.4-4.4,32.2-4.5,48.6c0,5.4,0.5,13.5,1.7,24.4
		c2.4,22.9,4.2,42.1,5.5,57.5c0.1,1.2,0.5,3,1.2,5.5c0.7,2.4,0.6,4.7-0.3,7c-2.8,7.2-4.5,15.6-2,22.7c0.2,0.6,0.7,1.1,1.2,1.4
		c2.8,1.3,4.7,2.1,5.9,2.3c10.3,2.1,20.6,4,30.9,5.6c8.8,1.4,17,1.5,24.8,0.3c2.9-0.4,5.6-1.9,6.7-4.8c2-5.4-2.8-8.9-7.5-11
		c-10.6-4.9-19.3-9.3-26-13.3c-2.8-1.7-5.1-3.5-6.9-5.6c-2-2.3-2.3-4.6-0.8-6.8c0.3-0.5,0.6-1.1,0.6-1.7c0.1-0.4,0.3-3.3,0.7-8.6
		c4.9-62.2,9.4-117.4,16.4-175.1c1.4-11.6,2-23.3,3.1-32.2c0.1-0.7,0.6-1.3,1.3-1.5l7.6-1.8c1.2-0.3,2.1-1.4,1.9-2.7l-5.6-61.3
		c-0.1-0.6,0.4-1.2,1-1.2c0,0,0.1,0,0.1,0h220.1c0.4,0,0.8,0.3,0.8,0.7c0.4,2.7-0.1,5.9,3.1,7.3c0.6,0.2,0.9,0.8,0.9,1.4
		c-0.1,7-0.1,13.1-6.3,18.7c-3.7,3.3-1.2,5.3,1.7,7.7c0.3,0.3,0.5,0.7,0.5,1.1v4.3c0,1.1,0.9,2.1,2,2.2l11.7,0.7
		c0.3,0,0.5,0.3,0.5,0.6c0,0.1,0,0.2-0.1,0.3c-2.7,4-6.4,6-11,6.1c-0.6,0-1,0.5-1,1c0,0.1,0,0.2,0,0.3c3.7,12.3,13.7,15.8,25.6,16.6
		c0.4,0,0.8,0.4,0.8,0.8v6.2c0,0.6-0.4,1.2-1,1.3c-2.8,0.7-5.8,1.3-9.2,2.1c-12.5,2.6-20.2,9.6-27.8,19.5c-0.4,0.5-0.9,0.8-1.5,0.8
		H657c-0.3,0-0.5-0.2-0.5-0.5c0-0.1,0-0.3,0.1-0.4l9-10.4c1.2-1.4,1.1-3.6-0.3-4.9l-0.3-0.3c-1.2-1.3-3.2-1.3-4.5-0.1
		c-0.1,0.1-0.1,0.1-0.2,0.2l-12.6,14.4c-0.4,0.4-0.9,0.6-1.4,0.5l-4.8-0.8c-0.6-0.1-1.3,0-1.9,0.3l-2.6,1.5
		c-0.4,0.2-0.8,0.4-1.3,0.4H576c-1.3,0-2.5,0.6-3.2,1.7l-33.2,50c-0.3,0.5-0.5,1.1-0.5,1.7l-0.5,11.8c0,1.1,0.8,2.1,1.9,2.1
		c0,0,0.1,0,0.1,0h19.5c0.5,0,0.8,0.4,0.8,0.8v26.1c0,0.9,0.7,1.6,1.6,1.6h4.5c0.6,0,1.1,0.5,1.1,1.1v0V942c0,0.6,0.5,1.1,1.1,1.1
		l0,0h13.1c0.4,0,0.8-0.4,0.8-0.8V788c0-0.6,0.4-1,1-1H666c0.3,0,0.5,0.1,0.8,0.2c1,0.7,1.7,1.4,2.1,2.1c0.3,0.4,0.2,1-0.2,1.4
		c-6.7,5.7-13.1,12.4-19.1,19.9c-1.8,2.3-3.2,5.3-4.1,8.8c-1.8,7.1,0.3,12.7,6.2,16.7c0.3,0.2,0.4,0.6,0.2,0.9
		c-0.1,0.1-0.2,0.2-0.4,0.3l-8.1,1.6c-0.9,0.2-1.6,1-1.6,1.9v11.1c0,0.7,0.4,1.3,0.9,1.6c1,0.6,1.7,1.1,2,1.4
		c0.3,0.4,0.5,0.9,0.5,1.4l-0.1,88c0,0.7,0.5,1.2,1.2,1.2l0,0h10.3c0.6,0,1-0.5,1-1v-79.9c0-0.2,0.2-0.4,0.4-0.4
		c0.1,0,0.2,0,0.2,0.1l3.7,2.4c0.5,0.3,1.1,0.5,1.7,0.5h10.9c0.4,0,0.7,0.3,0.7,0.7c0,0,0,0,0,0v55.3c0,0.6-0.3,1.1-0.7,1.5
		c-4.2,3.5-7.2,6.1-9,7.8c-4.5,4.2-4.7,12.8,3.2,13.1c4.2,0.2,10,0.1,17.3,0c0.6,0,1.1-0.3,1.3-0.8l0.6-1.1c0.3-0.5,0.7-0.8,1.3-0.8
		c2.9-0.5,8.1-1.6,15.6-3.4c5.9-1.4,7.8-2.2,7.8-8.7c0-4.7-1.2-10.5-4.4-13.7c-0.7-0.7-1-1.3-1-2c0.5-17,0.7-32.9,0.6-47.8
		c0-0.2,0.2-0.4,0.4-0.4h16.3c0.3,0,0.6,0.3,0.7,0.6l3.2,44c0.1,1.8-0.1,3.6-0.7,5.3c-3.4,9.4-6.3,23.4,8.1,24.9
		c4.9,0.5,14.2,0.8,17.5-3.7c3.6-5.1,1.4-16.4-0.7-21.6c-0.3-0.8-0.5-1.7-0.4-2.6l2.7-46.2c0-0.3,0.3-0.5,0.6-0.5h39.2
		c0.4,0,0.7,0.3,0.7,0.7v0v76.4c0,0.8,0.7,1.5,1.5,1.5c0,0,0,0,0,0h9.3c0.9,0,1.7-0.7,1.7-1.6v-76.5c0-0.3,0.2-0.5,0.5-0.5h9.2
		c0.6,0,1.2-0.5,1.2-1.2v-12.4c0-0.6-0.4-1.2-0.9-1.5c-1.9-1-3.8-2.4-5.4-4.4c-0.2-0.3-0.4-0.6-0.4-1V800c0-0.1,0.1-0.1,0.1-0.1
		c0,0,0,0,0.1,0l38.3,23c0.6,0.3,0.9,0.9,0.9,1.6v117.2c0,0.8,0.6,1.4,1.4,1.4c0,0,0,0,0,0h12.2c0.8,0,1.4-0.6,1.4-1.4V833.2
		c0-0.3,0.3-0.6,0.6-0.6c0.1,0,0.2,0,0.3,0.1l39.4,23.7c0.9,0.5,2.1,0.3,2.6-0.6l45.5-75.7c0.3-0.4,0.8-0.6,1.2-0.3
		c0.2,0.1,0.4,0.3,0.4,0.6c1,4.2,1.7,8.9,2.1,14c2,26.3-2.9,51.5-14.7,75.5c-16.3,33.3-41,57.8-74,73.5
		c-11.9,5.7-24.1,9.6-36.6,11.8c-7.1,1.2-18.3,1.8-33.7,1.8c-172.7-0.1-367.7-0.1-584.9,0.1c-15.8,0-29.9-2-42.1-6.1
		c-14.1-4.7-27.3-11.2-39.8-19.4c-0.3-0.2-0.5-0.6-0.5-1V868c0-0.5,0.4-1,1-1c0,0,0,0,0,0h49.1c0.4,0,0.7,0.3,0.7,0.7l2.6,46.6
		c0.1,1.2-0.3,2.5-0.9,3.5c-3.7,5.7-4.6,12.4-2.6,20.3c0.4,1.4,1.4,2.6,2.7,3.2c1.5,0.6,3,1,4.7,1.1c11.7,0.6,22.9,0.4,33.7-0.6
		c2.2-0.2,4.5-1,6.6-1.3c0.6-0.1,1.1,0,1.6,0.3c1.9,1.2,4,2,6.2,2.3c0.5,0.1,0.9,0.4,1.2,0.8l0.7,1.2c0.2,0.3,0.6,0.6,1,0.6h9.3
		c0.3,0,0.6-0.1,0.8-0.3c0.7-0.5,1.2-0.8,1.7-0.8c7.5-0.2,18.1,1.3,27.2,0.8c0.5,0,1.1-0.1,1.5-0.4l6-3.1c0.5-0.3,1-0.7,1.3-1.3
		c3.5-6.9,0.9-11.5-5.6-14.7c-0.4-0.2-0.7-0.6-0.7-1.1v-69.3c0-0.4,0.2-0.7,0.5-0.9l2.6-1.5c0.5-0.3,0.8-0.8,0.7-1.4l-0.6-11.5
		c0-0.1,0-0.1-0.1-0.2c-0.3-0.9-1.6-1.5-3.8-1.9c-0.6-0.1-0.9-0.6-0.8-1.2c0-0.1,0-0.2,0.1-0.2c4.5-10.1,3.1-21.8-5.2-29.1
		c-2.3-2-5.9-3.1-8-5.3c-0.5-0.5-1.1-0.8-1.8-0.9l-11.6-2c-0.4-0.1-0.7-0.4-0.7-0.8v-7.5c0-0.4,0.3-0.8,0.7-0.9
		c1.7-0.3,3.2-1.2,4.6-2.6c0.4-0.4,1-0.6,1.6-0.6h83.4c0.4,0,0.8,0.4,0.8,0.8l0,0v154.4c0,0.5,0.4,0.9,0.9,0.9l0,0h12.6
		c0.6,0,1.2-0.5,1.2-1.2v-97.2C358.9,844.8,359,844.8,359.1,844.8C359,844.8,359.1,844.8,359.1,844.8L359.1,844.8L359.1,844.8z"/>
	
		<ellipse transform="matrix(0.9845 -0.1754 0.1754 0.9845 -102.1951 49.1662)" class="st0" cx="227.1" cy="602.8" rx="2.2" ry="3.7"/>
	<path class="st0" d="M698.6,604.4L698.6,604.4c0-0.5,0.3-1,0.8-1.2c3.5-1.1,6.5-0.2,9,2.7c0.4,0.4,0.3,1.1-0.1,1.4l0,0
		c-0.3,0.3-0.9,0.3-1.2,0c0,0-0.1-0.1-0.1-0.1c-1.9-2.7-4.4-3.4-7.4-2.3c-0.4,0.1-0.8,0-0.9-0.4
		C698.6,604.6,698.6,604.5,698.6,604.4z"/>
	
		<ellipse transform="matrix(0.1288 -0.9917 0.9917 0.1288 -0.1835 1230.792)" class="st0" cx="700.4" cy="615.5" rx="3.5" ry="2.1"/>
	<path class="st4" d="M148.1,695.1c0-0.4-0.2-0.7-0.6-0.8c0,0-0.1,0-0.1,0H147c-0.1,0-0.2,0.1-0.3,0.2l-1.8,10.8
		c-0.1,0.5-0.5,0.8-0.9,0.8h-18.2c-0.3,0-0.6-0.3-0.6-0.6c0-0.1,0-0.2,0.1-0.4c7.7-11.7,15.4-22.8,26.3-31
		c5.4-4.1,12.2-6.7,20.3-7.8c0.5-0.1,1,0,1.4,0.3c10.7,6.6,22,8.2,34,4.6c3.4-1,5.9-2.7,7.7-5.2c2-2.7,3.2-4.3,3.8-4.9
		c6.6-6.8,14.4-14.2,23.4-22.2c0.3-0.3,0.7-0.3,1.1-0.1c5.1,3.7,9,7.4,11.8,11.2c2.4,3.3,4.6,6.1,6.5,8.3c0.6,0.8,2,3.1,4.1,7
		c0.2,0.4,0.2,1-0.2,1.3c-2.2,2.3-5.3,6.9-8.1,9.8c-6.7,7.2-13.3,14.5-19.8,22c-1.6,1.8-2.2,4-2,6.7c0.1,0.7-0.5,1.4-1.2,1.4
		c0,0-0.1,0-0.1,0h-86c-0.7,0-1.3-0.6-1.3-1.3c0,0,0-0.1,0-0.1L148.1,695.1L148.1,695.1z"/>
	<path class="st6" d="M226.9,650.7L215.5,661c-0.5,0.5-1.3,0.4-1.8-0.1c-0.2-0.2-0.3-0.5-0.3-0.7l-0.3-5.1c-0.1-1,0.6-1.8,1.5-2
		l12-2.8c0.1,0,0.3,0,0.3,0.2C227,650.5,226.9,650.6,226.9,650.7L226.9,650.7z"/>
	<path class="st6" d="M213.3,664.4c-0.1,0.3-0.3,0.6-0.7,0.9c-10.8,7.6-24.7,6.9-36.3,1c-0.7-0.3-0.9-1.1-0.6-1.8
		c0.1-0.2,0.3-0.4,0.5-0.6l0.4-0.2c1.2-0.7,2.6-0.8,3.9-0.4c10.6,3.6,21.1,3.6,31.4,0c0.5-0.2,1.1,0,1.3,0.5
		C213.3,664,213.4,664.2,213.3,664.4L213.3,664.4z"/>
	<path class="st15" d="M722.2,675.6c1.2,7.1,4.5,8.3,9.9,3.5c13,3.3,26.3,4,39.9,2.1c0.8-0.1,1.5,0.3,1.9,1l4.2,8
		c-1.2,0.9-2,2.1-2.3,3.6c-0.1,0.4,0,0.8,0.1,1.2c1.1,2.8,3,3.8,5.6,2.8l2.9,7.8c0.1,0.3,0,0.7-0.4,0.8c-0.1,0-0.1,0-0.2,0
		c-12.1,0.2-23.9,0.2-35.3,0.1c-8.1-0.1-19,0.8-28.7,0.3c-10.7-0.6-16.6-0.8-17.7-0.8c-0.3,0-0.5-0.1-0.6-0.4
		c-0.8-1.5-2.2-1.3-4.2,0.6c-0.5,0.5-1.2,0.7-1.9,0.6c-7.6-1.2-14.5-0.6-20.6,1.8c-0.5,0.2-1.1,0-1.4-0.4c-1.4-1.9-2.1-3.8-2.2-5.8
		c0-0.5,0.2-1,0.5-1.4l17.8-19.2c2.1,1.2,4.1,1.2,6,0.1c2-1.2,2.6-3,1.6-5.4c5.5-2.7,11.3-4.3,17.6-4.7c0.4,0,0.8,0.1,1.2,0.3
		L722.2,675.6L722.2,675.6z"/>
	<path class="st6" d="M732.1,679.1c-5.4,4.8-8.7,3.6-9.9-3.5L732.1,679.1z"/>
	<path class="st4" d="M647.5,693.4c-0.1-0.1-0.2-0.3,0-0.5l5.3-6.4c5-6,9.6-10.4,10.2-9.9c0,0,0,0,0,0l0.5,0.4
		c0.7,0.5-2.9,5.8-7.9,11.8c0,0,0,0,0,0l-5.3,6.4c-0.1,0.1-0.3,0.2-0.5,0.1c0,0,0,0,0,0L647.5,693.4L647.5,693.4z"/>
	<path class="st6" d="M697.1,676.5c1,2.4,0.4,4.2-1.6,5.4c-1.9,1.1-3.9,1.1-6-0.1C691.4,679.3,694,677.5,697.1,676.5z"/>
	<path class="st2" d="M977.8,738.9l-70.1,113.9c-0.3,0.5-1,0.7-1.6,0.4l-39-23.5c-0.3-0.2-0.6-0.6-0.6-1v-40.3
		c0-0.6,0.5-1.1,1.1-1.1l5.5-0.3c0.6,0,1.1-0.5,1.1-1.1v-26.4c0-0.6,0.5-1.1,1.1-1.1h0h20c0.6,0,1.1-0.5,1.1-1.1v0v-12.3
		c0-0.3-0.1-0.6-0.3-0.8L862.9,710c-0.4-0.4-0.4-0.9-0.2-1.4l17.2-28.6c0.3-0.5,1-0.7,1.6-0.4l95.9,57.7
		C977.9,737.6,978.1,738.3,977.8,738.9C977.8,738.9,977.8,738.9,977.8,738.9L977.8,738.9z"/>
	<ellipse class="st6" cx="710.5" cy="694.8" rx="4.7" ry="4.3"/>
	<ellipse transform="matrix(0.974 -0.2267 0.2267 0.974 -137.9744 186.9519)" class="st6" cx="745.1" cy="694.3" rx="4.3" ry="4"/>
	<path class="st6" d="M778.2,690.3c1.7,2.2,2.8,4.8,3.4,7.6c-2.6,1-4.5,0-5.6-2.8c-0.1-0.4-0.2-0.8-0.1-1.2
		C776.1,692.4,776.9,691.2,778.2,690.3z"/>
	<path class="st12" d="M654.7,727.7c-0.1,0.3,0.1,0.6,0.3,0.7c0.2,0.1,0.4,0,0.5-0.2l15.2-18.8c0.2-0.3,0.7-0.3,1-0.1c0,0,0,0,0,0
		l0.4,0.4c0.3,0.3,0.4,0.8,0.1,1.1c0,0-0.1,0.1-0.1,0.1c-3.6,3.3-7.1,7.2-7.3,12.3c-0.4,8.3-0.6,16.4-0.6,24.2
		c0,0.3-0.2,0.6-0.5,0.7c-5.4,1.9-10.1-1.7-12.2-6.2c-3.9-8.5-7-16.7-9.3-24.8c-0.8-2.7-2.1-4.4-4-5.3c-2.3-1.1-3.6-1.8-3.9-2.1
		c-2-2.1-3.1-4.5-3.3-7.2c0-0.5,0.1-0.9,0.3-1.3c2.7-4.3,4.6-7.4,8.7-9.7c0.4-0.2,0.9-0.3,1.3-0.2c3.4,0.6,4.4,2.3,6.6,5.1
		c0.7,1,2.1,1.2,3.1,0.6l2.1-1.2c0.8-0.4,1.7-0.2,2.2,0.6c0.1,0.2,0.2,0.4,0.2,0.7c0.3,4.5-0.8,7.4-3.2,8.8
		c-0.5,0.3-0.7,0.9-0.4,1.5c0,0,0,0,0,0l6.9,11.9c0.3,0.5,0.2,1-0.1,1.4C656.7,723.2,655.3,725.5,654.7,727.7L654.7,727.7z"/>
	<path class="st13" d="M238,706c0.1-4.7,3-8.2,6.1-11.3c0.7-0.6,1.5-1,2.4-1h104.2c0.7,0,1.3,0.3,1.7,0.9l32.5,48
		c0.2,0.3,0.1,0.7-0.2,0.9c-0.1,0.1-0.2,0.1-0.4,0.1H262.9c-0.4,0-0.8-0.4-0.8-0.8l0,0v-4.9c0-0.4,0.3-0.8,0.8-0.8c0,0,0,0,0.1,0
		l61.1,3.5c0.8,0,1.6-0.4,1.9-1.2c3.6-9.1,8.5-20.2,12.5-30.7c0.3-0.7,0-1.6-0.7-1.8c0,0-0.1,0-0.1,0c-0.3-0.1-0.7-0.4-1.2-1
		c-0.2-0.3-0.3-0.6-0.3-1c0-1.1-0.3-1.7-0.7-1.9c-12.8-5.9-28-8-40.9-1.4c-0.4,0.2-0.8,0.2-1.2,0c-11.1-5.8-22.9-6.5-35.3-2.3
		c-3.6,1.2-6.1,5.6-7.6,7.6c-0.1,0.2-0.3,0.3-0.6,0.3l-11.2-0.7C238.2,706.5,237.9,706.3,238,706L238,706z"/>
	<path class="st13" d="M647.7,738.2l2.1,4.7c0.1,0.3,0,0.7-0.3,0.8c-0.1,0-0.2,0.1-0.3,0c-18.2-0.4-35.1-0.4-50.8,0
		c-19.6,0.5-36.4-0.9-55.1,0.2c-0.2,0-0.4,0-0.5-0.2c-0.5-0.4-0.6-1-0.3-1.5c0,0,0,0,0,0c3.6-4.6,6.9-9.3,10-14.2
		c7.7-12.1,15.1-22.4,21.9-33.3c0.4-0.7,1.2-1.2,2.1-1.2h56.3c0.3,0,0.6,0.3,0.6,0.6c0,0.1,0,0.2-0.1,0.3l-2.5,3.8
		c-0.5,0.8-1.5,1.2-2.4,0.9c-11.6-2.9-23.4-1.6-35.3,3.9c-2.2,1.1-0.7,3.6-3.5,4.5c-0.7,0.3-1,1-0.8,1.7c0,0,0,0.1,0,0.1l13.5,29.8
		c0.3,0.6,0.9,1,1.6,1c4.1,0,7.7-0.1,11-0.3c4.4-0.3,14.8-1.2,31.3-2.6C646.8,737.2,647.4,737.6,647.7,738.2L647.7,738.2z"/>
	<path class="st13" d="M656.9,693.2l17.8,0.5c0.1,0,0.2,0.1,0.2,0.2c0,0,0,0.1,0,0.1l-3.8,4.6c-0.1,0.2-0.4,0.3-0.6,0.2l-13.8-3.6
		c-0.6-0.1-0.9-0.7-0.8-1.2C655.9,693.5,656.3,693.2,656.9,693.2L656.9,693.2z"/>
	<path class="st13" d="M892.1,743.1c0.1,0.1,0.1,0.4,0,0.5c-0.1,0.1-0.1,0.1-0.2,0.1h-70.2c-0.4,0-0.8-0.3-0.8-0.7
		c-0.3-7.3-0.4-12.7-0.4-16.1c0.1-3.9-0.5-7-1.6-9.2c-4-7.6-10.1-10.6-19.1-10.9c-5.7-0.2-9.5-0.3-11.6-0.2c-0.5,0-1-0.3-1.2-0.8
		l-4.2-11.1c-0.1-0.4,0-0.7,0.4-0.9c0.1,0,0.2,0,0.2,0c18.2-0.4,37-0.5,56.4,0c1.5,0,3.2,1,5.1,2.7c7.8,7.6,14.7,14.9,23.6,23.2
		C876.3,726.9,884.1,734.7,892.1,743.1L892.1,743.1z"/>
	<path class="st13" d="M128.7,693.7c0.3,0,0.6,0.3,0.6,0.6c0,0.1,0,0.2-0.1,0.3l-8.3,11.8c-0.2,0.3-0.5,0.5-0.8,0.6
		c-8.3,3.6-13.9,10.2-13.9,19.4c0,0.7,0,6.2,0,16.6c0,0.3-0.3,0.6-0.6,0.6H54.4c-0.3,0-0.6-0.3-0.6-0.6c0-0.2,0.1-0.3,0.2-0.5
		l48.7-47.6c0.8-0.8,2-1.3,3.1-1.3H128.7L128.7,693.7z"/>
	<path class="st6" d="M657.8,700.1c0.1-0.9,0.8-1.5,1.7-1.5c0.1,0,0.1,0,0.2,0l7.6,1.5c1.1,0.2,1.8,1.2,1.8,2.3
		c-0.1,1.5,0.2,2.9,0.9,4.3c0.2,0.4,0.1,0.8-0.2,1.1c-0.6,0.6-1.5,0.9-2.1,1.8c-1.3,1.9-3.3,4.3-5.9,7.2c-0.5,0.5-1.3,0.6-1.8,0.1
		c-0.1-0.1-0.2-0.2-0.3-0.3l-4.4-7.7c-0.4-0.8-0.4-1.7,0.1-2.4C656.8,704.5,657.6,702.4,657.8,700.1L657.8,700.1z"/>
	<path class="st6" d="M261.9,725.8c-0.3-6.6-3.2-11.9-8.7-16c-0.4-0.3-0.6-0.9-0.3-1.4c1.9-3.7,3.7-6,5.4-6.9
		c1.9-0.9,5.8-1.8,11.8-2.4c7.5-0.8,14.6,0.6,21.2,4.2c0.7,0.4,0.9,1.2,0.5,1.8c0,0,0,0,0,0l-15,24.9c-0.3,0.5-0.9,0.7-1.4,0.5
		l-12.9-4.1C262.2,726.5,261.9,726.2,261.9,725.8L261.9,725.8z"/>
	<path class="st6" d="M279.7,730.1l14.6-25c0.3-0.4,0.6-0.8,1-1.1c1.3-0.9,2.6-1.5,3.8-1.8c11-3,21.8-2.5,32.4,1.6
		c0.8,0.3,1.2,1.2,0.9,2c0,0,0,0,0,0.1l-10.7,24.2c-0.2,0.5-0.8,0.8-1.3,0.6c-13.2-4.3-26.7-4.5-40.5-0.4
		C279.7,730.3,279.7,730.3,279.7,730.1C279.6,730.2,279.6,730.2,279.7,730.1L279.7,730.1z"/>
	<path class="st6" d="M644,728.5c0.1,0.3,0,0.6-0.3,0.7c-0.1,0-0.2,0-0.3,0c-12.6-2.8-24.8-2.2-36.7,1.7c-0.4,0.1-0.8-0.1-0.9-0.4
		l-10.6-24.3c-0.3-0.7,0-1.5,0.7-1.8c0,0,0,0,0,0c10.4-4.2,21-5.2,31.8-3c0.9,0.2,1.6,1,1.7,1.9c0.3,5.2-1.7,8.2-3.3,12.6
		c-0.2,0.6,0.1,1.2,0.7,1.4c0.3,0.1,0.7,0.1,1-0.1l5.3-3.5c0.2-0.2,0.5-0.2,0.8-0.1l4.2,1.1c0.6,0.2,1.1,0.6,1.3,1.2L644,728.5
		L644,728.5z"/>
	<path class="st6" d="M592.8,708.5L592.8,708.5c0.4-0.2,0.8,0,1,0.4l11.1,26.2c0.2,0.4,0,0.8-0.4,1l0,0c-0.4,0.2-0.8,0-1-0.4
		l-11.1-26.2C592.2,709.1,592.4,708.6,592.8,708.5z"/>
	<path class="st14" d="M324.2,734.7c-0.3,0.2-0.5,0.3-0.7,0.4c-0.1,0-0.3-0.1-0.4-0.3l10.3-25.9c0.1-0.3,0.5-0.5,0.9-0.4l0,0
		c0.3,0.1,0.5,0.5,0.4,0.8c0,0,0,0,0,0L324.2,734.7L324.2,734.7z"/>
	<path class="st13" d="M742.7,708.8c15,0,33.4,0.1,55,0.3c5.7,0.1,9.7,0.7,11.8,1.8c4.7,2.6,7.7,6.7,9,12.4c0,0.1,0,0.1,0,0.2
		l0.3,57.5c0,1.8-0.7,3.6-2,4.8l-1.9,1.8c-0.6,0.6-1.7,0.6-2.3,0c-0.3-0.3-0.5-0.7-0.5-1.2v-27.8c0-3.1-2.5-5.6-5.6-5.6
		c-0.2,0-0.3,0-0.5,0l-0.6,0.1c-2.9,0.2-5.2,2.7-5.2,5.6v28.1c0,0.5-0.4,0.9-0.9,1c-32.5,0.2-51.4,0.3-56.7,0.3
		c-5.3,0-24.2-0.1-56.7-0.3c-0.5,0-0.9-0.4-0.9-1l0-28.1c0-2.9-2.3-5.4-5.2-5.6l-0.6-0.1c-3.1-0.3-5.8,2-6,5.1c0,0.1,0,0.3,0,0.4
		l0,27.8c0,0.9-0.7,1.6-1.6,1.6c-0.4,0-0.8-0.2-1.2-0.5l-1.9-1.8c-1.3-1.3-2-3-2-4.8l0.3-57.5c0-0.1,0-0.1,0-0.2
		c1.3-5.7,4.3-9.8,9-12.4c2.1-1.2,6-1.8,11.8-1.8C709.3,708.9,727.7,708.8,742.7,708.8z"/>
	<path class="st13" d="M114.3,786.7c0,0.6-0.5,1.2-1.1,1.2c-0.3,0-0.5-0.1-0.7-0.3l-2.6-2.1c-1.1-0.9-1.7-2.2-1.7-3.5
		c-0.1-5.2-0.1-10.9,0-17.1c0.3-12.9,0-18.7-0.1-33.5c0-6.5,0.8-11.1,2.3-13.7c3.1-5.5,8.4-8.3,15.8-8.4
		c36.2-0.6,74.4-0.6,114.7-0.1c4.1,0.1,7,0.6,10.3,2.8c5.5,3.5,8.3,9.2,8.4,17.1c0.3,20.4,0.4,37.5,0.1,51.3c0,1.2-0.5,2.5-1.3,3.4
		l-2.7,3.4c-0.5,0.7-1.5,0.8-2.2,0.2c-0.4-0.3-0.6-0.7-0.6-1.2v-27.3c0-3.2-2.6-5.7-5.7-5.7h0h-0.6c-3.1,0-5.7,2.5-5.7,5.7l0,0v28
		c0,0.4-0.4,0.8-0.8,0.8h0H127.2c-0.4,0-0.7-0.3-0.7-0.7l0,0v-29.1c0-2.6-2.1-4.7-4.7-4.7h-2.3c-2.8,0-5.2,2.3-5.2,5.2l0,0
		L114.3,786.7L114.3,786.7z"/>
	<path class="st14" d="M630.7,710.5c0.3-0.2,0.6-0.1,0.7,0.1c0.4,0.4,0.4,0.7,0.1,0.9c-0.4,0.3-0.8,0.5-1.1,0.6
		c-0.4,0.1-0.6-0.2-0.5-0.6C630,711.1,630.3,710.7,630.7,710.5L630.7,710.5z"/>
	<path class="st6" d="M262.5,729.4c0-0.1,0.2-0.2,0.3-0.2l0.2,0c5.5,1.3,9.9,2.9,9.8,3.5c-0.1,0.6-4.7,0-10.3-1.3c0,0,0,0,0,0
		l-0.2,0c-0.2,0-0.2-0.2-0.2-0.3L262.5,729.4z"/>
	<path class="st6" d="M301.3,729.7c6.6,0.3,13.2,1.6,19.8,3.9c0.3,0.1,0.4,0.2,0.4,0.4c0,0.3-0.2,0.5-0.5,0.6c0,0-0.1,0-0.1,0
		c-6.7-0.9-13.3-1.4-19.7-1.7c-6.4-0.3-13-0.2-19.8,0.1c-0.3,0-0.5-0.2-0.6-0.5c0,0,0-0.1,0-0.1c0-0.2,0.2-0.3,0.5-0.4
		C288,730.3,294.7,729.5,301.3,729.7L301.3,729.7z"/>
	<path class="st6" d="M625.5,732.9c-6.1,0.2-12.3,0.8-18.7,1.6c-0.3,0-0.5-0.2-0.6-0.4c0,0,0-0.1,0-0.1c0-0.2,0.2-0.3,0.4-0.4
		c6.3-2.2,12.5-3.5,18.7-3.7c6.2-0.2,12.6,0.5,19,2.3c0.3,0.1,0.4,0.2,0.5,0.4c0,0.3-0.1,0.5-0.4,0.6c0,0-0.1,0-0.1,0
		C637.9,732.7,631.6,732.7,625.5,732.9L625.5,732.9z"/>
	<path class="st7" d="M262.7,734c0-0.1,0.1-0.2,0.2-0.2c0,0,0,0,0,0l0.3,0c7.4,0.7,13.4,1.5,13.4,1.8l0,0.1c-0.1,0.3-6.1,0-13.5-0.7
		l-0.3,0c-0.1,0-0.2-0.1-0.2-0.2c0,0,0,0,0,0L262.7,734L262.7,734z"/>
	<path class="st4" d="M323.1,734.7c0.2,0.2,0.3,0.3,0.4,0.3c0.2,0,0.4-0.1,0.7-0.4c0.3,1.4,0.3,2.4-0.2,3c-0.4,0.6-1.4,0.8-2.8,0.7
		c-14.4-1.3-28.8-2.2-43.3-2.8c-0.2,0-0.4-0.2-0.4-0.4c0,0,0,0,0,0l0-0.4c0-0.1,0.1-0.1,0.1-0.1c0,0,0,0,0,0
		c1.3,0.3,6.3,0.4,15.2,0.3c6.7-0.1,16.4,0.5,29.1,1.8c0.1,0,0.2,0,0.4-0.1C323,736.5,323.3,735.8,323.1,734.7L323.1,734.7z"/>
	<path class="st14" d="M605.2,736.9l39.9-2.6c0.3,0,0.5,0.2,0.6,0.5l0,0.1c0,0.3-0.2,0.5-0.5,0.6l-39.9,2.6c-0.3,0-0.5-0.2-0.6-0.5
		l0-0.1C604.6,737.2,604.9,736.9,605.2,736.9z"/>
	<path class="st13" d="M262.7,746.3l123.1-0.2c0.3,0,0.6,0.3,0.6,0.6l0,8.7c0,0.3-0.3,0.6-0.6,0.6l-123.1,0.2
		c-0.3,0-0.6-0.3-0.6-0.6l0-8.7C262.1,746.5,262.4,746.3,262.7,746.3z"/>
	<path class="st13" d="M52.3,746.1l53.1,0.1c0.4,0,0.8,0.3,0.8,0.8l0,8.3c0,0.4-0.3,0.8-0.8,0.8l-53.1-0.1c-0.4,0-0.8-0.3-0.8-0.8
		l0-8.3C51.6,746.4,51.9,746.1,52.3,746.1z"/>
	<path class="st13" d="M664.3,751.2c0.3,1.2,0.3,2.5-0.1,4.1c-0.1,0.4-0.4,0.7-0.8,0.7H542.8c-1.1,0-2.1-0.9-2.1-2.1l0,0v-6
		c0-1.2,0.9-2.1,2.1-2.1c0,0,0.1,0,0.1,0c15.5,0.7,30.3,0.2,44.1,0.3c18.8,0.2,39.9,0,63.4-0.5c0.4,0,0.8,0.1,1.1,0.4
		c0.8,0.7,1.5,1.4,2.1,2.2c2.7,3,5.9,3.8,9.5,2.4C663.6,750.5,664.1,750.8,664.3,751.2C664.3,751.2,664.3,751.2,664.3,751.2
		L664.3,751.2z"/>
	<path class="st13" d="M821.7,746l71.8,0.1c0.4,0,0.8,0.4,0.8,0.8l0,8.3c0,0.4-0.4,0.8-0.8,0.8l-71.8-0.1c-0.4,0-0.8-0.4-0.8-0.8
		l0-8.3C821,746.3,821.3,746,821.7,746z"/>
	<path class="st14" d="M677.3,856.6c-0.9,0-1.7-0.7-1.7-1.7l-0.2-96.1c0-2,1.6-3.7,3.6-3.7h0h0.2c2,0,3.6,1.6,3.6,3.6l0,0l0.2,96.1
		c0,0.9-0.7,1.7-1.7,1.7c0,0,0,0,0,0H677.3L677.3,856.6z"/>
	<path class="st14" d="M118.2,856.8c-1,0-1.7-0.8-1.7-1.7l0,0v-95.6c0-2.2,1.6-4.1,3.5-4.1c0,0,0,0,0,0h0.8c1.9,0,3.5,1.8,3.5,4.1
		l0,0V855c0,1-0.8,1.7-1.7,1.7c0,0,0,0,0,0L118.2,856.8L118.2,856.8z"/>
	<path class="st14" d="M245.7,755.7h2.7c1.3,0,2.4,1.1,2.4,2.4v96.1c0,1.3-1.1,2.4-2.4,2.4h-2.7c-1.3,0-2.4-1.1-2.4-2.4v-96.1
		C243.3,756.8,244.3,755.7,245.7,755.7z"/>
	<path class="st14" d="M805,755.8h2.6c1.3,0,2.3,1,2.3,2.3v96c0,1.3-1,2.3-2.3,2.3H805c-1.3,0-2.3-1-2.3-2.3v-96
		C802.7,756.8,803.8,755.8,805,755.8z"/>
	<path class="st5" d="M70.3,758.4c0.3,0,0.6,0.3,0.6,0.6l0,0v26c0,1.1,0.8,1.9,1.9,2l4.9,0.1c0.4,0,0.8,0.4,0.8,0.8v80.4
		c0,0.2-0.2,0.4-0.4,0.4c-0.1,0-0.3-0.1-0.3-0.2c-2.6-5-4.8-10.1-6.6-15.2c-10.9-30.5-14.6-62.2-8.5-93.9c0.1-0.5,0.6-0.9,1.1-0.9
		L70.3,758.4L70.3,758.4z"/>
	<path class="st14" d="M73.1,784.5v-25.7c0-0.2,0.2-0.4,0.4-0.4h0h32.1c0.2,0,0.4,0.2,0.4,0.4l0,0v25.7c0,0.2-0.2,0.4-0.4,0.4h0
		H73.5C73.2,784.9,73.1,784.7,73.1,784.5L73.1,784.5z"/>
	<path class="st14" d="M564.2,758.4h99.4c0.5,0,0.9,0.4,0.9,0.9v24.6c0,0.5-0.4,0.9-0.9,0.9h-99.4c-0.5,0-0.9-0.4-0.9-0.9v-24.6
		C563.3,758.8,563.7,758.4,564.2,758.4z"/>
	<path class="st14" d="M821.6,758.5l49.7-0.1c0.3,0,0.6,0.3,0.6,0.6l0,25c0,0.3-0.3,0.6-0.6,0.6l-49.7,0.1c-0.3,0-0.6-0.3-0.6-0.6
		l0-25C821,758.7,821.3,758.5,821.6,758.5z"/>
	<path class="st16" d="M262.4,758.5h101.8c0.2,0,0.3,0.2,0.3,0.3v25.5c0,0.2-0.2,0.3-0.3,0.3H262.4c-0.2,0-0.3-0.2-0.3-0.3v-25.5
		C262.1,758.6,262.2,758.5,262.4,758.5z"/>
	<path class="st14" d="M347.6,786.7l8.4,0c0.4,0,0.8,0.4,0.8,0.8l-0.3,152.3c0,0.4-0.4,0.8-0.8,0.8l-8.4,0c-0.4,0-0.8-0.4-0.8-0.8
		l0.3-152.3C346.8,787.1,347.1,786.7,347.6,786.7z"/>
	<path class="st14" d="M81.2,787h9.4c0.4,0,0.7,0.3,0.7,0.7v101.8c0,0.4-0.3,0.7-0.7,0.7c-0.3,0-0.5-0.1-0.6-0.4l-9.4-16.3
		c-0.1-0.1-0.1-0.2-0.1-0.4v-85.5C80.5,787.3,80.8,787,81.2,787L81.2,787z"/>
	<path class="st5" d="M119.6,920.6c0,0.2-0.2,0.4-0.3,0.4c-0.1,0-0.2,0-0.2-0.1c-9.8-7.9-18.1-16.8-25-26.6
		c-0.4-0.5-0.6-1.1-0.6-1.8V787.9c0-0.4,0.4-0.8,0.8-0.8h13.2c0.7,0,1.4,0.3,1.9,0.8c1.1,1.2,2.4,1.9,3.9,1.9c0.6,0,1.1,0.5,1.1,1.1
		l0,0v57c0,0.7-0.4,1.4-1,1.7l-3.7,2.1c-0.5,0.3-0.9,0.9-0.9,1.5v12.2c0,0.8,0.7,1.5,1.5,1.5l0,0h8.3c0.5,0,0.8,0.4,0.8,0.8
		L119.6,920.6L119.6,920.6z"/>
	<path class="st14" d="M571.3,787.1h8.9c0.3,0,0.6,0.3,0.6,0.6v152.6c0,0.3-0.3,0.6-0.6,0.6h-8.9c-0.3,0-0.6-0.3-0.6-0.6V787.7
		C570.7,787.3,570.9,787.1,571.3,787.1z"/>
	<path class="st2" d="M850.5,819.4c-13.4-7.6-25.5-14.8-36.4-21.5c-2.1-1.3-2.1-3.4-0.3-4.9c1-0.8,2.5-2.5,4.4-4.9
		c0.5-0.6,1.2-0.9,2-0.9h30.2c0.6,0,1.2,0.5,1.2,1.2v30.5c0,0.4-0.3,0.7-0.7,0.7C850.7,819.5,850.6,819.5,850.5,819.4L850.5,819.4z"
		/>
	<path class="st14" d="M854.6,787.4h8.8c0.5,0,0.8,0.4,0.8,0.8v152c0,0.5-0.4,0.8-0.8,0.8h-8.8c-0.5,0-0.8-0.4-0.8-0.8v-152
		C853.8,787.8,854.1,787.4,854.6,787.4z"/>
	<path class="st4" d="M240.8,790.6v11.4c0,0.7-0.4,1.3-1,1.5c-10.8,4.4-22.2,7.1-34.3,8.1c-21.8,1.9-43.6,0.2-65.3-5.1
		c-1.1-0.3-1.8-1.3-1.7-2.4l1.6-13.6c0.1-0.4,0.4-0.8,0.9-0.8h99C240.4,789.8,240.8,790.2,240.8,790.6L240.8,790.6L240.8,790.6z"/>
	<path class="st5" d="M126.3,840.5v-50.3c0-0.2,0.1-0.3,0.3-0.3h0H138c0.2,0,0.3,0.1,0.3,0.3c0,0,0,0,0,0
		c-0.8,5.7-1.4,10.9-1.8,15.6c-0.1,0.8,0.3,1.4,1,1.8c0.8,0.4,1.2,1,1.1,2c-0.4,6.7,0,12.4,1.3,17.2c0.3,1.2,1.2,2.7,1.6,4
		c0.1,0.4-0.1,0.8-0.4,1.1l-14.2,9c-0.2,0.1-0.4,0.1-0.5-0.1C126.3,840.7,126.3,840.6,126.3,840.5L126.3,840.5z"/>
	<path class="st15" d="M737.7,790.4c-1.4,2.4-1.2,4.6,0.6,6.7c1.6,1.8,3.7,2.1,6.2,0.8c0.4-0.2,0.7-0.5,0.9-0.8c1.1-2,1-4.3-0.1-6.8
		l27.8,0.4c-1.2,3.1-0.7,5.4,1.3,6.9c0.3,0.2,0.6,0.3,1,0.4c1,0.1,2,0,2.8-0.1c2.8-0.5,2.8-5,2.1-7.1c2-0.5,3.9-0.6,5.7-0.2
		c0.8,0.2,1.5,0.8,1.7,1.6l3.7,14.8c-3.1,1.7-2.5,6.4,0.7,7.8c0.3,8.8-2.6,15.9-8.6,21.4c-4.8,4.4-11.2,7-19.3,8
		c-0.8-3.3-3-5.3-6.2-2.9c-1.6,1.1-2.1,2.4-1.7,3.8c-9.2,1.7-18.3,2.4-27.3,2.2c1-4.7-0.7-7-5.1-6.8c-0.4,0-0.8,0.2-1.1,0.4
		c-2.1,1.6-2.5,3.9-1.2,6.8c-9.4,1.1-18.4,0-27-3.2c0.4-1.5,0.3-2.7-0.3-3.5c-0.8-1.3-2.5-1.7-3.9-0.9c-1.3,0.8-2.7,1.4-4.3,1.8
		c-0.3-0.4-0.4-0.9-0.4-1.3c-0.4-8.5-0.5-15.9-0.3-22.3c0.2-9.5-0.4-17.2-0.2-26.6c0-0.6,0.5-1.1,1.1-1.1c0,0,0,0,0,0l18,0.4
		c-2.5,3.5,0.8,9.9,5.4,6.8c0.3-0.2,0.6-0.6,0.8-0.9c1.1-2.1,1.1-4,0-5.8C719.5,789.6,728.6,789.5,737.7,790.4L737.7,790.4z"/>
	
		<ellipse transform="matrix(0.3665 -0.9304 0.9304 0.3665 -221.0288 1257.6603)" class="st13" cx="813" cy="791.1" rx="1.6" ry="0.9"/>
	<path class="st6" d="M745.2,790.3c1.2,2.5,1.2,4.8,0.1,6.8c-0.2,0.4-0.5,0.7-0.9,0.8c-2.5,1.3-4.6,1-6.2-0.8
		c-1.8-2.1-2-4.3-0.6-6.7L745.2,790.3z"/>
	<path class="st5" d="M800.5,839.4c0,0.3-0.3,0.6-0.6,0.6c-0.1,0-0.2,0-0.3-0.1l-10.3-6.2c-0.3-0.2-0.4-0.6-0.2-0.9c0,0,0,0,0,0
		c8.4-12.7,5.1-28,0.6-41.7c-0.1-0.3,0.1-0.6,0.4-0.8c0.1,0,0.1,0,0.2,0h9.3c0.5,0,0.9,0.4,0.9,0.9c0,0,0,0,0,0L800.5,839.4
		L800.5,839.4z"/>
	<path class="st6" d="M710.3,790.8c1.1,1.8,1.1,3.7,0,5.8c-0.2,0.4-0.5,0.7-0.8,0.9c-4.6,3.2-7.9-3.2-5.4-6.8L710.3,790.8
		L710.3,790.8z"/>
	<path class="st6" d="M780.3,790.7c0.7,2.1,0.7,6.6-2.1,7.1c-0.8,0.2-1.8,0.2-2.8,0.1c-0.4,0-0.7-0.2-1-0.4c-2-1.5-2.5-3.8-1.3-6.9
		L780.3,790.7L780.3,790.7z"/>
	<path class="st6" d="M673.1,797.6c-2.2,0-4.2-0.9-5.9-2.6c1.4-1.7,3-3.1,4.8-4.1c0.5-0.3,1.1-0.1,1.4,0.4c0.1,0.2,0.1,0.4,0.1,0.6
		L673.1,797.6z"/>
	<path class="st15" d="M667.2,795.1c1.7,1.7,3.7,2.6,5.9,2.6l0,25.8c-1.8-0.3-3.1,0.4-4,2c-2,3.8-0.6,6,4.2,6.6l0.1,9.7
		c0,0.2-0.2,0.4-0.4,0.4c0,0,0,0,0,0c-8.7-0.6-16.3-3.8-22.6-9.7c-5-4.7-3.9-14.1-0.1-19.1c5,5.4,11.6-2.3,5.8-6.5L667.2,795.1
		L667.2,795.1z"/>
	<path class="st1" d="M253.7,842.9c-0.3,0-0.6-0.3-0.6-0.6v-40c0-0.3,0.2-0.5,0.5-0.6c0,0,0.1,0,0.1,0l11,1.9c0.5,0.1,1,0.5,1.1,1
		c2.2,7.6,2.6,15.2,1.3,22.9c-0.2,1.2-1.5,5.2-3.9,12c-0.3,0.7-0.8,1.3-1.4,1.6C259.5,842.3,256.8,842.9,253.7,842.9L253.7,842.9z"
		/>
	<path class="st12" d="M266.8,836.3c3.6-9.2,4.3-19,1.8-29.4c-0.1-0.2,0.1-0.5,0.3-0.5c0.1,0,0.2,0,0.3,0
		c12.2,6.3,13.9,18.8,8.6,30.4c0,0.1-0.1,0.2-0.3,0.2h-10.4c-0.3,0-0.5-0.2-0.5-0.5C266.8,836.4,266.8,836.4,266.8,836.3z"/>
	<path class="st1" d="M240.1,806.2c0.4-0.1,0.7,0,0.9,0.4c0,0.1,0,0.2,0,0.2v36.4c0,0.5-0.4,0.9-0.8,1c-9.3,1.1-20.3,1.5-28.4,1.6
		c-6.7,0.1-10.7-0.1-12-0.4c-4.3-1.2-9.3-3.3-11.7-1.7c-2.3,1.5-4.4,1.7-7.9,1.9c-15.1,0.8-33.3-4-38.3-20.2
		c-1.6-5.1-2-10.4-1.3-16.1c0-0.3,0.3-0.5,0.6-0.5c0,0,0,0,0.1,0c23.2,6.4,46.8,7,70.8,4C221.8,811.7,231.1,809.4,240.1,806.2z"/>
	
		<ellipse transform="matrix(0.8894 -0.4571 0.4571 0.8894 -294.2095 405.2163)" class="st6" cx="690.4" cy="810.7" rx="4.2" ry="4.4"/>
	<circle class="st6" cx="724.6" cy="810.9" r="4.3"/>
	
		<ellipse transform="matrix(0.9646 -0.2639 0.2639 0.9646 -187.077 229.0605)" class="st6" cx="759.1" cy="810.9" rx="4.6" ry="4.4"/>
	<path class="st6" d="M656.1,806.8c5.8,4.1-0.8,11.8-5.8,6.5C651.6,810.4,653.5,808.3,656.1,806.8z"/>
	<path class="st6" d="M791.4,807l0.7,7.8C788.9,813.4,788.3,808.6,791.4,807z"/>
	<path class="st7" d="M774.5,823.7c-0.9,0.7-1.4,1.5-1.7,2.4c-0.9-0.1-1.2-0.6-0.9-1.5C772.6,822.6,773.5,822.3,774.5,823.7z"/>
	<path class="st6" d="M772.8,826.1c0.3-0.9,0.9-1.7,1.7-2.4c3.9-1.5,6.3-0.5,7.3,3.1c0.1,0.4,0.1,0.8,0.1,1.2
		C781,833.7,771.6,832.6,772.8,826.1L772.8,826.1z"/>
	<path class="st6" d="M673.1,823.4l0.2,8.6c-4.8-0.6-6.2-2.9-4.2-6.6C670,823.8,671.4,823.1,673.1,823.4z"/>
	<circle class="st6" cx="707.6" cy="827.6" r="4.2"/>
	<circle class="st6" cx="742" cy="827.6" r="4.3"/>
	<path class="st13" d="M240.8,847.6l0.3,3.4c0,0.6-0.4,1.1-0.9,1.1c0,0-0.1,0-0.1,0H127.4c-0.6,0-1-0.5-1-1v-6.3
		c0-0.6,0.3-1.2,0.9-1.6l15.1-8.7c0.4-0.2,1-0.1,1.3,0.2c3.2,3.8,7.2,6.6,12,8.7c11.6,4.9,23.2,5.8,34.8,2.6c0.4-0.1,0.9-0.1,1.4,0
		c5.9,1.5,9.9,2.3,12,2.3c11.2,0.1,23.1-0.5,35.7-1.7C240.2,846.5,240.7,846.9,240.8,847.6C240.8,847.6,240.8,847.6,240.8,847.6
		L240.8,847.6z"/>
	<path class="st13" d="M685.2,847.4c0-1.4,1.1-2.5,2.5-2.5c0.2,0,0.4,0,0.6,0.1c4.6,1.1,8.8,2.2,12.5,3.4c3.6,1.2,9.7,1.7,18.1,1.5
		c15.4-0.3,30.5-1.5,45.1-3.6c8.9-1.3,16.5-4.7,22.9-10.3c0.3-0.3,0.8-0.3,1.1-0.1l11.4,6.9c0.5,0.3,0.8,0.8,0.8,1.3v7.2
		c0,0.5-0.4,0.9-0.9,0.9H687.6c-1.3,0-2.4-1.1-2.4-2.4V847.4L685.2,847.4z"/>
	<path class="st13" d="M280.9,840.4c0.1,0.1,0.2,0.3,0,0.5c0,0-0.1,0.1-0.1,0.1l-16.7,10.2c-0.1,0.1-0.2,0.1-0.4,0.2
		c-2.4,0.8-5.5,1.1-9.4,0.9c-0.5,0-0.9-0.5-0.9-1v-5.4c0-0.4,0.3-0.8,0.7-0.9c3.9-0.6,10-0.8,11.5-4.8c0.2-0.4,0.3-0.7,0.5-0.9
		c0.3-0.3,0.7-0.4,1.2-0.4c4.1,0.5,8.3,1,12.8,1.3C280.5,840.1,280.7,840.2,280.9,840.4L280.9,840.4z"/>
	<path class="st13" d="M672.8,852.2h-8.3c-0.3,0-0.7-0.1-1-0.3l-17-10.2c-0.4-0.2-0.5-0.7-0.3-1.1c0.1-0.2,0.3-0.3,0.6-0.4l8-1
		c0.6-0.1,1.2,0,1.7,0.3c5.3,2.6,10.7,4.1,16.2,4.8c0.3,0,0.5,0.3,0.5,0.6v6.9C673.2,852,673,852.2,672.8,852.2z"/>
	<path class="st6" d="M694.4,844.4c-2.7-0.7-5.3-1.2-7.8-1.4c-0.5,0-0.7-0.2-0.8-0.4c-0.1-0.2,0-0.6,0.2-0.9c1.5-0.4,3-1,4.3-1.8
		c1.3-0.8,3-0.4,3.9,0.9C694.6,841.7,694.7,842.9,694.4,844.4z"/>
	<path class="st6" d="M764.1,844.1c-2.3,0.7-5,1-7.9,0.9c-0.4-1.5,0.2-2.7,1.7-3.8C761.2,838.8,763.4,840.8,764.1,844.1z"/>
	<path class="st6" d="M728.9,847.2l-7.5,0.5c-1.3-2.9-0.9-5.2,1.2-6.8c0.3-0.3,0.7-0.4,1.1-0.4C728.2,840.1,729.9,842.4,728.9,847.2
		L728.9,847.2z"/>
	<path class="st13" d="M265.2,853.1l17.1-9.9c0.2-0.1,0.4-0.1,0.5,0.1c0,0.1,0.1,0.1,0.1,0.2l0.4,7.4c0,0.1-0.1,0.3-0.2,0.4
		l-17.8,12c-0.2,0.1-0.4,0.1-0.5-0.1c0-0.1-0.1-0.1-0.1-0.2l0.3-9.6C265,853.3,265,853.2,265.2,853.1L265.2,853.1z"/>
	<path class="st13" d="M662.1,863.7l-17.9-11.9c-0.2-0.1-0.3-0.4-0.3-0.6l0.3-8.1c0-0.1,0.1-0.2,0.2-0.2c0,0,0.1,0,0.1,0l17.4,10.5
		c0.2,0.1,0.3,0.3,0.3,0.5l0.2,9.5C662.3,863.7,662.3,863.7,662.1,863.7C662.2,863.7,662.2,863.7,662.1,863.7L662.1,863.7z"/>
	<path class="st13" d="M261.7,864.6H112.1c-0.5,0-0.9-0.4-0.9-0.9v-8.2c0-0.8,0.6-1.5,1.5-1.6l0.6-0.1c0.5,0,0.9,0.3,0.9,0.8
		c0,0,0,0,0,0l0.2,2.2c0.1,1.1,0.9,1.9,2,2.1c3.1,0.5,5.8,0.3,8.1-0.5c0.4-0.1,0.8-0.4,1.1-0.8c0.6-0.7,0.9-1.6,0.9-2.6
		c0-0.3,0.3-0.5,0.6-0.5h113.4c0.4,0,0.8,0.3,0.9,0.8c0.5,2.6,2.7,3.9,6.6,3.8c2-0.1,3.5-0.5,4.5-1.5c0.2-0.2,0.4-0.4,0.4-0.7
		l0.4-1.4c0.1-0.3,0.4-0.6,0.8-0.6l7.9-0.6c0.3,0,0.5,0.2,0.6,0.5c0,0,0,0,0,0v8.9C262.4,864.3,262.1,864.6,261.7,864.6L261.7,864.6
		z"/>
	<path class="st13" d="M665.2,854.6h7.5c0.4,0,0.8,0.4,0.8,0.8c0,0.1,0,0.1,0,0.2c-0.4,1.6,0.6,2.6,2.9,3c2.9,0.4,8.8,0.5,8.8-3.6
		c0-0.4,0.3-0.7,0.7-0.7c0,0,0,0,0,0l113.4,0.3c0.4,0,0.8,0.2,1,0.6c0.7,1.2,0.6,2.6,2.3,3c2.6,0.5,4.8,0.6,6.7,0.4
		c0.4-0.1,0.8-0.2,1.2-0.4c1.5-0.8,2.2-1.9,2.3-3.3c0-0.5,0.5-0.9,1-0.9c0.1,0,0.2,0,0.2,0l1.6,0.5c0.7,0.2,1.2,0.9,1.2,1.7v7.7
		c0,0.5-0.4,0.8-0.8,0.8H665.4c-0.4,0-0.8-0.4-0.8-0.8l0,0v-8.7C664.6,854.9,664.9,854.6,665.2,854.6L665.2,854.6z"/>
	<path class="st14" d="M279.3,943.1h-7.2c-0.2,0-0.4-0.2-0.4-0.4l0,0v-80.5c0-0.1,0.1-0.3,0.2-0.4l7.2-4.9c0.2-0.1,0.5-0.1,0.6,0.1
		c0,0.1,0.1,0.2,0.1,0.2v85.3C279.7,942.9,279.5,943.1,279.3,943.1L279.3,943.1L279.3,943.1z"/>
	<path class="st14" d="M655.1,943.1H648c-0.2,0-0.4-0.2-0.4-0.4v0v-85.2c0-0.2,0.2-0.4,0.4-0.4c0.1,0,0.2,0,0.2,0.1l7.1,4.4
		c0.1,0.1,0.2,0.2,0.2,0.4v80.8C655.5,942.9,655.4,943.1,655.1,943.1L655.1,943.1L655.1,943.1z"/>
	<path class="st6" d="M269.4,918.8c0,0.4-0.3,0.8-0.8,0.8c-0.1,0-0.3,0-0.4-0.1l-5.5-3.3c-1.1-0.7-1.8-1.8-2-3.1
		c-0.2-2.1-0.1-5.6,0.4-10.4c1.3-13.1,3.4-25.8,6.3-38c0.1-0.5,0.6-0.8,1.2-0.7c0.4,0.1,0.7,0.5,0.7,0.9V918.8z"/>
	<path class="st12" d="M258.6,897.6l-7,0.4c-0.2,0-0.4-0.2-0.4-0.4c0,0,0,0,0,0v-29.9c0-0.2,0.2-0.4,0.4-0.4l12.2-0.7
		c0.2,0,0.4,0.2,0.4,0.4c0,0,0,0.1,0,0.1l-5.2,30.2C258.9,897.5,258.7,897.6,258.6,897.6L258.6,897.6z"/>
	<path class="st14" d="M122.1,867.2l7.6-0.4c0.2,0,0.4,0.2,0.4,0.4c0,0,0,0,0,0v62c0,0.2-0.2,0.4-0.4,0.4c-0.1,0-0.2,0-0.3-0.1
		l-7.6-6.1c-0.1-0.1-0.2-0.2-0.2-0.3v-55.4C121.7,867.4,121.8,867.2,122.1,867.2L122.1,867.2z"/>
	<path class="st14" d="M677.8,866.9h7.4c0.3,0,0.5,0.2,0.5,0.5v75.5c0,0.3-0.2,0.5-0.5,0.5h-7.4c-0.3,0-0.5-0.2-0.5-0.5v-75.5
		C677.3,867.1,677.5,866.9,677.8,866.9z"/>
	<path class="st12" d="M688.3,866.9h17.4c0.3,0,0.6,0.3,0.6,0.6c0,0,0,0,0,0l-0.8,28.6c0,0.3-0.3,0.6-0.6,0.6h-16.5
		c-0.3,0-0.6-0.3-0.6-0.6v-28.6C687.7,867.2,688,866.9,688.3,866.9L688.3,866.9z"/>
	<path class="st12" d="M728.7,866.9h23.1c0.6,0,1.2,0.5,1.2,1.2c0,0,0,0,0,0.1l-1.6,28.1c0,0.6-0.5,1.1-1.2,1.1h-19.4
		c-0.6,0-1.1-0.5-1.2-1.1l-2.1-28.1C727.5,867.5,728,867,728.7,866.9C728.6,866.9,728.7,866.9,728.7,866.9L728.7,866.9z"/>
	<path class="st12" d="M186.1,867.3h25.4c0.5,0,0.8,0.4,0.9,0.8c0,0,0,0,0,0.1l-1.6,28.5c0,0.4-0.4,0.8-0.8,0.8h-22.1
		c-0.4,0-0.8-0.3-0.8-0.8l-1.6-28.5C185.2,867.7,185.6,867.3,186.1,867.3C186.1,867.3,186.1,867.3,186.1,867.3L186.1,867.3z"/>
	<path class="st6" d="M229.2,922.5l-15.2-8c-1-0.5-1.7-1.6-1.7-2.7c0.1-13.2,1-27.8,2.7-44c0-0.4,0.4-0.7,0.7-0.7h15.5
		c0.3,0,0.6,0.2,0.6,0.6c1.5,15.5,2.2,30.8,2,46.1c0,1.2-0.3,2.3-0.8,3.3l-2.6,4.9C230.3,922.5,229.7,922.7,229.2,922.5L229.2,922.5
		z"/>
	<path class="st12" d="M234.9,867.4c0-0.3,0.2-0.6,0.5-0.6l0,0c1.4-0.1,2.5,0.5,2.6,1.2c0,0,0,0,0,0l1.2,27.7c0,0.7-1.1,1.4-2.5,1.4
		h0c-0.3,0-0.6-0.2-0.6-0.5c0,0,0,0,0,0L234.9,867.4z"/>
	<path class="st14" d="M241.4,867.1l6.9,0c0.3,0,0.5,0.2,0.5,0.5l0.1,75.3c0,0.3-0.2,0.5-0.5,0.5l-6.9,0c-0.3,0-0.5-0.2-0.5-0.5
		l-0.1-75.3C240.9,867.3,241.1,867.1,241.4,867.1z"/>
	<path class="st14" d="M798.3,867h6.8c0.4,0,0.8,0.3,0.8,0.8v74.8c0,0.4-0.3,0.8-0.8,0.8h-6.8c-0.4,0-0.8-0.3-0.8-0.8v-74.8
		C797.5,867.4,797.9,867,798.3,867z"/>
	<path class="st12" d="M462.6,901.3c0.2,0.1,0.3,0.4,0.2,0.6c-0.1,0.1-0.2,0.2-0.3,0.2c-3.6,0.4-7.4,0.2-11.5-0.5
		c-12.1-2.1-23.6-6.2-34.5-12.3c-0.4-0.2-0.6-0.7-0.6-1.1l0.9-7.7c0.1-0.6,0.6-1,1.2-0.9c0,0,0,0,0,0c5.9,0.8,11.5,0.8,16.6,0.2
		c0.6-0.1,1.2,0.3,1.4,0.9c1.1,3.3,2.6,5.9,5.4,8C448.2,893.8,455.7,897.4,462.6,901.3L462.6,901.3z"/>
	<path class="st12" d="M378.1,909.2c-5.8,0-10.2-2.2-9.9-8.8c0.2-4.8,0.8-10.9,1.8-18.3c0-0.4,0.4-0.6,0.8-0.6
		c2.6,0.3,5,0.5,7.3,0.5c2.2,0,4.7-0.2,7.3-0.5c0.4,0,0.7,0.2,0.8,0.6c1,7.4,1.6,13.5,1.9,18.3C388.3,906.9,384,909.2,378.1,909.2
		L378.1,909.2z"/>
	<path class="st11" d="M414.9,891.7c12.4,6.7,25.5,11,39.2,13c3.7,0.5,7.3,0.1,10.9-1.3c0.8-0.3,1.6-0.3,2.4,0
		c4.1,1.6,7.6,3.5,10.4,5.7c1.1,0.9,1.4,2.4,0.8,3.7c-2.7,5.5-24.9,2.1-30.6,0.9c-8.8-1.9-18.3-3.8-28.5-5.6c-0.3-0.1-2-0.5-5-1.4
		c-1.7-0.5-2.7-2.1-2.4-3.9l1.8-10.6c0.1-0.4,0.4-0.6,0.8-0.5C414.8,891.6,414.9,891.6,414.9,891.7L414.9,891.7z"/>
	<path class="st11" d="M366.2,899c0,0.1,0,0.8-0.2,2c-1.5,10,9.3,11.9,16.7,10.3c5.1-1.1,7.5-4.3,7.4-9.8c0-0.3,0.2-0.6,0.6-0.6h0
		c0.3,0,0.6,0.2,0.6,0.5c0.3,2.1,0.8,5,1.3,8.9c1.2,8.1,0.2,13.9-8.3,16c-7.9,2-22.6-0.5-21.7-11.6c0.5-6.4,1.4-11.6,2.7-15.7
		c0.1-0.3,0.3-0.4,0.6-0.3C366.1,898.7,366.2,898.8,366.2,899L366.2,899z"/>
	<path class="st6" d="M705.5,899.4v16.3c0,0.2-0.1,0.3-0.3,0.4l-17.2,6.5c-0.2,0.1-0.4,0-0.5-0.2c0,0,0-0.1,0-0.1v-22.8
		c0-0.2,0.2-0.4,0.4-0.4l0,0h17.2C705.4,899,705.5,899.2,705.5,899.4L705.5,899.4z"/>
	<path class="st6" d="M750.6,899c0.2,0,0.3,0.1,0.3,0.3l0.1,12.1c0,4.6-3.8,8.4-8.6,8.4l-3.8,0c-4.7,0-8.6-3.7-8.6-8.4c0,0,0,0,0,0
		l-0.1-12.1c0-0.2,0.1-0.3,0.3-0.3L750.6,899z"/>
	<path class="st6" d="M215.8,918.3c0.3,0.1,0.5,0.6,0.4,0.9c-0.1,0.2-0.2,0.3-0.4,0.4c-9.7,3.7-18.6,0.4-27.8-2.7
		c-0.3-0.1-0.6-0.4-0.6-0.8V900c0-0.3,0.3-0.6,0.6-0.6c0,0,0,0,0,0l21.5,0.6c0.5,0,0.9,0.4,0.8,0.9l-0.3,11.6
		c-0.1,1.9,1,3.6,2.8,4.4L215.8,918.3L215.8,918.3z"/>
	<path class="st6" d="M237.4,899.5h0.7c0.5,0,1,0.4,1,1v16.3c0,0.5-0.4,1-1,1h-0.7c-0.5,0-1-0.4-1-1v-16.3
		C236.4,900,236.9,899.5,237.4,899.5z"/>
	<path class="st6" d="M267.4,922.1c-0.4,0.4-1,0.7-1.9,0.8c-4.5,0.7-9.1,0.4-13.9-0.8c-0.4-0.1-0.6-0.4-0.6-0.8V901
		c0-0.4,0.3-0.8,0.7-0.8h6.7c0.4,0,0.7,0.3,0.7,0.7c0,0,0,0.1,0,0.1c-0.5,4.2-0.7,8.2-0.7,12c0.1,4.4,5.2,6.7,8.7,8.2
		c0.3,0.1,0.4,0.4,0.3,0.7C267.5,922,267.4,922.1,267.4,922.1L267.4,922.1z"/>
	<path class="st8" d="M438.9,914c-8.3-0.4-16.3-1.9-24.2-4.4c-0.3-0.1-0.5-0.4-0.4-0.7v0c0.1-0.3,0.4-0.5,0.7-0.4
		c6.5,2,13.3,3.3,20.4,4.1C436.3,912.7,437.5,913.2,438.9,914L438.9,914z"/>
	<path class="st8" d="M438.9,914c3.5,0.2,7,0.9,10.4,2c0,0,0.1,0.1,0,0.1c0,0,0,0-0.1,0C445.8,916,442.3,915.3,438.9,914z"/>
	<path class="st11" d="M687.9,935.9v-10.8c0-0.4,0.2-0.7,0.6-0.8c9.8-3.6,15.1-5.5,15.9-5.9c1.8-0.8,3.2-0.2,4.1,1.6
		c1.8,3.7,2.6,7.2,2.3,10.4c0,0.5-0.4,0.9-0.9,1l-21.4,5c-0.3,0.1-0.6-0.1-0.6-0.4C687.9,936,687.9,936,687.9,935.9L687.9,935.9z"/>
	<path class="st11" d="M740.5,935.4c-4.1,0-7.6-0.5-10.6-1.7c-1.6-0.6-2.6-2.3-2.4-4.1l1.2-10.3c0-0.4,0.4-0.8,0.9-0.7
		c0.1,0,0.2,0.1,0.3,0.1c3.2,2,6.7,3,10.4,2.9c3.8,0,7.2-1.1,10.4-3.1c0.4-0.2,0.9-0.2,1.1,0.2c0.1,0.1,0.1,0.2,0.1,0.3l1.4,10.2
		c0.2,1.7-0.7,3.4-2.3,4.1C748.2,934.7,744.7,935.3,740.5,935.4L740.5,935.4z"/>
	<path class="st9" d="M229.6,925.7l-0.2,7.6c0,0.5-0.3,0.9-0.7,1.1c-1.5,0.7-3.6,1.1-6.4,1.2c-10,0.5-20.1,0.6-30.4,0.4
		c-2.5-0.1-4.8-0.4-7-1c-0.6-0.2-1.1-0.7-1.1-1.3c-0.7-4.7-0.1-9.1,1.7-13c0.6-1.3,2.1-1.9,3.5-1.4c7.2,2.8,13.8,5.1,21.9,4.4
		c3.6-0.3,6.4-1.4,8.2-3.1c0.5-0.4,1.2-0.5,1.7-0.2l8.1,4.2C229.3,924.7,229.6,925.2,229.6,925.7L229.6,925.7z"/>
	<path class="st9" d="M238.8,935.2c0,0.4-0.3,0.8-0.8,0.8c-0.1,0-0.1,0-0.2,0l-5.2-1c-0.6-0.1-1-0.6-1-1.2c-0.2-7,0.7-11.5,2.6-13.6
		c0.3-0.3,0.6-0.4,1-0.5c0.9-0.1,1.9,0.3,3,1.1c0.4,0.3,0.6,0.7,0.6,1.2L238.8,935.2L238.8,935.2z"/>
	<path class="st9" d="M251.2,925c0-0.2,0.1-0.3,0.3-0.3c0,0,0,0,0.1,0c8.2,1.5,13.8,1.3,16.9-0.8c0.3-0.2,0.7-0.1,0.9,0.2
		c0.1,0.1,0.1,0.2,0.1,0.3v13.4c0,0.4-0.3,0.7-0.7,0.7c0,0,0,0,0,0l-16.9-1c-0.3,0-0.5-0.3-0.5-0.6V925z"/>
	
		<ellipse transform="matrix(0.6909 -0.723 0.723 0.6909 -462.7742 774.5497)" class="st14" cx="674.4" cy="928.4" rx="1.6" ry="1.2"/>
	<path class="st9" d="M282.2,937.2v-8.6c0-0.3,0.2-0.5,0.5-0.5c0.1,0,0.2,0,0.3,0.1l4,3.7c0.9,0.9,1.1,2.3,0.3,3.3
		c-0.8,0.9-2.1,1.8-4.1,2.6c-0.4,0.2-0.8,0-0.9-0.4C282.2,937.4,282.2,937.3,282.2,937.2L282.2,937.2z"/>
	<path class="st11" d="M665.7,940.4c-0.4,0.1-0.8-0.2-0.8-0.6c0-0.1,0-0.1,0-0.2c0.8-6.3,4.2-9,10.2-8.2c0.2,0,0.3,0.2,0.3,0.4v8.3
		c0,0.2-0.1,0.3-0.3,0.3c0,0,0,0,0,0C671.9,939.7,668.7,939.7,665.7,940.4L665.7,940.4z"/>
	<path class="st11" d="M710.6,933c0.1,0,0.3,0,0.3,0.2c0,0,0,0,0,0l0,0.1c0.3,1.1-0.3,2.3-1.3,2.6c0,0,0,0,0,0l-19.9,5.1
		c-1,0.3-2.1-0.4-2.4-1.6c0,0,0,0,0,0l0-0.1c0-0.1,0.1-0.3,0.2-0.3L710.6,933L710.6,933z"/>
	<path class="st11" d="M740.6,939.8c-4,0-10-0.2-12-3.9c-0.1-0.2,0-0.6,0.2-0.7c0.1-0.1,0.3-0.1,0.4,0c3.5,1.7,7.2,2.5,11.3,2.5
		c4.1,0,7.9-0.9,11.3-2.7c0.3-0.1,0.6,0,0.7,0.2c0.1,0.1,0.1,0.3,0,0.4C750.5,939.5,744.6,939.8,740.6,939.8L740.6,939.8z"/>
	<path class="st4" d="M207.3,940.5c-6.9,0.1-13.3,0.2-19.5-0.6c-1.4-0.2-2.4-0.5-3.3-1.1c-0.4-0.3-0.5-0.8-0.3-1.2
		c0.2-0.3,0.6-0.5,1-0.4c7,1.6,13.4,1.3,22,1.2c8.6-0.1,15.1,0.1,22-1.8c0.5-0.1,0.9,0.1,1.1,0.6c0.1,0.4,0,0.7-0.3,1
		c-0.8,0.6-1.9,1-3.2,1.2C220.6,940.3,214.2,940.4,207.3,940.5L207.3,940.5z"/>
	<path class="st10" d="M233.5,937.5l4.2,0.7c0.4,0.1,0.7,0.4,0.8,0.8l0.2,0.9c0.1,0.4-0.2,0.9-0.6,1c-0.1,0-0.2,0-0.3,0
		c-1.9-0.4-3.6-1.1-4.9-2.3c-0.3-0.2-0.3-0.6-0.1-0.9C233.1,937.6,233.3,937.5,233.5,937.5z"/>
	<path class="st4" d="M281.9,941.6c-0.1-0.1,0-0.2,0.1-0.3l0.8-0.5c2.5-1.7,4.6-2.8,4.8-2.5c0,0,0,0,0,0l0.2,0.3
		c0.2,0.3-1.6,1.9-4.1,3.6l-0.8,0.5c-0.1,0.1-0.2,0-0.3-0.1c0,0,0,0,0,0L281.9,941.6L281.9,941.6z"/>
	<path class="st10" d="M251.7,939.8l17.2,0.9c0.2,0,0.3,0.2,0.3,0.4l-0.1,1.8c0,0.2-0.2,0.3-0.4,0.3l-17.2-0.9
		c-0.2,0-0.3-0.2-0.3-0.4l0.1-1.8C251.4,940,251.6,939.8,251.7,939.8z"/>
	<path class="st8" d="M675.3,943.1c0,0.2-0.1,0.3-0.3,0.4c0,0,0,0,0,0l-5.1,0.1c-2.2,0-4-0.4-4-0.9v-0.3c0-0.5,1.7-1,3.9-1
		c0,0,0,0,0,0l5.1-0.1c0.2,0,0.3,0.1,0.3,0.3L675.3,943.1z"/>
</g>
</svg>
