<?xml version="1.0" encoding="utf-8"?>
<!-- Generator: Adobe Illustrator 24.0.2, SVG Export Plug-In . SVG Version: 6.00 Build 0)  -->
<svg version="1.1" id="Layer_1" xmlns="http://www.w3.org/2000/svg" xmlns:xlink="http://www.w3.org/1999/xlink" x="0px" y="0px"
	 viewBox="0 0 1024 1024" style="enable-background:new 0 0 1024 1024;" xml:space="preserve">
<style type="text/css">
	.st0{fill:#F5E6AE;}
	.st1{fill:#0D0A06;}
	.st2{fill:#DD9D94;}
	.st3{fill:#C4C4C4;}
	.st4{fill:#9EAF77;}
	.st5{fill:#685446;}
	.st6{fill:#F4DAC5;}
	.st7{fill:#BF9670;}
	.st8{fill:#FFFFFF;}
	.st9{fill:#AED0D0;}
	.st10{fill:#B7D09B;}
	.st11{fill:#D3A982;}
</style>
<path class="st0" d="M469.8,189.3c0.5,19.2-23.3,25-39.2,24.7c-13.8-0.3-29.1-6.9-29.5-22.8c-0.5-15.9,14.4-23.3,28.2-24.4
	C445.1,165.7,469.2,170.1,469.8,189.3L469.8,189.3z"/>
<path class="st1" d="M832.3,213.2c0.3,1.2,0,2.1-0.8,2.7c-0.1,0-0.3,0.1-0.4,0.1c-0.1,0-0.3,0-0.4-0.1
	c-35.9-14-73.6-21.4-113.1-22.3c-43.3-1-87.4,4.2-129,15.9c-17.6,4.9-44.3,15.1-57,19.8c-23,8.5-44.7,14.8-65.7,16.9
	c-23.3,2.4-46.6,0.2-69.8-6.6c-10.5-3.1-21.2-6.7-32.2-10.8c-26.2-9.8-53.4-14.2-81.7-13.2c-1.7-0.8-2.2-1.9-1.4-3.3
	c26.5-0.5,51.2,2,76.3,10.7c9.6,3.3,20.7,7.1,33.4,11.4c31,10.4,62.3,12.3,94,5.5c33.2-7.1,64-21.8,96.6-31.6
	c45.9-13.8,94.4-19.5,142.5-17.6C760.9,192.1,797.6,199.2,832.3,213.2L832.3,213.2z"/>
<path class="st2" d="M909.5,262.8c-0.9,0.2-1.7,0.9-2.4,2.2c-1.4,0.8-2.9,1.9-4.6,3.4c-0.3,0.3-0.7,0.5-1,0.8
	c-6,3.6-13.2,5.7-21.6,6.5c-15.8,1.4-32.4-2.6-42.1-15.4c-7.9-10.4-10.7-22.5-8.5-36.5c0.2-1.5,1-3.5,2.2-6.1
	c0.2-0.4,0.2-0.8,0.2-1.2l-0.1-0.6c0.8-0.6,1.1-1.5,0.8-2.7c0.4,0,0.7-0.1,0.8-0.3c5.5-11.6,14.4-18.3,27-20.2
	c19-2.9,37.7,9.3,48.3,24.5c7.2,10.3,9.5,22.1,6.7,35.4C914.7,254.3,912.9,257.8,909.5,262.8L909.5,262.8z"/>
<path class="st3" d="M831.5,215.9l0.1,0.6c0.1,0.4,0,0.8-0.2,1.2c-1.2,2.6-2,4.6-2.2,6.1c-2.2,14,0.6,26.2,8.5,36.5
	c9.7,12.7,26.3,16.8,42.1,15.4c8.4-0.8,15.6-2.9,21.6-6.5c0.4-0.2,0.7-0.5,1-0.8c1.7-1.5,3.2-2.7,4.6-3.4
	c27.4,27.8,44.6,62.1,53.8,99.9c8.9,36.6,6.6,72.2-6.9,106.8c-5.6,14.3-10.5,26.5-14.9,36.8c-3.8,9-6.9,17.5-9.3,25.5
	c-7.3,24.5-6,48.5,3.9,72.1c7,16.7,14.2,31.4,20.3,50l-4.4,14.6l-50-56c-0.8-0.9-1.9-1.4-3-1.4H862c-0.4,0-0.7-0.3-0.7-0.7
	c0-0.1,0-0.2,0-0.2c0.4-1.2,0.9-2.4,1.4-3.5c2.5-5.4,3.9-11.3,4.1-17.7c0.9-21.3-1.9-42.4-8.4-63.1c-4.3-13.8-12.8-23.6-25.3-29.5
	c-0.4-0.2-0.7-0.6-0.7-1.1c-0.2-7.1,0.1-12.4-3.2-18.8c-0.2-0.4,0-0.8,0.3-1c0.1,0,0.1-0.1,0.2-0.1c14.6-2.3,20.3-15.4,17.3-29.2
	c-0.1-0.5,0-1.1,0.3-1.6c7.9-11.6,11.3-31.8,9.5-45.2c-0.1-0.5,0.1-1,0.4-1.4c0.7-0.8,1.6-1.3,2.8-1.6c0.5-0.1,1,0.1,1.3,0.4
	c2,2.1,3.1,4.2,3.5,6.2c2.1,12.6-2.8,25.2-6.9,37.8c-5.4,16.2-4.2,35.6,7.6,48.9c2.4,2.7,5.3,4.6,8.6,5.6c1.6,0.3,4.4,1,8.5,2.2
	c6,1.7,12,1.2,17.8-1.6c1.2-0.7,1.7-1.5,1.4-2.5c-0.1-0.3-0.2-0.5-0.5-0.6c-10.7-8-9.1-24.5-3.4-34.9c0.3-0.6,0.5-1.2,0.4-1.9
	l-0.2-2.9c-0.1-1,0-1.9,0.3-2.9c0.2-0.7,1.2-4.1,2.9-10.2c6.5-22.5,5.6-53.1-16.9-66.1c-8.4-4.9-17.4-4.8-27,0.2
	c-0.6,0.3-1.3,0.3-1.9,0c-1.9-1-4-1.2-6.2-0.7c-0.3,0.1-0.6-0.1-0.8-0.4c-22.3-42.2-81.3-49.5-117.4-21.9c-5.2,3.9-8.4,6.4-9.8,7.3
	c-4.8,3.2-8.5,6.4-11,9.6c-12.2,15.3-15,39.9-3.4,56.2c0.4,0.5,0.7,0.8,0.9,0.8c0.4,0.1,0.8,0,1.2-0.2c0.3-0.1,0.6,0,0.7,0.3
	c0,0,0,0.1,0,0.1c0.8,6.9,0.9,17,0.5,30.3c-0.5,13.9,4.5,25,15,33.5c0.3,0.2,0.3,0.6,0.1,0.9c-0.1,0.1-0.2,0.2-0.4,0.2
	c-14.1,2-25.8,8.3-35.1,19c-3,3.5-6.6,8.2-10.8,14.1c-13.3,19-24.4,38.5-33.5,58.7c-4.7,10.6-6,19.9-3.8,28.1
	c0.1,0.4-0.1,0.8-0.5,0.9c-0.1,0-0.1,0-0.2,0h-8.8c-0.3,0-0.6-0.3-0.6-0.6c0-0.1,0-0.1,0-0.2c5.7-12.7,2.6-25.5-2.7-38
	c-8.6-20.5-18.7-39-30.1-55.7c-4.6-6.7-9-12-13.1-15.8c-10.5-9.7-24.8-14.9-39.3-16.3c-0.5,0-0.9-0.2-1.4-0.4l-10.8-6
	c-0.2-0.1-0.3-0.3-0.2-0.5c0-0.1,0.1-0.1,0.2-0.2c12-5.8,20.8-14.4,26.5-25.8c0.3-0.6,1-0.9,1.6-0.8c21.4,3.9,36-20.1,22.4-37
	c-0.3-0.4-0.4-1-0.2-1.5c13.1-25.2,12.8-64.7-14.7-80.9c0.2-0.3,0.2-0.6,0.1-0.9l8.1-0.2c0.8,0,1.4-0.6,1.4-1.4c0-0.1,0-0.3-0.1-0.4
	l-0.1-0.4c-0.5-1.2-1.7-2-3.1-2l-11.8,0.6c-0.7,0-1.3-0.5-1.4-1.2c-0.6-4.7-0.9-8.4-3.1-11.6c-0.6-0.9-1.8-1.1-2.6-0.5
	c-0.1,0.1-0.2,0.2-0.4,0.3c-0.1,0.1-0.2,0.4-0.4,0.8c-0.1,0.4-0.1,0.8,0.1,1.1c1.4,2.9,2.6,5.6,1.6,8.1c-0.2,0.5-0.7,0.7-1.1,0.5
	c-0.2-0.1-0.3-0.2-0.4-0.3c-3.3-4.7-7.5-8.3-12.6-10.7c-7.6-3.6-15.5-5.7-23.7-6.4c-32.6-2.5-64.3,13.8-83.5,39.6
	c-2,2.6-3.7,6-5.2,10c-0.9,2.5-0.2,4.5,2.2,6.1c0.7,0.5,1,1.4,0.7,2.2c-5.4,15.7-3.7,30.8,5.1,45.2c0.3,0.5,0.3,1,0,1.5
	c-7,10.4-1.4,26.9,8.7,32.9c0.6,0.4,1.1,0.9,1.3,1.6c0.1,0.4,0.6,2.1,1.3,5.1c3.8,15.2,14.2,23.8,28.2,29.5c0.4,0.2,0.5,0.6,0.4,0.9
	c-0.1,0.1-0.2,0.3-0.3,0.3l-3.8,2c-0.1,0-0.2,0.1-0.3,0.1c-21,3.7-38,9.9-50.8,27.8c-1.8,2.6-3.5,4.9-4.9,6.8
	c-0.3,0.4-0.7,0.6-1.2,0.5c-0.8-0.1-1.2-0.8-2.4-0.8c-5.1,0-8.6,5.1-4.7,9.6c0.5,0.6,0.6,1.5,0.2,2.2c-7.6,12.3-15,24.7-22.2,37.2
	c-7.6,13.3-13.4,28-7.3,42.8c0.1,0.3,0,0.7-0.4,0.9c-0.1,0-0.2,0-0.2,0h-11.9c-0.3,0-0.5-0.2-0.5-0.5c0,0,0-0.1,0-0.1
	c1.2-5.3,1.1-10.3-0.2-15.7c-1.8-7.2-4.4-14.8-7.7-22.8c-0.2-0.6,0-1.2,0.5-1.6l3.5-2.4c0.7-0.5,1-1.4,0.6-2.2
	c-7.6-16.7-16.2-32.4-25.7-47.2c-2.5-3.9-7.1-8.6-8.9-11.4c-0.2-0.3-0.1-0.8,0.2-1c8.9-6.1,15.1-15.3,17.5-26
	c2.4-10.3,5.6-21.2,9.8-32.6c0.3-0.9,0.9-1.6,1.6-2.2c7-5.1,11.6-12.8,13.9-22.9c3.3-14.8,0.2-27.8-9.3-39.1
	c-0.2-0.2-0.2-0.5,0.1-0.7c0,0,0.1-0.1,0.1-0.1c2-1.1,2.8-2.5,2.5-4.3c-0.4-2.6-1.7-5.2-3.9-7.8c-10.8-13-24.1-21.3-40.1-25
	c-0.9-0.2-1.8-0.6-2.6-1.2c-5.7-4.1-9.4-6.5-16.1-7.9c-16.8-3.4-32.1-0.5-45.9,8.8c-0.6,0.4-1.5,0.3-1.9-0.4
	c-0.1-0.1-0.1-0.3-0.2-0.4c-0.2-0.7-0.3-1.4-0.3-2.1c-0.1-2-1.9-3-3.6-2.6c-0.4,0.1-0.8,0.3-1.1,0.6c-3.2,2.8-5.7,9.5-6.1,13.1
	c0,0.3-0.3,0.5-0.6,0.5c0,0-0.1,0-0.1,0c-3.8-1.6-8-1.8-12.6-0.6c-0.8,0.2-1.4,1.1-1.1,1.9c0.2,0.6,0.7,1.1,1.3,1.2l4.1,0.5
	c0.1,0.6,0.3,0.8,0.4,0.6l-0.4,1.1c-0.1,0.4-0.4,0.7-0.8,0.9c-9.7,5.5-15.9,13.9-18.7,24.9c-4.4,17.4-3.8,34.1,1.8,49.9
	c0.2,0.5,0.1,1-0.1,1.5c-2.4,5.3-3.3,10.2-2.7,14.5c1.4,9.5,8.5,18,18.8,19.2c1.9,0.2,3,0.3,3,0.3c0.5,0.1,0.9,0.4,1.1,0.8l4.4,9.1
	c0.4,0.8,0.1,1.7-0.7,2.1c-0.1,0-0.1,0.1-0.2,0.1l-12.3,3.7c-0.4,0.1-0.8,0.2-1.2,0.2c-10.6,0.7-17.4,1.4-20.6,2.1
	c-15.4,3.2-28.5,11.2-39.3,24.1c-12.5,14.9-23.3,30.9-32.3,48c-0.6,1.1-0.4,2.4,0.4,3.3c0.7,0.8,1.8,1.5,3.2,2.3
	c0.6,0.3,0.9,1.1,0.6,1.8c0,0,0,0,0,0c-5.8,10.8-9.7,21.6-11.7,32.4c-0.4,2.1-0.1,5.6,0.7,10.2c0.1,0.4-0.2,0.7-0.6,0.8
	c0,0-0.1,0-0.1,0h-6.3c-1.2,0-2.3,0.5-3,1.4l-42.2,47c-1.8-3-3.5-6.3-4.9-9.7c-4.1-9.9-7.6-18.6-10.7-26.3
	c-4.7-11.9-8.9-19.6-15.9-31c-6.4-10.5-14.4-18.5-24-24.2c2.8-29,12.4-55.3,28.8-78.9c6.3-9.1,13.2-19.4,20.6-30.8
	c14.1-21.7,20.5-45.5,19.3-71.4c-0.7-14.5-2.1-28.2-1.6-43.6c3.8,2.1,6.9,3.4,9.3,3.9c22.8,4.7,48.6-10.5,61.6-28.2
	c3.4-4.7,6.7-9.1,9.7-13.2c8.3-11.2,18.9-18.7,31.7-22.5c16-4.8,31.5-8.4,47.4-16c14.6-7,29.2-19.9,33-35.9
	c1.3-5.7,1.2-11.8-0.5-18.3c28.3-1,55.5,3.4,81.7,13.2c11,4.1,21.7,7.7,32.2,10.8c23.3,6.8,46.5,9,69.8,6.6
	c20.9-2.2,42.7-8.5,65.7-16.9c12.7-4.7,39.3-14.8,57-19.8c41.6-11.7,85.7-16.8,129-15.9c39.4,0.9,77.1,8.3,113.1,22.3
	c0.2,0.1,0.3,0.1,0.4,0.1C831.2,216,831.3,215.9,831.5,215.9L831.5,215.9z"/>
<path class="st4" d="M280.8,212.3c-0.8,1.3-0.3,2.4,1.4,3.3c1.7,6.5,1.8,12.6,0.5,18.3c-3.8,16.1-18.4,29-33,35.9
	c-15.9,7.6-31.4,11.2-47.4,16c-12.9,3.9-23.4,11.4-31.7,22.5c-3,4.1-6.3,8.5-9.7,13.2c-13,17.6-38.9,32.9-61.6,28.2
	c-2.5-0.5-5.6-1.8-9.3-3.9c-0.7-1.1-1.7-1.6-3-1.7c-3.8-6.2-5.4-13-4.7-20.5c3.1-35.8,19.7-69.5,47.9-91.5
	c22.8-17.8,52.5-27.3,81.8-31c15.6-2,30.3-2,44.1-0.3C264.9,202.1,275.1,204.4,280.8,212.3L280.8,212.3z"/>
<path class="st1" d="M909.5,262.8c33.4,34,53.6,80.2,58.8,127c2.3,20.6,0.8,41.6-4.9,62.7c-7,26.1-19.8,51.2-28.2,75.1
	c-2.7,7.9-4.7,15.9-6,24.1c-4.4,29.6,7.1,52.9,18.8,79c3.3,7.4,5.9,15.2,8.4,23.1c-0.3,1.7-1.1,2.4-2.5,2.3
	c-6.1-18.6-13.3-33.3-20.3-50c-9.9-23.6-11.2-47.6-3.9-72.1c2.4-7.9,5.4-16.4,9.3-25.5c4.3-10.3,9.3-22.6,14.9-36.8
	c13.5-34.6,15.8-70.2,6.9-106.8c-9.2-37.8-26.4-72.1-53.8-99.9C907.8,263.7,908.6,263,909.5,262.8L909.5,262.8z"/>
<path class="st1" d="M570.4,332.9c-0.2,0.1-0.4,0.1-0.4,0.2c-2.5-0.4-4.4-1.2-5.8-2.4c-2.4-2.1-5-2.9-7.8-2.5
	c-0.9,0.1-1.8-0.2-2.4-1c-8.8-11.1-20.9-13.7-35.3-14.6c-9-0.6-18.5,0.4-28.3,2.8c-9.1,2.3-20.3,8.5-27.1,13.1
	c-8.3,5.6-15.7,12.5-22.1,20.6c-2.6,3.3-4.4,6.8-5.6,10.6c-0.2,0.8,0.2,1.7,1,1.9c0.4,0.1,0.7,0.1,1.1-0.1l1.5-0.7
	c0.7-0.3,1.6,0,1.9,0.7c0.2,0.4,0.2,0.9-0.1,1.3c-7.9,14-8.2,28.2-1,42.5c1,2,2.3,3.6,3.8,4.8c0.6,0.5,1.5,0.4,2-0.2
	c0.2-0.3,0.3-0.6,0.3-0.9c-0.1-5-0.1-9.5,0-13.7c0-0.8,0.6-1.4,1.3-1.4c0.4,0,0.8-0.2,1.2-0.5c0.3-0.3,0.5-0.7,0.5-1.1
	c0.1-11.3,4.5-20.7,13.1-28.1c0.9-0.8,1.7-1.5,2.6-2.3c0.4-0.4,0.6-0.9,0.6-1.4l0.1-4.7c0-0.6,0.5-1,1.1-1c0.1,0,0.3,0,0.4,0.1
	l0.2,0.1c0.8,0.3,1.3,1.1,1.3,2c-0.6,14.1,5,25.1,16.8,33c1.1,0.8,2.2,0.8,3.2,0.1c0.5,1.3,0.1,2.4-1,3.1c-1.1,0.7-2.3,0.8-3.4,0.2
	c-9.5-4.7-15.5-16-18-26.7c-0.1-0.5-0.6-0.8-1.1-0.7c-0.1,0-0.3,0.1-0.4,0.2c-7.7,6.4-11.1,15.4-12.3,25.4c-0.1,0.9-0.3,1.5-0.7,1.9
	c-0.4,0.4-1,0.5-2,0.3c-0.4-0.1-0.8,0.2-0.8,0.6c0,0,0,0.1,0,0.1c-0.4,6.5,0,13.5,1.1,21.1c1.7,11.3,2.9,25.5,3.7,32.8
	c1.5,14,12,25.9,24.7,30.8c10.7,4.2,22,5.6,33.7,4.1c21.6-2.6,37.6-13.5,48-32.6c0.2-0.4,0.6-0.6,1-0.6c2.5,0.1,4.4,0.2,5.8,0.4
	c6.5,0.6,12.8-2.7,16.7-7.6c7-9,5.5-26.4-7.7-28.3c-8.8-1.2-10.1,4.3-12.6,11.1c-0.4,1-1.6,1.6-2.6,1.2c-0.1,0-0.1,0-0.1-0.1
	c-4.4-2.1-5.5-14.4-5.5-18.8c0-0.5-0.4-1-0.9-1.1c-16.7-3.5-28.3-14.7-34.7-30.7c-0.1-0.2-0.3-0.3-0.5-0.2c-0.2,0.1-0.3,0.2-0.3,0.4
	c-0.6,6.4,1.5,12.1,4.1,18.1c0.3,0.8,0.4,1.4,0.1,1.8c-0.3,0.5-0.7,0.9-1.4,1.3c-6.1-9.3-7.6-19-4.5-29.2c0.2-0.7,0.9-1.1,1.6-0.9
	c0.3,0.1,0.5,0.3,0.7,0.5c0.7,1,1.3,2.1,1.8,3.3c2.6,6.3,6.3,14.9,10.7,19.8c6.3,7,14.5,11.2,24.5,12.6c1,0.1,1.8,1,1.8,2.1
	c-0.2,6,0.8,11.5,2.9,16.4c0.1,0.3,0.5,0.4,0.8,0.3c0.1-0.1,0.2-0.2,0.3-0.3l2.8-6.6c0.2-0.6,0.6-1.1,1.1-1.5c0.5-0.5,1.9-1,4.1-1.6
	c3.9-0.9,7.7-0.6,11.2,0.9c0.8,0.3,1.7,0,2.1-0.8c4.3-8.8,6.7-18.6,7.2-29.4c0.5-9.8-1.3-19.5-5.4-29.1c-3.2-7.7-8-12-14.4-16.7
	c-0.8-0.6-1.2-1.4-1.3-2.6c0-0.3,0.2-0.7,0.5-0.8c0.2-0.1,0.3-0.1,0.5-0.2c0.1,0,0.2,0.1,0.2,0.1c27.6,16.3,27.8,55.8,14.7,80.9
	c-0.3,0.5-0.2,1.1,0.2,1.5c13.6,16.9-1,40.9-22.4,37c-0.7-0.1-1.3,0.2-1.6,0.8c-5.7,11.4-14.6,19.9-26.5,25.8
	c-0.2,0.1-0.3,0.3-0.2,0.5c0,0.1,0.1,0.1,0.2,0.2l10.8,6c0.4,0.2,0.9,0.4,1.4,0.4c14.5,1.3,28.8,6.6,39.3,16.3
	c4.1,3.8,8.5,9.1,13.1,15.8c11.5,16.7,21.5,35.2,30.1,55.7c5.2,12.4,8.3,25.3,2.7,38c-0.1,0.3,0,0.6,0.3,0.7c0.1,0,0.1,0,0.2,0h8.8
	c0.4,0,0.8-0.3,0.8-0.8c0-0.1,0-0.1,0-0.2c-2.2-8.2-0.9-17.6,3.8-28.1c9.1-20.2,20.2-39.7,33.5-58.7c4.1-5.9,7.7-10.6,10.8-14.1
	c9.3-10.6,21-17,35.1-19c0.3-0.1,0.6-0.4,0.5-0.7c0-0.1-0.1-0.3-0.2-0.4c-10.5-8.4-15.5-19.6-15-33.5c0.4-13.3,0.3-23.4-0.5-30.3
	c0-0.3-0.3-0.5-0.6-0.5c-0.1,0-0.1,0-0.1,0c-0.4,0.2-0.8,0.2-1.2,0.2c-0.2,0-0.5-0.3-0.9-0.8c-11.7-16.3-8.9-40.9,3.4-56.2
	c2.5-3.1,6.1-6.3,11-9.6c1.4-0.9,4.6-3.4,9.8-7.3c36.1-27.6,95.2-20.3,117.4,21.9c0.2,0.3,0.5,0.4,0.8,0.4c2.2-0.5,4.3-0.3,6.2,0.7
	c0.6,0.3,1.3,0.3,1.9,0c9.6-5,18.5-5,27-0.2c22.5,13,23.4,43.6,16.9,66.1c-1.8,6.2-2.8,9.6-2.9,10.2c-0.2,0.9-0.3,1.9-0.3,2.9
	l0.2,2.9c0,0.7-0.1,1.3-0.4,1.9c-5.7,10.4-7.4,27,3.4,34.9c0.2,0.2,0.4,0.4,0.5,0.6c0.3,0.9-0.2,1.8-1.4,2.5
	c-7.7-7.3-11-15.9-9.9-25.8c0.3-2.8,1.1-5.5,2.4-8.2c2.2-4.7,2.4-9.3,3.7-14.9c2.9-12.8,6.9-26.6,4.7-39.9
	c-2.6-15.9-8.3-28.7-24.5-32.9c-6.4-1.6-11.4-2.1-16.8,1.4c-0.7,0.5-0.9,1.5-0.5,2.2c0,0,0,0,0,0.1c3.1,4.3,3.2,8.5,2.9,13.7
	c0,0.6,0.2,1.3,0.6,1.7c4.9,5.7,6.6,12.4,5.1,20.1c-0.9,4.9-2.1,11.2-4.2,17.1c-1.2,3.5-2.8,9.1-4.8,16.8
	c-3.8,15.1-0.9,28.3,8.6,39.6c0.8,0.9,2.5,2.2,5.4,4c2.3,1.4,2.6,2.8,0.9,4.3c-3.3-1-6.2-2.9-8.6-5.6c-11.8-13.3-13-32.8-7.6-48.9
	c4.2-12.5,9-25.2,6.9-37.8c-0.3-2-1.5-4-3.5-6.2c-0.3-0.4-0.8-0.5-1.3-0.4c-1.1,0.2-2.1,0.8-2.8,1.6c-0.3,0.4-0.5,0.9-0.4,1.4
	c1.8,13.4-1.7,33.6-9.5,45.2c-0.3,0.5-0.4,1-0.3,1.6c3.1,13.8-2.7,27-17.3,29.2c-0.4,0.1-0.7,0.5-0.6,0.9c0,0.1,0,0.1,0.1,0.2
	c3.3,6.4,3,11.7,3.2,18.8c0,0.5,0.3,0.9,0.7,1.1c12.5,5.9,21,15.7,25.3,29.5c6.5,20.7,9.3,41.7,8.4,63.1c-0.3,6.4-1.7,12.3-4.1,17.7
	c-0.5,1.1-1,2.3-1.4,3.5c-0.1,0.4,0.1,0.7,0.4,0.9c0.1,0,0.1,0,0.2,0h34.7c1.2,0,2.3,0.5,3,1.4l50,56c0.5,1.7,0.3,2.9-0.7,3.6
	l-50.6-56.4c-0.9-1.1-2.3-1.7-3.7-1.7c-12.5,0-24,0-34.6,0.1c-1.7,0-2.7,0.9-3,2.8c-0.1,0.6,0,1.3,0.5,1.7l28.5,33.3
	c0.5,0.6,0.8,1.3,0.8,2.1l0.3,5.2c0,0.7-0.5,1.2-1.1,1.3c0,0-0.1,0-0.1,0c-34.9-1.7-55.3-2.6-61.2-2.8c-14.4-0.5-22.9-0.8-25.5-0.8
	c-8.9,0-13.8,2.1-22.2,5.4c-3.8,1.5-11.6-2.7-15.4-4c-3.3-1.1-8-1.5-14.1-1.2c-23.6,1.1-47.3,2.7-70.8,4.9l-14.1,0.9
	c-0.9,0.1-1.7-0.6-1.7-1.5c0-0.2,0-0.4,0.1-0.5l2.9-10l9.1-18.3c0.2-0.4,0-0.9-0.4-1.1c-0.1,0-0.1,0-0.2-0.1
	c-11-2.8-22.1-6.4-28.1-16.3c-0.3-0.5-0.8-0.7-1.3-0.7H631c-0.5,0-1,0.2-1.4,0.6c-5.9,5.7-13.2,9.4-21.7,11.3
	c-0.4,0.1-0.7,0.5-0.6,0.9c0,0.1,0.1,0.2,0.1,0.3l19.5,26.3c0.1,0.2,0.2,0.4,0.3,0.6l0.5,3.1c0.1,0.5,0.4,1,0.8,1.3l2,1.6
	c0.1,0.1,0.3,0.3,0.3,0.5c0.7,1.7,0.9,3,0.8,3.7c-0.2,1-1.2,1.7-2.4,1.7c-38.8-1.7-76.3-3.6-112.3-5.8c-0.6,0-1.1,0.1-1.6,0.4
	c-9.3,6.2-18.8,6.1-28.6-0.2c-0.2-0.1-0.3-0.1-0.5-0.1l-112.8,6c-1.1,0.1-2-0.8-2.1-1.9c0,0,0-0.1,0-0.1c0-2.2,1.2-4.4,3.5-6.7
	c0.4-0.4,0.6-0.9,0.6-1.5v-1.9c0-0.6,0.2-1.2,0.6-1.7l21.2-28c0.4-0.5,0.3-1.3-0.2-1.7c-0.1-0.1-0.2-0.1-0.3-0.2
	c-4.3-1.4-7.9-3.9-11-7.4c-0.4-0.5-1.1-0.8-1.7-0.8h-14.5c-0.5,0-1,0.3-1.2,0.7c-5.5,9.4-13.6,11.3-23.9,13c-1.4,0.2-2.3,1.6-2.1,3
	c0.1,0.4,0.2,0.8,0.5,1.1l17,22.8c0.4,0.6,0.6,1.3,0.5,2c-0.2,1.3,0,2.7,0.5,4.2c0.2,0.7-0.2,1.5-0.9,1.8c-0.1,0-0.3,0.1-0.5,0.1
	c-16.2-0.4-34.3-1.5-54.4-3.1c-10-0.8-23.1-1.4-31.8-1c-7,0.3-11.4,2.1-17.8,4.7c-2.9,1.2-5.8,1.3-8.5,0.2c-5-2-8.6-3.4-10.8-4
	c-0.6-0.2-1.2-0.3-1.8-0.3c-4.8-0.3-8.6-0.4-11.4-0.3c-28,1.6-55.5,3.5-82.4,5.5c-1.1,0.1-2.1-0.8-2.2-1.9c0-0.2,0-0.3,0-0.5l1-5.8
	c0-0.2,0.1-0.4,0.2-0.6l18.1-27.4c0.2-0.3,0.1-0.8-0.2-1c-0.1-0.1-0.2-0.1-0.3-0.1c-9.4-1.7-17.7-4.9-24.3-12.3
	c-0.4-0.4-1-0.7-1.6-0.7h-7.3c-0.6,0-1.2,0.3-1.6,0.7l-42.7,48.2c-1.6-0.3-2-1.5-1.1-3.7l42.2-47c0.8-0.9,1.9-1.4,3-1.4h6.3
	c0.4,0,0.7-0.3,0.7-0.7c0,0,0-0.1,0-0.1c-0.9-4.7-1.1-8.1-0.7-10.2c2-10.8,5.9-21.6,11.7-32.4c0.3-0.6,0.1-1.4-0.5-1.8c0,0,0,0,0,0
	c-1.4-0.8-2.5-1.5-3.2-2.3c-0.8-0.9-1-2.2-0.4-3.3c9-17.1,19.8-33.1,32.3-48c10.8-12.8,23.9-20.9,39.3-24.1
	c3.2-0.7,10.1-1.4,20.6-2.1c0.4,0,0.8-0.1,1.2-0.2l12.3-3.7c0.8-0.3,1.3-1.1,1-2c0-0.1-0.1-0.1-0.1-0.2l-4.4-9.1
	c-0.2-0.4-0.6-0.7-1.1-0.8c-0.1,0-1.1-0.1-3-0.3c-10.3-1.2-17.4-9.7-18.8-19.2c-0.6-4.4,0.3-9.2,2.7-14.5c0.2-0.5,0.2-1,0.1-1.5
	c-5.6-15.8-6.2-32.5-1.8-49.9c2.8-11.1,9.1-19.4,18.7-24.9c0.4-0.2,0.6-0.5,0.8-0.9l0.4-1.1c1.5,1.2,1.9,2.7,1.1,4.3
	c-0.2,0.4-0.5,0.7-0.9,0.8c-12,5.6-16.6,16.7-18.3,29.2c-1.6,11.3-1.7,21.5-0.5,30.7c0.4,2.9,1.4,5.8,2.9,8.6
	c0.2,0.4,0.7,0.6,1.2,0.4c7.8-3.9,14.5-5.8,22,0.1c4.6,3.6,4.1,8.3,4.8,13.7c0.2,1.2,1.2,2,2.3,1.9c0.2,0,0.4-0.1,0.6-0.2
	c2.7-1.4,3.8-10.6,4.4-14.8c0.2-1.3,1.4-2.2,2.7-2c0,0,0.1,0,0.1,0l1.4,0.3c0.5,0.1,0.9-0.1,1.2-0.4c7.6-7.4,10.7-18.3,11.3-29
	c0.1-1,0.6-1.9,1.6-2.5c0.3-0.2,0.8-0.2,1.1,0.1c0.3,0.3,0.5,0.7,0.6,1.1c-0.2,9.9-4.9,31.1-16,34.9c-0.5,0.2-1,0.6-1.1,1.2
	c-1.9,5.7-3.4,13.3-6.8,14.2c-6.7,1.9-6.7-5.7-7.2-10.1c-0.8-7.6-9.3-10.3-15.8-8.5c-9.5,2.7-12.6,13.7-9.5,22.3
	c3.3,9,9.9,13.5,19.8,13.5c0.7,0,1.2,0.4,1.5,1c4.1,10.9,10.7,19.9,19.9,27.2c16.3,12.8,39.7,19.9,59.8,12.6
	c19.4-7.1,24.3-22.2,28.2-40.8c0.6-3.1,2.1-7.7,4.5-13.7c4.3-11.1,6.5-21,5.3-32.4c-0.1-0.7-0.7-1.3-1.5-1.2c-0.1,0-0.1,0-0.2,0
	c-3.4,0.8-5.5,1.5-8.7,1.3c-8.2-0.4-15.1-3.3-22.7-6.4c-3.7-2.8-7.4-5.7-11-8.6c-1.3-1-2.1-2.2-2.4-3.6c-0.1-0.6,0.2-1.2,0.8-1.4
	c0.1,0,0.2,0,0.3,0c0.4,0,0.8,0.2,1.3,0.7c8.9,8.2,20.9,16.4,32.5,16.3c2.9,0,6.5-0.3,10.9-1c1.5-0.2,3,0.8,3.3,2.2
	c1.8,7.1,0.3,13.4-0.9,20.5c0,0.2,0.1,0.4,0.2,0.4c0.1,0,0.3,0,0.4-0.1c5.2-6.2,10.5-15.5,10.4-24c0-2,0.1-4.8,0.5-8.4
	c0.1-0.5,0-1,0-1.6c-1.1-8.4-4.7-15.7-10.8-22c-0.8-0.9-0.8-2.2,0.1-3c0.1-0.1,0.1-0.1,0.2-0.2l2.3-1.7c0.3-0.2,0.5-0.7,0.4-1.1
	c-0.6-2.2-2.2-4.6-4.8-7.4c-7.8-8.2-15.6-14.2-23.6-18c-2.1-1-6.8-2.5-14.2-4.6c-0.6-0.2-1.1-0.4-1.6-0.8c-6.2-4.1-10-6.4-11.3-6.7
	c-17.3-4-34.2-4.2-48.2,7.5c-0.3,0.2-0.5,0.4-0.9,0.5c-1.3,0.4-2.7,0.2-4.4-0.5c-0.5-0.2-0.8-0.7-0.8-1.2v-3.1
	c0-0.4-0.3-0.7-0.7-0.7c-0.1,0-0.3,0-0.4,0.1c-3.1,2.2-3.9,6.2-5,10.5c-0.2,0.9-0.9,1.5-1.8,1.7c-2.3,0.5-4.6,0.5-6.8,0.1
	c-0.5-0.1-1,0-1.4,0.2l-2,0.9l-4.1-0.5c-0.9-0.1-1.5-0.9-1.4-1.8c0.1-0.6,0.5-1.2,1.2-1.3c4.6-1.2,8.8-1,12.6,0.6
	c0.3,0.1,0.6,0,0.7-0.3c0,0,0-0.1,0-0.1c0.4-3.6,2.9-10.2,6.1-13.1c0.3-0.3,0.7-0.5,1.1-0.6c1.7-0.4,3.6,0.6,3.6,2.6
	c0,0.7,0.1,1.4,0.3,2.1c0.2,0.7,1,1.2,1.7,1c0.1,0,0.3-0.1,0.4-0.2c13.9-9.3,29.2-12.2,45.9-8.8c6.7,1.4,10.4,3.8,16.1,7.9
	c0.8,0.6,1.7,1,2.6,1.2c16,3.7,29.4,12,40.1,25c2.2,2.6,3.5,5.2,3.9,7.8c0.3,1.8-0.5,3.2-2.5,4.3c-0.3,0.1-0.4,0.5-0.2,0.7
	c0,0,0,0.1,0.1,0.1c9.5,11.2,12.6,24.2,9.3,39.1c-2.2,10.1-6.9,17.8-13.9,22.9c-0.7,0.5-1.3,1.3-1.6,2.2
	c-4.1,11.5-7.4,22.3-9.8,32.6c-2.5,10.7-8.7,19.9-17.5,26c-0.3,0.2-0.4,0.7-0.2,1c1.8,2.7,6.4,7.4,8.9,11.4
	c9.6,14.8,18.2,30.5,25.7,47.2c0.4,0.8,0.1,1.7-0.6,2.2l-3.5,2.4c-0.5,0.3-0.7,1-0.5,1.6c3.4,8,5.9,15.6,7.7,22.8
	c1.3,5.4,1.4,10.4,0.2,15.7c-0.1,0.3,0.1,0.5,0.4,0.6c0,0,0.1,0,0.1,0H382c0.4,0,0.7-0.3,0.7-0.7c0-0.1,0-0.2,0-0.2
	c-6.1-14.8-0.4-29.5,7.3-42.8c7.2-12.6,14.6-25,22.2-37.2c0.4-0.7,0.4-1.6-0.2-2.2c-3.8-4.6-0.4-9.6,4.7-9.6c1.2,0,1.6,0.7,2.4,0.8
	c0.4,0.1,0.9-0.1,1.2-0.5c1.4-2,3.1-4.2,4.9-6.8c12.8-17.9,29.8-24.1,50.8-27.8c0.1,0,0.2,0,0.3-0.1l3.8-2c0.3-0.2,0.5-0.6,0.3-1
	c-0.1-0.1-0.2-0.3-0.3-0.3c-14.1-5.7-24.4-14.3-28.2-29.5c-0.7-2.9-1.2-4.6-1.3-5.1c-0.2-0.7-0.7-1.3-1.3-1.6
	c-10.1-6-15.7-22.5-8.7-32.9c0.3-0.5,0.3-1,0-1.5c-8.9-14.4-10.6-29.4-5.1-45.2c0.3-0.8,0-1.7-0.7-2.2c-2.4-1.6-3.1-3.6-2.2-6.1
	c1.5-4.1,3.2-7.4,5.2-10c19.2-25.8,50.9-42.2,83.5-39.6c8.2,0.6,16.1,2.8,23.7,6.4c5,2.4,9.2,6,12.6,10.7c0.3,0.4,0.8,0.5,1.2,0.2
	c0.2-0.1,0.3-0.3,0.3-0.4c0.9-2.6-0.3-5.3-1.6-8.1c-0.2-0.3-0.2-0.7-0.1-1.1c0.1-0.4,0.3-0.7,0.4-0.8c0.7-0.8,1.9-0.8,2.7-0.1
	c0.1,0.1,0.2,0.2,0.3,0.4c2.2,3.2,2.4,6.9,3.1,11.6c0.1,0.7,0.7,1.2,1.4,1.2l11.8-0.6c1.3-0.1,2.6,0.7,3.1,2l0.1,0.4
	c0.2,0.7-0.2,1.5-0.9,1.7c-0.1,0-0.3,0.1-0.4,0.1L570.4,332.9z"/>
<path class="st5" d="M570,333.2l0.1,0.5c-0.2,0.1-0.3,0.1-0.5,0.2c-0.3,0.1-0.5,0.4-0.5,0.8c0.1,1.2,0.6,2.1,1.3,2.6
	c6.5,4.7,11.2,9.1,14.4,16.7c4.1,9.6,5.9,19.3,5.4,29.1c-0.5,10.8-2.9,20.6-7.2,29.4c-0.4,0.8-1.3,1.1-2.1,0.8
	c-3.5-1.5-7.3-1.8-11.2-0.9c-2.2,0.5-3.6,1.1-4.1,1.6c-0.5,0.4-0.8,0.9-1.1,1.5l-2.8,6.6c-0.1,0.3-0.5,0.4-0.7,0.3
	c-0.1-0.1-0.2-0.2-0.3-0.3c-2.1-4.9-3.1-10.4-2.9-16.4c0-1-0.7-1.9-1.8-2.1c-10-1.3-18.2-5.5-24.5-12.6c-4.4-4.9-8.1-13.5-10.7-19.8
	c-0.5-1.2-1.1-2.3-1.8-3.3c-0.4-0.6-1.2-0.7-1.8-0.3c-0.2,0.2-0.4,0.4-0.5,0.7c-3.1,10.2-1.6,19.9,4.5,29.2c-0.9,0.5-2.3,1-4.2,1.3
	c0.5-1,0.2-1.6-0.8-1.9c-17-4.5-27.1-15.3-30.5-32.6c-0.1-0.5-0.6-0.9-1.2-0.8c-0.4,0.1-0.7,0.4-0.8,0.8c-0.5,2.6-0.2,5.5,0.8,8.5
	c0.2-0.3,0.1-0.4-0.3-0.3c-0.2,0-0.3,0.2-0.3,0.3c-0.2,6.3,1.3,12.1,4.5,17.3c-1,0.7-2,0.7-3.2-0.1c-11.8-7.9-17.4-18.8-16.8-33
	c0-0.9-0.5-1.6-1.3-2l-0.2-0.1c-0.5-0.2-1.1,0-1.4,0.5c-0.1,0.1-0.1,0.3-0.1,0.4l-0.1,4.7c0,0.5-0.2,1-0.6,1.4
	c-0.9,0.8-1.7,1.6-2.6,2.3c-8.6,7.5-13,16.8-13.1,28.1c0,0.4-0.2,0.8-0.5,1.1c-0.4,0.3-0.8,0.5-1.2,0.5c-0.7,0-1.3,0.6-1.3,1.4
	c-0.1,4.1-0.1,8.7,0,13.7c0,0.8-0.6,1.4-1.4,1.5c-0.3,0-0.7-0.1-0.9-0.3c-1.5-1.2-2.8-2.8-3.8-4.8c-7.2-14.3-6.9-28.5,1-42.5
	c0.4-0.7,0.2-1.6-0.5-2c-0.4-0.2-0.9-0.3-1.3-0.1l-1.5,0.7c-0.8,0.4-1.7,0-2-0.7c-0.2-0.3-0.2-0.7-0.1-1.1c1.1-3.8,3-7.3,5.6-10.6
	c6.4-8.2,13.8-15.1,22.1-20.6c6.9-4.6,18-10.9,27.1-13.1c9.9-2.4,19.3-3.4,28.3-2.8c14.4,0.9,26.5,3.5,35.3,14.6
	c0.6,0.7,1.5,1.1,2.4,1c2.8-0.4,5.4,0.4,7.8,2.5C565.5,331.9,567.5,332.7,570,333.2L570,333.2z"/>
<path class="st4" d="M570.4,332.9c0.1,0.3,0.1,0.6-0.1,0.9c-0.1-0.1-0.2-0.1-0.2-0.1l-0.1-0.5C570.1,333.1,570.2,333,570.4,332.9
	L570.4,332.9z"/>
<path class="st5" d="M800.3,426c-2.5,1-5.2,1.4-8.1,1.1c-5.8-0.5-11.1-2-15.9-4.3c0.2-1.2-0.2-2.1-1-2.5
	c-14.2-8.4-21.5-20.7-22-36.9c0-0.7-0.5-1.4-1.2-1.6l-0.1,0c-0.5-0.2-1.1,0.1-1.2,0.6c0,0.1,0,0.1,0,0.2c-0.4,5.4-0.1,9.7,1,13
	c2.6,7.6,6.6,14.2,11.8,19.9c-0.8,1.2-1.5,2.1-2.3,2.7c-0.7,0.5-1.8,0.5-3.4,0.2c-2.3-0.5-4.4-0.8-6.4-0.8
	c-16.3-11.4-22-26.7-17.2-46.1c0.2-0.7-0.3-1.4-0.9-1.5c-0.1,0-0.2,0-0.4,0l-0.6,0c-0.7,0-1.3,0.5-1.4,1.2l-1.3,6.7
	c-0.1,0.5-0.4,0.9-0.8,1.1c-11.6,6.5-17.6,23-18.1,35.4c-0.1,2.4-0.4,5.7-0.8,9.9c0,0.4-0.4,0.7-0.8,0.7c-0.2,0-0.5-0.2-0.6-0.4
	c-2.7-4.9-4.4-10.5-5.1-16.7c-1.7-16.7,1.6-30.6,15.9-40.9c3.4-2.4,6.2-4.5,8.7-6.1c0.3-0.2,0.6-0.5,0.8-0.8c1-1.6,2.2-2.8,3.5-3.7
	c4-2.7,7.8-5.7,11.8-7.6c7.7-3.6,16.2-6,25.6-7c7.1-0.8,12.7-1.2,16.9-1.2c5,0,10.6,0.9,16.6,2.6c9,2.6,15.9,5.6,20.6,8.9
	c6.4,4.5,12.4,10.4,17.9,17.5c5.7,7.3,9.2,15.6,10.4,24.7c0.8,5.5,1.2,11.9,1.4,19.1c0.1,3-0.2,6.1-0.8,9.1
	c-1.7,8.8-2.6,14.3-6.7,20.8c-0.3,0.5-1,0.7-1.5,0.4c-0.1,0-0.1-0.1-0.2-0.1c-4-3.5-7.7-6.2-13.3-5.5c-4.3,0.6-7.7,2.4-10,5.4
	c0,0.1-0.1,0.1-0.1,0.2l-2.7,4.9c-0.3,0.5-1,0.7-1.5,0.4c-0.3-0.2-0.5-0.5-0.6-0.9l-0.8-14.4c0-0.6,0.3-1.2,0.9-1.5l3.1-1.3
	c0.3-0.1,0.5-0.5,0.4-0.9c0,0,0,0,0,0l-0.1-0.3c-0.3-0.6-1-1-1.7-1c-7.4,0.4-13.4-1.9-17.9-6.9c-7.3-8.1-11.8-17.9-13.5-29.3
	c-0.1-0.5-0.6-0.9-1.1-0.8c-0.1,0-0.1,0-0.2,0.1l-0.5,0.2c-0.4,0.2-0.6,0.5-0.6,0.9c0.7,10.2,3.9,19.1,9.7,27
	c0.1,0.2,0.3,0.4,0.5,0.6L800.3,426L800.3,426z"/>
<path class="st5" d="M326.5,417c-0.9-0.1-1.6,0.2-2.1,0.8c0-0.8-0.4-1.2-1.2-1c-7.6,1.8-13.1,0.1-20.9-2.7
	c-7.6-2.7-14.1-7-19.5-12.9c-1.1-1.2-2-1.9-2.7-2.2c-1.3-0.5-1.9,0.2-2,2c-0.4,0.2-0.8,0.6-1.1,1.1c-0.2-0.4-0.4-0.8-0.6-1.1
	c-0.3-0.3-0.7-0.3-1.1-0.1c-1,0.7-1.5,1.5-1.6,2.5c-0.6,10.7-3.7,21.5-11.3,29c-0.3,0.3-0.8,0.5-1.2,0.4l-1.4-0.3
	c-1.3-0.2-2.5,0.6-2.8,1.9c0,0,0,0.1,0,0.1c-0.6,4.2-1.7,13.4-4.4,14.8c-1,0.5-2.2,0.1-2.7-1c-0.1-0.2-0.2-0.4-0.2-0.7
	c-0.7-5.4-0.2-10.1-4.8-13.7c-7.5-5.9-14.2-3.9-22-0.1c-0.4,0.2-0.9,0.1-1.2-0.4c-1.6-2.8-2.5-5.7-2.9-8.6
	c-1.3-9.2-1.1-19.4,0.5-30.7c1.7-12.4,6.3-23.5,18.3-29.2c0.4-0.2,0.7-0.5,0.9-0.8c0.8-1.6,0.5-3-1.1-4.3c-0.2,0.1-0.3-0.1-0.4-0.6
	l2-0.9c0.4-0.2,0.9-0.3,1.4-0.2c2.2,0.4,4.5,0.4,6.8-0.1c0.9-0.2,1.6-0.8,1.8-1.7c1.2-4.3,1.9-8.3,5-10.5c0.3-0.2,0.7-0.2,0.9,0.1
	c0.1,0.1,0.1,0.3,0.1,0.4v3.1c0,0.5,0.3,1,0.8,1.2c1.6,0.7,3.1,0.9,4.4,0.5c0.3-0.1,0.6-0.3,0.9-0.5c14-11.7,30.9-11.6,48.2-7.5
	c1.3,0.3,5,2.5,11.3,6.7c0.5,0.3,1.1,0.6,1.6,0.8c7.4,2.1,12.1,3.6,14.2,4.6c8,3.8,15.8,9.8,23.6,18c2.6,2.8,4.3,5.3,4.8,7.4
	c0.1,0.4,0,0.8-0.4,1.1l-2.3,1.7c-1,0.7-1.2,2.1-0.4,3c0.1,0.1,0.1,0.1,0.2,0.2c6.1,6.3,9.7,13.6,10.8,22c0.1,0.5,0.1,1,0,1.6
	c-0.3,3.6-0.5,6.4-0.5,8.4c0.1,8.5-5.1,17.8-10.4,24c-0.1,0.2-0.3,0.2-0.5,0.1c-0.1-0.1-0.2-0.2-0.1-0.4c1.2-7.1,2.7-13.4,0.9-20.5
	c-0.4-1.5-1.8-2.5-3.3-2.2c-4.3,0.6-7.9,0.9-10.9,1c-11.6,0-23.6-8.1-32.5-16.3c-0.5-0.4-0.9-0.7-1.3-0.7c-0.6,0-1.2,0.4-1.2,1.1
	c0,0.1,0,0.2,0,0.3c0.3,1.4,1.1,2.6,2.4,3.6C319.2,411.3,322.8,414.2,326.5,417L326.5,417z"/>
<path class="st1" d="M89.9,345.8c-0.6,15.5,0.9,29.1,1.6,43.6c1.2,25.9-5.2,49.6-19.3,71.4c-7.4,11.4-14.3,21.6-20.6,30.8
	c-16.4,23.6-26,49.9-28.8,78.9c-1.6,0.3-2.7-0.1-3-1.4c2.8-28.4,12.2-54.4,28-78c11.5-17,24.5-33.9,32.6-53.2
	c6.5-15.4,8.3-30.9,7.7-48.1c-0.1-3.3-0.5-11.2-1.3-23.7c-0.5-7.4-0.1-14.6,0.2-22C88.2,344.2,89.2,344.8,89.9,345.8L89.9,345.8z"/>
<path class="st1" d="M517.2,398.9c-4,0.5-8-0.3-11.9-2.4c-9.8-5.3-16.7-13.2-20.7-23.6c-1-3-1.2-5.9-0.8-8.5
	c0.1-0.5,0.6-0.9,1.2-0.8c0.4,0.1,0.7,0.4,0.8,0.8c3.4,17.3,13.6,28.1,30.5,32.6C517.4,397.3,517.7,397.9,517.2,398.9L517.2,398.9z"
	/>
<path class="st6" d="M488.5,390.2c-3.2-5.2-4.7-11-4.5-17.3c0-0.2,0.1-0.3,0.3-0.3c0.4-0.1,0.5,0.1,0.3,0.3
	c3.9,10.4,10.8,18.3,20.7,23.6c3.9,2.1,7.8,2.9,11.9,2.4c1.9-0.3,3.3-0.8,4.2-1.3c0.7-0.4,1.1-0.8,1.4-1.3c0.3-0.5,0.2-1.1-0.1-1.8
	c-2.7-6.1-4.7-11.7-4.1-18.1c0-0.2,0.2-0.4,0.4-0.4c0.2,0,0.3,0.1,0.4,0.3c6.4,16,18,27.2,34.7,30.7c0.5,0.1,0.9,0.6,0.9,1.1
	c0,4.4,1.1,16.8,5.5,18.8c1,0.5,2.2,0,2.7-1c0,0,0-0.1,0.1-0.1c2.5-6.7,3.9-12.3,12.6-11.1c13.2,1.9,14.7,19.3,7.7,28.3
	c-3.9,5-10.2,8.2-16.7,7.6c-1.4-0.1-3.3-0.2-5.8-0.4c-0.4,0-0.8,0.2-1,0.6c-10.3,19.1-26.3,29.9-48,32.6c-11.7,1.4-23,0.1-33.7-4.1
	c-12.8-5-23.2-16.8-24.7-30.8c-0.8-7.2-2-21.4-3.7-32.8c-1.1-7.5-1.5-14.6-1.1-21.1c0-0.4,0.3-0.7,0.7-0.7c0,0,0.1,0,0.1,0
	c0.9,0.1,1.6,0,2-0.3c0.4-0.3,0.6-1,0.7-1.9c1.2-10,4.6-18.9,12.3-25.4c0.4-0.3,1-0.3,1.3,0.1c0.1,0.1,0.2,0.2,0.2,0.4
	c2.5,10.7,8.5,22,18,26.7c1.2,0.6,2.3,0.5,3.4-0.2C488.6,392.5,488.9,391.5,488.5,390.2L488.5,390.2z"/>
<path class="st5" d="M900.6,498.4c-5.8,2.8-11.7,3.3-17.8,1.6c-4.1-1.2-6.9-1.9-8.5-2.2c1.6-1.5,1.3-2.9-0.9-4.3
	c-2.8-1.7-4.6-3.1-5.4-4c-9.6-11.4-12.4-24.6-8.6-39.6c2-7.7,3.5-13.3,4.8-16.8c2.1-5.9,3.3-12.2,4.2-17.1
	c1.5-7.7-0.2-14.4-5.1-20.1c-0.4-0.5-0.6-1.1-0.6-1.7c0.3-5.2,0.2-9.4-2.9-13.7c-0.5-0.7-0.4-1.7,0.4-2.2c0,0,0,0,0.1,0
	c5.4-3.5,10.4-3,16.8-1.4c16.2,4.1,21.9,16.9,24.5,32.9c2.2,13.3-1.8,27-4.7,39.9c-1.3,5.6-1.5,10.2-3.7,14.9
	c-1.3,2.6-2,5.4-2.4,8.2C889.6,482.5,892.9,491.1,900.6,498.4L900.6,498.4z"/>
<path class="st6" d="M851.3,379.7c-0.1-0.6,0.3-1.2,0.9-1.3c0.2,0,0.3,0,0.5,0c6.1,1.6,6.7,9.2,6.2,14.5c-0.1,1.2-0.5,2.3-1.1,3.1
	c-0.3,0.4-0.8,0.4-1.2,0.1c-0.2-0.1-0.3-0.3-0.3-0.5c-0.7-3.8-1.5-7.1-2.6-10.1C853.1,383.7,851.7,381.5,851.3,379.7z"/>
<path class="st1" d="M776.2,422.8c-4.4-0.6-8.7-3.1-12.7-7.4c-5.2-5.6-9.2-12.2-11.8-19.9c-1.1-3.2-1.5-7.5-1-13
	c0-0.5,0.5-0.9,1-0.9c0.1,0,0.2,0,0.2,0l0.1,0c0.7,0.2,1.2,0.9,1.2,1.6c0.5,16.2,7.9,28.5,22,36.9
	C776.1,420.7,776.4,421.6,776.2,422.8L776.2,422.8z"/>
<path class="st6" d="M751.5,417.4c2,0,4.1,0.3,6.4,0.8c1.6,0.4,2.7,0.3,3.4-0.2c0.8-0.5,1.5-1.4,2.3-2.7c4.1,4.3,8.3,6.8,12.7,7.4
	c4.8,2.3,10.2,3.8,15.9,4.3c2.9,0.3,5.6-0.1,8.1-1.1l11.3,6.3c0.4,0.2,0.6,0.6,0.6,1.1c0,6.8-0.4,15.2,3.7,20.4
	c0.7,0.9,2.1,1.1,3,0.4c0.4-0.3,0.7-0.8,0.8-1.3c0.4-2,1.4-4,2.8-6.1c5.9-8.4,16.5-7.1,20.8,1.8c5.1,10.4-0.4,22.4-11.3,26
	c-2.2,0.8-3.8,1.2-5.8-0.5c-3-2.4-6.3-2.7-9.8-1c-0.4,0.2-0.9,0.3-1.3,0.2c-0.1,0-0.9-0.3-2.5-0.8c-2.7-0.9-5.2-0.2-7.5,2.1
	c-0.3,0.3-0.7,0.4-1,0.5c-3.9,0.3-6,2.3-6.3,6.1c0,0.4-0.4,0.7-0.8,0.7c0,0-0.1,0-0.1,0l-1.7-0.3c-0.4-0.1-0.8,0.1-1.1,0.4
	c-2.3,2.7-3.2,6.1-2.8,10.1c0.1,1-0.4,2-1.4,2.4c-17.3,8.2-37.9,9.2-54.8-0.1c-13.8-7.6-22.5-19.6-21.6-36
	c0.5-8.1,0.4-17.3-0.1-27.8c-0.8-16.6,0.6-36.6,14.8-47.7c0.4-0.3,1-0.3,1.3,0.1c0.1,0.2,0.2,0.3,0.2,0.5c0.5,13.8,6,27.4,18.1,34.5
	C749.1,418.8,750.4,418.6,751.5,417.4z"/>
<path class="st1" d="M556.4,394c1.5,2.4,3.6,4.7,6.3,7.1c0.5,0.4,0.6,1.1,0.2,1.6c-0.3,0.3-0.7,0.5-1.2,0.4
	c-3.5-0.8-6.5-4.6-8.2-7.3c-1.7-2.7-3.7-7.1-2.9-10.6c0.1-0.6,0.7-1,1.4-0.9c0.4,0.1,0.8,0.4,0.9,0.9
	C553.8,388.7,555,391.6,556.4,394L556.4,394z"/>
<path class="st1" d="M324.4,417.8c-3.1,2.8-7.2,3.7-12.1,2.8c-13.9-2.5-25.3-9.1-34.2-19.6c0.1-1.8,0.8-2.5,2-2
	c0.8,0.3,1.7,1,2.7,2.2c5.4,5.9,11.9,10.3,19.5,12.9c7.9,2.8,13.4,4.5,20.9,2.7C324.1,416.6,324.5,417,324.4,417.8L324.4,417.8z"/>
<path class="st4" d="M39.2,400.1c11,4.6,15,20.1,8.9,34.8c0,0,0,0,0,0C42,449.5,28.2,457.6,17.2,453c-11-4.6-15-20.1-8.9-34.8
	c0,0,0,0,0,0C14.4,403.7,28.2,395.5,39.2,400.1L39.2,400.1z"/>
<path class="st1" d="M466.9,400.2c2.1-0.2,5.2,0,7.1,1.5c0.5,0.4,0.5,1.2,0.1,1.7c-0.1,0.1-0.2,0.2-0.3,0.2
	c-0.3,0.2-0.5,0.2-0.8,0.1c-2.2-0.8-4.2-1.1-5.8-1c-1.6,0.2-3.5,0.9-5.5,2.1c-0.3,0.2-0.6,0.2-0.8,0.1c-0.6-0.2-1-0.9-0.8-1.5
	c0-0.1,0.1-0.2,0.2-0.3C461.7,401.2,464.7,400.4,466.9,400.2L466.9,400.2z"/>
<path class="st7" d="M278.1,401c8.9,10.5,20.2,17.1,34.2,19.6c5,0.9,9,0,12.1-2.8c0.5-0.6,1.2-0.9,2.1-0.8
	c7.6,3.1,14.5,6.1,22.7,6.4c3.2,0.1,5.2-0.5,8.7-1.3c0.7-0.2,1.4,0.3,1.6,1c0,0.1,0,0.1,0,0.2c1.1,11.4-1,21.3-5.3,32.4
	c-2.3,6-3.8,10.6-4.5,13.7c-3.9,18.5-8.7,33.6-28.2,40.8c-20,7.4-43.5,0.3-59.8-12.6c-9.2-7.2-15.8-16.3-19.9-27.2
	c-0.2-0.6-0.8-1-1.5-1c-10,0-16.6-4.5-19.8-13.5c-3.1-8.6-0.1-19.6,9.5-22.3c6.5-1.8,15,0.9,15.8,8.5c0.5,4.5,0.5,12,7.2,10.1
	c3.5-1,5-8.5,6.8-14.2c0.2-0.5,0.6-1,1.1-1.2c11.1-3.8,15.8-24.9,16-34.9C277.3,401.6,277.6,401.2,278.1,401L278.1,401z"/>
<path class="st1" d="M521.1,401.6c2.3,0.5,5.4,1.8,6.8,3.9c0.4,0.6,0.2,1.4-0.5,1.8c-0.1,0.1-0.2,0.1-0.4,0.2
	c-0.3,0.1-0.6,0-0.9-0.2c-2-1.6-3.9-2.6-5.7-3c-1.8-0.4-3.9-0.2-6.4,0.4c-0.3,0.1-0.6,0-0.9-0.2c-0.6-0.5-0.7-1.3-0.3-1.8
	c0.1-0.1,0.2-0.2,0.3-0.3C515.4,401,518.8,401.2,521.1,401.6L521.1,401.6z"/>
<path class="st1" d="M354.4,410.5c2.7,1.9,5.7,2.7,8.6,3.8c0.5,0.2,0.7,0.7,0.5,1.1c0,0.1-0.1,0.2-0.2,0.3
	c-2.1,1.8-8.6-2.1-10.3-3.3c-1.7-1.2-7.5-6.1-6.5-8.7c0.2-0.5,0.7-0.7,1.2-0.5c0.1,0.1,0.2,0.1,0.3,0.2
	C349.9,406,351.7,408.5,354.4,410.5z"/>
<path class="st6" d="M449.8,442.5c0,0.5-0.4,0.9-0.8,0.9c-0.2,0-0.5-0.1-0.6-0.2c-6.9-6.5-9.4-14.5-7.4-24.1
	c0.3-1.6,1.2-2.9,2.7-4.1c0.8-0.6,1.9-0.5,2.5,0.3c0.2,0.2,0.3,0.5,0.4,0.7C448.5,424.5,449.6,433.3,449.8,442.5z"/>
<path class="st1" d="M726.6,420.4c-1.4-0.1-2.4,0.1-3,0.4c-0.9,0.5-1.6,0.7-2.1,0.7c-0.6,0-1.2-0.4-1.2-1c0-0.3,0.1-0.6,0.2-0.8
	c1.4-1.8,4.2-2,6.2-1.9c2,0.1,4.8,0.6,6,2.6c0.3,0.5,0.2,1.2-0.4,1.5c-0.2,0.1-0.5,0.2-0.8,0.1c-0.4-0.1-1.1-0.4-2-1
	C728.9,420.7,727.9,420.5,726.6,420.4L726.6,420.4z"/>
<path class="st1" d="M468.6,420.2c2.3-0.2,4.4,2.2,4.7,5.3c0.3,3.2-1.3,5.9-3.6,6.1c0,0,0,0,0,0c-2.3,0.2-4.4-2.2-4.7-5.3
	C464.7,423.2,466.3,420.4,468.6,420.2C468.6,420.2,468.6,420.2,468.6,420.2z"/>
<path class="st1" d="M516.3,422c2.3-0.1,4.3,2.5,4.4,5.6s-1.7,5.8-4.1,5.9c0,0,0,0,0,0c-2.3,0.1-4.3-2.5-4.4-5.6
	C512.1,424.7,514,422.1,516.3,422L516.3,422z"/>
<path class="st1" d="M775.9,424.9c2.2,0.7,5.2,2.1,6,4.7c0.2,0.7-0.2,1.4-0.9,1.6c-0.3,0.1-0.6,0.1-0.9-0.1
	c-0.5-0.2-1.1-0.8-1.9-1.6c-0.6-0.6-1.7-1.2-3.2-1.7c-1.5-0.5-2.7-0.6-3.6-0.5c-1.2,0.2-2,0.3-2.5,0.2c-0.7-0.1-1.2-0.8-1-1.5
	c0.1-0.3,0.2-0.6,0.5-0.8C770.5,423.6,773.7,424.2,775.9,424.9L775.9,424.9z"/>
<path class="st1" d="M489.2,426.2c0.7,0.1,1.2,0.6,1.2,1.2c0.5,4.7-1.3,7-4.4,10.6c-1,1.1-0.1,2.9,2.7,5.5c0.4,0.3,0.4,1,0.1,1.4
	c-0.1,0.1-0.1,0.1-0.2,0.2l0,0c-0.6,0.4-1.4,0.4-2,0c-4.4-2.9-4.3-6.8-0.9-10.6c1.7-1.9,2.4-4.3,2.3-7.4c0-0.5,0.3-0.8,0.8-0.9
	c0,0,0.1,0,0.1,0L489.2,426.2L489.2,426.2z"/>
<path class="st1" d="M571.7,433c-1.5,1.4-2.9,3.4-4,6.1c-0.2,0.4-0.4,0.6-0.8,0.7c-0.8,0.2-1.6-0.2-1.9-1c0-0.2-0.1-0.3,0-0.5
	c0.2-2.9,2.6-6,4.6-7.7c2-1.7,5.3-3.8,8.2-3.6c0.8,0,1.4,0.8,1.3,1.6c0,0.2-0.1,0.3-0.1,0.5c-0.1,0.3-0.4,0.6-0.8,0.7
	C575.4,430.6,573.2,431.6,571.7,433L571.7,433z"/>
<path class="st1" d="M300.1,436.4c2.3,0,5.5,0.6,7.3,2.4c0.5,0.5,0.5,1.3-0.1,1.8c-0.1,0.1-0.2,0.2-0.3,0.2c-0.3,0.1-0.6,0.1-0.9,0
	c-2.3-1.1-4.3-1.7-6-1.7c-1.8,0-3.8,0.5-6,1.6c-0.3,0.1-0.6,0.1-0.9,0c-0.6-0.3-0.9-1.1-0.6-1.7c0.1-0.1,0.1-0.2,0.2-0.3
	C294.5,437,297.8,436.4,300.1,436.4z"/>
<path class="st1" d="M725.7,437c2.2,0,3.9,2.4,4,5.3s-1.7,5.4-3.9,5.4l0,0c-2.2,0-3.9-2.4-4-5.3C721.8,439.4,723.6,437,725.7,437
	L725.7,437z"/>
<path class="st1" d="M345.7,445.4c-1.4-0.2-2.4-0.3-3.1,0c-1,0.3-1.7,0.5-2.1,0.5c-0.6,0-1.1-0.6-1-1.2c0-0.3,0.1-0.5,0.3-0.7
	c1.6-1.6,4.4-1.5,6.4-1.1c2,0.4,4.7,1.2,5.6,3.3c0.3,0.6,0,1.2-0.6,1.5c-0.2,0.1-0.5,0.1-0.8,0.1c-0.4-0.1-1-0.5-1.8-1.2
	C348,446,347.1,445.7,345.7,445.4z"/>
<path class="st1" d="M769.9,443.6c2.3,0.1,4.1,2.8,3.9,6c-0.2,3.2-2.2,5.6-4.6,5.5c0,0,0,0,0,0c-2.3-0.1-4.1-2.8-3.9-6
	C765.5,445.9,767.6,443.4,769.9,443.6L769.9,443.6z"/>
<path class="st1" d="M743.3,445c0.7,0.1,1.1,0.7,1.1,1.4c0,4.8-2.1,7-5.6,10.3c-1.1,1-0.4,3,2.2,5.9c0.4,0.4,0.3,1-0.1,1.4
	c-0.1,0.1-0.2,0.1-0.2,0.2l-0.1,0c-0.7,0.3-1.5,0.2-2.1-0.3c-4.1-3.4-3.7-7.4,0.2-10.9c1.9-1.7,3-4.1,3.2-7.2c0-0.5,0.4-0.8,0.9-0.8
	c0,0,0.1,0,0.1,0L743.3,445L743.3,445z"/>
<path class="st1" d="M238.1,450c1.7,2,3.7,5.4,3.5,8.3c-0.1,0.8-0.8,1.4-1.6,1.3c-0.2,0-0.3-0.1-0.5-0.1c-0.3-0.2-0.6-0.4-0.7-0.8
	c-0.7-2.8-1.8-5-3.1-6.6c-1.3-1.6-3.4-2.9-6.1-4.1c-0.4-0.2-0.6-0.4-0.7-0.8c-0.2-0.8,0.3-1.6,1-1.9c0.1,0,0.3-0.1,0.5,0
	C233.4,445.5,236.4,448,238.1,450L238.1,450z"/>
<path class="st1" d="M509.2,452.4c0.2,0,0.4,0.2,0.4,0.4c0,0,0,0,0,0l0,1.1c-0.2,7.5-6.4,13.5-14,13.3c0,0,0,0,0,0
	c-7.5-0.2-13.5-6.5-13.3-14c0,0,0,0,0,0l0-1.1c0-0.2,0.2-0.4,0.4-0.4L509.2,452.4L509.2,452.4z"/>
<path class="st1" d="M827.7,456.2c2.1-1.5,5.4-3,8.2-2.6c0.8,0.1,1.2,0.9,1.1,1.7c0,0.2-0.1,0.3-0.2,0.5c-0.2,0.3-0.4,0.5-0.8,0.6
	c-2.8,0.5-5,1.2-6.6,2.4c-1.6,1.1-3.1,2.9-4.4,5.4c-0.2,0.3-0.4,0.5-0.8,0.6c-0.8,0.1-1.5-0.4-1.7-1.1c0-0.1,0-0.3,0-0.4
	C823,460.3,825.6,457.7,827.7,456.2z"/>
<path class="st8" d="M495.8,455c3.5,0.1,7,0,10.3-0.1c0.3,0,0.5,0.2,0.5,0.5c0,0.1,0,0.1,0,0.2c-1.3,4.7-6.4,9.1-11,9
	c-4.6-0.1-9.6-4.6-10.7-9.4c-0.1-0.3,0.1-0.6,0.4-0.6c0.1,0,0.1,0,0.2,0C488.8,454.8,492.3,455,495.8,455L495.8,455z"/>
<path class="st1" d="M302.3,456c2.1,0.7,3.1,3.5,2.3,6.4c0,0,0,0,0,0c-0.9,2.9-3.3,4.7-5.4,4c-2.1-0.7-3.1-3.5-2.3-6.4c0,0,0,0,0,0
	C297.7,457.1,300.2,455.3,302.3,456z"/>
<path class="st1" d="M342.7,460.6c2,0.7,2.8,3.5,1.8,6.3l0,0c-1,2.8-3.4,4.4-5.4,3.7c0,0,0,0,0,0c-2-0.7-2.8-3.5-1.8-6.3
	c0,0,0,0,0,0C338.3,461.5,340.7,459.9,342.7,460.6L342.7,460.6z"/>
<path class="st1" d="M327.1,465.5c-0.8,3.2-0.5,6,0.9,8.4c2.8,4.8,2,9-3.3,11.1c-0.7,0.3-1.6,0.1-2.2-0.4l0,0
	c-0.4-0.4-0.5-1-0.1-1.5c0.1-0.1,0.2-0.1,0.3-0.2c3.5-2.1,4.9-3.9,4.1-5.2c-2.6-4.5-3.9-7.4-2.4-12.3c0.2-0.7,0.9-1.1,1.6-1l0.4,0.1
	c0.5,0.1,0.9,0.5,0.8,1C327.1,465.4,327.1,465.4,327.1,465.5L327.1,465.5z"/>
<path class="st1" d="M759.7,475.1l0.1,0.1c0.4,0.6,0.2,1.4-0.4,1.8c0,0,0,0,0,0c-8.3,4.6-15.7,4.4-22.2-0.5
	c-0.6-0.4-0.7-1.2-0.4-1.8l0-0.1c0.3-0.6,1.1-0.8,1.7-0.4c0,0,0.1,0,0.1,0.1c6,4.4,12.4,4.5,19.2,0.4
	C758.5,474.2,759.3,474.4,759.7,475.1L759.7,475.1z"/>
<path class="st6" d="M786.1,531c-5.4-12.7,1.4-20.1,10.2-27.8c4.3-3.7,2.5-9.8-1.5-12.7c-0.4-0.2-0.6-0.6-0.7-1
	c-0.3-0.9-0.1-2.1,0.6-3.6c0.5-1,1.6-1.5,2.7-1.1c5.9,2.2,7.6,6.7,9.6,12.7c0.1,0.2,0.2,0.5,0.5,0.6l0.4,0.3c0.4,0.3,1,0.2,1.3-0.3
	c0.1-0.2,0.2-0.4,0.2-0.6c-0.8-6.4-3.3-11-7.7-13.7c-1-0.6-1.4-2-0.7-3.1c0,0,0,0,0,0l1.1-1.6c0.7-1.1,2.3-1.4,3.4-0.7c0,0,0,0,0,0
	c6.2,4.1,8.5,9.4,10,16.4c0.2,0.7,0.8,1.3,1.6,1.3l0.2,0c0.6,0,1.1-0.4,1.1-1c0-0.1,0-0.1,0-0.2c-1.1-7.6-4.2-13.5-9.6-17.5
	c-0.3-0.2-0.3-0.6-0.1-0.9c0-0.1,0.1-0.1,0.2-0.1c5.9-3.9,11.5,4.7,12.9,9.5c0.9,3,1.5,6,1.9,8.8c0.1,0.7,0.7,1.3,1.4,1.4l0.4,0.1
	c0.3,0,0.6-0.2,0.7-0.5c0,0,0,0,0-0.1c0-7-2.6-13.6-6.5-19.3c-0.3-0.4-0.2-1,0.3-1.3c0.2-0.2,0.5-0.2,0.8-0.1
	c3.9,1.2,6.4,3.7,7.6,7.6c2.9,9.5,2.6,22.2-4.7,29.3c-4.4,4.3-8.4,8-12,10.9c-0.3,0.3-0.7,0.5-1.2,0.6c-8.2,1.5-16,4.3-23.4,8.5
	C786.7,531.5,786.3,531.3,786.1,531C786.1,531,786.1,531,786.1,531L786.1,531z"/>
<path class="st6" d="M529.2,483.7c0.5,2.4,0.2,4.4-1.1,6c-4.6,5.9-10.8,11.2-18.6,15.7c-0.4,0.2-1,0.3-1.4,0
	c-8-4.2-13.9-9-17.5-14.5c-0.8-1.3-0.9-2.7-0.2-4.3c0.2-0.4,0.7-0.7,1.1-0.6c9.7,1.8,19.3,1.5,28.6-1.1c5.3-1.5,8.1-2.2,8.2-2.2
	C528.7,482.9,529.1,483.2,529.2,483.7L529.2,483.7z"/>
<path class="st8" d="M532.7,483.7c0-0.2,0.2-0.4,0.5-0.4c0.1,0,0.1,0,0.2,0l10.6,5.4c0.5,0.3,0.8,0.8,0.8,1.4c0,1.4-0.2,2.6-0.5,3.6
	c-3.4,10.5-8.1,20.4-14.2,29.7c-0.4,0.6-1.2,0.7-1.8,0.3c-0.1-0.1-0.2-0.1-0.2-0.2c-5.3-6.1-10.7-11.2-16-15.4
	c-0.3-0.2-0.3-0.6-0.1-0.9c0-0.1,0.1-0.1,0.2-0.2c5.5-3.2,10.1-6.7,14-10.3C530.1,492.9,532.4,488.5,532.7,483.7L532.7,483.7z"/>
<path class="st8" d="M506.1,507.4c0.2,0.1,0.3,0.4,0.2,0.6c0,0.1-0.1,0.1-0.1,0.2c-5.7,4.1-11.2,9.2-16.7,15.4
	c-0.4,0.4-1,0.4-1.4,0.1c-0.1-0.1-0.1-0.1-0.2-0.2c-6.2-9.6-10.3-19.8-12.3-30.4c-0.3-1.5,0.4-2.9,1.6-3.8l6.6-4.4
	c0.9-0.6,2.2-0.4,2.9,0.6c0.2,0.3,0.3,0.6,0.3,0.9c0.4,4,1.4,6.8,2.9,8.6C494,499.9,499.4,504,506.1,507.4L506.1,507.4z"/>
<path class="st7" d="M246.9,486.9c0.2,0.1,0.4,0.3,0.6,0.6c3.6,5.2,7.5,9.3,11.8,12.2c7.3,5.1,14.4,9.9,22.4,12.9
	c0.5,0.2,0.7,0.7,0.5,1.2c0,0.1-0.1,0.2-0.1,0.3c-2.7,3.3-6.1,5.9-10.2,7.8c-1.4,0.6-2.9,0.6-4.3,0c-10.9-4.8-23.5-21.9-21.7-34.4
	c0.1-0.4,0.4-0.7,0.9-0.6C246.9,486.9,246.9,486.9,246.9,486.9L246.9,486.9z"/>
<path class="st8" d="M266.5,525.2c0.2,0.1,0.3,0.4,0.2,0.6c0,0.1-0.1,0.1-0.2,0.2L247,537.3c-0.6,0.3-1.3,0.1-1.7-0.4
	c-7.9-12.7-11.8-29.7-13.8-44.6c-0.1-0.9,0.4-1.8,1.3-2.1l8.6-2.6c0.5-0.2,1.1,0.1,1.2,0.6c0,0.1,0.1,0.2,0,0.4
	c-0.2,4.1,0.6,8.2,2.5,12.4C249.9,511.4,257.1,519.5,266.5,525.2L266.5,525.2z"/>
<path class="st0" d="M446.3,552.3l-24-28c-0.2-0.3-0.2-0.6,0-0.9c5-7,11.6-15.9,18.4-20.7c9.6-6.7,20.3-10,31.6-12.4
	c0.2,0,0.4,0.1,0.4,0.3c0,0,0,0,0,0.1c1.1,10.6,4.5,20.7,10.2,30.1c1.2,2,2.3,4.7,4.6,6.5c0.9,0.7,2.3,0.7,3.1-0.2l10.7-11.4
	c0.2-0.2,0.5-0.2,0.8,0c0.1,0.1,0.2,0.2,0.2,0.4v36.9c0,1,0.8,1.8,1.8,1.8h10c0.7,0,1.4-0.6,1.3-1.4c0-0.2,0-0.4-0.1-0.5l-0.3-0.7
	c-0.5-1.3-1.9-1.9-3.2-1.5c-1.7,0.6-3.7,0.8-5.8,0.7c-0.5,0-0.9-0.4-0.9-0.9v-36.5c0-0.3,0.1-0.6,0.3-0.9c1.1-1.2,2-2,2.7-2.3
	c1-0.4,2.1-0.3,2.8,0.5l16.9,16c0.8,0.8,2.1,0.7,2.9-0.1c0.1-0.1,0.1-0.1,0.2-0.2c8-11.3,13.6-23.4,16.8-36.3
	c0.1-0.4,0.5-0.7,0.9-0.6c8.2,1.2,19.4,4.3,26.5,8.8c11.5,7.3,18.8,17.4,26.2,29c9.5,14.9,17.6,30.2,24.3,46
	c3.9,9.1,6.7,17.1,6.4,26.7c-0.5,21.5-23.1,25.9-39.8,27c-0.3,0-0.6-0.2-0.7-0.6c0-0.1,0-0.2,0-0.2c0.1-0.2,0.2-0.4,0.5-0.7
	c0.3-0.3,0.5-0.6,0.6-0.8c5.1-14.5-8.8-26-21.5-28.4c-0.5-0.1-0.9-0.6-0.8-1.2c0-0.2,0.2-0.5,0.4-0.6c10.5-8.1,23.2-14.6,36.8-12.9
	c0.7,0.1,1.4-0.4,1.5-1.2c0-0.1,0-0.1,0-0.2v-0.5c0-0.6-0.5-1.2-1.1-1.2c-9.3-0.9-17.9,0.9-25.9,5.3c-0.5,0.3-1.2,0.1-1.5-0.4
	c0,0,0-0.1-0.1-0.1l-12.9-30.8c-0.2-0.5-0.8-0.8-1.3-0.5l-0.6,0.2c-0.5,0.2-0.8,0.8-0.6,1.4l5.1,13.7c0.1,0.2,0.1,0.4,0.1,0.5
	l0.9,21.8c0,0.4-0.1,0.8-0.4,1l-4.8,5c-0.3,0.4-0.8,0.6-1.3,0.6c-5.7,0.4-10.7,2.2-14.9,5.4c-0.1,0.1-0.2,0.2-0.4,0.2l-13.4,5.3
	c-0.3,0.1-0.6,0.2-0.8,0.1c-12.2-0.5-22.6,0.4-33,7.2c-0.6,0.4-1.4,0.4-2,0c-11.4-7.5-24.3-8-37.3-6.6c-2.9,0.3-9.8,1.2-20.6,2.7
	c-0.1,0-0.3-0.1-0.3-0.2c0,0,0-0.1,0-0.1l2.4-10.7c0-0.2,0.2-0.3,0.4-0.4c6.1-1.5,8.7-3.9,7.7-7.2c-0.1-0.5,0.1-1,0.6-1.1
	c1.5-0.5,2.9-2.6,4.1-6.4c0.1-0.2,0.3-0.4,0.6-0.3c0.1,0,0.1,0,0.2,0.1c4.3,3.6,9.2,6.9,14.7,9.7c0.6,0.3,1.3,0.1,1.6-0.5
	c0.1-0.3,0.2-0.5,0.1-0.8c-1.5-7.2-4.7-13.8-9.4-19.9c-0.3-0.4-0.3-1,0.1-1.3l0.4-0.4c0.3-0.2,0.5-0.6,0.6-0.9
	c3.2-12-0.9-18.3-13.9-14.7c-0.9,0.3-1.9-0.3-2.2-1.2c-0.1-0.2-0.1-0.4-0.1-0.7l0.9-8.6c0.1-0.8-0.5-1.5-1.3-1.7l-0.4-0.1
	c-0.7-0.1-1.3,0.3-1.5,1c0,0,0,0.1,0,0.1l-0.8,7.2c0,0.3-0.3,0.5-0.6,0.4C446.4,552.5,446.3,552.4,446.3,552.3L446.3,552.3z"/>
<path class="st9" d="M185.5,589.3l4.1,0.8c0.5,0.1,1,0,1.3-0.3c1.1-0.9,1.9-1.8,2.4-2.7c5-9.4,10.8-20.9,17.5-34.5
	c0.4-0.7,0.1-1.6-0.6-2l-0.3-0.2c-0.4-0.2-0.9,0-1,0.3c0,0,0,0,0,0l-18.4,35.9c-0.3,0.5-0.9,0.8-1.4,0.6c-16.9-6.5-33-14-48.2-22.7
	c-0.6-0.3-0.8-1.1-0.5-1.7c7.5-14.2,15.9-27.1,25.2-38.7c7.3-9.2,14.2-17.3,24-23.1c11.1-6.6,25.5-9.5,38.5-9.8
	c0.5,0,0.9,0.3,0.9,0.8c1.5,16.2,6,31.7,13.6,46.3c1.4,2.8,3.4,3.5,5.9,2.1c6.1-3.4,12.8-7.5,20-12c0.8-0.5,1.8-0.5,2.6,0
	c5.4,3.7,10.6,8.1,15.5,13.1c0.9,0.9,2.3,0.9,3.2,0c0,0,0.1-0.1,0.1-0.1c5.7-6.3,9.4-16.3,11.5-24.4c0.1-0.5,0.6-0.8,1.1-0.8
	c8.9,0.4,17.4-1.3,25.4-5.1c0.5-0.2,1-0.1,1.4,0.3c2.3,2.6,5.5,6.2,7.4,9.1c9.4,13.9,18,29.6,25.9,47c0.4,1,0,2.1-1,2.6c0,0,0,0,0,0
	l-41.4,18.9c-0.3,0.2-0.7,0-0.8-0.3c0,0,0,0,0,0l-2.7-5.9c-0.4-0.8-0.5-1.6-0.3-2.5l6.7-35.4c0.1-0.7-0.2-1.4-0.9-1.7l-0.3-0.1
	c-0.6-0.3-1.3,0-1.5,0.6c0,0.1-0.1,0.2-0.1,0.3c-3.9,20.6-7.2,39.4-10.1,56.3c-0.2,1.3-0.5,3.6-0.7,7.1c0,0.5-0.4,0.9-0.9,1
	c-3.1,0.5-5.8,1.8-8.2,4.1c-0.4,0.4-1,0.6-1.5,0.4c-10.2-2.2-20.2-3.1-29.9-2.8c-0.5,0-1.1-0.2-1.5-0.5l-7.7-6.7
	c-0.1-0.1-0.1-0.1-0.2-0.2c-3-2-6.7-3-11.3-3.1c-6.6-0.2-14,0.2-22.2,1.2c-1.9,0.2-3.8,0.1-5.7-0.2c-11.5-2.3-23-5.3-34.5-9
	c-0.6-0.2-0.9-0.8-0.8-1.4l0.1-0.3C185.1,589.4,185.3,589.2,185.5,589.3L185.5,589.3z"/>
<path class="st1" d="M309.5,498.3c-2.4-0.8-5.7-2.5-7-5c-0.4-0.7-0.1-1.5,0.7-1.9c0.1-0.1,0.3-0.1,0.4-0.1c0.4-0.1,0.7,0,0.9,0.3
	c2,2,4,3.2,5.8,3.8c1.9,0.6,4.2,0.7,7,0.3c0.4-0.1,0.7,0,0.9,0.3c0.6,0.6,0.6,1.5,0.1,2c-0.1,0.1-0.2,0.2-0.4,0.3
	C315.6,499.6,311.9,499.1,309.5,498.3L309.5,498.3z"/>
<path class="st10" d="M803.4,607.7c0.1,0.2,0,0.4-0.1,0.5c-0.1,0-0.2,0.1-0.2,0.1c-12.7-1.2-24.6-1.9-35.9,4.4
	c-0.4,0.2-0.8,0.3-1.3,0.2c-0.4-0.1-2.5-0.8-6-2.2c-2.3-0.9-5.4-1.5-9.4-1.7c-0.5,0-0.9-0.2-1.3-0.6c-5.2-5-11-8.5-18.4-8
	c-0.8,0.1-1.6-0.3-2.1-0.9l-18.5-21.6c-0.6-0.7-0.9-1.5-0.8-2.4l1.3-26.3c0.1-1.1-0.5-2.1-1.5-2.6l-0.2-0.1c-0.7,0-1.3,0.6-1.3,1.3
	c0,0,0,0,0,0c0.2,6.7,0.1,12.5-0.9,18.6c-0.4,2.2-0.5,4.2-0.4,6.1c0,0.4-0.3,0.8-0.7,0.8c-0.3,0-0.6-0.2-0.7-0.5l-0.5-1.2
	c-0.2-0.5-0.5-0.9-1-1.2l-4.7-3.3c-0.1-0.1-0.3-0.1-0.4-0.2c-5-1.1-9.6,4.2-5.8,8.9c3.5,4.4,6.5,8,8.8,10.9c0.3,0.4,0.4,1,0.2,1.4
	l-1.4,2.9c-0.2,0.4-0.6,0.5-0.9,0.4c-9.3-4.1-18.9-8.1-29.1-8.8c-0.5,0-1,0.3-1.3,0.8c-0.3,0.7-0.3,1.2,0.1,1.7
	c0.2,0.3,0.8,0.4,1.6,0.5c13.6,1.1,26.7,8.2,38.9,14.6c0.2,0.1,0.3,0.4,0.2,0.7c-0.1,0.1-0.1,0.2-0.3,0.2c-13,4.8-18.8,19.4-14.7,32
	c0.1,0.3-0.1,0.6-0.4,0.8c0,0-0.1,0-0.1,0c-1.7,0.2-3.4,0.1-5.3-0.1c-7.2-0.9-14.9-2.7-23-5.4c-6.2-2.1-12.4-4.5-16.4-9.2
	c-8.4-9.7-5-24.7-0.1-35.1c10.1-21.5,22-41.8,35.6-60.9c9.5-13.3,19.9-23.4,36.5-26.8c4.3-0.9,6.7-1.5,7-1.7
	c0.4-0.3,0.9-0.4,1.4-0.1l5.5,3.1c0.5,0.3,0.8,0.8,0.8,1.3c0.8,11.2,3.1,22,6.9,32.3c0.8,2.3,1.8,4,2.8,5.2c1,1.2,2.7,1.4,4,0.5
	l19.6-13.1c0.5-0.4,1.3-0.3,1.7,0.1l11.5,10.1c0.2,0.2,0.2,0.5,0,0.7c0,0,0,0-0.1,0.1c-0.9,0.7-1.6,1.7-2.1,3
	c-0.2,0.4-0.3,0.8-0.3,1.2c-0.1,3.4,0.3,7,1.1,10.8C785.6,570.4,793,589.6,803.4,607.7L803.4,607.7z"/>
<path class="st6" d="M794.9,494.6c0.9,0.2,1.3,1.8,0.9,3.6c-0.4,1.8-1.5,3-2.4,2.8c-0.9-0.2-1.3-1.8-0.9-3.6
	C792.9,495.6,794,494.4,794.9,494.6z"/>
<path class="st6" d="M754.9,504.3c-0.1-0.3,0.2-0.6,0.5-0.7c0.1,0,0.1,0,0.2,0c12.3,1.5,21.9-0.8,34.2-5.2c0.3-0.1,0.7,0,0.8,0.4
	c0,0,0,0,0,0.1c0.5,1.9,0.2,3.5-0.9,4.9c-5.3,6.7-11.5,11.7-18.7,14.9c-0.5,0.2-1,0.2-1.5,0C764,516.3,756.1,510.7,754.9,504.3
	L754.9,504.3z"/>
<path class="st8" d="M739.9,499.8l10.3,3.1c0.5,0.1,0.8,0.5,1,0.9c2.7,7.6,7.7,13.2,14.9,16.9c0.4,0.2,0.5,0.6,0.3,1
	c-0.1,0.1-0.1,0.2-0.2,0.3l-16.9,11.3c-0.8,0.5-1.8,0.3-2.4-0.5c0-0.1-0.1-0.1-0.1-0.2c-4.9-10.2-7.4-20.9-7.7-32.1
	c0-0.4,0.3-0.7,0.6-0.7C739.8,499.8,739.8,499.8,739.9,499.8z"/>
<path class="st10" d="M816.6,522.7c-0.2-0.1-0.4-0.3-0.3-0.6c0-0.1,0.1-0.2,0.1-0.2c6.5-5.1,13.2-10.7,15.4-19.2
	c0.1-0.3,0.4-0.5,0.7-0.4c0,0,0.1,0,0.1,0c14.7,6.4,22.9,20.9,25.9,36.1c4.3,21.4,8.5,42.2,3.6,63.2c-2.7,11.4-10.5,22-22.8,23.6
	c-9.6,1.2-20.1-3.4-26.8-10.6c-4.2-4.6-7.9-9.9-11-15.9c-5.3-10.3-9.7-21.4-13.2-33.4c-2.7-9.2-5-16.8-5.9-25.3
	c-0.1-1.3,0.4-2.6,1.5-3.3c9.2-6.5,19.3-10.4,30.4-11.7c1.5-0.2,2.9,0.7,4.2,2.7c9.4,14.2,18.2,28.5,26.3,42.9
	c2,3.4,3.6,6.6,4.9,9.5c0.2,0.5,0.9,0.8,1.4,0.6c0.1,0,0.2-0.1,0.2-0.1l0.3-0.3c0.4-0.4,0.5-0.9,0.3-1.4l-4.1-8.9
	c-0.1-0.3-0.2-0.6-0.1-1l0.3-1.8c0.1-0.4-0.1-0.9-0.5-1.1c-1.5-0.8-2.5-1.5-2.8-2c-11.2-17.9-18.8-30.2-22.8-37.1
	C820.5,524.9,818.7,523.4,816.6,522.7L816.6,522.7z"/>
<path class="st0" d="M964.3,543.1c1.8-5.8,4-11.5,6.7-16.8c2.7-5.3,5.3-10.1,10.3-12.7c14.6-7.6,26.7,2.8,31.8,16.5
	c7,18.8,9.1,38.1,6.2,57.8c-1.1,7.3-5.3,17.3-11.7,22.1c-13.2,9.9-29.1,3.1-36.8-9.8C960.2,582.3,958.1,563.3,964.3,543.1
	L964.3,543.1z"/>
<path class="st8" d="M273.4,525.2c4.7-1.7,10.1-6.3,12.5-10.9c0.2-0.3,0.5-0.5,0.9-0.4l10.8,2.1c0.5,0.1,0.8,0.5,0.7,1c0,0,0,0,0,0
	c-1.8,7.4-4.9,14.4-9.3,20.9c-0.4,0.6-1.3,0.8-1.9,0.4c-0.1-0.1-0.2-0.1-0.3-0.2c-4.4-5-8.9-8.9-13.5-11.7c-0.3-0.2-0.4-0.6-0.2-0.9
	C273.1,525.3,273.3,525.2,273.4,525.2L273.4,525.2z"/>
<path class="st8" d="M781.4,529.1l-8-7c-0.2-0.2-0.3-0.6-0.1-0.8c0-0.1,0.1-0.1,0.2-0.1l8-4.6c0.2-0.1,0.3,0,0.4,0.1
	c0,0.1,0.1,0.2,0,0.2c-0.8,3.8-0.7,7.7,0.4,11.6c0.1,0.3-0.1,0.6-0.4,0.7C781.8,529.3,781.6,529.2,781.4,529.1L781.4,529.1z"/>
<path class="st1" d="M510.8,521.1c1.2-0.2,2.3,0.7,2.5,2c0,0,0,0,0,0c0.2,1.3-0.6,2.5-1.8,2.6c-1.2,0.2-2.3-0.7-2.5-2v0
	C508.8,522.4,509.6,521.3,510.8,521.1z"/>
<path class="st4" d="M444.4,554.8l-8.4-0.4c-0.3,0-0.6-0.2-0.8-0.4l-21.3-25.5c-1-1.2-0.9-3,0.3-4.1l0.1-0.1c1.1-1.1,2.9-1,4,0.1
	c0,0,0.1,0.1,0.1,0.1l26.1,30.1C444.5,554.7,444.4,554.7,444.4,554.8C444.4,554.7,444.4,554.8,444.4,554.8L444.4,554.8z"/>
<path class="st0" d="M440.4,602.7c0.2-0.1,0.5-0.1,0.6,0.1c0.1,0.2,0.1,0.4,0,0.5c-3.8,5.2-7.8,9.3-11.9,12.4
	c-11.6,8.7-27.1,11.2-38.9,2.1c-6.3-4.9-8-15.3-7.2-22.7c1-8.7,6.2-18.7,10.7-26.5c7.4-12.6,14.2-23.9,20.5-33.9
	c0.1-0.2,0.3-0.2,0.5-0.1c0,0,0.1,0,0.1,0.1l17.2,20.1c0.3,0.3,0.2,0.8-0.1,1.1c0,0-0.1,0.1-0.1,0.1c-4,2.1-6.9,5.4-8.5,9.7
	c-0.4,1-1.2,1.7-2.3,1.9c-7.5,1.1-14.6,3.4-21.4,6.8c-0.7,0.4-1,1.3-0.7,2c0.1,0.1,0.1,0.2,0.2,0.3l0.4,0.5c0.4,0.4,1,0.5,1.5,0.3
	c5.7-3.3,12-5.5,19-6.7c0.4-0.1,0.8,0.2,0.9,0.6c0,0.1,0,0.3,0,0.4c-4.3,10.8-3.7,24.1,7.1,30.9
	C432.2,605.2,436.4,605.3,440.4,602.7L440.4,602.7z"/>
<path class="st1" d="M514,537.5c0,1.4-1.1,2.5-2.5,2.5c-1.4,0-2.5-1.1-2.5-2.5s1.1-2.5,2.5-2.5C512.9,535,514,536.1,514,537.5z"/>
<path class="st6" d="M439.2,600.5c-2.2,1.7-5,1.7-8.5,0.2c-6.3-2.9-9.3-8.5-9.3-15.5c0-9.3,4-22.9,13-27.1c0.5-0.2,1.1-0.4,1.6-0.5
	c10.9-1.2,19.9,2,26.9,9.4c0.9,0.9,0.7,2.5-0.4,3.4c-0.2,0.2-0.5,0.4-0.8,0.5c-1.5,0.6-3.1,0.5-4.6-0.5c-6.1-3.7-12.6-5.4-19.5-5.4
	c-0.7,0-1.2,0.6-1.3,1.2v0.1c0,0.7,0.5,1.3,1.2,1.4c5.5,0.8,23.5,3.4,19.1,13c-0.2,0.4-0.6,0.5-0.9,0.3c0,0,0,0,0,0
	c-6.4-3.6-13.1-5.6-20-5.8c-0.7,0-1.3,0.5-1.3,1.2l0,0.1c-0.1,0.7,0.4,1.3,1.1,1.4c6.3,0.9,12.2,2.6,17.8,5.3c1,0.5,1.4,1.6,0.9,2.6
	l-0.7,1.4c-0.5,1.1-1.7,1.6-2.9,1.3c-8.2-2.4-13.7-3.3-16.6-2.7c-0.8,0.2-1.3,0.9-1.2,1.7c0.1,0.7,0.8,1.2,1.5,1.2
	c4.7,0,9.7,1.1,14.8,3.1c0.8,0.3,1.2,1.3,0.9,2.1c-0.2,0.4-0.4,0.7-0.8,0.9l-3.4,1.6c-0.3,0.1-0.6,0.2-1,0.2c-5,0-8.3,0.1-9.9,0.4
	c-0.7,0.1-1.1,0.2-1.3,0.3c-0.6,0.4-0.7,1.3-0.3,1.9c0.2,0.2,0.4,0.4,0.7,0.5c1.4,0.5,3,0.5,4.8,0.2c0.2,0,0.3,0.1,0.4,0.2
	C439.4,600.3,439.3,600.5,439.2,600.5L439.2,600.5z"/>
<path class="st6" d="M456,558.9c-0.1,0-0.1-0.1,0-0.2l0,0c0.9-1.5,3.4-1.6,5.5-0.3c0,0,0,0,0,0l0.4,0.2c2.1,1.3,3.1,3.6,2.2,5.1
	l0,0.1c0,0.1-0.1,0.1-0.2,0c0,0,0,0,0,0L456,558.9z"/>
<path class="st2" d="M19.7,569.1c0.4,1.3,1.4,1.7,3,1.4c9.6,5.6,17.6,13.7,24,24.2c7,11.4,11.1,19.1,15.9,31
	c3,7.7,6.6,16.4,10.7,26.3c1.4,3.5,3,6.7,4.9,9.7c-0.8,2.2-0.5,3.4,1.1,3.7c2.6,5.5,5.4,10.9,8.4,16.2c1.4,2.4,2.9,4.2,4.6,5.3
	c-0.2,0.8-0.3,1.5-0.2,2c0.1,0.4,0.4,0.8,0.8,0.9c0.4,0.1,0.8,0.1,1.2,0.1c2.8,5,5.4,8.6,7.8,10.8c1.4,1.3,5,4,11,8.2
	c0.1,1.3,1.1,2.1,2.9,2.5c3.5,3.2,8.6,5.2,11.5,7c4.8,3,9.2,5.1,13.1,6.5c14.7,5,31.3,10,49.9,15.1c11.1,3,23.5,8.5,37.2,16.4
	c11.4,6.6,22,16.6,28.3,27.1c1.6,2.6,3,6.9,4.2,12.8c0.1,0.6,0,1.2-0.3,1.7c-0.7,1.1-1.7,2.1-3,2.9c-0.7,0.4-0.9,1.3-0.6,1.9
	c0,0.1,0.1,0.1,0.1,0.2c0.2,0.2,0.5,0.3,0.9,0.3c-7.5,2.4-14.8,4.9-22.5,6.1c-38.7,6.2-79.9,5.5-118.2-4.6
	c-26.9-7.1-52.8-20.9-71.2-42c-21.4-24.6-33-54.8-40.5-88.6c-6.4-28.8-7.1-60.2,1.1-89C8,578.3,11.1,570.3,19.7,569.1L19.7,569.1z"
	/>
<path class="st4" d="M725,601.1c-1.1-0.8-3.7-1.5-7.8-2c-0.6-0.1-1.2-0.4-1.6-0.9l-21.2-23.7c-1.1-1.2-1-3,0.2-4.1c0,0,0,0,0,0l0,0
	c1.2-1,2.9-1,4,0.2c7,7.5,13.7,14.9,19.9,22.4c0.9,1.1,7.4,7.6,7.4,7.7c0,0.4-0.3,0.7-0.7,0.7C725.3,601.2,725.2,601.2,725,601.1
	L725,601.1z"/>
<path class="st7" d="M144.2,570.7c0.1-0.3,0.4-0.4,0.7-0.2l36.7,17.3c0.5,0.3,0.8,0.9,0.5,1.4l0,0.1c-0.3,0.6-1.1,0.9-1.8,0.7
	c-8-2.7-16.7-3.6-26-2.7c-0.8,0.1-1.5,0.7-1.6,1.5l-0.1,0.3c-0.1,0.6,0.3,1.1,0.9,1.2c0.1,0,0.2,0,0.3,0c7.9-0.9,15.8-0.2,23.6,2.1
	c11.3,3.3,23.8,6.5,37.6,9.8c3.5,0.8,6.8,1.4,10.5,1.1c7.7-0.6,13.9-0.9,18.5-1c4.1-0.1,7.7,0.4,10.8,1.4c1.1,0.4,2.2,1,3.1,1.8
	l19.4,17c1.1,0.9,1.2,2.5,0.2,3.6l-0.3,0.4c-0.9,1-2.3,1.1-3.4,0.4l-13-9.2c-0.1-0.1-0.2-0.2-0.3-0.3l-4.7-7.8
	c-0.4-0.7-1.3-0.9-2-0.5c0,0-0.1,0.1-0.1,0.1l-0.4,0.3c-0.6,0.5-0.8,1.3-0.3,1.9l7.6,11.6c0.1,0.2,0.2,0.4,0.2,0.6
	c0.3,2.4,0,4.6-0.9,6.6c-0.3,0.7-1.2,1-1.9,0.7c-0.3-0.1-0.6-0.4-0.7-0.7c-2.2-5.3-5.2-10-9-14.3c-0.5-0.6-1.3-0.6-1.9-0.1
	c0,0,0,0-0.1,0.1l-0.3,0.3c-0.3,0.3-0.3,0.8-0.1,1.1l8.2,12.3c1,1.5,0.6,3.4-0.8,4.5l-2.3,1.7c-0.9,0.6-2.1,0.5-2.7-0.4
	c-0.1-0.2-0.2-0.4-0.3-0.6c-1.3-4.1-3.7-8-7.3-11.7c-0.4-0.5-1.2-0.5-1.7-0.1l-0.5,0.4c-0.4,0.3-0.5,0.9-0.2,1.3c0,0,0,0,0,0
	l5.7,7.7c1.2,1.7,0.9,4-0.8,5.3l-0.4,0.3c-1.6,1.2-3.9,0.9-5.1-0.7c0,0-0.1-0.1-0.1-0.2l-3.3-4.9c-0.5-0.8-1.5-1.2-2.5-1
	c-2.4,0.6-4.4,1.1-6.2,1.3c-6.6,0.8-10.6-1.1-16.7-4.1c-1.5-0.7-3.1-1-4.7-0.8c-15.2,1.7-30.1,1.5-44.7-0.8c-4.9-0.8-9.7-2-14.3-3.6
	C122.2,614.4,136.8,585.3,144.2,570.7L144.2,570.7z"/>
<path class="st7" d="M358.2,574.9c0.4-0.2,0.9,0,1.1,0.4c0,0,0,0,0,0c2.6,6.2,4.8,12.7,6.5,19.4c3.1,11.9,2.3,23.7-10,29.7
	c-2,1-5.8,2.1-11.5,3.4c-0.5,0.1-0.9-0.1-1.2-0.5c-0.3-0.5-0.7-0.9-1-0.9c-0.5-0.1-1.1,0.1-1.3,0.6l-1.3,3.2
	c-0.1,0.3-0.3,0.5-0.4,0.7c-4.9,5.7-9.9,10.2-14.9,13.5c-1,0.6-2.3,0.4-2.9-0.5c-0.1-0.2-0.2-0.4-0.3-0.6c-0.3-1.3,0.6-2.3,1.3-3.5
	c1.7-3,3.7-5.7,6-8c0.5-0.5,0.5-1.4,0-1.9c-0.1-0.1-0.2-0.2-0.4-0.3l-0.6-0.3c-0.5-0.2-1-0.1-1.4,0.3c-2.2,2.7-4.5,6-6.9,9.7
	c-1.8,2.9-3.7,4.7-6.7,5.8c-1.1,0.4-2.2,0.1-2.5-0.7c0,0,0,0,0,0c-0.4-1.2-0.3-2.5,0.3-3.9c2-4.8,5.1-9.4,9.3-13.7
	c0.5-0.5,0.5-1.3,0-1.8c-0.1-0.1-0.2-0.2-0.3-0.2l-0.6-0.3c-0.4-0.2-1-0.2-1.4,0.1c-4.1,3.2-8.5,12-10.4,16.3
	c-1.1,2.6-2.7,3.7-5.1,2.8c-0.4-0.1-0.8-0.5-0.9-1c-1.5-6.8,3.6-14.7,8.5-20.7c0.4-0.5,0.5-1,0.4-1.6c-0.2-0.7-0.9-1.1-1.6-0.9
	c-0.1,0-0.2,0.1-0.3,0.1c-4.6,2.3-8.9,12.6-11,17.9c-0.5,1.3-1.9,1.9-3.2,1.4c0,0-0.1,0-0.1-0.1l-0.5-0.3c-0.9-0.4-1.4-1.5-1.2-2.5
	c1.9-8.1,5.1-14.9,9.5-20.5c4-5,10.6-4.5,15.9-7.1c0.4-0.2,0.8-0.5,1.1-0.8c8-8,21.1-15.5,33.3-13.8c0.5,0.1,1-0.3,1.1-0.9
	c0-0.2,0-0.4-0.1-0.5l-0.3-0.6c-0.3-0.8-1.1-1.3-1.9-1.3c-8.7-0.2-16.1,1.7-22.4,5.9c-0.7,0.5-1.7,0.3-2.1-0.4
	c0-0.1-0.1-0.1-0.1-0.2l-1.6-3.4c-0.4-0.9,0-1.9,0.9-2.3c0,0,0,0,0,0L358.2,574.9L358.2,574.9z"/>
<path class="st10" d="M459.6,575.5c-0.1-0.3,0-0.6,0.3-0.7c0.1,0,0.2-0.1,0.3,0c4.1,0.7,6.3,5.5,7.4,9.3c0.2,0.9-0.3,1.8-1.1,2
	c-0.5,0.1-0.9,0-1.3-0.2l-4.8-3.2c-0.4-0.3-0.6-0.8-0.3-1.2C460.7,579.7,460.6,577.8,459.6,575.5L459.6,575.5z"/>
<path class="st8" d="M573.4,576c0-0.2,0.1-0.4,0.4-0.5c0.2,0,0.4,0.1,0.4,0.3l4,9.6c0.1,0.3,0,0.7-0.2,0.9c-1,0.8-2.1,1.5-3.2,2
	c-0.3,0.1-0.6,0-0.7-0.3c0-0.1,0-0.1,0-0.2L573.4,576z"/>
<path class="st8" d="M315.3,588.2c1.4,2.4,2.3,5.6,5.3,4.2c0.3-0.1,0.6,0,0.7,0.3c0,0,0,0,0,0l2.5,6c0.2,0.4,0,0.9-0.3,1.1l-9.7,7.2
	c-0.4,0.3-0.9,0.2-1.2-0.2c-0.1-0.2-0.2-0.4-0.2-0.6l2.1-17.9c0-0.2,0.2-0.3,0.4-0.3C315.2,588,315.3,588.1,315.3,588.2z"/>
<path class="st11" d="M469.2,589.5c-0.1-0.4-0.1-0.8,0.3-1.1c0.4-0.4,0.8-0.4,1.1,0c0.3,0.3,0.4,0.7,0.3,1c-0.1,0.5-0.6,0.7-1,0.6
	C469.5,590,469.3,589.8,469.2,589.5z"/>
<path class="st6" d="M702.9,590.6c0.6-0.4,1.6-0.1,2.2,0.8c0.7,0.9,0.7,2,0.2,2.4l0,0c-0.6,0.4-1.6,0.1-2.2-0.8
	S702.4,591,702.9,590.6L702.9,590.6z"/>
<path class="st9" d="M708.5,595.1c0.3-0.3,1.2,0.1,1.9,0.8c0,0,0,0,0,0c0.7,0.8,1,1.6,0.7,1.9c0,0,0,0,0,0c-0.3,0.3-1.2-0.1-1.9-0.8
	c0,0,0,0,0,0C708.5,596.3,708.2,595.4,708.5,595.1L708.5,595.1z"/>
<path class="st6" d="M574.4,621l-0.7-0.3c-0.5-0.2-1.1-0.1-1.4,0.3c-3.9,4.1-7.6,8-11,11.8c-0.9,1-4,3.5-5.9,2.7
	c-1.2-0.5-1.7-1.9-1.2-3c0,0,0-0.1,0-0.1c2.8-5.8,7-10.8,12.6-14.8c0.6-0.4,0.8-1.3,0.3-1.9c-0.1-0.2-0.3-0.3-0.5-0.5l-0.6-0.3
	c-0.7-0.3-1.6-0.2-2.2,0.3c-4,3.8-8.4,9.2-13.2,16.1c-0.9,1.3-2.1,2.1-3.4,2.3c-1.3,0.2-2.5-0.6-2.7-1.9c-0.1-0.3,0-0.6,0-0.9
	c1.6-7.2,7.7-14.5,13.3-18.9c0.5-0.4,0.6-1.2,0.2-1.7c-0.1-0.1-0.3-0.3-0.4-0.3l-0.7-0.3c-0.6-0.3-1.2-0.2-1.7,0.2
	c-5.3,4.7-9.9,10.8-13.8,18.5c-0.4,0.8-1.4,1.1-2.2,0.7c-0.2-0.1-0.4-0.3-0.5-0.4l-0.1-0.1c-0.9-1.2-1.2-2.7-0.6-4.1
	c4.5-11,12.9-23,24.5-24.5c7-0.9,13.3,0.4,18.7,3.9c6.8,4.4,14.1,14.5,7,21.8c-0.3,0.3-0.8,0.6-1.3,0.6l-4.3,0.6
	c-0.3,0-0.6,0.2-0.8,0.3c-4.8,3.5-8.2,6.1-11.3,8.2c-1.8,1.3-3.3,1.3-4.3,0.2c-0.8-0.8-0.8-2.2,0-3.2c2.1-2.5,5-5.6,8.6-9.1
	c0.6-0.6,0.6-1.5,0-2C574.7,621.2,574.6,621.1,574.4,621L574.4,621z"/>
<path class="st6" d="M719.7,611.4l-0.1,0.1c-0.4,0.8,0,1.8,0.8,2.1c0,0,0,0,0,0c7.3,3,13.2,6.7,17.8,11.1c1,0.9,1.3,1.9,1.1,2.8
	c-0.3,1.4-1.8,2.3-3.2,2c0,0-0.1,0-0.1,0c-1.9-0.5-3.5-1.2-4.9-2c-4.6-2.7-9.1-5.2-13.6-7.4c-0.7-0.4-1.5-0.1-1.9,0.6
	c0,0.1-0.1,0.1-0.1,0.2l0,0.1c-0.2,0.8,0.2,1.7,1,2.1l14.3,7.2c1.3,0.7,1.8,2.2,1.2,3.5c-0.1,0.1-0.2,0.3-0.2,0.4l-0.2,0.3
	c-0.9,1.5-2.8,2-4.4,1.3l-14.3-6.7c-0.6-0.3-1.2,0-1.5,0.5l-0.2,0.4c-0.2,0.5,0,1.1,0.5,1.4l10.9,5.6c1,0.5,1.4,1.8,0.9,2.8
	c-0.3,0.5-0.8,0.9-1.4,1.1c-4.8,1.1-11.4-1.6-16.7-3.4c-7.8-2.7-10.8-8.4-9-17.1c1.8-8.7,6.8-14.6,15-17.7c2.2-0.8,4-1.1,5.4-0.9
	c5.9,1,13.7,3,19.1,7.2c3.6,2.8,6.7,6.4,9.4,10.8c0.3,0.4,0.3,0.9,0,1.4c-0.6,1.1-1.5,1.8-2.7,2.3c-0.5,0.2-1.1,0.1-1.6-0.3
	c-4.3-4.2-10.7-8.4-19.3-12.6C721,610.2,720.1,610.5,719.7,611.4C719.7,611.3,719.7,611.3,719.7,611.4L719.7,611.4z"/>
<path class="st6" d="M734.2,604.2c4.7,0.5,8.6,2.4,11.6,5.5c0.8,0.9,1.3,2,1.2,3.2l-0.1,1.2c0,0.4-0.4,0.8-0.8,0.8
	c-0.2,0-0.4-0.1-0.5-0.2L734,604.6c-0.1-0.1-0.1-0.2,0-0.3C734,604.2,734.1,604.2,734.2,604.2z"/>
<path class="st6" d="M544.7,606.8c0.1,0,0.2,0,0.2,0.1c0,0,0,0.1,0,0.1l-6.7,8.8c-0.5,0.7-1.5,0.8-2.2,0.3c-0.4-0.3-0.6-0.7-0.6-1.2
	C535.3,610.2,540.9,607.9,544.7,606.8L544.7,606.8z"/>
<path class="st11" d="M439.8,609.2c0.3,0.3,0.2,0.9-0.2,1.4s-1.1,0.6-1.4,0.3c-0.3-0.3-0.2-0.9,0.2-1.4
	C438.9,609,439.5,608.9,439.8,609.2z"/>
<path class="st8" d="M881.5,653.9c0,0.1-0.1,0.2-0.3,0.2c0,0,0,0,0,0c-13.9-0.5-26.1-1.1-36.5-1.7c-11.7-0.7-25-2.6-36.1-3.7
	c-11.4-1.2-22,0.9-31.8,6.2c-0.3,0.2-0.7,0.1-0.9-0.3c0-0.1-0.1-0.1-0.1-0.2l-7.5-36.9c-0.2-0.9,0.2-1.7,0.9-2.2
	c10.2-6.2,23.3-5.4,35.3-3.8c1.1,0.2,2.2,0.8,2.9,1.7c3.4,4.5,7.7,8.2,13,11.1c11.8,6.5,22.9,5.8,33.1-2.2c0.4-0.3,1-0.3,1.4,0.1
	l26.4,31.3c0.1,0.1,0.1,0.2,0.1,0.3C881.5,653.8,881.5,653.8,881.5,653.9L881.5,653.9z"/>
<path class="st8" d="M381.2,654.5c-0.3,0-0.5-0.2-0.5-0.5c0-0.1,0-0.2,0.1-0.3l20.5-27c0.2-0.3,0.5-0.4,0.9-0.4
	c11.7,1.4,22-1.8,30.8-9.6c0.8-0.7,1.8-1.2,2.9-1.3c4.9-0.6,12.1-1.7,21.5-3.2c12.4-2,30.8-2.5,41.1,5.3c0.7,0.6,1.2,1.4,1.2,2.4v34
	c0,0.3-0.2,0.6-0.5,0.6c-0.1,0-0.2,0-0.3-0.1c-18.6-10.7-41.2-10.3-62.3-7.3c-13.7,2-27.6,4-41.4,6.2
	C390.1,654,385.5,654.4,381.2,654.5L381.2,654.5z"/>
<path class="st8" d="M621.4,653.5c0.2,0.3,0.1,0.7-0.1,0.8c-0.1,0.1-0.3,0.1-0.4,0.1c-15.2-1.9-32.9-4.5-53.1-7.8
	c-9.2-1.5-19.4-2.2-30.6-1.9c-12.3,0.3-23.4,3.6-33.6,9.7c-0.3,0.2-0.7,0.1-0.8-0.2c-0.1-0.1-0.1-0.2-0.1-0.3v-34
	c0-0.6,0.3-1.2,0.7-1.6c7-6.4,19.8-8.1,29.1-7.6c0.3,0,0.6,0.3,0.5,0.6c0,0.1,0,0.2-0.1,0.3c-1.4,2.5-0.6,4.9,2.5,7.4
	c0.6,0.5,0.9,1.4,0.6,2.1c-1.3,3.9-2.8,12.9,5,10.6c0.4-0.1,0.8,0.1,0.9,0.5c0,0,0,0,0,0l0.8,2.6c0.1,0.2,0.1,0.3,0.3,0.4
	c2.1,2.2,4.5,2.1,7.4-0.1c0.4-0.3,0.9-0.2,1.1,0.1c0,0,0.1,0.1,0.1,0.1c1.7,3.4,4.3,4.2,7.8,2.3c1.1-0.6,1.8-1.6,2.5-2.1
	c0.3-0.2,0.7-0.1,0.9,0.2c0,0,0.1,0.1,0.1,0.2c3.2,8.9,16.4-3,20.3-6.1c0.5-0.4,1.1-0.5,1.7-0.5c5.4,0.7,11.3,0.7,17.7,0
	c0.6-0.1,1.2,0.2,1.5,0.7L621.4,653.5L621.4,653.5z"/>
<path class="st8" d="M666.7,656c-0.5-0.1-0.8-0.6-0.7-1.1c0-0.1,0-0.1,0.1-0.2l10-19.7c0.2-0.5,0.8-0.7,1.3-0.6
	c6.9,1.9,13.2,2.6,18.7,2c0.7-0.1,1.4,0.1,1.9,0.6c3.1,2.5,7.1,4.2,11.9,5.2c6,1.2,13.5,3.8,16.7-2.4c0.2-0.5,0.7-0.7,1.3-0.7
	c3.6,0.2,6-1.7,7.2-5.8c0.1-0.4,0.5-0.7,0.9-0.8c1.5-0.2,2.6-0.7,3.2-1.7c0.3-0.5,1-0.7,1.5-0.3c0,0,0,0,0,0l13.6,9
	c0.6,0.4,1.5,0.2,1.9-0.4c0.2-0.3,0.3-0.7,0.2-1.1c-1.6-5.8-4-11.4-7.3-16.9c-0.4-0.6-0.4-1.4,0-2c1.2-1.9,1.9-3.9,2-6
	c0-0.5,0.4-0.8,0.9-0.8c0,0,0,0,0.1,0c5,0.7,9.1,2,12.3,4.1c0.5,0.3,0.9,0.9,1,1.5l7.5,36.9c0.1,0.3-0.1,0.6-0.5,0.7
	c-0.1,0-0.3,0-0.4-0.1c-10.1-5.4-21.3-7.3-33.8-5.8c-22,2.8-45.3,4.9-69.9,6.3C667.6,656.1,667,656.1,666.7,656L666.7,656z"/>
<path class="st8" d="M281.6,623.8c-1.9-3-4.8-6.2-8.8-9.4c-0.3-0.3-0.4-0.7-0.1-1.1c0.1-0.2,0.4-0.3,0.6-0.3
	c6.9,0.1,14.2,0.8,21.9,2.4c0.2,0,0.3,0.2,0.3,0.4c0,0.1-0.1,0.2-0.2,0.2c-2.7,1.5-9.9,4.1-12.9,7.8c-0.2,0.2-0.5,0.2-0.7,0.1
	C281.7,623.8,281.6,623.8,281.6,623.8L281.6,623.8z"/>
<path class="st11" d="M949,674.3l-3.2,12.6l-853.5,0c-1.7-1.1-3.2-2.9-4.6-5.3c-3-5.3-5.8-10.7-8.4-16.2l42.7-48.2
	c0.4-0.5,1-0.7,1.6-0.7h7.3c0.6,0,1.2,0.3,1.6,0.7c6.6,7.3,14.9,10.6,24.3,12.3c0.4,0.1,0.7,0.5,0.6,0.9c0,0.1-0.1,0.2-0.1,0.3
	L139.1,658c-0.1,0.2-0.2,0.4-0.2,0.6l-1,5.8c-0.2,1.1,0.6,2.2,1.7,2.4c0.2,0,0.3,0,0.5,0c26.9-2,54.4-3.8,82.4-5.5
	c2.8-0.2,6.6-0.1,11.4,0.3c0.6,0,1.2,0.2,1.8,0.3c2.2,0.7,5.8,2,10.8,4c2.7,1.1,5.6,1,8.5-0.2c6.4-2.6,10.8-4.4,17.8-4.7
	c8.7-0.4,21.8,0.2,31.8,1c20.1,1.6,38.2,2.7,54.4,3.1c0.8,0,1.4-0.6,1.4-1.4c0-0.2,0-0.3-0.1-0.5c-0.5-1.5-0.6-2.9-0.5-4.2
	c0.1-0.7-0.1-1.4-0.5-2l-17-22.8c-0.8-1.1-0.6-2.8,0.5-3.6c0.3-0.2,0.7-0.4,1.1-0.5c10.3-1.8,18.4-3.7,23.9-13
	c0.3-0.4,0.7-0.7,1.2-0.7h14.5c0.7,0,1.3,0.3,1.7,0.8c3.1,3.5,6.7,6,11,7.4c0.6,0.2,1,0.9,0.8,1.5c0,0.1-0.1,0.2-0.2,0.3l-21.2,28
	c-0.4,0.5-0.6,1.1-0.6,1.7v1.9c0,0.6-0.2,1.1-0.6,1.5c-2.3,2.3-3.5,4.5-3.5,6.7c0,1.1,0.9,2,2,2c0,0,0.1,0,0.1,0l112.8-6
	c0.2,0,0.4,0,0.5,0.1c9.8,6.3,19.4,6.4,28.6,0.2c0.5-0.3,1.1-0.5,1.6-0.4c36.1,2.2,73.5,4.2,112.3,5.8c1.2,0.1,2.2-0.7,2.4-1.7
	c0.2-0.7-0.1-2-0.8-3.7c-0.1-0.2-0.2-0.3-0.3-0.5l-2-1.6c-0.4-0.3-0.7-0.8-0.8-1.3l-0.5-3.1c0-0.2-0.1-0.4-0.3-0.6l-19.5-26.3
	c-0.3-0.3-0.2-0.8,0.1-1c0.1-0.1,0.2-0.1,0.3-0.1c8.5-1.9,15.8-5.7,21.7-11.3c0.4-0.4,0.9-0.6,1.4-0.6h11.8c0.5,0,1,0.3,1.3,0.7
	c5.9,9.8,17,13.5,28.1,16.3c0.4,0.1,0.7,0.6,0.6,1c0,0.1,0,0.1-0.1,0.2l-9.1,18.3c-4.2,1.9-4.7,8.2-4.6,12c0,1,0.9,1.9,1.9,1.9
	c5.2,0.1,10.4-0.8,15.5-2.7c23.6-2.1,47.2-3.8,70.8-4.9c6.1-0.3,10.8,0.1,14.1,1.2c3.9,1.3,11.6,5.6,15.4,4
	c8.4-3.4,13.3-5.5,22.2-5.4c2.6,0,11.1,0.3,25.5,0.8c5.9,0.2,26.3,1.1,61.2,2.8c0.7,0,1.2-0.5,1.2-1.2c0,0,0-0.1,0-0.1l-0.3-5.2
	c0-0.8-0.3-1.5-0.8-2.1l-28.5-33.3c-0.4-0.5-0.6-1.1-0.5-1.7c0.4-1.9,1.4-2.8,3-2.8c10.6-0.1,22.2-0.1,34.6-0.1
	c1.4,0,2.8,0.6,3.7,1.7L949,674.3L949,674.3z"/>
<path class="st7" d="M294.4,619.9C294.4,619.9,294.5,619.9,294.4,619.9c0.1,0.1,0.1,0.2,0.1,0.2l-4.3,8.5c-0.2,0.4-0.5,0.7-0.8,0.8
	c-1.6,0.8-2.9,0.7-3.9-0.3c-1-1-1.2-2.3-0.4-3.9c0.2-0.4,0.5-0.6,0.8-0.8l8.4-4.6C294.2,619.7,294.3,619.7,294.4,619.9
	C294.3,619.8,294.4,619.8,294.4,619.9L294.4,619.9z"/>
<path class="st8" d="M281.9,626.9c0,0,0,0.4,0.1,1.1c0.3,2.9,3.7,4.7,6.3,5c0.4,0,0.7,0.4,0.6,0.8c0,0,0,0,0,0
	c-0.8,4.8,0.3,9.4,6.2,8.7c0.7-0.1,1.2-0.6,1.8-0.9c0.4-0.2,0.8,0,1,0.4c0,0,0,0.1,0,0.1c0.2,0.8,0.1,1.8,0.7,2.5
	c2.2,2.6,4.9,3.1,8,1.5c0.4-0.2,1-0.1,1.3,0.2c2.3,2.3,5.4,2,9.4-1c0.4-0.3,0.9-0.2,1.2,0.1c1,1.2,2.4,2,4,2.2c0.5,0.1,1,0,1.5-0.2
	c6.2-3.1,9.5-6.9,14.4-12.1c0.2-0.2,0.5-0.2,0.7,0c0,0,0,0,0.1,0.1l15.5,20.9c0.2,0.2,0.1,0.6-0.1,0.8c-0.1,0.1-0.2,0.1-0.3,0.1
	c-22-0.9-42.5-2.6-61.5-5.1c-14.5-1.9-27.3-1.5-40.3,5.6c-0.3,0.2-0.6,0-0.8-0.2c0-0.1-0.1-0.2-0.1-0.2l-0.8-14.8
	c0-0.7-0.4-1.4-0.9-1.9l-0.4-0.4c-0.4-0.3-1-0.3-1.3,0.1c-0.1,0.2-0.2,0.4-0.2,0.6l0.9,16.2c0,0.4-0.3,0.7-0.7,0.8
	c-0.1,0-0.3,0-0.4-0.1c-12.1-6.7-24.6-7.3-38.6-5.5c-24.5,3.1-45.9,5.1-63.9,6.2c-0.6,0-1.1,0-1.4,0c-0.4-0.1-0.7-0.5-0.6-0.9
	c0-0.1,0.1-0.2,0.1-0.3l17.4-26.3c0.3-0.4,0.7-0.6,1.2-0.6c14,1.3,28.1,1.4,42.3,0.3c1.5-0.1,3,0.2,4.4,0.9c7,3.7,13.8,5.3,21.8,2.9
	c1-0.3,2.1,0.1,2.6,1.1c2.5,4.6,7.4,8.8,12.6,4.8c1-0.8,1.6-1.3,1.8-1.4c0.4-0.3,0.9-0.3,1.2,0c2.7,1.7,6.8-2.3,8.4-4.3
	c0.3-0.4,0.7-0.6,1.2-0.6c4.5-0.5,5.8-4.8,5.7-8.7c0-0.5,0.4-0.9,0.9-1c0.2,0,0.4,0.1,0.6,0.2c2.2,1.7,4.1,3.1,5.7,4.2
	c3.3,2.2,8.3,2.8,9.8-1.5c0.1-0.2,0.3-0.4,0.6-0.3C281.7,626.7,281.8,626.8,281.9,626.9L281.9,626.9z"/>
<path class="st6" d="M746.4,624.9c0.2-0.1,0.4-0.1,0.5,0c0,0,0,0,0,0l0.2,0.2c2.6,2.9,4,5.9,3.2,6.6c0,0,0,0,0,0l0,0
	c-0.8,0.7-3.5-1.1-6.1-4.1c0,0,0,0,0,0l-0.2-0.2c-0.1-0.2-0.1-0.4,0-0.5L746.4,624.9z"/>
<path class="st8" d="M505.8,657.4c-0.2,0.1-0.5-0.1-0.6-0.3c-0.1-0.2,0-0.4,0.2-0.5c18.5-10.7,40.5-10.4,61.7-7
	c19.2,3.1,38,5.8,56.3,8c0.5,0.1,0.9,0.5,0.8,1l-0.1,0.4c0,0.3-0.3,0.6-0.6,0.6c-31.6-1.4-65.2-2.9-100.8-4.8
	C516,654.5,511.7,655.7,505.8,657.4L505.8,657.4z"/>
<path class="st8" d="M496.5,657c-6.8-1.7-13.9-2.4-21.5-2c-41.7,2-63.5,3-65.6,3.2c-11.9,0.9-21.7,1.5-29.4,1.8c-0.5,0-1-0.4-1-0.9
	v-0.1c0-0.5,0.3-0.9,0.8-1c23.7-2.5,48.2-7.9,71.9-9.6c15.8-1.1,30.6,0.6,45,8c0.1,0.1,0.2,0.2,0.1,0.4
	C496.7,657,496.6,657,496.5,657L496.5,657z"/>
<path class="st0" d="M746,823c1.6-5.5,4.3-10.4,8.2-14.8c26.1-29.3,64.6-32.7,100.7-38.8c14.4-2.4,28.1-7,41.2-13.8
	c10.5-5.5,20.3-13.9,29.4-25.2c2.3-2.9,3.7-5.4,4.3-7.5l0.3,1.4c0.1,0.4,0.4,0.6,0.8,0.6c0.2,0,0.4-0.2,0.5-0.4l5.7-12.4
	c0.4-0.5,0.8-1.6,1-3.3c3.1-5.4,5.3-11.7,6.6-18.8c1.1,0.1,1.5-1,1-3l3.2-12.6c1-0.7,1.2-1.9,0.7-3.6l4.4-14.6
	c1.4,0.1,2.2-0.6,2.5-2.3c4.9-3.3,9.7-3.8,14.3-1.3c6.4,3.4,11.7,10.4,15.9,18c11.9,21.7,17,45.5,15.3,71.4c-2,30.3-14,55.9-36,76.7
	c-38.1,36.2-96.7,42.1-146.8,36.2c-17.6-2-34.8-6.1-51.6-12.2c-6.5-2.4-11.9-5.6-17.4-9.6C747.2,830.7,745.8,827.4,746,823z"/>
<path class="st2" d="M663.7,653l-2.9,10c-0.3,0.9,0.2,1.8,1.1,2c0.2,0.1,0.4,0.1,0.5,0.1l14.1-0.9c-5.2,1.9-10.3,2.8-15.5,2.7
	c-1,0-1.9-0.9-1.9-1.9C658.9,661.2,659.5,654.9,663.7,653L663.7,653z"/>
<path class="st8" d="M774.4,661.9c-0.3,0-0.5,0-0.5,0c-6.5-1.9-11.5-4.9-18.5-5.3c-6.2-0.4-15.4-0.1-27.5,0.9
	c-5.5,0.4-26.1,1.9-61.9,4.4c-0.6,0-1.2-0.4-1.2-1.1c0,0,0-0.1,0-0.1v-0.1c0-0.7,0.6-1.3,1.3-1.3c23.3-1.3,47.5-3.6,72.4-6.9
	c12.5-1.6,24.2,0.7,35.1,7c0.2,0.1,0.5,0.1,0.9,0.1c0.5,0,0.8-0.1,1-0.2c10.8-6.5,22.5-9,35-7.6c25,2.8,49.1,4.7,72.5,5.7
	c0.7,0,1.3,0.6,1.3,1.3v0.1c0,0.6-0.5,1.2-1.1,1.2c0,0-0.1,0-0.1,0c-35.8-1.9-56.5-3-62-3.4c-12.2-0.8-21.3-0.9-27.5-0.4
	c-7,0.5-11.9,3.7-18.4,5.6C774.9,661.9,774.7,661.9,774.4,661.9L774.4,661.9z"/>
<path class="st8" d="M249.7,661.6c0.4,0,0.7-0.1,0.9-0.1c10.6-6.3,22-8.8,34.3-7.4c24.5,2.8,48.1,4.7,71,5.7c0.7,0,1.3,0.6,1.3,1.3
	v0.1c0,0.6-0.5,1.2-1.1,1.2c0,0-0.1,0-0.1,0c-35.1-1.9-55.3-3.1-60.7-3.4c-11.9-0.8-20.9-0.9-27-0.5c-6.9,0.5-11.7,3.6-18.1,5.5
	c0,0-0.2,0-0.5,0c-0.3,0-0.5,0-0.5,0c-6.4-1.9-11.3-4.9-18.1-5.3c-6.1-0.4-15.1-0.1-27,0.8c-5.4,0.4-25.6,1.8-60.7,4.1
	c-0.6,0-1.2-0.4-1.2-1.1c0,0,0-0.1,0-0.1v-0.1c0-0.7,0.6-1.3,1.3-1.3c22.9-1.2,46.5-3.4,70.9-6.5c12.2-1.6,23.7,0.8,34.4,7
	C248.9,661.6,249.2,661.6,249.7,661.6L249.7,661.6z"/>
<path class="st11" d="M628.2,664.2c0,0.7-0.6,1.2-1.3,1.1c0,0,0,0,0,0l-109.1-5.5c-0.7,0-1.2-0.6-1.1-1.3l0-0.1
	c0-0.7,0.6-1.2,1.3-1.1c0,0,0,0,0,0l109.1,5.5C627.7,662.9,628.2,663.5,628.2,664.2L628.2,664.2z"/>
<path class="st11" d="M430.5,662.6c-18.3,0.8-36.6,1.8-54.9,2.9c-0.5,0-0.8-0.3-0.9-0.8c0,0,0-0.1,0-0.1v0c0.1-0.6,0.5-1,1.1-1.1
	c2.1-0.3,4.2-0.6,6.4-0.7c16.4-1.1,32.4-2,48.2-2.8c15.8-0.8,31.8-1.6,48.2-2.3c2.1-0.1,4.3-0.1,6.4,0c0.6,0,1.1,0.4,1.2,1l0,0
	c0.1,0.4-0.2,0.9-0.6,1c-0.1,0-0.1,0-0.2,0C467.1,660.6,448.8,661.5,430.5,662.6L430.5,662.6z"/>
<path class="st11" d="M500.6,660.8c3.8,0,8-1.3,12.2-2.2c0.3-0.1,0.6,0.1,0.6,0.4c0,0.2,0,0.3-0.1,0.4c-2.7,3.7-8.3,5-12.7,5
	c-4.5,0-10-1.4-12.7-5.1c-0.2-0.2-0.1-0.6,0.1-0.7c0.1-0.1,0.3-0.1,0.4-0.1C492.6,659.5,496.8,660.8,500.6,660.8L500.6,660.8z"/>
<path class="st1" d="M945.8,686.9c0.4,2.1,0.1,3.1-1,3l-850.6,0c-0.4,0-0.8,0-1.2-0.1c-0.4-0.1-0.8-0.5-0.8-0.9
	c-0.1-0.5,0-1.2,0.2-2L945.8,686.9L945.8,686.9z"/>
<path class="st7" d="M944.8,689.9c-1.3,7.1-3.5,13.3-6.6,18.8L113,708.9c-6-4.2-9.6-6.9-11-8.2c-2.4-2.2-5-5.8-7.8-10.8L944.8,689.9
	L944.8,689.9z"/>
<path class="st1" d="M938.2,708.7c-0.3,1.7-0.6,2.7-1,3.3c-2.5-0.6-4.8-0.6-6.9-0.2l-814.3-0.3c-1.8-0.4-2.8-1.2-2.9-2.5
	L938.2,708.7L938.2,708.7z"/>
<path class="st7" d="M930.3,711.8l-0.5,11.1c-0.5,2.1-1.9,4.6-4.3,7.5c-9.1,11.3-18.9,19.7-29.4,25.2c-13,6.8-26.8,11.4-41.2,13.8
	c-36.1,6.1-74.6,9.6-100.7,38.8c-3.9,4.4-6.6,9.3-8.2,14.8c-27.8-0.7-52.3-6.1-79.5-13.8c-16.2-4.6-35.2-10.4-56.9-17.3
	c-23.6-7.6-49.3-15.3-73.3-19.9c-33.3-6.4-67.8-7.8-103.5-4.2c-15.4,1.5-29.2,3.3-41.4,5.3c-11.7,1.9-28.2,5.6-49.4,11
	c-31.8,8.1-54,13.6-66.6,16.5c-5.5,1.3-11.5,2.2-18.2,2.8c-0.4,0-0.7-0.1-0.9-0.3c-0.5-0.5-0.4-1.4,0.2-1.9c0.1-0.1,0.1-0.1,0.2-0.2
	c1.2-0.8,2.2-1.8,3-2.9c0.3-0.5,0.4-1.1,0.3-1.7c-1.3-5.9-2.7-10.2-4.2-12.8c-6.3-10.5-16.8-20.5-28.3-27.1
	c-13.7-7.9-26-13.4-37.2-16.4c-18.5-5.1-35.2-10.1-49.9-15.1c-3.9-1.3-8.2-3.5-13.1-6.5c-3-1.8-8.1-3.8-11.5-7L930.3,711.8
	L930.3,711.8z"/>
<path class="st8" d="M937.1,712l-5.7,12.4c-0.2,0.4-0.6,0.5-1,0.3c-0.2-0.1-0.4-0.3-0.4-0.5l-0.3-1.4l0.5-11.1
	C932.3,711.3,934.6,711.4,937.1,712L937.1,712z"/>
<path class="st2" d="M410.5,853.2c-14.1-2.9-30.2-11.2-28.6-28c1.3-13.3,14.8-20.9,26.6-24.1c23.6-6.4,51.9-7.1,75.5,0.8
	c15.8,5.3,19,21.3,7.9,33c-3.6,3.8-7.8,6.8-12.3,9.2C458.2,855.3,435.1,858.3,410.5,853.2L410.5,853.2z"/>
</svg>
