<?xml version="1.0" encoding="utf-8"?>
<!-- Generator: Adobe Illustrator 24.0.2, SVG Export Plug-In . SVG Version: 6.00 Build 0)  -->
<svg version="1.1" id="Layer_1" xmlns="http://www.w3.org/2000/svg" xmlns:xlink="http://www.w3.org/1999/xlink" x="0px" y="0px"
	 viewBox="0 0 1024 1024" style="enable-background:new 0 0 1024 1024;" xml:space="preserve">
<style type="text/css">
	.st0{fill:#DADADA;}
	.st1{fill:#BCD390;}
	.st2{fill:#58A89F;}
	.st3{fill:#060806;}
	.st4{fill:#F9D790;}
	.st5{fill:#FFFFFF;}
	.st6{fill:#F19B70;}
	.st7{fill:#FDD5C0;}
	.st8{fill:#616264;}
	.st9{fill:#7FC6B8;}
</style>
<g>
	<path class="st0" d="M547.7,196.5c-16.6,7.1-30.8,15.5-42.2,29c-0.3,0.4-0.7,0.6-1.2,0.7l-1.2,0.3c-11.8-18.3-25-37.3-41.5-51
		c-19-15.9-40.9-29.3-65.1-36.9c-38.9-12.1-78.7-11.8-119.5,1c-37.4,11.7-72.8,27.8-106.2,48.2c-6.7,4.1-13.2,8.3-19.5,12.8
		c-9.4,6.7-20.1,13.2-29.8,21c-3.5,2.8-6.9,5.5-10.4,8.1c1.3-9.8,2.4-16.3,3.5-19.5c2.3-7,4-12.2,5.2-15.6
		c15.6-45.2,43.4-80.9,83.3-107.1c10.2-6.7,23.1-13.7,34.6-18.7c82.8-35.5,186.4-33.5,252.3,35.6c1.6,1.6,4.1,3.6,5.6,6.3
		c0.5,0.8,1.5,1.2,2.3,0.7c31.2-16.1,76.9-7.1,102.8,16.7c7.4,6.9,11,13.9,9.2,24.2c-4.5,25.8-48.8,26.6-67.3,24.8
		c-0.6-0.1-1.2,0.4-1.2,1c0,0.2,0,0.3,0.1,0.5L547.7,196.5L547.7,196.5z"/>
	<path class="st1" d="M702.4,76.4c8.1,13-3.1,34.6-25,48.2c0,0,0,0,0,0c-21.9,13.6-46.2,14-54.3,1c0,0,0,0,0,0
		c-8.1-13,3.1-34.6,25-48.2c0,0,0,0,0,0C670,63.8,694.3,63.4,702.4,76.4C702.4,76.4,702.4,76.4,702.4,76.4z"/>
	<path class="st1" d="M928.9,424.4c-15.4-2.9-28.9-0.2-40.4,8.1c-10,7.1-17,15.6-21.2,25.6c-4.6,10.9-5.8,21.4-3.6,31.5
		c3.4,15.6,12,28,25.7,37c-2.8,2.8-6.6,7.7-11.5,14.7c-6.1,8.8-15.1,17.4-26.8,25.9c-1,0.7-1.6,1.6-1.6,2.8l-3.7-1.4
		c1.9-1.9,2.9-5,2.9-9.1c0-0.4,0.2-0.9,0.5-1.2l7.2-7.2c1.3-1.3,1.6-3.3,0.7-5l-1.5-2.7c-0.2-0.3-0.1-0.8,0.2-1l2.3-2.3
		c0.2-0.2,0.3-0.4,0.4-0.7c0.6-3-1.4-6.9-5-6.6c-0.1,0-1.3,0-3.7,0.1c-0.5,0-1-0.4-1-0.9c0-0.1,0.1-0.3,0.2-0.6
		c0.2-0.5,0.2-1,0.1-1.5c-1.1-4.5-6.4-3-9.6-2c-0.5,0.2-1-0.1-1.2-0.6c0-0.1,0-0.1,0-0.2c-0.1-2.4-0.2-7.5-0.2-15.1
		c0-98.8,0-150.4,0.2-155c0.3-9-0.5-15.4-2.4-19.2c-3.9-7.9-10.8-12.5-20.8-13.8c-0.1,0-0.1-0.1-0.1-0.1c0,0,0,0,0-0.1l7.1-6.4
		c0.2-0.2,0.5-0.3,0.8-0.3c15.8-0.3,35.6-0.3,59.3,0.1c8.9,0.1,13.4-4,13.4-12.5c0-3.2,0-16.5,0.1-39.7c0-9.2-2.1-15.9-12.2-15.8
		c-26.3,0.1-54.9,0.1-86,0c-9.1,0-14.1,3-14.4,12.2c-0.1,1.2-0.1,15.4,0,42.5c0,9.2,4.7,13.7,14,13.4c0.6,0,1,0.4,1.1,1c0,0,0,0,0,0
		v4.9c0,0.6-0.5,1.1-1.1,1.1l0,0H632.6c-0.8,0-1.5-0.6-1.5-1.5c-0.2-7.1-2.8-13.3-7.7-18.6c-0.4-0.5-0.7-1.1-0.6-1.7
		c0.2-9.7-4.2-16.5-13.1-20.5c-3.4-1.5-6.5-2.3-9.2-2.4c-8.4-0.4-17.8-1.1-28.1-2.3c-5.4-0.6-11.7-0.2-18.9,1.3
		c-10.5,2.2-18.4,7.7-23.6,16.7c-1.2,2-1.5,4.7-2.6,6.7c-0.3,0.6-0.7,1-1.3,1.3c-8.1,3.9-10.2,11.7-11.4,20.1c-0.1,0.6-0.6,1-1.2,1
		L459,324c0.4-3,1.9-5.8,2.3-8.4c3.2-18.2,8.7-36,16.6-53.4c0.2-0.4,0.6-0.6,1-0.5c0.1,0,0.2,0.4,0.3,1l0,8.4c0,0.6,0.5,1.1,1.1,1.1
		l0,0h0.5c0.5,0,0.8-0.4,0.8-0.8c0,0,0,0,0,0v-14.9c0-0.5,0.4-0.9,0.9-0.9h14.3c0.4,0,0.7-0.3,0.7-0.7l0,0v-0.6
		c0-0.5-0.4-0.8-0.8-0.8c0,0,0,0,0,0l-14.4,0.3l20.9-27.2l1.2-0.3c0.5-0.1,0.9-0.4,1.2-0.7c11.4-13.5,25.7-21.9,42.2-29
		c18.5-7,37.6-10.7,57.4-11.3c12.5-0.4,20.4-0.7,23.8-1c19.3-1.7,36-8.9,49.9-21.7c19.6-18.1,40.6-35.5,63.4-44.2
		c57.9-22.1,121.3-10.1,165.2,32.6c39.8,38.7,54.1,89.9,46.9,144.6c-3.4,25.9-9.1,52.2-17,79c-4.7,16-7.7,30.2-11.2,46.9
		c-0.1,0.6,0.1,1.1,0.6,1.4L928.9,424.4L928.9,424.4z"/>
	<path class="st2" d="M503.1,226.5l-20.9,27.2c-0.7-5.3-0.9-10.7-0.7-16.1c0-0.5-0.2-0.8-0.7-1c-0.6-0.2-1.3,0.1-1.5,0.7
		c0,0.1-0.1,0.2-0.1,0.4c0,0.7,0,5.6,0,14.7c0,0.6-0.5,1-1,1c0,0,0,0,0,0l-13.7-0.2c-0.6,0-1.2,0.5-1.2,1.1c0,0,0,0,0,0l0,0.4
		c0,0.4,0.3,0.7,0.7,0.7h14c0.6,0,1,0.5,1.1,1.1l0.1,6.2c-0.1-0.6-0.2-1-0.3-1c-0.4-0.1-0.8,0.1-1,0.5
		c-7.9,17.4-13.4,35.1-16.6,53.4c-0.5,2.6-2,5.4-2.3,8.4l-206.3,0.6c-1.3,0-2.3-1-2.3-2.3c0,0,0,0,0,0v-9.9c0-0.7,0.5-1.2,1.1-1.4
		c1.2-0.3,2.3-0.8,3.2-1.7c0.6-0.5,0.8-1.4,0.4-2.1l-3.3-6.7c-0.3-0.6-0.9-1.1-1.6-1.1l-0.5-0.1c-0.8-0.1-1.3-0.8-1.3-1.5v-14.2
		c0-0.8,0.6-1.4,1.4-1.4c0,0,0.1,0,0.1,0c1.7,0.1,2.2-1.4,1.6-4.5c-0.2-0.9-1-1.6-2-1.6h-15.8c-0.4,0-0.7-0.3-0.7-0.7
		c0-0.1,0-0.2,0.1-0.3c3-5.3,3.2-17.9-0.2-22.5c-0.2-0.3-0.1-0.7,0.1-0.9c0.1-0.1,0.2-0.1,0.3-0.1c5.2-0.2,11.9-0.2,13.3-4.7
		c1.7-5.6,3.6-25.3-7.2-25.4c-17.8-0.2-53.2-0.1-106.2,0.3c-1.7,0-3,1.4-2.9,3.2c0,0.4,0.1,0.8,0.3,1.2c0.4,1,1.3,1.6,2.7,2.1
		c0.5,0.2,0.9,0.7,0.9,1.2c0,4-0.2,7.3-0.5,9.9c-0.4,3.1-3.5,5.5-2.8,9.1c0.1,0.5-0.2,0.9-0.7,1c0,0-0.1,0-0.1,0
		c-3.4,0.2-7.2,0.3-11.3,0.1c-1.2,0-2.3,0.7-2.5,1.8c-0.3,2.1,0.4,3.4,2.3,3.9c0.6,0.1,1.1,0.7,1.1,1.3v12.8c0,0.6-0.4,1.2-1,1.4
		c-2.5,1-3.2,2.9-2.3,5.9c0.2,0.5,0.7,0.9,1.3,0.9h13.9c0.3,0,0.6,0.3,0.5,0.6c0,0.1,0,0.2-0.1,0.3c-4.7,7.4-4.7,18.9,1.9,25.5
		c0.3,0.3,0.3,0.9,0,1.2c-0.1,0.1-0.2,0.1-0.3,0.2c-2.5,0.9-3.9,2.8-4.1,5.7c-0.3,5-0.2,10.8,0.4,17.5c0.5,4.9,4.5,7.1,9.7,7.2
		c17.7,0.3,32.8,0.4,45.5,0.3c0.5,0,1,0.5,1,1c0,0.1,0,0.2-0.1,0.4c-2.7,6.3-2.4,10.5-2.4,19.4c0.2,73.5,0.3,148.2,0.1,224.2
		c0,0.5-0.4,0.9-0.9,0.9c0,0,0,0,0,0l-54.9-0.1c-16.7-5.1-31.7-12.2-45.1-21.3c-14.2-9.1-25.6-18.4-34.3-27.7
		c-16-17.2-28.2-37.5-36.8-60.9c-17.3-47.8-11.9-99.4,11.9-144.1c20.8-38.9,53.4-70.5,87.1-98.2c3.4-2.6,6.9-5.3,10.4-8.1
		c9.7-7.8,20.4-14.3,29.8-21c6.3-4.5,12.8-8.7,19.5-12.8c33.4-20.4,68.7-36.4,106.2-48.2c40.8-12.8,80.6-13.1,119.5-1
		c24.3,7.6,46.1,21.1,65.1,36.9C478.1,189.2,491.3,208.2,503.1,226.5L503.1,226.5z"/>
	<path class="st3" d="M327.9,271.8c-0.9-1.5-1.3-2.6-1.3-3.1c0.2-8.8,1-18.8-5.1-26.1c-11.9-14.4-21.1-28.1-16-46.9
		c3.5-12.7,11-22.4,22.5-28.9c16.3-9.2,38.4-5.5,52.1,8.3c14.2,14.4,16.2,36.3,6.4,53.7c-2.7,4.8-7.4,10.2-11.1,14.9
		c-1.3,1.7-2.3,3.7-2.8,5.8c-1.7,7.1-2.4,12.1-2.2,15c0.3,4.1-0.1,6.7-1.2,7.8c-0.3,0.3-0.4,0.7-0.3,1.1l0.9,3.8c0.2,1,0,2.1-0.5,3
		c-0.9,1.4-1.5,3.2-1.9,5.4c-0.1,0.7-0.5,1.4-1,1.9c-1.1,1.1-2.6,1.9-4.5,2.5c-0.6,0.2-1.1,0.6-1.4,1.1c-2.8,4.3-6.5,4.8-11.1,4.7
		c-5-0.1-9.7,0.5-12-3.6c-0.4-0.8-1.2-1.4-2-1.7c-3.6-1.2-6.3-1.9-7.3-6.1c-1.1-4.7-1.1-8.3,0-10.8
		C328.3,272.9,328.3,272.3,327.9,271.8L327.9,271.8z"/>
	<path class="st4" d="M348.5,164.2c35.1-0.1,53.6,39.5,32.8,66.9c-7.5,9.9-13.1,16.8-13.2,29.6c0,0.7-0.6,1.2-1.2,1.2h-10.5
		c-0.7,0-1.3-0.6-1.3-1.3c0,0,0,0,0-0.1l1.3-30c0.1-1.3,1-2.5,2.4-2.7c6.3-1.2,9.9-4.1,10.9-8.8c1-4.6-2.7-8.4-7.3-6.1
		c-3.9,2-6.6,8.3-7.4,11.7c-0.1,0.6-0.6,1-1.2,1.1c-0.8,0.2-2.6,0.2-5.3,0.2c-2.7,0-4.5-0.1-5.3-0.2c-0.6-0.1-1-0.6-1.2-1.1
		c-0.8-3.4-3.6-9.7-7.4-11.7c-4.6-2.3-8.3,1.6-7.3,6.2c1,4.6,4.7,7.6,11,8.7c1.3,0.2,2.3,1.4,2.4,2.7l1.4,30c0,0.7-0.5,1.3-1.2,1.4
		c0,0,0,0-0.1,0l-10.5,0c-0.7,0-1.2-0.5-1.3-1.2c0,0,0,0,0,0c-0.1-12.9-5.7-19.7-13.3-29.6C295,204,313.4,164.3,348.5,164.2
		L348.5,164.2z"/>
	<path class="st5" d="M376.1,193.3l-3.1-6.4c-0.2-0.5-0.6-0.9-1-1.3c-5.7-4.8-11.9-8-18.6-9.5c-1-0.2-1.6-1.2-1.4-2.2
		c0.2-0.8,0.9-1.4,1.7-1.4c9.6-0.4,18.6,7.1,23.9,14.7c0.9,1.3,1.4,3,1.6,5.3c0.1,0.9-0.6,1.7-1.5,1.8
		C377,194.3,376.4,193.9,376.1,193.3L376.1,193.3z"/>
	<path class="st3" d="M695.9,246.4c-6.4-0.1-9.8-3.4-10.2-9.8c-0.3-4.5-0.3-15.6,0-33.3c0.2-12.7,8.5-11.7,18.5-11.6
		c41.1,0.3,61.8,0.4,62.2,0.4c6.4-0.1,9.7,3.4,9.7,10.4c0,6.7,0.1,18.1,0.2,34c0.1,8.6-6.1,9.9-13.6,9.8c-15-0.1-30-0.2-45-0.2
		c-1.1,0-2.1,0.4-2.8,1.2L699,264c-0.4,0.4-1.1,0.4-1.5,0c-0.2-0.2-0.3-0.5-0.3-0.8v-15.6C697.1,247,696.6,246.4,695.9,246.4
		L695.9,246.4z"/>
	<path class="st6" d="M700.9,258.7c-0.3,0.3-0.8,0.3-1.1,0c-0.1-0.1-0.2-0.3-0.2-0.5v-12.7c0-0.9-0.8-1.7-1.7-1.7
		c-0.1,0-0.1,0-0.2,0c-6.5,0.7-9.8-2.4-9.8-9.5c0-9,0-19.2-0.1-30.7c0-6.5,3.3-9.7,9.9-9.6c11.3,0.2,34.3,0.4,68.9,0.3
		c4.6,0,6.9,2.4,7,7.3c0.2,9.7,0.2,21.3,0,34.9c-0.1,5.9-3.5,7-9,7c-19.4,0-35.4,0.1-47.8,0.3c-1.2,0-2.3,0.5-3.1,1.4L700.9,258.7
		L700.9,258.7z"/>
	<path class="st3" d="M761.5,207.6c0,0.7-0.6,1.2-1.2,1.2l-58.3,0.1c-0.7,0-1.2-0.6-1.2-1.2v0v0c0-0.7,0.6-1.2,1.2-1.2l58.3-0.1
		C760.9,206.3,761.5,206.8,761.5,207.6L761.5,207.6L761.5,207.6z"/>
	<path class="st4" d="M357.9,224.8c0.9-3.9,2.6-6.9,5.2-9.1c1.2-1,2.9-0.9,3.8,0.2c0,0,0,0,0,0c1,1.2,1.2,2.5,0.5,4
		c-1.8,3.7-4.6,5.6-8.6,5.9c-0.5,0-0.9-0.3-0.9-0.8C357.9,224.9,357.9,224.8,357.9,224.8L357.9,224.8z"/>
	<path class="st4" d="M339,225.3c-3.9-0.1-6.7-1.9-8.6-5.4c-0.7-1.4-0.6-2.7,0.3-3.9c0.8-1.1,2.5-1.3,3.7-0.4c0,0,0,0,0,0
		c2.6,2,4.4,4.9,5.4,8.6c0.1,0.4-0.1,0.9-0.6,1C339.2,225.3,339.1,225.3,339,225.3z"/>
	<path class="st3" d="M761.2,219.4c0,0.6-0.5,1.1-1.1,1.1c0,0,0,0,0,0l-58.8,0.1c-0.6,0-1.1-0.5-1.1-1.1l0,0l0-0.1
		c0-0.6,0.5-1.1,1.1-1.1c0,0,0,0,0,0l58.8-0.1C760.7,218.2,761.2,218.7,761.2,219.4L761.2,219.4L761.2,219.4z"/>
	<path class="st3" d="M459,324l54.4,0.1c0.6,0,1.1-0.4,1.2-1c1.2-8.4,3.3-16.2,11.4-20.1c0.6-0.3,1-0.7,1.3-1.3
		c1.1-2,1.4-4.7,2.6-6.7c5.2-9,13.1-14.5,23.6-16.7c7.2-1.5,13.5-1.9,18.9-1.3c10.3,1.2,19.7,2,28.1,2.3c2.7,0.1,5.8,0.9,9.2,2.4
		c8.9,3.9,13.3,10.8,13.1,20.5c0,0.6,0.2,1.3,0.6,1.7c4.9,5.3,7.5,11.5,7.7,18.6c0,0.8,0.7,1.5,1.5,1.5h164.1c0.6,0,1.1-0.5,1.1-1.1
		l0,0V318c0-0.6-0.5-1-1-1c0,0,0,0,0,0c-9.3,0.2-14-4.3-14-13.4c-0.1-27.1-0.1-41.3,0-42.5c0.3-9.1,5.4-12.2,14.4-12.2
		c31.1,0.1,59.7,0.1,86,0c10.1-0.1,12.2,6.6,12.2,15.8c0,23.2,0,36.5-0.1,39.7c-0.1,8.5-4.6,12.7-13.4,12.5
		c-23.7-0.4-43.5-0.4-59.3-0.1c-0.3,0-0.6,0.1-0.8,0.3l-7.1,6.4c0,0,0,0.1,0,0.1c0,0,0,0,0.1,0c10,1.3,17,5.9,20.8,13.8
		c1.9,3.8,2.7,10.2,2.4,19.2c-0.1,4.6-0.2,56.2-0.2,155c0,7.7,0.1,12.7,0.2,15.1c0,0.5,0.5,0.9,1,0.9c0.1,0,0.1,0,0.2,0
		c3.3-1.1,8.5-2.5,9.6,2c0.1,0.5,0.1,1-0.1,1.5c-0.1,0.3-0.2,0.5-0.2,0.6c0,0.5,0.5,0.9,1,0.9c2.4,0,3.6-0.1,3.7-0.1
		c3.6-0.4,5.6,3.6,5,6.6c0,0.3-0.2,0.5-0.4,0.7l-2.3,2.3c-0.3,0.3-0.3,0.7-0.2,1l1.5,2.7c0.9,1.6,0.6,3.7-0.7,5l-7.2,7.2
		c-0.3,0.3-0.5,0.7-0.5,1.2c0,4.1-0.9,7.2-2.9,9.1l-7.1,4.9c-0.6,0.4-0.9,1-0.9,1.7c0.3,13.7,0.4,22.4,0.4,25.9
		c0,41.4,0,90.9,0.1,148.4c0,4.9-0.3,10-0.9,15.3c-0.1,0.5,0.3,1,0.8,1c0,0,0.1,0,0.1,0c22.4-0.2,35.3-0.2,38.8,0
		c10.2,0.6,11.9,7.6,11.9,17.1c-0.1,19.1-0.1,32.8,0,41.1c0.1,12.6-4.4,16.9-16.8,17c-27.8,0.3-51.1,0.3-69.8,0
		c-0.9,0-1.7,0.4-2.4,1l-22.6,24c-0.5,0.5-1.3,0.5-1.8,0c-0.2-0.2-0.4-0.6-0.4-0.9v-22.9c0-0.6-0.5-1-1-1c0,0,0,0-0.1,0
		c-6.5,0.4-11.1-1.6-14-6.2c-1.5-2.4-2.2-7.7-1.9-15.8c0.1-2.2,0.1-12.6,0.1-31.2c0-0.9-0.8-1.7-1.7-1.7h-164
		c-0.8,0-1.4,0.6-1.4,1.4c0,0,0,0.1,0,0.1c1.1,12,2.4,23.7,3.6,35.1c0.4,4,1.6,8,3.4,12.2c0.4,1,1.4,1.6,2.5,1.6
		c11.2,0,22.2-1.5,28.4,2.1c6.6,3.8,9.7,10.3,9.1,19.4c0,0.6-0.5,1.1-1.2,1.1L532.7,859l-101.1,0.1l-24.6,0.1
		c-0.7,0-1.3-0.6-1.4-1.3c-0.4-9.2,2.7-15.5,9.1-18.8c6.7-3.5,18.3-2,27.4-1.9c1.5,0,2.8-0.9,3.3-2.4c5.2-15.2,6.5-32,7.6-47.9
		c0-0.6-0.4-1-0.9-1.1c0,0-0.1,0-0.1,0c-55.4,0.9-110,1-163.8,0.3c-0.5,0-0.9,0.4-0.9,0.9c0,0.1,0,0.2,0.1,0.3
		c0.8,2,1.2,3.6,1.2,4.9c0.2,9,0.4,22.8,0.4,41.3c0,4.7-0.5,7.9-1.6,9.6c-3.1,5-7.1,5-12.5,5c-0.4,0-0.8,0.4-0.8,0.8v20.6
		c0,0.4-0.3,0.7-0.8,0.7c-0.2,0-0.4-0.1-0.5-0.2l-21.9-20.7c-1-1-2.4-1.5-3.9-1.5l-55.8,0.2c-0.2,0-0.3,0-0.5-0.1
		c-6-1.6-9.1-5.5-9.2-11.6c-0.2-6.5-0.2-20.6,0-42.5c0-7.8,4-11.9,11.9-12.4c0.3,0,0.5-0.2,0.5-0.5c0-0.1-0.1-0.3-0.2-0.4
		c-6.1-4.9-9.2-11.4-9.2-19.5c-0.2-25.7-0.2-51.1,0-76.4c0-0.6-0.5-1.2-1.2-1.2l0,0l-67,0c-6.1-0.7-9.9-3.6-11.3-8.8
		c-0.4-1.4-0.5-6.5-0.4-15.2c0.1-10.6,0.2-20.9,0.2-31.1c0-10-0.1-19.8-0.3-29.3c-0.2-8.4,0.9-13.9,9-16.2c0.1,0,0.2,0,0.3-0.1
		l14.7-1.2l54.9,0.1c0.5,0,0.9-0.4,0.9-0.9l0,0c0.2-75.9,0.2-150.6-0.1-224.2c0-9-0.4-13.1,2.4-19.4c0.2-0.5,0-1.1-0.5-1.3
		c-0.1,0-0.2-0.1-0.4-0.1c-12.7,0.1-27.8,0-45.5-0.3c-5.2-0.1-9.2-2.3-9.7-7.2c-0.6-6.7-0.8-12.5-0.4-17.5c0.2-2.9,1.6-4.8,4.1-5.7
		c0.4-0.2,0.7-0.6,0.5-1.1c0-0.1-0.1-0.2-0.2-0.3c-6.6-6.7-6.7-18.2-1.9-25.5c0.2-0.3,0.1-0.6-0.2-0.8c-0.1-0.1-0.2-0.1-0.3-0.1H118
		c-0.6,0-1.1-0.4-1.3-0.9c-1-3-0.2-4.9,2.3-5.9c0.6-0.2,1-0.8,1-1.4v-12.8c0-0.6-0.4-1.2-1.1-1.3c-1.9-0.4-2.7-1.7-2.3-3.9
		c0.2-1.1,1.2-1.9,2.5-1.8c4.1,0.1,7.9,0.1,11.3-0.1c0.5,0,0.8-0.4,0.8-0.9c0,0,0-0.1,0-0.1c-0.7-3.6,2.4-6,2.8-9.1
		c0.3-2.6,0.5-5.9,0.5-9.9c0-0.6-0.4-1.1-0.9-1.2c-1.4-0.4-2.3-1.1-2.7-2.1c-0.7-1.6,0-3.5,1.5-4.2c0.4-0.2,0.7-0.2,1.1-0.2
		c52.9-0.4,88.3-0.5,106.2-0.3c10.8,0.1,8.9,19.8,7.2,25.4c-1.4,4.5-8.1,4.4-13.3,4.7c-0.3,0-0.6,0.3-0.6,0.6c0,0.1,0,0.2,0.1,0.3
		c3.4,4.5,3.2,17.1,0.2,22.5c-0.2,0.3,0,0.7,0.3,0.9c0.1,0,0.2,0.1,0.3,0.1h15.8c1,0,1.8,0.7,2,1.6c0.6,3.1,0,4.6-1.6,4.5
		c-0.8-0.1-1.4,0.5-1.5,1.3c0,0,0,0.1,0,0.1v14.2c0,0.8,0.6,1.4,1.3,1.5l0.5,0.1c0.7,0.1,1.3,0.5,1.6,1.1l3.3,6.7
		c0.3,0.7,0.2,1.6-0.4,2.1c-0.9,0.8-2,1.4-3.2,1.7c-0.7,0.1-1.1,0.7-1.1,1.4v9.9c0,1.3,1,2.3,2.3,2.3c0,0,0,0,0,0L459,324L459,324z"
		/>
	<path class="st1" d="M207.7,224.3l-22.1,0.3c-0.3,0-0.5,0.2-0.5,0.5v0.5c0,0,0,0.1,0.1,0.1l6.5,0.3c-18.9,1.2-37.7,1.4-56.4,0.9
		c-0.7,0-1.3-0.5-1.5-1.1l0-0.1c-0.2-0.5,0.1-0.9,0.5-1.1c0.1,0,0.2,0,0.3,0L207.7,224.3L207.7,224.3z"/>
	<path class="st6" d="M189.7,249.9c-0.5-0.5-0.5-1.5,0.1-3l44.4,0.4c1.7,0,3-1.3,3-3c0,0,0,0,0,0v-15.7c0-1.2-1-2.2-2.2-2.2
		l-12.6-0.5l3.3-0.2c0.2,0,0.3-0.2,0.3-0.4c0,0,0,0,0,0l0-0.5c0,0,0-0.1-0.1-0.1l-10.8-0.4l24.4-0.3c1.8,0,3.4,1,4.3,2.6
		c2.2,4.2,1.3,14.8,0.8,17.6c-0.5,2.5-2.4,4.3-4.6,4.3L189.7,249.9L189.7,249.9z"/>
	<path class="st7" d="M215.3,224.3l10.8,0.4c0,0,0.1,0,0.1,0.1l0,0.5c0,0.2-0.1,0.4-0.3,0.4c0,0,0,0,0,0l-3.3,0.2l-30.9,0l-6.5-0.3
		c0,0-0.1,0-0.1-0.1V225c0-0.3,0.2-0.5,0.5-0.5l22.1-0.3L215.3,224.3z"/>
	<path class="st4" d="M348.6,228.4c0.5,0,2.3,0,5.3-0.1c0.5,0,0.9,0.4,0.9,0.9c0,0.1,0,0.1,0,0.1c-1.6,8.7-2.3,19-2.2,31
		c0,0.7-0.5,1.2-1.1,1.3c-1,0.1-1.9,0.2-2.9,0.2c-1,0-2-0.1-2.9-0.2c-0.6-0.1-1.1-0.7-1.1-1.3c0.2-12-0.4-22.3-2-31
		c-0.1-0.5,0.3-0.9,0.7-1c0,0,0.1,0,0.1,0C346.4,228.4,348.1,228.4,348.6,228.4L348.6,228.4z"/>
	<path class="st5" d="M234.8,229.6v13.4c0,0.5-0.4,0.9-0.9,0.9h-96.6c-0.5,0-0.9-0.4-0.9-0.9v-13.4c0-0.5,0.4-0.9,0.9-0.9h96.6
		C234.4,228.7,234.8,229.1,234.8,229.6z"/>
	<path class="st3" d="M738.1,230.7c0,0.5-0.4,1-1,1l0,0l-35.5-0.1c-0.5,0-1-0.4-1-1l0-0.1c0-0.5,0.4-1,1-1l0,0l35.5,0.1
		C737.6,229.6,738.1,230.1,738.1,230.7L738.1,230.7z"/>
	<path class="st3" d="M226.3,233.8c0,0.2-0.2,0.4-0.4,0.4c0,0,0,0,0,0l-80.5,0.8c-0.2,0-0.4-0.2-0.4-0.4l0-1.6
		c0-0.2,0.2-0.4,0.4-0.4c0,0,0,0,0,0l80.5-0.8c0.2,0,0.4,0.2,0.4,0.4L226.3,233.8z"/>
	<path class="st3" d="M482.2,253.7l14.4-0.3c0.5,0,0.8,0.3,0.8,0.8c0,0,0,0,0,0v0.6c0,0.4-0.3,0.7-0.7,0.7l0,0h-14.3
		c-0.5,0-0.9,0.4-0.9,0.9v14.9c0,0.5-0.4,0.8-0.8,0.8c0,0,0,0,0,0h-0.5c-0.6,0-1.1-0.5-1.1-1.1l0,0l0-8.4l-0.1-6.2
		c0-0.6-0.5-1.1-1.1-1.1h-14c-0.4,0-0.7-0.3-0.7-0.7l0-0.4c0-0.6,0.6-1.2,1.2-1.1c0,0,0,0,0,0l13.7,0.2c0.6,0,1-0.4,1.1-1
		c0,0,0,0,0,0c0-9.1,0-14,0-14.7c0-0.7,0.6-1.2,1.2-1.2c0.1,0,0.2,0,0.3,0.1c0.5,0.2,0.7,0.5,0.7,1
		C481.3,243,481.5,248.4,482.2,253.7L482.2,253.7z"/>
	<path class="st3" d="M228.7,239.6c0,0.4-0.3,0.7-0.7,0.7l0,0l-83.7-0.1c-0.4,0-0.7-0.3-0.7-0.7l0,0l0-1.2c0-0.4,0.3-0.7,0.7-0.7
		l0,0l83.7,0.1c0.4,0,0.7,0.3,0.7,0.7l0,0L228.7,239.6z"/>
	<path class="st8" d="M189.8,247c-0.6,1.5-0.7,2.5-0.1,3c-3.6,0.5-7.2,0.7-10.8,0.6c-15-0.5-30.1-0.8-45.2-1.1
		c-0.3,0-0.5-0.2-0.5-0.5V247c0-0.3,0.2-0.5,0.5-0.5c0,0,0,0,0,0L189.8,247L189.8,247z"/>
	<path class="st1" d="M800,333.9v-18.6c0-0.6-0.5-1-1-1c0,0,0,0,0,0c-8.8,0.4-13.8-1.4-14-11.1c-0.3-13.8-0.3-27.8-0.2-42.1
		c0.1-8.5,5.5-10.1,13.4-10c25.1,0.3,53.8,0.3,86,0.2c7.6,0,9,6.3,8.9,13c-0.1,6.5-0.3,19.2-0.4,38.1c-0.1,6.6-1.5,11.8-8.8,11.9
		c-18.5,0.3-39.2,0.3-61.9,0c-0.7,0-1.3,0.3-1.8,0.7l-19.4,19.2c-0.2,0.2-0.5,0.2-0.7,0C800.1,334.1,800,334,800,333.9L800,333.9z"
		/>
	<path class="st0" d="M221.7,252.5l-0.9,2.5c-33.7,0.6-67.3,0.3-100.9-0.9c-0.4,0-0.7-0.3-0.7-0.7l-0.1-0.6
		c-0.1-0.4,0.2-0.8,0.6-0.9c0,0,0,0,0.1,0c1.3-0.2,13.7,0.1,37.1,0.8C168.4,253.1,190,253,221.7,252.5L221.7,252.5z"/>
	<path class="st9" d="M221.7,275c-0.2-1.3-1.8-2-4.8-2.1l5.1-0.4c1.5-0.1,2.6-1.3,2.6-2.8v-13c0-0.6-0.4-1.1-0.9-1.4
		c-0.9-0.3-1.8-0.5-2.9-0.4l0.9-2.5l7.3-0.1c0.6,0,1.1,0.3,1.5,0.7c3.5,4.5,2.5,13.2,1.8,18.5C231.7,276.4,224.7,276,221.7,275
		L221.7,275z"/>
	<path class="st5" d="M222.4,269.5c0,0.3-0.3,0.6-0.6,0.6h-99.6c-0.3,0-0.6-0.3-0.6-0.6v-11.4c0-0.3,0.3-0.6,0.6-0.6h99.6
		c0.3,0,0.6,0.3,0.6,0.6V269.5z"/>
	<path class="st3" d="M209.6,264.4c0,0.2-0.1,0.3-0.3,0.4c0,0,0,0,0,0l-58.3,0.4c-12,0.1-21.7-0.2-21.8-0.6v-1.2
		c0-0.4,9.7-0.8,21.7-0.9c0,0,0,0,0,0l58.3-0.4c0.2,0,0.3,0.1,0.4,0.3c0,0,0,0,0,0V264.4z"/>
	<path class="st9" d="M367.6,269.4c0,0.8-0.7,1.5-1.5,1.5l-35.3,0.1c-0.8,0-1.5-0.7-1.5-1.5l0-3.5c0-0.8,0.7-1.5,1.5-1.5l35.3-0.1
		c0.8,0,1.5,0.7,1.5,1.5L367.6,269.4z"/>
	<path class="st9" d="M166.2,272.5c-5.4,1-6.3,1.6-2.6,2.1l-43.7,1c-0.5,0-0.9-0.4-0.9-0.9c0,0,0,0,0,0v-1.1c0-0.5,0.4-1,1-1
		L166.2,272.5z"/>
	<path class="st5" d="M217,272.9c3,0.1,4.6,0.8,4.8,2.1l-58.1-0.5c-3.6-0.4-2.7-1.1,2.6-2.1L217,272.9L217,272.9z"/>
	<path class="st1" d="M366.1,274.7l1.3,2.7c0.4,0.8,0.1,1.9-0.8,2.3c-0.2,0.1-0.5,0.2-0.8,0.2h-34.5c-0.9,0-1.7-0.8-1.7-1.7
		c0-0.2,0-0.5,0.1-0.7l1.2-2.7c0.3-0.6,0.9-1,1.6-1h32C365.2,273.7,365.8,274.1,366.1,274.7z"/>
	<path class="st3" d="M872.6,282.9c0,3.5-2.9,6.4-6.4,6.4s-6.4-2.9-6.4-6.4c0-3.5,2.9-6.4,6.4-6.4l0,0
		C869.8,276.5,872.6,279.4,872.6,282.9L872.6,282.9z"/>
	<path class="st3" d="M818.5,283.3c0,3.6-2.9,6.5-6.5,6.5c-3.6,0-6.5-2.9-6.5-6.5s2.9-6.5,6.5-6.5
		C815.6,276.8,818.5,279.7,818.5,283.3z"/>
	<path class="st3" d="M845.7,282.8c0,3.5-2.8,6.3-6.3,6.3l0,0c-3.5,0-6.3-2.8-6.3-6.3l0,0c0-3.5,2.8-6.3,6.3-6.3l0,0
		C842.9,276.6,845.7,279.4,845.7,282.8L845.7,282.8z"/>
	<path class="st6" d="M173.7,277.9l-9.8,0c-0.3,0-0.5,0.2-0.6,0.5s0.2,0.5,0.5,0.6l1.5,0.3c-6,0.8-12.1,0.9-18.3,0.3
		c-10-1-7.5,13.7-5.9,19c0.6,2.2,2.7,3.7,5,3.6c10.8-0.5,20.9-0.8,30.4-0.9c6.7-0.1,12.3,0.8,18.9,0.5c17.8-0.6,35.9-0.7,54.4-0.3
		c0.6,0,1.1,0.5,1.1,1.1c0,0,0,0,0,0l0,0.1c0,0.6-0.5,1.1-1.1,1.1c-12.2-0.3-23.9-0.3-35.2,0c-0.9,0-2.1-0.6-2.9-0.5
		c-16.2,0.7-36.2,1-60,0.9c-4.9,0-9.2-0.5-13-1.5c-1.8-0.4-3.3-1.9-4.6-4.3c-2.8-5.3-2.8-11.3-0.1-17.7c1-2.2,2.7-3.4,5-3.4
		C150.5,277.1,162.1,277.4,173.7,277.9L173.7,277.9z"/>
	<path class="st7" d="M226.4,278.3c0.4,1-0.8,1.4-3.5,1.2l-57.7-0.3l-1.5-0.3c-0.3,0-0.5-0.3-0.5-0.6c0-0.3,0.3-0.5,0.6-0.5l9.8,0
		L226.4,278.3L226.4,278.3z"/>
	<path class="st6" d="M223,279.5c2.7,0.1,3.8-0.3,3.5-1.2L248,278c0.5,0,0.8,0.4,0.8,0.8v0.7c0,0.5-0.4,1-1,1c0,0,0,0,0,0L223,279.5
		z"/>
	<path class="st1" d="M843.3,283c0,2.2-1.8,4-4,4s-4-1.8-4-4c0-2.2,1.8-4,4-4S843.3,280.8,843.3,283z"/>
	<path class="st1" d="M870.3,283.1c0,2.3-1.9,4.1-4.1,4.1l0,0c-2.3,0-4.1-1.9-4.1-4.1l0,0c0-2.3,1.9-4.1,4.1-4.1l0,0
		C868.5,278.9,870.3,280.8,870.3,283.1L870.3,283.1z"/>
	<path class="st1" d="M816.1,283.3c0,2.2-1.8,4-4,4s-4-1.8-4-4s1.8-4,4-4S816.1,281,816.1,283.3z"/>
	<path class="st8" d="M538,321.3c-1.9-1.2-4-4.4-6.3-9.8c-4.6-10.7,2.4-21.9,11.7-26.3c4.4-2.1,10.5-4.5,15.4-5
		c9-0.9,17.8-0.5,26.4,1.4c0.6,0.1,1.1,0.2,1.7,0.2c10.8-0.3,19.4-0.6,27.2,5.9c3.5,3,5.4,7.4,5.8,13.3c0.5,8.7-2.8,15.3-10,19.8
		c-0.5,0.3-0.9,0.5-1.4,0.7c-12.2,4-23.8,5.6-35,4.8c-8.9-0.6-18.9-3.8-27.2-5.3c-0.2,0-0.4,0-0.6,0l-6.7,0.7
		C538.6,321.5,538.3,321.4,538,321.3L538,321.3z"/>
	<path class="st5" d="M245.4,282.2c0.3,0,0.6,0.3,0.6,0.6v15.7c0,0.2-0.2,0.4-0.5,0.4c-12.3-0.2-23.2-0.8-34.9-0.7
		c-23.8,0.4-45.1,0.8-63.8,1.4c-2.1,0.1-3.9-1.4-4.4-3.4c-0.8-3.5-0.8-7.4-0.1-11.7c0.2-1.4,1.4-2.4,2.8-2.4L245.4,282.2
		L245.4,282.2z"/>
	<path class="st1" d="M339,287.8c-0.2-0.3-0.7-0.6-1.6-0.7c-3-0.4-5-0.8-6.1-1.2c-1-0.3-1.6-1.4-1.2-2.5c0.3-0.8,1-1.3,1.9-1.3h32.2
		c0.9,0,1.7,0.7,1.7,1.7c0,0.2,0,0.5-0.1,0.7l-0.2,0.4c-0.8,1.8-2.6,3-4.6,3h-21.6C339.2,288,339.1,287.9,339,287.8z"/>
	<path class="st3" d="M713.4,282c1,0,1.4,1.1,1.4,3.2c-0.2,4.5-0.2,8,0,10.3c0,0.6,0.5,1,1.1,1h12.2c0.5,0,1,0.4,1,1c0,0,0,0,0,0
		l0,0.6c0,0.5-0.4,0.8-0.9,0.8h-12.6c-0.6,0-1,0.5-1,1c0,0,0,0,0,0.1c0.4,8.4,0.1,12.6-1.1,12.6c-1.1,0-1.5-4.2-1-12.6
		c0-0.6-0.4-1-1-1.1c0,0,0,0-0.1,0l-12.6-0.1c-0.5,0-0.8-0.4-0.9-0.8l0-0.6c0-0.5,0.4-1,0.9-1c0,0,0,0,0.1,0l12.2,0.1
		c0.6,0,1-0.4,1.1-1c0.1-2.3,0.1-5.8,0-10.3C711.9,283.1,712.4,282,713.4,282L713.4,282z"/>
	<path class="st3" d="M234.7,288.4c0,0.3-0.2,0.5-0.5,0.5l0,0l-80.7-0.3c-0.3,0-0.5-0.2-0.5-0.5l0,0l0-1.4c0-0.3,0.2-0.5,0.5-0.5
		l0,0l80.7,0.3c0.3,0,0.5,0.2,0.5,0.5l0,0L234.7,288.4z"/>
	<path class="st9" d="M357.2,289.7c0.2,0,0.3,0.1,0.3,0.3v0.1c0,1.7-1.5,3-3.5,3l-10.3,0.1c-1.9,0-3.5-1.3-3.6-3c0,0,0,0,0,0v-0.1
		c0-0.2,0.1-0.3,0.3-0.3c0,0,0,0,0,0L357.2,289.7L357.2,289.7z"/>
	<path class="st3" d="M234.1,294.1c0,0.2-0.2,0.4-0.4,0.4c0,0,0,0,0,0h-75.5c-0.2,0-0.4-0.2-0.4-0.4c0,0,0,0,0,0v-1.5
		c0-0.2,0.2-0.4,0.4-0.4c0,0,0,0,0,0h75.5c0.2,0,0.4,0.2,0.4,0.4c0,0,0,0,0,0V294.1z"/>
	<path class="st6" d="M178.4,306.5c-1.5,0.1-2.5,0.3-3.1,0.6c-0.5,0.2-0.5,0.8-0.2,1.7l-32.2-0.4c-1.4,0-2.5,1.1-2.5,2.4
		c0,0,0,0.1,0,0.1c0.1,4.9,0.2,10.1,0.3,15.6c0,2.9,1.6,4.4,4.6,4.4c34.4,0.2,69,0.1,103.8-0.1c1,0,2,0.6,2.4,1.5l0,0
		c0.3,0.6,0,1.2-0.5,1.5c-0.1,0.1-0.3,0.1-0.5,0.1c-42.4-0.2-80.1-0.4-113.1-0.5c-7.6,0-5.5-18.5-5-23c0.1-0.5,0.2-1,0.5-1.4
		c1.4-1.9,3-3,4.7-3.1C148.5,305.5,162,305.6,178.4,306.5L178.4,306.5z"/>
	<path class="st8" d="M617.9,381.6c0.1-0.3,0.4-0.5,0.7-0.4c0.2,0.1,0.4,0.2,0.4,0.5c0.1,1.9-0.1,4.3-0.7,7.2c-0.6,3-1,5.3-1.2,7.1
		c-1,7.9-1.8,14.4-2.4,19.4c-0.9,7.4-3.4,12.5-8.9,18.1c-12.5,12.8-28.2,16.6-47.2,11.4c-5.5-1.5-9.4-4.9-14.1-8.7
		c-7.2-5.8-11.6-13.6-13.2-23.4c-2.5-15.6-4.5-26.8-5.8-33.6c-1-5-2.6-11.9-4.9-20.9c-2.1-8.1-3.4-17.1-3.9-27
		c-0.4-8.4,1.3-19.9,8.5-25.2c0.8-0.6,2.1-0.5,2.7,0.4c0.2,0.2,0.3,0.5,0.3,0.7c1.3,5.9,4,11,8.1,15.3c0.3,0.3,0.3,0.9,0,1.2
		c0,0,0,0,0,0c-5.6,5.2-8.6,11.8-8.9,19.9c-0.3,7.4-0.6,16.6-1,27.6c-0.1,2.4,0.2,5.3,1,8.5c1.4,6,3.3,13.2,5.6,21.5
		c1.1,3.9,3.5,7.7,7.3,11.5c0.4,0.4,1,0.7,1.5,0.8c6,1.2,4.9-7.3,8-10.2c1.9-1.8,4.4-2.7,7.5-2.6c6.3,0.1,14.1,0.1,23.5-0.1
		c10.1-0.2,16.6,0.8,20,10.6c0.4,1.2,1.8,1.9,3.1,1.5c0.2-0.1,0.3-0.1,0.4-0.2C613.7,406.5,616,391.3,617.9,381.6L617.9,381.6z"/>
	<path class="st7" d="M175.1,308.8c-0.4-0.9-0.3-1.5,0.2-1.7c0.6-0.3,1.7-0.5,3.1-0.6l72.5-0.1c0.4,0,0.7,0.3,0.7,0.7v0.5
		c0,0.6-0.5,1.1-1.1,1.1l0,0L175.1,308.8z"/>
	<path class="st8" d="M619.5,373.6c-0.9-4.6-0.9-9.9-0.2-15.8c0.1-0.9,0.1-1.8,0-2.7c-1-9.6-0.5-17.1-5.6-25c-1.1-1.6-2.5-3.7-4.4-6
		c-0.4-0.5-0.3-1.3,0.2-1.7c0,0,0.1-0.1,0.1-0.1c5.8-3.4,9.7-8.1,11.8-14.1c0.2-0.7,1-1.1,1.7-0.8c0.3,0.1,0.5,0.3,0.6,0.5
		c4.4,6,6.1,12.9,5.2,20.7c-1.6,12.9-3.1,23-4.6,30.2c-0.7,3.2-2,8.1-3.9,14.8c-0.1,0.3-0.4,0.4-0.6,0.3
		C619.7,373.9,619.6,373.8,619.5,373.6L619.5,373.6z"/>
	<path class="st5" d="M248.6,327.8c0,0.6-0.5,1-1,1l0,0l-104-0.4c-0.6,0-1-0.5-1-1v0l0.1-15.4c0-0.6,0.5-1,1-1l0,0l104,0.4
		c0.6,0,1,0.5,1,1v0L248.6,327.8z"/>
	<path class="st3" d="M237,318.2c0,0.6-0.5,1.1-1.2,1.1l-82.3-1c-0.6,0-1.1-0.5-1.1-1.2c0,0,0,0,0,0l0-0.1c0-0.6,0.5-1.1,1.2-1.1
		l82.3,1C236.5,316.9,237,317.5,237,318.2C237,318.1,237,318.1,237,318.2L237,318.2z"/>
	<path class="st3" d="M242.3,323.7c0,0.6-0.5,1.1-1.1,1l0,0l-88-0.5c-0.6,0-1.1-0.5-1-1.1l0-0.2c0-0.6,0.5-1.1,1.1-1l0,0l88,0.5
		c0.6,0,1.1,0.5,1,1.1L242.3,323.7L242.3,323.7z"/>
	<path class="st7" d="M602.9,409.6c-2.4-6.5-7.1-10.2-13.9-11.1c-5.3-0.7-13.1-0.9-23.3-0.7c-6.7,0.2-15.3-0.5-19.3,6
		c-0.5,0.8-1.3,2.8-2.5,6c-0.3,0.8-1.1,1.2-1.9,0.9c-0.1,0-0.2-0.1-0.2-0.1c-6.3-3.6-8.3-14.9-10.8-25.1c-1.8-7.5-2.5-13.9-2.1-19.3
		c0.1-0.8,0.4-9.1,0.9-25.1c0.1-2.9,1.3-6.3,3.5-10.3c3.5-6.3,9-8.5,16.5-6.5c5.5,1.4,10.4,2.6,14.8,3.5c13.8,3,27.4,2,40.8-2.7
		c0.6-0.2,1.3-0.1,1.8,0.4c10.7,10.4,9.3,28.1,9.2,42.6c0,6.1-0.4,11.3-1.2,15.8c-1.7,9.6-3.6,20.6-10.8,26.3
		c-0.4,0.3-1,0.2-1.3-0.2C602.9,409.7,602.9,409.6,602.9,409.6L602.9,409.6z"/>
	<path class="st8" d="M252,328.5c-0.3-0.3-0.2-0.8,0.2-1.1c0.1-0.1,0.2-0.1,0.4-0.1c3.4-0.4,6.6-0.7,9.6-0.7
		c58.2,0,113.8-0.2,166.8-0.5c25.7-0.2,55.1,0.6,84.4-0.1c0.5,0,1,0.4,1,0.9l2.7,28.4c0.1,0.8-0.5,1.5-1.3,1.6c0,0-0.1,0-0.1,0
		H217.9c-1.3,0-2.3,1-2.3,2.3v222.4c0,0.5-0.4,1-1,1h-26.5c-0.9,0-1.6-0.7-1.6-1.6c0,0,0,0,0-0.1c0.5-17-0.1-32.5-0.2-48.1
		c-0.1-30.3-0.1-61.1,0.2-92.5c0.2-32.7-0.5-58.5-0.2-89.7c0.1-5.4,0.7-8.7,3-12.8c0.6-1.1,1.8-1.8,3.1-1.8H251
		c1.2,0,2.3-0.9,2.5-2.1C253.8,332.1,253.3,330.3,252,328.5L252,328.5z"/>
	<path class="st8" d="M797.9,337.4c0,0.6,0.5,1.1,1.1,1.1c0.3,0,0.6-0.1,0.8-0.3l11.3-11.3c0.3-0.3,0.6-0.4,1-0.4
		c11,0,19.9,5.5,22.5,15.7c0.2,0.8,0.3,5.7,0.4,14.5c0.3,72.5,0.3,129.6,0.1,171.1c0,0.6-0.3,1.1-0.8,1.5
		c-8.1,5.4-16.9,9.5-26.3,12.5c-0.6,0.2-1.2-0.1-1.4-0.7c0-0.1-0.1-0.2-0.1-0.3V359.1c0-1-0.8-1.8-1.8-1.8c0,0,0,0,0,0
		c-17.2,0.1-34.9-0.9-53.5-0.6c-33.3,0.5-65.6,0.5-96.8,0.1c-8.3-0.1-16.6,0.6-25,0.5c-1.1,0-1.9-0.9-1.9-1.9c0-0.1,0-0.1,0-0.2
		l3.3-27c0.1-1,1-1.7,2-1.7h163.1c1.1,0,2,0.9,2,2l0,0L797.9,337.4L797.9,337.4z"/>
	<path class="st3" d="M549.2,355.2c-2.4,0.1-4.8,0.7-7.3,1.9c-0.6,0.3-1.3,0-1.6-0.6c-0.2-0.4-0.1-0.9,0.1-1.3
		c1.8-2.3,6.2-2.6,8.7-2.7c2.5-0.1,6.9,0,8.8,2.1c0.5,0.5,0.4,1.3-0.1,1.7c-0.3,0.3-0.8,0.4-1.3,0.2
		C554.1,355.6,551.6,355.1,549.2,355.2z"/>
	<path class="st3" d="M596.4,352.7c2.6,0.3,7.1,0.9,8.8,3.3c0.4,0.6,0.3,1.4-0.3,1.8c-0.4,0.3-0.9,0.3-1.3,0.1
		c-2.5-1.4-4.9-2.2-7.4-2.4c-2.5-0.2-5,0.1-7.7,1c-0.7,0.2-1.4-0.1-1.6-0.8c-0.1-0.5,0-1,0.3-1.3
		C589.3,352.3,593.8,352.5,596.4,352.7z"/>
	<path class="st5" d="M376.6,637.5c-5.1,1.5-10.7,2.3-16.7,2.3c-31.9,0.2-56.1,0.2-72.8-0.1c-8.7-0.1-16.8,1.1-24.8,0.4
		c-1.2-0.1-2.3,0.8-2.4,2c0,0,0,0.1,0,0.1l-0.2,3.9c-0.1,1.3,0.9,2.4,2.2,2.5c0,0,0.1,0,0.1,0l96.7-0.4c0.1,0,0.2,0,0.3,0
		c1.9-0.6,3.1-0.8,3.7-0.7c7.4,1.6,14.8,1.7,22.2,0.4l6.6,7.5l-131.1,0.3c-0.2,0-0.4,0.2-0.4,0.4l-0.3,7.7c0,0.2,0.2,0.4,0.4,0.4
		c0,0,0,0,0,0l139.2,0.1c3.4,3.9,7,8,10.7,12.1c9.7,10.8,14.6,17.1,27,19.9c0.2,0,0.4,0.2,0.4,0.5c0,0.2-0.2,0.4-0.5,0.4H220.4
		c-0.7,0-1.3-0.6-1.3-1.3l0,0v-11.1c0-0.5,0.4-1,0.9-1c0,0,0,0,0.1,0c11.3,0.8,15.3-4.9,15-16c-0.3-9.4-0.2-30.5,0.1-63.3
		c0.1-8.3-0.5-13.6-1.7-15.7c-2.5-4.4-7.2-6.6-14.1-6.6c-0.8,0-1.4-0.6-1.4-1.4V359.7c0-0.2,0.2-0.4,0.4-0.4
		c99,0.3,198,0.2,297.1-0.2c1,0,1.6,0,1.7,0.1c0.8,0.4,1.1,1.3,0.8,2c-0.1,0.2-0.3,0.5-0.5,0.6c-8.2,5.9-7.7,15-4.5,23.7
		c2.3,6.1,6.4,10.5,12.5,13.1c0.5,0.2,0.9,0.7,1,1.3c2.3,13.8,3.6,25.8,13.2,35.8c0.6,0.6,0.8,1.4,0.8,2.2c-0.2,5-0.7,10.1-1.3,15.4
		c-0.6,5.2-1.7,6.6-7.1,8.5c-24.1,8.5-42,15.3-53.7,20.3c-8.5,3.7-15.7,9.8-21.4,18.3c-2.7,4-5.7,12.9-9.3,26.8
		c-5.2,20.5-12.5,48-22,82.6c-0.1,0.4-0.6,0.7-1,0.6c-0.1,0-0.3-0.1-0.4-0.2L397.8,585c-0.3-0.3-0.5-0.7-0.5-1.2v-9.1
		c0-0.9-0.7-1.6-1.6-1.6h-14.5c-1.8,0-3.2-1.4-3.2-3.2l0,0V558c0-1,0.8-1.9,1.9-1.9h0h10.6c1.1,0,2.1-0.9,2.1-2.1v-22.4
		c0-0.7-0.6-1.3-1.3-1.3h-12.5c-0.4,0-0.6-0.3-0.6-0.6l0,0v-17.5c0-0.5-0.4-0.9-0.9-0.9l0,0h-46.7c-0.9,0-1.6-0.7-1.6-1.6v-10.4
		c0-0.6-0.5-1.1-1.1-1.1h0h-0.6c-0.4,0-0.8,0.4-0.8,0.8l0,0v11.3c0,0.6-0.5,1.2-1.2,1.2l0,0h-48.1c-0.8,0-1.5,0.7-1.5,1.5
		c-0.1,3-0.2,7.3-0.2,13.1c0,1,0.1,1.6,0.2,1.9c0.4,0.6,0.5,1,0.3,1.2c-1.1,1-7.2,0.7-14.3,0.7c-0.8,0-1.4,0.6-1.4,1.4l0,0V555
		c0,0.5,0.4,1,0.9,1h11.2c1.3,0,2.4,1.1,2.4,2.4l0,0v11.3c0,1.1-0.9,2.1-2.1,2.1h0h-10.1c-1.2,0-2.1,1-2.1,2.1v22.3
		c0,0.9,0.8,1.7,1.7,1.7h13.2c0.3,0,0.6,0.3,0.6,0.6v15.9c0,1.2,1,2.2,2.2,2.2h79.2c1,0,2,0.4,2.7,1.2L376.6,637.5L376.6,637.5z"/>
	<path class="st5" d="M627.6,360.5c-0.2-0.2-0.3-0.5-0.1-0.7c0.1-0.1,0.2-0.2,0.4-0.2h174.9c0.5,0,0.9,0.4,0.9,0.9v182
		c0,0.9-0.7,1.7-1.6,1.7l-9.1,0.6c-0.9,0.1-1.6-0.6-1.7-1.5c0-0.4,0.1-0.7,0.3-1.1l7.6-10.2c2.1-2.8,2.3-6.7,0.4-9.7l-0.2-0.3
		c-1.3-2.2-4.2-2.9-6.4-1.5c-0.3,0.2-0.6,0.4-0.9,0.7c-1.4,1.4-8.5,8.7-21.2,22.1c-5.6,5.8-9.3,12.8-11.2,21
		c-0.4,1.5-2.6,5-6.8,10.6c-0.3,0.4-1,0.5-1.4,0.2c-0.5-0.4-1-0.6-1.3-0.8c-0.7-0.3-1.4-0.1-1.9,0.4l-28.4,30.1
		c-0.4,0.4-1,0.4-1.4,0c-0.1-0.1-0.2-0.3-0.3-0.5c-12.5-46.6-20.7-77-24.8-91.2c-6.3-22.1-20-29.7-40.7-37.5
		c-16.2-6.1-30.8-11.3-43.9-15.6c-1.8-0.6-3-2.2-3.1-4.1l-1.1-17.7c0-0.6,0.2-1.1,0.6-1.5c2.5-2.4,3.7-3.7,3.8-3.7
		c8.1-6.6,8.8-22.6,9.9-33.3c0.1-0.7,0.6-1.3,1.2-1.5c6.2-2.2,10.8-7.5,13.5-16C636.5,373.4,634.5,366.1,627.6,360.5L627.6,360.5z"
		/>
	<path class="st3" d="M568.2,395.4c-0.4-0.1-0.7-0.6-0.6-1c0.1-0.3,0.4-0.6,0.7-0.6l8.3-0.8c1.3-0.1,2.3-1.3,2.2-2.6
		c0-0.1,0-0.2,0-0.3l-6.2-28c-0.1-0.4,0.2-0.9,0.6-1c0,0,0,0,0,0l0.5-0.1c0.5-0.1,1,0.2,1.2,0.7c0,0,0,0,0,0l6.2,28
		c0.3,1.4-0.3,2.9-1.5,3.8C576.6,395.8,572.7,396.5,568.2,395.4L568.2,395.4z"/>
	<path class="st7" d="M620,394.2c1.2-10.4,3.1-20.5,5.8-30.4c0.1-0.4,0.6-0.7,1-0.6c0.1,0,0.2,0.1,0.2,0.1c3.3,2.3,5.1,5.6,5.2,10
		c0.3,9.1-3.3,16.4-10.9,21.7c-0.4,0.3-0.9,0.2-1.2-0.2C620.1,394.6,620,394.4,620,394.2L620,394.2z"/>
	<path class="st7" d="M525.6,394.2C525.6,394.2,525.6,394.2,525.6,394.2L525.6,394.2l-0.1,0.1c-4.6,0.9-9.7-5.1-11.3-13.4l-0.1-0.5
		c-1.6-8.3,0.8-15.8,5.4-16.7l0.1,0c0,0,0,0,0,0L525.6,394.2z"/>
	<path class="st3" d="M550.1,364.7c1.7,0.2,2.9,1.9,2.7,3.7c0,0,0,0,0,0c-0.2,1.9-1.8,3.2-3.4,3l0,0c-1.7-0.2-2.9-1.9-2.7-3.7l0,0
		C546.9,365.9,548.4,364.5,550.1,364.7L550.1,364.7z"/>
	<path class="st3" d="M594.9,364.7c1.7-0.2,3.2,1.2,3.5,3.1c0,0,0,0,0,0c0.3,1.9-0.9,3.7-2.5,3.9c-1.7,0.2-3.2-1.2-3.5-3.1
		c0,0,0,0,0,0C592.1,366.7,593.2,365,594.9,364.7z"/>
	<path class="st3" d="M131.9,403.4c0,1.5-1.2,2.8-2.8,2.8h0H79c-1.5,0-2.8-1.2-2.8-2.8l0,0v-34.8c0-1.5,1.2-2.8,2.8-2.8l0,0h50.2
		c1.5,0,2.8,1.2,2.8,2.8v0V403.4z"/>
	<path class="st5" d="M126.8,369.3L104,391.1c-0.2,0.2-0.6,0.2-0.8,0l-22.6-22c-0.2-0.2-0.2-0.6,0-0.8c0.1-0.1,0.3-0.2,0.4-0.2
		l45.4,0.2c0.3,0,0.6,0.3,0.6,0.6C126.9,369.1,126.9,369.2,126.8,369.3z"/>
	<path class="st3" d="M901.7,380.8l10.3,0.5c0.4,0,0.7,0.3,0.7,0.7c0,0.4-0.3,0.7-0.7,0.7l-10.3,0.6c-0.3,0-0.6,0.3-0.6,0.6
		l-0.5,10.3c0,0.4-0.3,0.7-0.7,0.7c-0.4,0-0.7-0.3-0.7-0.7l-0.6-10.3c0-0.3-0.3-0.6-0.6-0.6l-10.3-0.5c-0.4,0-0.7-0.3-0.7-0.7
		c0-0.4,0.3-0.7,0.7-0.7l10.3-0.6c0.3,0,0.6-0.3,0.6-0.6l0.5-10.3c0-0.4,0.3-0.7,0.7-0.7c0.4,0,0.7,0.3,0.7,0.7l0,0l0.6,10.3
		C901.1,380.6,901.4,380.8,901.7,380.8z"/>
	<path class="st5" d="M103.9,394.1c0.4,0,1-0.3,1.7-1c9.7-9.3,17.3-16.6,22.9-22.1c0.2-0.2,0.5-0.2,0.6,0c0.1,0.1,0.1,0.2,0.1,0.3
		v31.3c0,0.5-0.4,0.9-0.9,0.9c-12,0-20.1,0.1-24.4,0.1c-4.3,0-12.4,0.1-24.4,0.1c-0.5,0-0.9-0.4-0.9-0.9l0,0l-0.2-31.3
		c0-0.3,0.2-0.5,0.5-0.5c0.1,0,0.2,0,0.3,0.1c5.6,5.4,13.3,12.7,23,21.9C102.9,393.8,103.5,394.1,103.9,394.1L103.9,394.1z"/>
	<path class="st3" d="M435.9,476.9c0,5.8-4.7,10.5-10.5,10.5H261.7c-5.8,0-10.5-4.7-10.5-10.5v-85.5c0-5.8,4.7-10.5,10.5-10.5h163.8
		c5.8,0,10.5,4.7,10.5,10.5V476.9z"/>
	<path class="st4" d="M1003.3,463.9c-20.4,7.7-33.8-16.9-41.5-31.1c-2.9-5.2-4.7-10.8-5.4-16.5c-1.9-14.7-0.1-38.2,21.3-34.9
		c12,1.9,21.9,12.5,28,22.6c7.4,12.3,12.1,25.1,11,39.2C1016,452,1011.8,460.7,1003.3,463.9z"/>
	<path class="st5" d="M433.5,477.3c0,4.2-3.4,7.7-7.7,7.7H261.5c-4.2,0-7.7-3.4-7.7-7.7v-86c0-4.2,3.4-7.7,7.7-7.7h164.3
		c4.2,0,7.7,3.4,7.7,7.7V477.3z"/>
	<path class="st0" d="M404.7,408.1c0,0.9-0.7,1.7-1.7,1.7l-56.7,0.3c-0.9,0-1.7-0.7-1.7-1.7v0l0-5c0-0.9,0.7-1.7,1.7-1.7l56.7-0.3
		c0.9,0,1.7,0.7,1.7,1.7v0L404.7,408.1L404.7,408.1z"/>
	<path class="st6" d="M320.6,410.6c-5.1,7.1-11.3,13.3-18.6,18.4c0.2-5.3-0.3-8.6-1.6-10.1l-0.1-9.8c0-0.6-0.4-1.2-1.1-1.4
		c-1.1-0.3-2.4-0.4-3.9-0.3l4.6,0c0.6,0,1.2-0.4,1.4-1c0.2-0.7,0.2-1.5,0-2.4c-0.1-0.6,0.3-1.3,0.9-1.4c0.1,0,0.3,0,0.5,0
		C309.8,403.9,315.7,406.6,320.6,410.6L320.6,410.6z"/>
	<path class="st3" d="M573.3,425.3c-0.6,0-1,0.1-1.2,0.2c-1.9,1.4-3.6,2.6-4.9,3.7c-0.4,0.3-1,0.6-1.5,0.7c-3.8,0.6-6.8-0.1-9.1-2.1
		c-6.1-5.3-7.3-11.9-3.8-19.9c0.6-1.4,1.9-2.2,3.4-2.3c6.2-0.1,11.8-0.2,16.9-0.3c5.1-0.1,10.7-0.2,16.9-0.2c1.5,0,2.8,0.8,3.5,2.2
		c3.8,7.9,2.7,14.6-3.2,20c-2.2,2-5.2,2.8-9,2.4c-0.6-0.1-1.1-0.3-1.5-0.6c-1.4-1-3.1-2.2-5.1-3.5
		C574.3,425.4,573.9,425.3,573.3,425.3L573.3,425.3z"/>
	<path class="st9" d="M295.4,407.4c1.5-0.1,2.8-0.1,3.9,0.3c0.6,0.2,1,0.7,1.1,1.4l0.1,9.8c-3.1,1.4-6.9,1.8-9.3,3.2
		c-5.2,3-7.9,7.4-8.2,13.1c-0.9,16.6,22.9,22.6,29.9,7.9c1.6-3.2,2.5-5.2,2.9-6c0.4-0.7,1.1-1.2,1.9-1.2l6.9-0.4
		c1.3-0.1,2.4,0.9,2.5,2.2c0,0.2,0,0.3,0,0.5c-2.2,13.8-9.4,22.2-21.5,25.2c-19.8,4.9-37.9-10.3-34.6-31.2
		C273,419.1,281.2,410.8,295.4,407.4L295.4,407.4z"/>
	<path class="st7" d="M555.5,408.9c3.3,7.7,8.3,11.9,15.2,12.3c8.6,0.6,15.9-3,18.2-11.9c0.2-0.7,0.9-1.1,1.6-1
		c0.4,0.1,0.7,0.4,0.9,0.8c3.3,7.9,1.6,13.8-4.9,17.8c-1.6,1-3.6,0.9-5.2-0.1l-4.4-3c-2.3-1.5-5.2-1.5-7.5-0.1
		c-3.1,2-5.8,4.5-9.2,3.3c-7.8-2.8-7.9-11.3-6-18.1c0.1-0.4,0.5-0.6,0.8-0.5C555.3,408.5,555.4,408.7,555.5,408.9L555.5,408.9z"/>
	<path class="st5" d="M572.7,408.5c4.6,0,9.3-0.1,14.3-0.1c0.3,0,0.5,0.2,0.5,0.5c0,0.1,0,0.1,0,0.2c-2.8,6.2-7.9,9.5-14.7,9.6
		c-6.7,0-11.8-3.3-14.8-9.4c-0.1-0.2,0-0.5,0.2-0.6c0.1,0,0.1,0,0.2,0C563.4,408.6,568.1,408.6,572.7,408.5L572.7,408.5z"/>
	<path class="st3" d="M320.6,410.6c1.3,0.9,1.9,1.7,1.8,2.6l-16.2,16.4c-0.4,0.4-0.4,1,0,1.3c0.2,0.2,0.4,0.3,0.7,0.3l24.1-0.7
		c1.9,1.9,1.6,3-1,3.5c-5,0.9-14,0.6-27-1c-0.5-0.1-1-0.4-1.3-0.9c-0.6-1.1-0.5-2.1,0.3-3.2C309.3,423.9,315.5,417.7,320.6,410.6
		L320.6,410.6z"/>
	<path class="st6" d="M331,430.5l-24.1,0.7c-0.5,0-1-0.4-1-0.9c0-0.3,0.1-0.5,0.3-0.7l16.2-16.4C326.5,416.6,332.4,424.6,331,430.5
		L331,430.5z"/>
	<path class="st0" d="M416.1,422.8c0,0.9-0.8,1.7-1.7,1.7h-68.3c-0.9,0-1.7-0.8-1.7-1.7V418c0-0.9,0.8-1.7,1.7-1.7h68.3
		c0.9,0,1.7,0.8,1.7,1.7V422.8z"/>
	<path class="st3" d="M928.9,424.4c21.4,4.8,35.7,17.2,42.8,37.1c3.3,9.4,3.9,19.1,1.9,29c-3.2,13.3-9.7,24.1-19.4,32.3
		c-14.6,11.6-31.1,15.1-49.3,10.6l-15.4-6.7c-13.7-9.1-22.2-21.4-25.7-37c-2.2-10.1-1-20.6,3.6-31.5c4.2-9.9,11.2-18.5,21.2-25.6
		C900,424.3,913.5,421.6,928.9,424.4L928.9,424.4z"/>
	<path class="st9" d="M916,452.9c-6.8-0.3-13.8-1.8-20.9-4.4c-0.3-0.1-0.5-0.5-0.4-0.8c0,0,0,0,0,0c3.8-9.1,11.5-20.3,21.7-21.6
		c0.5-0.1,0.9,0.3,1,0.7c0,0,0,0.1,0,0.1v24.6C917.4,452.3,916.8,452.9,916,452.9C916.1,452.9,916.1,452.9,916,452.9z"/>
	<path class="st9" d="M920.4,451.7L920,427c0-0.5,0.4-0.9,0.8-0.9c0,0,0.1,0,0.1,0c10.3,1.1,18.2,12.2,22.2,21.3
		c0.1,0.3,0,0.7-0.4,0.8c0,0,0,0,0,0c-7.2,2.7-14.1,4.3-21,4.7C921.1,453.1,920.5,452.5,920.4,451.7
		C920.4,451.8,920.4,451.7,920.4,451.7L920.4,451.7z"/>
	<path class="st9" d="M955.6,442.1c-2.1,2-5,3.5-8.8,4.6c-0.5,0.1-1-0.1-1.2-0.6c-3.5-7.5-8.3-13.6-14.3-18.3
		c-0.2-0.1-0.2-0.3-0.1-0.5c0.1-0.2,0.3-0.2,0.5-0.1l0,0c8.5,2.7,16.5,7.3,24,13.7C955.9,441.3,955.9,441.8,955.6,442.1
		C955.6,442.1,955.6,442.1,955.6,442.1L955.6,442.1z"/>
	<path class="st9" d="M903.1,428.2c0.3-0.1,0.7,0,0.8,0.4c0.1,0.3,0,0.5-0.2,0.7c-5.3,5.1-9.2,11-11.5,17.8
		c-0.2,0.5-0.7,0.8-1.3,0.6c-0.1,0-0.1-0.1-0.2-0.1l-8.2-5.3c-0.5-0.3-0.6-1-0.3-1.4c0-0.1,0.1-0.1,0.2-0.2
		C888.7,434.8,895.6,430.6,903.1,428.2L903.1,428.2z"/>
	<path class="st0" d="M402.5,436.3c0,1.5-1.2,2.7-2.7,2.7l-53.4,0.5c-1.5,0-2.7-1.2-2.7-2.7c0,0,0,0,0,0l0-2.7
		c0-1.5,1.2-2.7,2.7-2.7l53.4-0.5c1.5,0,2.7,1.2,2.7,2.7c0,0,0,0,0,0L402.5,436.3z"/>
	<path class="st7" d="M572.5,449.8c10.5,0.1,20.1-3.2,29-9.9c0.2-0.2,0.6-0.1,0.7,0.1c0.1,0.1,0.1,0.2,0.1,0.3
		c0.1,4.1,0.3,8.5,0.7,13.3c0.3,4,1.3,6.4,2.8,7.4c0.5,0.3,0.6,1,0.3,1.4c0,0,0,0.1-0.1,0.1c-8.4,10-21.7,15.2-33.9,15.1
		c-12.2-0.1-25.4-5.6-33.6-15.8c-0.4-0.4-0.3-1.1,0.1-1.5c0,0,0.1-0.1,0.1-0.1c1.6-1,2.6-3.4,3-7.3c0.5-4.8,0.8-9.3,1-13.3
		c0-0.3,0.2-0.5,0.5-0.5c0.1,0,0.2,0,0.3,0.1C552.4,446.2,562,449.7,572.5,449.8L572.5,449.8z"/>
	<path class="st9" d="M890.6,451.2c-2.5,8.8-5,16.8-5.3,25.8c0,0.7-0.6,1.2-1.3,1.2h-17.7c-0.5,0-0.9-0.4-0.9-0.9c0,0,0,0,0-0.1
		c0.9-12.9,5.4-24,13.5-33.3c0.5-0.6,1.5-0.7,2.1-0.3l9.1,6.2C890.6,450.1,890.8,450.6,890.6,451.2z"/>
	<path class="st9" d="M947.8,449.7l9-5.9c0.7-0.4,1.6-0.3,2.1,0.3c7.8,9.2,12.1,20.2,12.8,32.9c0,0.5-0.4,0.9-0.8,1c0,0,0,0-0.1,0
		l-17.4-0.2c-0.7,0-1.2-0.6-1.2-1.2c-0.2-8.8-2.5-16.7-4.8-25.4C947.2,450.5,947.4,450,947.8,449.7L947.8,449.7z"/>
	<path class="st0" d="M414.8,452.1c0,0.8-0.7,1.5-1.5,1.5c0,0,0,0,0,0l-38.4,0.5c-0.8,0-1.5-0.7-1.5-1.5c0,0,0,0,0,0l-0.1-4.8
		c0-0.8,0.7-1.5,1.5-1.5c0,0,0,0,0,0l38.4-0.5c0.8,0,1.5,0.7,1.5,1.5c0,0,0,0,0,0L414.8,452.1z"/>
	<path class="st6" d="M368,452.1c0,0.7-0.5,1.2-1.2,1.3h0l-20.9,0.3c-0.7,0-1.2-0.5-1.3-1.2l-0.1-5.3c0-0.7,0.5-1.2,1.2-1.3h0
		l20.9-0.3c0.7,0,1.2,0.5,1.3,1.2L368,452.1z"/>
	<path class="st9" d="M944.5,451.3c3.2,8.4,4.8,17,5.1,25.9c0,0.6-0.5,1.1-1.1,1.1c0,0,0,0,0,0h-26.9c-0.8,0-1.5-0.7-1.5-1.5
		c0,0,0,0,0,0v-19.9c0-0.6,0.5-1.2,1.1-1.2c7.7-0.3,15.1-1.9,22.3-4.8C944,450.7,944.4,450.9,944.5,451.3
		C944.5,451.3,944.5,451.3,944.5,451.3L944.5,451.3z"/>
	<path class="st9" d="M893.1,451.3c0.2-0.4,0.6-0.6,1-0.4c7.2,2.8,14.6,4.4,22.2,4.6c0.6,0,1.1,0.5,1.1,1.2l0.1,19.8
		c0,0.8-0.7,1.5-1.5,1.5l-26.7,0.1c-0.6,0-1.1-0.5-1.1-1.1c0,0,0,0,0,0C888.4,468.3,890,459.7,893.1,451.3L893.1,451.3z"/>
	<path class="st0" d="M387.2,466.8c0,1.1-0.9,1.9-1.9,1.9l-39.4-0.2c-1.1,0-1.9-0.9-1.9-1.9l0-4.8c0-1.1,0.9-1.9,1.9-1.9l39.4,0.2
		c1.1,0,1.9,0.9,1.9,1.9L387.2,466.8z"/>
	<path class="st0" d="M415.4,466c0,1.1-0.9,2-2,2l-17.4,0.2c-1.1,0-2-0.9-2-2l-0.1-3.9c0-1.1,0.9-2,2-2l17.4-0.2c1.1,0,2,0.9,2,2
		L415.4,466z"/>
	<path class="st9" d="M572.9,490.6c-18.4,0.1-35.1-8.2-46.7-22.4c-0.3-0.4-0.2-0.9,0.1-1.2c0.1,0,0.1-0.1,0.2-0.1l7.5-3.6
		c0.7-0.4,1.6-0.2,2.2,0.4c10.8,10.9,23,16.2,36.6,16.2c13.6-0.1,25.7-5.6,36.4-16.6c0.6-0.6,1.5-0.7,2.2-0.4l7.5,3.6
		c0.4,0.2,0.6,0.7,0.4,1.2c0,0.1-0.1,0.1-0.1,0.2C607.9,482,591.3,490.5,572.9,490.6L572.9,490.6z"/>
	<path class="st9" d="M479.6,553.1l-0.5,0c-0.3,0-0.6,0.2-0.6,0.5c0,0,0,0,0,0.1l5.1,81.1c0.1,1.6-0.1,3.2-0.7,4.7
		c-4.8,12.8-8.3,22.1-10.6,28.1c-3,7.8-5.8,13.2-8.4,16.1c-7.3,8-20.1,12.7-30.8,8.8c-11.3-4.1-18.8-14.4-26.6-23.6
		c-20.6-24-36.7-42.6-48.2-55.8c-0.5-0.6-0.6-1.5-0.1-2.2c1.1-1.5,2.7-3,4.8-4.5c0.4-0.3,0.8-0.6,1.1-1c6.3-6.6,11.1-11.5,14.2-14.7
		c3.5-3.5,7.2-5.8,9.3-10c0.3-0.6,1-0.8,1.6-0.5c0.1,0,0.2,0.1,0.3,0.2l58.9,55.6c0.4,0.4,1,0.3,1.4,0c0,0,0,0,0,0l0,0
		c0.4-0.4,0.3-1.1-0.1-1.4l-21.6-21.1c-0.4-0.4-0.6-1.1-0.4-1.7c11.3-41.8,19.9-74.1,25.7-96.7c3.8-14.8,12.7-25.2,26.7-31.1
		c14.3-6.1,28.3-11.3,42.1-15.6c0.4-0.1,0.9,0,1.2,0.4c12.7,16.2,33.1,25.9,53.9,24.1c17.5-1.6,32.3-9.7,44.3-24.3
		c0.3-0.4,0.9-0.6,1.4-0.4c14.2,4.5,27.8,9.6,40.9,15.2c14.1,6,23.1,16.5,27.2,31.4c8.4,30.6,16.2,59.4,23.4,86.2
		c0.2,0.9,1,2.9,2.1,5.9c0.2,0.5,0.1,1-0.3,1.3l-23.8,25.2c-0.2,0.2-0.2,0.6,0,0.8c0,0,0,0,0,0l0.5,0.5c0.5,0.4,1.2,0.4,1.6-0.1
		l53.1-56.3c0.6-0.7,1.6-0.7,2.3-0.1l33.3,29.1c0.3,0.2,0.3,0.7,0.1,1c-19.7,25.3-38.4,48.6-56,70.1c-16.9,20.6-44.6,16.8-54.1-8.3
		c-4.9-13.1-8.7-23-11.3-29.7c-0.5-1.2-0.6-3.7-0.4-7.5c1.5-26.3,3.1-52.7,4.8-79.2c0-0.6-0.4-1-0.9-1.1c0,0-0.1,0-0.1,0l-0.6,0
		c-0.4,0-0.7,0.3-0.7,0.7c-1.1,21-2.6,45-4.3,71.8c-1,15.1-1.1,31,0.2,47.5c0.6,7.3,1,15.2,1.3,23.7c0,0.4-0.3,0.8-0.7,0.8
		c0,0,0,0,0,0H484.2c-0.4,0-0.7-0.3-0.7-0.7c0,0,0,0,0-0.1c1.4-17,3.3-43.6,2.1-65.1c-1.6-29.9-3.2-55.4-4.7-76.7
		C480.9,553.7,480.3,553.1,479.6,553.1L479.6,553.1z"/>
	<path class="st3" d="M111.1,479.9c0,6.3-5.1,11.5-11.5,11.5l0,0c-6.3,0-11.5-5.1-11.5-11.5l0,0c0-6.3,5.1-11.5,11.5-11.5
		C105.9,468.4,111.1,473.6,111.1,479.9z"/>
	<path class="st2" d="M109.1,479.8c0,5.2-4.2,9.3-9.3,9.3c-5.2,0-9.3-4.2-9.3-9.3c0-5.2,4.2-9.3,9.3-9.3
		C104.9,470.4,109.1,474.6,109.1,479.8z"/>
	<path class="st9" d="M890.4,509l-9,6.2c-0.7,0.5-1.6,0.3-2.1-0.3c-8.1-9.2-12.7-20.2-13.7-33.1c0-0.5,0.3-0.9,0.8-1c0,0,0,0,0.1,0
		l17.7-0.2c0.7,0,1.2,0.5,1.3,1.2c0.4,8.9,2.9,16.9,5.5,25.6C891,508.1,890.8,508.7,890.4,509L890.4,509z"/>
	<path class="st9" d="M893.6,507.5c-3.1-8.3-4.7-16.8-5-25.6c0-0.6,0.4-1.1,1-1.1c0,0,0,0,0,0l26.5,0c0.8,0,1.5,0.7,1.5,1.5v0
		l0,19.7c0,0.6-0.5,1.2-1.1,1.2c-7.6,0.3-14.9,1.9-22,4.7C894.2,508.1,893.8,507.9,893.6,507.5C893.6,507.5,893.6,507.5,893.6,507.5
		L893.6,507.5z"/>
	<path class="st9" d="M944.2,507.4c-0.2,0.4-0.6,0.6-1,0.4c-7.2-2.8-14.6-4.3-22.1-4.6c-0.6,0-1.1-0.5-1.1-1.2l-0.1-19.7
		c0-0.8,0.7-1.5,1.5-1.5l0,0l26.6-0.1c0.6,0,1.1,0.5,1.1,1c0,0,0,0,0,0.1C948.9,490.5,947.3,499.1,944.2,507.4L944.2,507.4z"/>
	<path class="st9" d="M947.5,509.2c-0.4-0.3-0.6-0.9-0.5-1.4c2.4-8.8,4.8-16.8,5-25.6c0-0.7,0.6-1.2,1.2-1.2l17.6-0.2
		c0.5,0,0.9,0.4,0.9,0.9c0,0,0,0,0,0.1c-0.7,12.8-5.1,23.9-13.1,33.1c-0.5,0.6-1.4,0.8-2.1,0.3L947.5,509.2z"/>
	<path class="st4" d="M936.4,689.1c-3.3-9.5-6.3-20-9.7-28.2c-12.8-30.8-32.8-57-60.1-78.6c-7.6-6-13.3-10.1-17.2-12.3
		c0.1-1.1,0.6-2,1.6-2.8c11.7-8.5,20.7-17.1,26.8-25.9c4.9-7,8.7-11.9,11.5-14.7l15.4,6.7c10.5,7.2,21.4,5.8,33.3,2.3
		c7.4-2.1,12.8-6.4,16.1-12.9c9.7-8.2,16.1-18.9,19.4-32.3c14.5,22,21.7,46.1,21.4,72.3c-0.3,34.3-11.9,66.4-31.3,94.5
		C955.8,668.6,946.7,679.2,936.4,689.1L936.4,689.1z"/>
	<path class="st9" d="M917.6,507.5l-0.4,24.2c0,0.5-0.4,0.8-0.8,0.8c0,0-0.1,0-0.1,0c-10-1.5-17.5-12.6-21-21.7
		c-0.1-0.3,0-0.7,0.3-0.8c0,0,0,0,0,0c7.1-2.4,14-3.7,20.7-3.9C917,506.2,917.6,506.8,917.6,507.5
		C917.6,507.5,917.6,507.5,917.6,507.5L917.6,507.5z"/>
	<path class="st9" d="M920.2,507.2c0-0.7,0.6-1.3,1.3-1.3c0,0,0,0,0,0c6.8,0.2,13.7,1.6,20.9,4.1c0.3,0.1,0.5,0.5,0.4,0.8
		c0,0,0,0,0,0c-3.7,9.1-11.3,20.3-21.4,21.7c-0.5,0.1-0.9-0.3-1-0.7c0,0,0-0.1,0-0.1L920.2,507.2L920.2,507.2z"/>
	<path class="st9" d="M903.7,530.3c-7.6-2.3-14.5-6.4-20.9-12.3c-0.4-0.4-0.5-1-0.1-1.5c0.1-0.1,0.1-0.1,0.2-0.2l8.2-5.4
		c0.5-0.3,1.1-0.2,1.4,0.3c0,0.1,0.1,0.1,0.1,0.2c2.4,6.7,6.3,12.6,11.7,17.7c0.3,0.2,0.3,0.6,0,0.9
		C904.2,530.3,903.9,530.4,903.7,530.3L903.7,530.3z"/>
	<path class="st9" d="M932.5,530.1c5.8-5.3,10-11.5,12.7-18.5c0.2-0.6,0.8-0.8,1.4-0.6c0.1,0,0.1,0.1,0.2,0.1l8.6,5.8
		c0.5,0.3,0.6,1,0.3,1.5c0,0.1-0.1,0.1-0.2,0.2c-6.9,6.1-14.3,10.3-22.4,12.6c-0.4,0.1-0.7-0.1-0.8-0.5
		C932.3,530.6,932.3,530.3,932.5,530.1L932.5,530.1z"/>
	<path class="st5" d="M375.2,530.4h-14.1c-0.8,0-1.5,0.7-1.5,1.5l0,0v12.5c0,0.2-0.2,0.4-0.4,0.4c-0.1,0-0.2,0-0.3-0.1l-19.3-17.5
		c-0.1-0.1-0.2-0.2-0.4-0.2c-3.8-1.9-6.2-1.2-7.4,2.1c-0.2,0.6-0.7,1-1.3,1h-18.6c-0.5,0-0.9,0.4-0.9,0.9c0,0,0,0,0,0v11.3
		c0,0.6-0.4,1-1,1c-0.1,0-0.3,0-0.4-0.1l-16.4-7.1c-0.6-0.3-1-0.9-1-1.5v-3.5c0-0.8-0.6-1.4-1.4-1.4h-12.1c-0.5,0-0.9-0.4-0.9-0.9
		l0,0V515c0-0.5,0.4-0.9,0.9-0.9c0,0,0,0,0,0H325c0.5,0,0.9,0.4,0.9,0.9v12.4c0,0.7,0.6,1.3,1.2,1.3l0,0h0.5c0.7,0,1.2-0.5,1.2-1.2
		l0,0v-12.2c0-0.7,0.6-1.3,1.3-1.3h44.6c0.5,0,0.9,0.4,0.9,0.9l0,0v14.9C375.8,530.1,375.5,530.4,375.2,530.4L375.2,530.4z"/>
	<path class="st7" d="M813.6,551.8l0.1,0.2c0.4,0.6,1.2,0.9,1.9,0.5l31.3-16.8c0.2-0.1,0.3-0.2,0.5-0.2c2.5-0.6,4.7-0.8,6.6-0.6
		c1.5,0.2,2.6,1.5,2.5,3c-0.1,0.9-0.7,1.8-2,2.6c-2.7,1.7-6.2,2.9-9,4.6c-9.2,5.7-18.7,10.6-28.3,14.9c-0.5,0.2-0.7,0.8-0.5,1.3
		c0,0,0,0,0,0l0,0.1c0.2,0.5,0.8,0.7,1.3,0.5c10.4-4.3,21.1-9.9,32.2-16.8c0.7-0.4,1.1-0.6,1.4-0.7c1.8-0.2,3.4,1.1,3.6,2.9
		c0.1,0.9-0.2,1.8-0.7,2.5c-1.7,2-3.7,3.8-6.1,5.3c-8.4,5.2-18.4,10.3-30,15.3c-0.4,0.2-0.6,0.6-0.4,1c0,0.1,0.1,0.2,0.2,0.3
		l0.8,0.7c0.2,0.2,0.5,0.2,0.7,0.1l24.2-11.8c0.8-0.4,1.8-0.1,2.2,0.7c0.1,0.2,0.2,0.5,0.2,0.7v0.1c-0.1,2-1.1,3.8-2.7,5
		c-10.9,8-22.6,13.9-35,17.7c-8.5,2.6-14.3,4.4-17.5,5.3c-0.6,0.2-1.2,0.4-1.7,0.8c-3.4,2.2-6.1,5.1-8.2,8.7c-0.3,0.6-1,0.7-1.6,0.4
		c-0.1,0-0.1-0.1-0.2-0.1l-24.4-21.3c-0.6-0.5-0.7-1.5-0.3-2.2l6.3-8.7c0.1-0.2,0.2-0.4,0.3-0.5c2.7-8.4,4.2-13.5,9.2-19.5
		c4.9-5.8,12.6-14.1,23-24.7c1.1-1.1,2.9-1.1,4,0c0.2,0.2,0.4,0.5,0.6,0.8l0.1,0.1c0.9,2,0.8,4.4-0.5,6.3l-8.7,12.8
		c-0.8,1.2-0.5,2.9,0.7,3.8c0.4,0.3,0.9,0.4,1.4,0.5c4.7,0.3,8.7-0.2,12.1-1.4c11.7-4.2,22.8-9,33.4-14.6c1.8-0.9,3.6-1.6,5.6-2.1
		c2-0.5,3.2-0.5,3.5-0.3c1.2,0.9,1.3,2.7,0.2,4c-0.2,0.3-0.5,0.5-0.9,0.7c-7.7,4.7-17.9,10.3-30.8,16.8
		C813.5,550.8,813.4,551.4,813.6,551.8L813.6,551.8z"/>
	<path class="st7" d="M954.1,522.8c-3.3,6.5-8.7,10.8-16.1,12.9c-11.8,3.5-22.7,4.9-33.3-2.3C923.1,537.9,939.5,534.4,954.1,522.8
		L954.1,522.8z"/>
	<path class="st7" d="M289.4,567.9c-0.1-0.4,0.1-0.9,0.5-1c0.2-0.1,0.5,0,0.7,0.1c8.8,5.4,16.8,9.2,26.2,11.1
		c0.6,0.1,1.1-0.2,1.2-0.8l0-0.1c0.1-0.5-0.2-1-0.7-1.2c-7.9-2.3-13.9-4.6-18-6.9c-6.1-3.5-11-5.9-14.6-7.2c-1.9-0.7-3-2.8-2.3-4.8
		c0-0.1,0.1-0.2,0.1-0.2l0.3-0.6c0.5-1.1,1.8-1.7,3-1.2c0,0,0.1,0,0.1,0.1c10.1,5.3,20.7,9.7,31.7,13.4c0.7,0.2,1.5-0.1,1.8-0.8
		l0.2-0.5c0.1-0.3,0-0.7-0.4-0.9c0,0,0,0-0.1,0c-11.5-3.8-24.3-9.3-38.5-16.4c-0.5-0.3-1-0.8-1.2-1.3c-0.4-1.2-0.2-2.2,0.6-3.2
		c0.7-0.8,1.8-1.1,3.3-0.8c2.6,0.5,4.7,1.1,6.1,1.8c9.9,5,20.2,9.3,31,12.9c0.5,0.2,1.1-0.1,1.4-0.6l0.3-0.6c0.1-0.2,0-0.4-0.2-0.4
		l-32.3-14c-1.1-0.5-1.6-1.7-1.1-2.8c0.1-0.1,0.1-0.3,0.2-0.4l0.4-0.5c1-1.1,2.6-1.5,4-0.9c1.8,0.7,11.2,4.5,28.2,11.3
		c5.3,2.1,12.1,3.6,20.3,4.4c4.8,0.5,6.2-3.7,3.3-6.6c-3.7-3.6-14.4-14.9-10.2-18.9c0.9-0.9,2.3-0.9,3.1-0.1
		c5.1,5.1,11.9,11.1,20.2,17.9c8.9,7.3,14.7,15.6,17.4,24.9c0.3,1.1,1,2.2,1.8,3l5.8,5.5c0.5,0.5,0.5,1.3,0.1,1.9c0,0,0,0,0,0
		l-20.8,22.1c-0.5,0.5-1.2,0.5-1.7,0c0,0,0,0-0.1-0.1c-4-4.6-8.3-7.4-15.1-9.1c-11.9-3-24.4-7-37.4-12
		C302.1,580.9,291.6,574.9,289.4,567.9L289.4,567.9z"/>
	<path class="st9" d="M280.8,553.3l-16.7,0.2c-0.8,0-1.4-0.6-1.4-1.4c0,0,0,0,0,0l0-18.4c0-0.8,0.7-1.5,1.5-1.5h0h23.9
		c1,0,1.9,0.8,1.9,1.9c0,0.2,0,0.4-0.1,0.6c-0.9,2.6-3.2,2.6-3.8,6.1c-0.1,0.7-0.7,1.1-1.4,1.1c-1.6-0.1-3.5-0.6-5,0.4
		c-2.5,1.6-3.4,4.3-2.9,8.1c0.2,1.7,1.4,2.3,3.5,1.9c0.2,0,0.5,0.1,0.5,0.4c0,0,0,0.1,0,0.1L280.8,553.3
		C280.9,553.3,280.9,553.3,280.8,553.3z"/>
	<path class="st4" d="M341.6,552c-0.9,0.1-2.3,0-4.2-0.3c-7.1-1.2-14.3-3.2-21.6-6c-0.9-0.3-1.5-1.1-1.5-2.1l-0.4-8.7
		c0-0.9,0.6-1.6,1.5-1.6c0,0,0,0,0,0l14.7-0.7c0.6,0,1.1,0.3,1.4,0.9c2.2,5,5.9,10.4,11,16.2c0.5,0.6,0.4,1.5-0.1,2
		C342.1,551.8,341.8,551.9,341.6,552z"/>
	<path class="st6" d="M388.4,553.3c-10.9,0-16.8-0.1-17.7-0.3c-3.4-0.5-6.2-2.8-8.5-6.7c-0.1-0.2-0.2-0.4-0.2-0.6v-11.6
		c0-0.7,0.5-1.2,1.2-1.2h0H389c0.5,0,0.9,0.4,0.9,0.9l0,0v17.9C389.9,552.6,389.2,553.3,388.4,553.3L388.4,553.3z"/>
	<path class="st5" d="M372,556.2h2.5c0.5,0,1,0.4,1,1v6.3c0,0.3-0.2,0.5-0.5,0.5c-0.2,0-0.3-0.1-0.4-0.3l-3.2-6.5
		c-0.2-0.3,0-0.7,0.3-0.9C371.8,556.2,371.9,556.2,372,556.2L372,556.2z"/>
	<path class="st5" d="M277.4,557.6c0-0.5,0.4-0.9,0.9-0.9c0.4,0,0.8,0.3,0.9,0.6c1.1,3.9,3.1,6.5,6,7.9c0.3,0.1,0.5,0.3,0.6,0.6
		l2.2,5.3c0.1,0.3,0,0.6-0.3,0.7c-0.1,0-0.2,0-0.2,0l-8.8-0.4c-0.7,0-1.2-0.6-1.2-1.2V557.6z"/>
	<path class="st1" d="M128.3,581.9l-14.7,1.2c-0.1,0-0.2,0-0.3,0.1c-8.1,2.3-9.3,7.8-9,16.2c0.2,9.6,0.4,19.3,0.3,29.3
		c-3.1-3.9-6.6-9.3-10.6-16.2c-5.2-9.1-8.4-19.4-9.5-30.9c-0.9-9-1.3-16-1.2-20.9C96.6,569.7,111.6,576.8,128.3,581.9L128.3,581.9z"
		/>
	<path class="st6" d="M845.7,568.6l3.7,1.4c3.9,2.2,9.6,6.3,17.2,12.3c27.3,21.6,47.4,47.7,60.1,78.6c3.4,8.2,6.4,18.7,9.7,28.2
		c7,29.9,6.5,60.4-1.6,91.6c-9.9,38-30,71.4-56.4,99.6c-31,33-64.5,58.1-106.3,74.3c-32.4,12.5-70.7,17.6-105,10.4
		c-4.6-1-9-1.9-13-2.8c-12.8-3.6-23.3-7.7-31.5-12.2c-18.2-10-33.6-19.6-48.2-33.8c-8.7-8.5-18.5-20.4-29.5-35.8L532.7,859
		l104.5,0.3c0.6,0,1.1-0.5,1.2-1.1c0.6-9.1-2.4-15.6-9.1-19.4c-6.2-3.6-17.2-2.1-28.4-2.1c-1.1,0-2.1-0.6-2.5-1.6
		c-1.8-4.2-2.9-8.3-3.4-12.2c-1.3-11.4-2.5-23.1-3.6-35.1c-0.1-0.8,0.5-1.4,1.3-1.5c0,0,0.1,0,0.1,0h164c0.9,0,1.7,0.7,1.7,1.7
		c0,18.6-0.1,29-0.1,31.2c-0.3,8.1,0.3,13.3,1.9,15.8c2.8,4.5,7.5,6.6,14,6.2c0.6,0,1.1,0.4,1.1,1c0,0,0,0,0,0.1V865
		c0,0.7,0.6,1.3,1.3,1.3c0.3,0,0.7-0.1,0.9-0.4l22.6-24c0.6-0.6,1.5-1,2.4-1c18.7,0.2,42,0.2,69.8,0c12.4-0.1,16.9-4.4,16.8-17
		c-0.1-8.3-0.1-22,0-41.1c0-9.5-1.7-16.5-11.9-17.1c-3.4-0.2-16.4-0.2-38.8,0c-0.5,0-0.9-0.4-0.9-0.9c0,0,0-0.1,0-0.1
		c0.6-5.3,0.9-10.4,0.9-15.3c0-57.6-0.1-107-0.1-148.4c0-3.5-0.1-12.2-0.4-25.9c0-0.7,0.3-1.3,0.9-1.7L845.7,568.6L845.7,568.6z"/>
	<path class="st3" d="M778.7,578c-0.4,0.3-1,0.1-1.3-0.3c0,0,0,0,0-0.1l-0.3-0.5c-0.2-0.3-0.1-0.8,0.2-1c6.9-5.9,15.2-6.4,24.3-5.4
		c0.7,0.1,1.2,0.6,1.2,1.3v0.2c0,0.6-0.5,1.1-1.1,1.1c0,0-0.1,0-0.1,0c-6.2-0.6-12-0.2-17.2,1.3c-0.5,0.2-1,0.4-1.5,0.7L778.7,578z"
		/>
	<path class="st6" d="M290.6,593.8c0,0.8-0.6,1.4-1.4,1.4h0h-24.7c-0.8,0-1.4-0.6-1.4-1.4l0,0V576c0-0.8,0.6-1.4,1.4-1.4h0h24.7
		c0.8,0,1.4,0.6,1.4,1.4l0,0V593.8z"/>
	<path class="st3" d="M347.8,575.4c4.2,0.5,8.3,1.9,12.5,4c0.4,0.2,0.6,0.6,0.7,1.1c0.1,0.6-0.3,1.1-0.9,1.1c-0.2,0-0.4,0-0.5-0.1
		c-4.4-2-8.4-3.2-12.1-3.7c-3.7-0.5-7.9-0.3-12.6,0.5c-0.6,0.1-1.1-0.3-1.2-0.8c0-0.2,0-0.4,0-0.5c0.2-0.5,0.5-0.8,0.9-0.9
		C339.3,575.1,343.6,574.9,347.8,575.4L347.8,575.4z"/>
	<path class="st0" d="M385.6,575.7c1,0,1.7,0.1,2,0.2c0.4,0.2,0.6,0.6,0.4,1c0,0.1-0.1,0.2-0.1,0.2c-1,1-1.7,1.5-2.2,1.4
		c-0.5,0-1.3-0.5-2.2-1.5c-0.3-0.3-0.3-0.8,0-1.1c0.1-0.1,0.1-0.1,0.2-0.1C383.9,575.7,384.6,575.6,385.6,575.7L385.6,575.7z"/>
	<path class="st5" d="M389.7,577.1c-0.1-0.1-0.1-0.4,0-0.5l0.1-0.1c1.2-1.2,3-1.2,4.2-0.1c1.1,1.1,1.1,3-0.1,4.2c0,0,0,0,0,0
		l-0.1,0.1c-0.1,0.1-0.4,0.1-0.5,0L389.7,577.1L389.7,577.1z"/>
	<path class="st8" d="M731.5,700.6c22.7-1.2,38-1.5,46-1.2c8.9,0.4,17.7,0.6,26.4,0.4c1.4,0,2.6-1.2,2.6-2.6V589.1
		c0-0.6,0.4-1.2,1-1.3c9.2-3.1,17.9-7,26-11.7c0.6-0.3,1.4-0.1,1.7,0.5c0.1,0.2,0.2,0.4,0.2,0.6v148.1c0,1.5-1.2,2.7-2.7,2.7
		l-644.2,0c-1.1,0-2-0.9-2-2v-41.3c0-0.7,0.6-1.3,1.3-1.4c2.5-0.2,4.2,0.2,5.2,1.3c2.4,2.5,10.3,10.6,23.7,24.4
		c0.5,0.5,1.2,0.5,1.7,0c0.2-0.2,0.3-0.5,0.4-0.8l0.6-7.6c0-0.4,0.4-0.8,0.9-0.8c2,0,55.3-0.1,159.9-0.3c12.6,0,22.6,0.1,30,0.3
		c14.1,0.4,27.3-0.5,41.9-0.5c67.8,0,128.9-0.1,183.3-0.3c12.5,0,28.1,0.1,46.7,0.3c25.5,0.4,41.1,0.6,46.7,0.8
		c0.6,0,1.2,0.1,1.9,0.3C730.9,700.6,731.2,700.7,731.5,700.6L731.5,700.6z"/>
	<path class="st5" d="M278.1,598.6c0-0.5,0.4-0.9,0.9-0.9c0,0,0,0,0,0h12.3c0.9,0,1.7-0.7,1.7-1.7v-18.1c0-0.3,0.3-0.5,0.5-0.5
		c0.1,0,0.3,0.1,0.4,0.2c3.8,4.1,11.6,7.3,15.7,9c0.5,0.2,0.9,0.8,0.9,1.4v8.9c0,0.6,0.5,1.2,1.2,1.2l0,0H326c0.2,0,0.4,0.2,0.4,0.4
		v14.8c0,0.4-0.3,0.7-0.7,0.7h-44.9c-1.5,0-2.8-1.2-2.8-2.8l0,0V598.6z"/>
	<path class="st1" d="M216.4,703.6c0,0.2-0.2,0.4-0.4,0.4c-0.1,0-0.2,0-0.3-0.1l-22.9-21.6c-0.6-0.6-1.5-1-2.4-1
		c-18.6,0-41.3,0.1-68.2,0.3c-8.5,0.1-15.6-1.1-15.5-10.5c0.3-32.5,0.2-55.8-0.4-69.9c-0.4-10.3,1.8-16.4,13-16.4
		c31-0.1,65.6-0.1,103.7,0c4.4,0,7.5,2.6,9.4,7.9c0.1,0.4,0.2,0.9,0.2,1.3c-0.1,25.5-0.1,51.7,0.1,78.4c0.1,8.4-8.5,9.7-14.8,8.9
		c-0.7-0.1-1.4,0.4-1.5,1.1c0,0.1,0,0.1,0,0.2V703.6L216.4,703.6z"/>
	<path class="st1" d="M334.7,595.3h-20.1c-0.8,0-1.4-0.6-1.4-1.4l0,0v-4.6c0-0.4,0.4-0.8,0.8-0.8c0.1,0,0.2,0,0.2,0l20.6,6.3
		c0.2,0,0.3,0.2,0.2,0.3C335,595.2,334.8,595.3,334.7,595.3L334.7,595.3z"/>
	<path class="st5" d="M661.5,645.8c0-0.2,0.1-0.4,0.4-0.4c0.2,0,0.4,0.1,0.4,0.3c2.6,7.7,5.3,15.3,8.3,23.1
		c7.4,19.4,25.1,31.4,45.6,22.1c4.4-2,10.1-7.2,17.1-15.7c17.2-20.8,31.6-39.2,53.4-67.4c0.5-0.6,0.4-1.5-0.2-2
		c-0.1-0.1-0.1-0.1-0.2-0.1c-1.5-0.8-2.7-1.7-3.6-2.7c-0.4-0.4-0.4-1,0-1.5c3.4-4.5,6-8.1,11.3-9.5c3.1-0.8,6.1-1.7,9.1-2.6
		c0.4-0.1,0.7,0.1,0.9,0.4c0,0.1,0,0.1,0,0.2v105.3c0,1-0.8,1.7-1.7,1.7c0,0,0,0,0,0H664.7c-0.5,0-1-0.4-1-1L661.5,645.8
		L661.5,645.8z"/>
	<path class="st5" d="M355.8,613c0.2,0.4,0,0.8-0.4,1c-0.1,0-0.2,0.1-0.3,0.1h-24.4c-1.1,0-2.1-0.9-2.1-2.1c0-0.2,0-0.4,0.1-0.6
		c0.8-2.6,0.8-6.2,0-10.6c-0.3-1.4,0.7-2.8,2.1-3c0.2,0,0.5-0.1,0.7,0c3.5,0.4,7.6,0.8,11.6-0.4c5.4-1.6,11.9,4,15.3,7.7
		c0.5,0.5,0.4,1.3-0.1,1.8c-0.1,0.1-0.2,0.1-0.3,0.2C355.3,608.4,354.6,610.4,355.8,613L355.8,613z"/>
	<path class="st0" d="M32.8,602.7c15-7.1,36.9,7.8,49,33.2c0,0,0,0,0,0c12.1,25.4,9.7,51.8-5.2,58.9c0,0,0,0,0,0
		c-15,7.1-36.9-7.8-49-33.2l0,0C15.4,636.2,17.8,609.8,32.8,602.7C32.8,602.7,32.8,602.7,32.8,602.7L32.8,602.7z"/>
	<path class="st3" d="M204.3,604c0,0.6-0.5,1.2-1.2,1.2l-30,0.1c-0.6,0-1.2-0.5-1.2-1.2c0,0,0,0,0,0l0-0.3c0-0.6,0.5-1.2,1.2-1.2
		l30-0.1c0.6,0,1.2,0.5,1.2,1.2c0,0,0,0,0,0L204.3,604L204.3,604z"/>
	<path class="st8" d="M141.4,603.9c10-0.1,14.7,6.9,14.9,16.4c0.1,6.8-1.6,12.9-5.2,18.4c-2.4,3.6-5.5,5.5-9.4,5.5
		c-3.8,0-7-1.8-9.5-5.4c-3.7-5.4-5.5-11.5-5.5-18.3C126.8,611,131.4,604,141.4,603.9L141.4,603.9z"/>
	<path class="st3" d="M216.3,615.5c0,0.7-0.5,1.2-1.2,1.2c0,0,0,0,0,0l-41.9-0.3c-0.7,0-1.2-0.5-1.2-1.2l0-0.2
		c0-0.7,0.5-1.2,1.2-1.2c0,0,0,0,0,0l41.9,0.3c0.7,0,1.2,0.5,1.2,1.2L216.3,615.5z"/>
	<path class="st3" d="M216.8,627.1c0,0.6-0.5,1.2-1.2,1.2c0,0,0,0,0,0l-42.3,0.1c-0.6,0-1.2-0.5-1.2-1.2l0-0.2
		c0-0.6,0.5-1.2,1.2-1.2c0,0,0,0,0,0l42.3-0.1c0.6,0,1.2,0.5,1.2,1.2L216.8,627.1z"/>
	<path class="st3" d="M331.5,629.6c0,0.6-0.4,1-1,1c0,0,0,0,0,0l-69.8,0.2c-0.6,0-1-0.4-1-1l0,0l0-0.8c0-0.6,0.4-1,1-1c0,0,0,0,0,0
		l69.8-0.2c0.6,0,1,0.4,1,1l0,0L331.5,629.6z"/>
	<path class="st3" d="M216.4,638.2c0,0.6-0.5,1.1-1.1,1.1h0l-41.9,0.2c-0.6,0-1.1-0.5-1.1-1.1l0,0l0-0.2c0-0.6,0.5-1.1,1.1-1.1h0
		l41.9-0.2c0.6,0,1.1,0.5,1.1,1.1l0,0L216.4,638.2z"/>
	<path class="st0" d="M385,647.9c-7.4,1.3-14.8,1.2-22.2-0.4c-0.6-0.1-1.9,0.1-3.7,0.7c-0.1,0-0.2,0-0.3,0l-96.7,0.4
		c-1.3,0-2.4-1-2.4-2.3c0,0,0-0.1,0-0.1l0.2-3.9c0.1-1.2,1.1-2.1,2.3-2.1c0,0,0.1,0,0.1,0c8,0.7,16.1-0.5,24.8-0.4
		c16.7,0.3,41,0.3,72.8,0.1c6,0,11.6-0.8,16.7-2.3L385,647.9L385,647.9z"/>
	<path class="st3" d="M546.9,652.3c-6.8,1.5-13.7,2.8-20.7,3.8c-1.2,0.2-2.2-0.1-2.9-0.9c-0.4-0.4-0.4-1,0-1.3
		c0.2-0.2,0.4-0.2,0.6-0.3c8.3-0.9,15.8-2,22.5-3.5c6.7-1.5,14-3.7,21.9-6.4c0.5-0.2,1,0.1,1.2,0.6c0.1,0.2,0.1,0.4,0,0.6
		c-0.3,1-1.1,1.7-2.2,2C560.4,649,553.6,650.8,546.9,652.3z"/>
	<path class="st3" d="M585,666.3c-14.1,4.4-28.9,7.4-44.4,9.1c-1.2,0.1-2.2-0.1-3-0.7c-0.4-0.3-0.4-0.8-0.1-1.2
		c0.1-0.2,0.4-0.3,0.6-0.3c16-1.3,31.5-4.2,46.3-8.8c14.8-4.6,29.2-11,43.1-19.1c0.4-0.2,0.9-0.1,1.1,0.3c0.1,0.2,0.2,0.5,0.1,0.7
		c-0.3,0.9-0.9,1.7-2,2.3C613.1,656,599.2,661.9,585,666.3L585,666.3z"/>
	<path class="st5" d="M444.5,696.4c1.5-1,6.7-1.5,9.8-2.9c12.8-6,16.4-15.7,22.1-29.9c2.2-5.5,4.3-11.4,6.2-17.7
		c0.1-0.3,0.5-0.5,0.8-0.4c0.3,0.1,0.5,0.4,0.5,0.6l-2.2,50.3c0,0.3-0.2,0.5-0.5,0.5l-36.5,0c-0.2,0-0.3-0.2-0.3-0.3
		C444.3,696.6,444.4,696.5,444.5,696.4L444.5,696.4z"/>
	<path class="st8" d="M120.8,662.6c-0.1,0-0.2-0.1-0.2-0.2c0,0,0,0,0,0v-0.1c0.1-8.7,8.9-15.7,19.9-15.7h2.7
		c10.9,0.1,19.8,7.2,19.7,15.9c0,0,0,0,0,0v0.1c0,0.1-0.1,0.2-0.2,0.2L120.8,662.6L120.8,662.6z"/>
	<path class="st3" d="M216.7,649.9c0,0.7-0.6,1.3-1.3,1.3c0,0,0,0,0,0l-42,0.1c-0.7,0-1.3-0.6-1.3-1.3l0-0.1c0-0.7,0.6-1.3,1.3-1.3
		c0,0,0,0,0,0l42-0.1C216.1,648.6,216.7,649.2,216.7,649.9L216.7,649.9z"/>
	<path class="st0" d="M391.7,655.4l7.7,8.8l-139.2-0.1c-0.2,0-0.4-0.2-0.4-0.4c0,0,0,0,0,0l0.3-7.7c0-0.2,0.2-0.4,0.4-0.4
		L391.7,655.4L391.7,655.4z"/>
	<path class="st3" d="M192.4,661.4c0,0.7-0.5,1.2-1.2,1.2c0,0,0,0,0,0l-18.2,0c-0.7,0-1.2-0.5-1.2-1.2v-0.1c0-0.7,0.5-1.2,1.2-1.2
		c0,0,0,0,0,0l18.2,0C191.8,660.1,192.4,660.6,192.4,661.4L192.4,661.4z"/>
	<path class="st1" d="M431.6,859.1c0,1.1-0.8,2.2-2.5,3.3c-1.5,1-2.6,1.9-3.3,2.6c-12.2,12.8-26.5,23.3-43.1,31.4
		c-13.7,6.7-25.4,11.6-35.3,14.7c-11,3.5-24,7.8-38.9,12.9c-78.7,27.2-162.7-4.2-197.8-79.7C95.4,811.6,92,776.8,100.2,740
		c1.3-5.8,4.7-16.5,10.4-32.1c2.2-6.1,4-14.2,5.5-24.2l67,0c0.6,0,1.2,0.5,1.2,1.2l0,0c-0.2,25.2-0.2,50.7,0,76.4
		c0.1,8.1,3.1,14.6,9.2,19.5c0.2,0.2,0.3,0.5,0.1,0.7c-0.1,0.1-0.2,0.2-0.4,0.2c-7.9,0.5-11.9,4.6-11.9,12.4
		c-0.1,21.9-0.1,36.1,0,42.5c0.1,6.1,3.2,10,9.2,11.6c0.1,0,0.3,0.1,0.5,0.1l55.8-0.2c1.5,0,2.8,0.6,3.9,1.5l21.9,20.7
		c0.3,0.3,0.8,0.3,1.1,0c0.1-0.1,0.2-0.3,0.2-0.5v-20.6c0-0.4,0.4-0.8,0.8-0.8c5.4,0,9.4,0,12.5-5c1.1-1.7,1.6-4.9,1.6-9.6
		c0-18.6-0.2-32.4-0.4-41.3c0-1.2-0.4-2.9-1.2-4.9c-0.2-0.5,0.1-1,0.6-1.2c0.1,0,0.2-0.1,0.3-0.1c53.8,0.7,108.4,0.6,163.8-0.3
		c0.6,0,1,0.4,1,1c0,0,0,0.1,0,0.1c-1.1,15.9-2.4,32.7-7.6,47.9c-0.5,1.4-1.8,2.4-3.3,2.4c-9,0-20.6-1.5-27.4,1.9
		c-6.5,3.3-9.5,9.6-9.1,18.8c0,0.7,0.6,1.3,1.4,1.3L431.6,859.1L431.6,859.1z"/>
	<path class="st3" d="M917.9,727.2l13,0.7c0.4,0,0.7,0.3,0.7,0.7c0,0.4-0.3,0.7-0.7,0.7l-13,0.6c-0.4,0-0.7,0.3-0.7,0.7l-0.7,13
		c0,0.4-0.3,0.7-0.7,0.7c-0.4,0-0.7-0.3-0.7-0.7l-0.6-13c0-0.4-0.3-0.7-0.7-0.7l-13-0.7c-0.4,0-0.7-0.3-0.7-0.7
		c0-0.4,0.3-0.7,0.7-0.7l13-0.6c0.4,0,0.7-0.3,0.7-0.7l0.7-13c0-0.4,0.3-0.7,0.7-0.7c0.4,0,0.7,0.3,0.7,0.7l0.6,13
		C917.2,726.9,917.5,727.2,917.9,727.2z"/>
	<path class="st5" d="M834.7,730.5c0.3,0,0.5,0.2,0.5,0.5c0,0,0,0,0,0v33.1c0,0.9-0.7,1.7-1.7,1.7h-65.1c-0.2,0-0.5,0-0.7,0.1
		c-7.3,2.2-10.4,7.5-9.3,16.1c0.1,0.8-0.5,1.6-1.3,1.7c-0.1,0-0.1,0-0.2,0H285.9c-0.3,0-0.6-0.1-0.8-0.2c-2.4-1.2-5.8-1.7-10.2-1.7
		c-26.2,0.1-50.3,0.1-72.3,0.1c-8.2,0-14.2-9.3-15.2-16.5c-1.3-10-0.6-22.4-0.5-33.7c0-0.6,0.4-1,1-1h0H834.7z"/>
	<path class="st9" d="M779.3,860.2c-0.3,0.3-0.8,0.3-1.2,0c-0.2-0.2-0.3-0.4-0.3-0.6v-19.5c0-1.1-0.9-2-2-2c-0.1,0-0.2,0-0.3,0
		c-7.6,1.1-12.4-1.6-14.3-8.1c-0.2-0.6-0.3-1.2-0.3-1.8l-0.2-52.3c0-0.4,0.1-0.7,0.3-1.1c2.2-4.4,5.2-6.7,9.1-6.7
		c26.2-0.2,61.4-0.2,105.5-0.1c7.3,0,10.9,3.8,10.9,11.3c0,17.4,0,31,0,40.6c0,13.1-0.1,18.6-13.9,18.3c-21.9-0.4-45.6-0.3-71.1,0.3
		c-1.2,0-2.4,0.5-3.3,1.5L779.3,860.2L779.3,860.2z"/>
	<path class="st6" d="M271.3,864.4c0,0.2-0.1,0.3-0.3,0.3c-0.1,0-0.1,0-0.2-0.1L251.1,846c-0.3-0.3-0.7-0.5-1.2-0.5
		c-28.6,0-45.7,0-51.1,0c-8.5,0.1-15.2-0.2-15.1-11c0.1-15.3,0.1-28.6,0.1-39.8c0-7.4,3.6-11,10.8-10.8c1.2,0,27.7,0.1,79.2,0.1
		c6.7,0,12.6,1.5,12.6,9c-0.1,20-0.1,30.9,0,32.7c0.2,5-0.1,9.5-0.7,13.5c-1,6-7.2,6.6-12.3,6.2c-1.1-0.1-2,0.7-2.1,1.8
		c0,0,0,0.1,0,0.1L271.3,864.4L271.3,864.4z"/>
	<path class="st3" d="M868.1,786.9c0,0.5-0.4,1-1,1c0,0,0,0,0,0h-87.4c-0.5,0-1-0.4-1-1c0,0,0,0,0,0v-0.4c0-0.5,0.4-1,1-1
		c0,0,0,0,0,0h87.4c0.5,0,1,0.4,1,1c0,0,0,0,0,0V786.9z"/>
	<path class="st0" d="M589.9,798.6c-11.1,1-25.5,1.5-43,1.5c-44.6,0-75.5-0.2-92.6-0.6l0.8-12.9c0-0.5,0.4-0.9,0.9-0.9h131.4
		c0.9,0,1.6,0.7,1.7,1.6L589.9,798.6L589.9,798.6z"/>
	<path class="st5" d="M589.9,798.6c0.2,5.8,0.7,12,1.4,18.4c0.7,6.6,2.3,12.9,4.8,19.1c0.1,0.3,0,0.6-0.3,0.7c-0.1,0-0.1,0-0.2,0
		H447.4c-0.1,0-0.1-0.1-0.1-0.2c0,0,0,0,0,0c4-11.6,6.4-23.9,7-37.1c17.1,0.4,48,0.6,92.6,0.6C564.5,800.2,578.8,799.7,589.9,798.6
		L589.9,798.6z"/>
	<path class="st3" d="M214.7,798.7c12.6-0.1,14.5,17.3,2.3,21c-0.3,0.1-0.4,0.4-0.4,0.6c0.1,0.2,0.3,0.4,0.5,0.4
		c7.2,0.3,11.8,4,13.8,11c0.2,0.6-0.2,1.3-0.8,1.5l-0.1,0.1c-0.6,0.2-1.2-0.1-1.4-0.7c0,0,0,0,0,0c-2.2-7.1-6.9-9.1-13.7-9
		c-6.8,0.1-11.5,2.1-13.6,9.2c-0.2,0.6-0.8,0.9-1.4,0.8c0,0,0,0,0,0l-0.1-0.1c-0.6-0.2-1-0.8-0.8-1.5c1.9-7,6.4-10.8,13.6-11.2
		c0.3,0,0.5-0.2,0.6-0.5c0-0.3-0.2-0.5-0.5-0.6l0,0C200.5,816.2,202.1,798.8,214.7,798.7L214.7,798.7z"/>
	<path class="st3" d="M260,819.7l-4.5-0.1c-6.5-2.2-9.3-6.1-8.5-11.7c1.2-8.7,11.7-12.2,17.9-6C271.1,808.2,268.6,817.2,260,819.7z"
		/>
	<path class="st6" d="M211,801.7c3.9-1.9,8.7-0.1,10.7,4c1.9,4.1,0.3,8.9-3.6,10.8c-3.9,1.9-8.7,0.1-10.7-4S207.1,803.6,211,801.7z"
		/>
	<path class="st6" d="M265.4,809.3c0,4.4-3.6,8-8,8s-8-3.6-8-8c0-4.4,3.6-8,8-8S265.4,804.8,265.4,809.3z"/>
	<path class="st3" d="M868.8,802.9c0,0.7-0.6,1.2-1.2,1.2l-86.8-0.2c-0.7,0-1.2-0.6-1.2-1.2l0,0l0-0.1c0-0.7,0.6-1.2,1.2-1.2
		l86.8,0.2C868.3,801.6,868.8,802.1,868.8,802.9L868.8,802.9L868.8,802.9z"/>
	<path class="st3" d="M835,819c0,0.7-0.6,1.3-1.3,1.3l-53.1,0.1c-0.7,0-1.3-0.6-1.3-1.3l0-0.1c0-0.7,0.6-1.3,1.3-1.3l53.1-0.1
		C834.4,817.7,835,818.2,835,819L835,819z"/>
	<path class="st8" d="M260,819.7l0.9,1.1l-5.4-0.1v-1.1L260,819.7L260,819.7z"/>
	<path class="st3" d="M255.5,820.7l5.4,0.1c7.3,0.7,11.5,4.6,12.5,11.6c0.1,0.5-0.3,1-0.8,1.1l-0.1,0c-0.5,0.1-1-0.2-1.2-0.7
		c-1.5-4.3-3.1-6.8-4.8-7.6c-8.7-3.9-20.1-3.4-22.9,7.3c-0.1,0.5-0.7,0.8-1.2,0.7c-0.1,0-0.1,0-0.2-0.1l-0.1-0.1
		c-0.6-0.3-0.9-1-0.7-1.6C243.3,824.3,247.9,820.7,255.5,820.7L255.5,820.7z"/>
	<path class="st5" d="M408,856.5c-0.2,0-0.3-0.1-0.3-0.3v-0.1c0-9.2,7.7-16.7,17.2-16.7H619c9.5,0,17.2,7.5,17.2,16.7v0.1
		c0,0.2-0.1,0.3-0.3,0.3H408L408,856.5z"/>
	<path class="st4" d="M532.7,859l12.2,21.5c-5.1-0.1-8.5,0.1-10.4,0.6c-3.7,1-7.5,3.2-11.5,6.4c-6.2,5.1-11.8,9.4-16.8,12.9
		c-14,9.8-37.3,20.1-55.4,19c-5.6-0.3-9.8-0.4-12.7-0.1c-20.4-2.9-38.9-10.5-55.5-22.9c16.6-8.1,30.9-18.5,43.1-31.4
		c0.7-0.8,1.8-1.6,3.3-2.6c1.7-1.1,2.5-2.2,2.5-3.3L532.7,859L532.7,859z"/>
	<path class="st3" d="M702.8,872c0.5,0,0.8,0.2,1,0.6c0.1,0.1,0.1,0.3,0.1,0.4c0,0,0,4.3,0.1,12.8c0,0.2,0,0.2,0.2,0.3
		c0.2,0.2,0.1,0.2,0.3,0.2c8.5,0.2,12.7,0.2,12.8,0.3c0.1,0,0.3,0,0.4,0.1c0.4,0.2,0.6,0.6,0.6,1c0,0.5-0.2,0.8-0.6,1
		c-0.1,0.1-0.3,0.1-0.4,0.1c0,0-4.3,0.1-12.8,0.1c-0.2,0-0.1,0-0.3,0.2c-0.2,0.2-0.2,0.1-0.2,0.3c-0.1,8.5-0.2,12.7-0.2,12.7
		c0,0.1-0.1,0.3-0.1,0.4c-0.2,0.4-0.5,0.6-1,0.6c-0.5,0-0.8-0.2-1-0.6c-0.1-0.1-0.1-0.3-0.1-0.4c0,0-0.1-4.3-0.1-12.8
		c0-0.2,0-0.2-0.2-0.3c-0.2-0.2-0.1-0.2-0.3-0.2c-8.5-0.2-12.7-0.2-12.8-0.3c-0.1,0-0.3,0-0.4-0.1c-0.4-0.2-0.6-0.6-0.6-1
		c0-0.5,0.2-0.8,0.6-1c0.1-0.1,0.3-0.1,0.4-0.1c0,0,4.3-0.1,12.8-0.1c0.2,0,0.1,0,0.3-0.2c0.2-0.2,0.2-0.1,0.2-0.3
		c0.1-8.5,0.2-12.7,0.2-12.8c0-0.1,0.1-0.3,0.1-0.4C702,872.2,702.3,872,702.8,872z"/>
	<path class="st0" d="M544.9,880.4c11,15.4,20.8,27.3,29.5,35.8c14.6,14.2,30,23.8,48.2,33.8c8.2,4.5,18.7,8.5,31.5,12.2
		c-10.5,5.5-20,9.8-28.5,13c-44.5,16.6-98.4,18-139.9-6.9c-15.5-9.3-29.4-21.9-41.7-37.7c-2.5-3.2-4.4-6.9-5.8-11.2
		c2.9-0.2,7.1-0.2,12.7,0.1c18,1.1,41.3-9.2,55.4-19c5-3.5,10.6-7.8,16.8-12.9c4-3.3,7.8-5.4,11.5-6.4
		C536.3,880.5,539.8,880.3,544.9,880.4L544.9,880.4z"/>
	<path class="st4" d="M430.8,956.1c0.8,17.7-24.1,33.1-55.6,34.5c-31.5,1.4-57.6-11.9-58.4-29.5c0,0,0,0,0,0
		c-0.8-17.7,24.1-33.1,55.6-34.5C403.9,925.2,430,938.4,430.8,956.1C430.8,956.1,430.8,956.1,430.8,956.1L430.8,956.1z"/>
</g>
</svg>
